M48
; DRILL file {KiCad 9.0.0} date 2025-07-19T13:56:02-0400
; FORMAT={-:-/ absolute / metric / decimal}
; #@! TF.CreationDate,2025-07-19T13:56:02-04:00
; #@! TF.GenerationSoftware,Kicad,Pcbnew,9.0.0
; #@! TF.FileFunction,Plated,1,4,PTH
FMAT,2
METRIC
; #@! TA.AperFunction,Plated,PTH,ViaDrill
T1C0.300
; #@! TA.AperFunction,Plated,PTH,ViaDrill
T2C0.400
; #@! TA.AperFunction,Plated,PTH,ComponentDrill
T3C0.600
; #@! TA.AperFunction,Plated,PTH,ComponentDrill
T4C0.762
; #@! TA.AperFunction,Plated,PTH,ComponentDrill
T5C0.864
; #@! TA.AperFunction,Plated,PTH,ComponentDrill
T6C1.000
%
G90
G05
T1
X145.15Y-99.1
X147.8Y-100.35
T2
X106.68Y-106.68
X108.991Y-102.794
X111.76Y-91.44
X111.76Y-96.52
X111.76Y-106.68
X111.76Y-116.84
X114.3Y-86.36
X114.3Y-101.6
X114.3Y-111.76
X115.44Y-99.15
X115.621Y-82.017
X116.84Y-96.52
X117.1Y-116.73
X117.475Y-121.285
X118.11Y-71.12
X119.38Y-76.2
X119.38Y-106.68
X119.38Y-116.84
X120.0Y-89.74
X121.175Y-104.025
X121.32Y-91.09
X123.15Y-77.0
X123.175Y-118.275
X123.275Y-120.525
X123.61Y-91.94
X123.825Y-71.12
X124.46Y-96.52
X124.46Y-111.76
X124.95Y-107.4
X125.273Y-110.896
X125.755Y-99.746
X127.0Y-76.2
X129.54Y-71.12
X129.54Y-96.52
X130.48Y-99.06
X130.575Y-114.675
X130.71Y-91.02
X131.176Y-99.085
X131.572Y-88.925
X131.877Y-99.085
X132.025Y-95.2
X132.08Y-106.68
X132.08Y-111.76
X132.525Y-74.025
X132.563Y-99.111
X132.825Y-79.825
X133.223Y-99.111
X133.4Y-120.25
X133.909Y-116.027
X134.211Y-80.82
X134.518Y-79.908
X134.575Y-91.6
X134.62Y-76.2
X134.62Y-78.867
X134.62Y-101.6
X134.645Y-77.876
X134.925Y-95.225
X135.23Y-88.646
X136.775Y-104.925
X136.779Y-117.246
X137.16Y-71.12
X137.16Y-86.36
X137.236Y-120.955
X137.625Y-107.525
X137.719Y-79.148
X137.719Y-80.215
X137.719Y-81.282
X138.725Y-104.95
X138.887Y-74.778
X138.913Y-79.148
X138.913Y-80.168
X138.913Y-81.282
X139.522Y-75.921
X139.73Y-96.84
X140.106Y-79.148
X140.106Y-80.164
X140.106Y-81.282
X140.208Y-89.814
X140.487Y-85.903
X140.879Y-100.899
X140.881Y-101.816
X140.9Y-103.75
X141.039Y-91.897
X141.453Y-95.656
X141.605Y-71.12
X141.808Y-90.348
X142.011Y-96.215
X142.24Y-86.36
X142.24Y-98.12
X142.24Y-111.76
X142.265Y-98.958
X142.494Y-91.415
X142.596Y-74.473
X142.723Y-100.254
X142.8Y-105.95
X143.104Y-80.823
X143.129Y-79.502
X143.51Y-121.285
X143.561Y-77.241
X143.586Y-83.414
X143.7Y-87.925
X143.75Y-91.725
X144.018Y-80.162
X144.551Y-83.134
X144.78Y-71.12
X144.78Y-116.84
X144.913Y-68.017
X145.72Y-86.233
X145.898Y-71.272
X145.923Y-77.089
X146.1Y-98.31
X146.11Y-99.42
X146.15Y-97.25
X146.685Y-91.719
X146.685Y-119.38
X146.725Y-102.9
X146.925Y-75.25
X147.12Y-99.4
X147.13Y-98.302
X147.19Y-97.25
X147.32Y-106.68
X147.35Y-81.9
X147.726Y-77.076
X148.184Y-86.487
X148.185Y-99.398
X148.22Y-98.33
X148.24Y-97.28
X148.5Y-93.85
X148.539Y-72.542
X148.59Y-71.12
X148.6Y-96.1
X148.895Y-92.735
X148.946Y-84.557
X149.4Y-98.55
X149.4Y-99.95
X149.504Y-77.127
X149.6Y-107.6
X149.86Y-111.76
X149.86Y-121.285
X149.987Y-83.845
X150.673Y-90.856
X151.46Y-93.396
X151.9Y-68.017
X152.044Y-96.545
X152.07Y-94.9
X152.248Y-107.899
X152.298Y-98.069
X152.4Y-71.12
X152.857Y-117.272
X152.933Y-96.139
X153.01Y-100.94
X153.099Y-94.221
X153.137Y-93.294
X153.345Y-100.228
X154.0Y-91.796
X154.127Y-78.994
X154.178Y-97.282
X154.305Y-121.285
X154.94Y-111.76
X155.32Y-103.38
X155.55Y-98.908
X155.9Y-90.7
X156.1Y-119.27
X156.21Y-107.645
X156.261Y-99.67
X156.743Y-83.083
X156.769Y-94.59
X156.85Y-77.325
X157.328Y-74.701
X157.48Y-119.38
X158.699Y-103.53
X159.385Y-121.285
X159.425Y-78.175
X159.969Y-103.581
X160.02Y-71.12
X160.02Y-116.84
X161.442Y-103.581
X161.59Y-109.057
X162.56Y-76.2
X163.373Y-97.18
X163.373Y-100.635
X164.15Y-108.5
X164.287Y-73.736
X165.15Y-105.05
X165.735Y-121.285
X165.75Y-76.0
X165.775Y-79.025
X165.913Y-116.561
X166.624Y-102.006
X166.67Y-113.055
X167.64Y-96.52
X167.64Y-106.68
X168.275Y-71.12
X170.18Y-76.2
X172.136Y-95.682
X172.5Y-112.375
X172.72Y-106.68
X172.74Y-82.96
X172.79Y-85.08
X173.8Y-92.975
X173.863Y-111.963
X173.99Y-121.285
X174.25Y-117.55
X174.5Y-86.15
X175.25Y-92.6
X175.26Y-71.12
X176.26Y-92.62
X176.606Y-74.473
X176.809Y-98.4
X177.175Y-102.725
X177.8Y-111.76
X177.8Y-119.38
X180.188Y-100.686
X180.34Y-91.44
X180.34Y-96.52
X180.34Y-106.68
X180.34Y-116.84
X182.88Y-101.6
X183.515Y-114.3
X186.055Y-106.045
T4
X119.29Y-87.87
X121.29Y-87.87
X123.29Y-87.87
X125.29Y-87.87
T5
X161.59Y-111.71
X164.13Y-111.71
X166.67Y-111.71
X169.21Y-111.71
T6
X169.49Y-104.225
X172.03Y-104.225
T3
G00X142.1Y-116.16
M15
G01X142.1Y-115.06
M16
G05
G00X142.1Y-120.18
M15
G01X142.1Y-119.38
M16
G05
G00X150.74Y-116.16
M15
G01X150.74Y-115.06
M16
G05
G00X150.74Y-120.18
M15
G01X150.74Y-119.38
M16
G05
M30
