%TF.GenerationSoftware,KiCad,Pcbnew,9.0.0*%
%TF.CreationDate,2025-07-19T13:55:26-04:00*%
%TF.ProjectId,status,73746174-7573-42e6-9b69-6361645f7063,rev?*%
%TF.SameCoordinates,Original*%
%TF.FileFunction,Soldermask,Top*%
%TF.FilePolarity,Negative*%
%FSLAX46Y46*%
G04 Gerber Fmt 4.6, Leading zero omitted, Abs format (unit mm)*
G04 Created by KiCad (PCBNEW 9.0.0) date 2025-07-19 13:55:26*
%MOMM*%
%LPD*%
G01*
G04 APERTURE LIST*
G04 Aperture macros list*
%AMRoundRect*
0 Rectangle with rounded corners*
0 $1 Rounding radius*
0 $2 $3 $4 $5 $6 $7 $8 $9 X,Y pos of 4 corners*
0 Add a 4 corners polygon primitive as box body*
4,1,4,$2,$3,$4,$5,$6,$7,$8,$9,$2,$3,0*
0 Add four circle primitives for the rounded corners*
1,1,$1+$1,$2,$3*
1,1,$1+$1,$4,$5*
1,1,$1+$1,$6,$7*
1,1,$1+$1,$8,$9*
0 Add four rect primitives between the rounded corners*
20,1,$1+$1,$2,$3,$4,$5,0*
20,1,$1+$1,$4,$5,$6,$7,0*
20,1,$1+$1,$6,$7,$8,$9,0*
20,1,$1+$1,$8,$9,$2,$3,0*%
G04 Aperture macros list end*
%ADD10R,1.016000X0.304800*%
%ADD11R,0.304800X1.016000*%
%ADD12R,4.191000X4.191000*%
%ADD13O,0.900000X1.700000*%
%ADD14O,0.900000X2.000000*%
%ADD15R,0.600000X1.160000*%
%ADD16R,0.300000X1.160000*%
%ADD17C,0.600000*%
%ADD18RoundRect,0.102000X-0.500000X-0.375000X0.500000X-0.375000X0.500000X0.375000X-0.500000X0.375000X0*%
%ADD19R,3.200000X3.200000*%
%ADD20RoundRect,0.050000X0.050000X0.387500X-0.050000X0.387500X-0.050000X-0.387500X0.050000X-0.387500X0*%
%ADD21RoundRect,0.050000X0.387500X0.050000X-0.387500X0.050000X-0.387500X-0.050000X0.387500X-0.050000X0*%
%ADD22R,4.300000X3.400000*%
%ADD23RoundRect,0.125000X0.125000X-0.250000X0.125000X0.250000X-0.125000X0.250000X-0.125000X-0.250000X0*%
%ADD24RoundRect,0.140000X0.170000X-0.140000X0.170000X0.140000X-0.170000X0.140000X-0.170000X-0.140000X0*%
%ADD25RoundRect,0.135000X-0.185000X0.135000X-0.185000X-0.135000X0.185000X-0.135000X0.185000X0.135000X0*%
%ADD26RoundRect,0.135000X0.185000X-0.135000X0.185000X0.135000X-0.185000X0.135000X-0.185000X-0.135000X0*%
%ADD27RoundRect,0.135000X-0.135000X-0.185000X0.135000X-0.185000X0.135000X0.185000X-0.135000X0.185000X0*%
%ADD28RoundRect,0.140000X-0.170000X0.140000X-0.170000X-0.140000X0.170000X-0.140000X0.170000X0.140000X0*%
%ADD29RoundRect,0.147500X-0.172500X0.147500X-0.172500X-0.147500X0.172500X-0.147500X0.172500X0.147500X0*%
%ADD30C,1.371600*%
%ADD31R,1.524000X1.524000*%
%ADD32C,1.524000*%
%ADD33R,1.400000X1.100000*%
%ADD34R,1.700000X1.700000*%
%ADD35O,1.700000X1.700000*%
%ADD36RoundRect,0.102000X0.600000X0.700000X-0.600000X0.700000X-0.600000X-0.700000X0.600000X-0.700000X0*%
%ADD37RoundRect,0.135000X0.135000X0.185000X-0.135000X0.185000X-0.135000X-0.185000X0.135000X-0.185000X0*%
%ADD38RoundRect,0.076200X-0.550000X0.350000X-0.550000X-0.350000X0.550000X-0.350000X0.550000X0.350000X0*%
%ADD39RoundRect,0.076200X-0.465000X0.450000X-0.465000X-0.450000X0.465000X-0.450000X0.465000X0.450000X0*%
%ADD40RoundRect,0.076200X-0.390000X0.525000X-0.390000X-0.525000X0.390000X-0.525000X0.390000X0.525000X0*%
%ADD41RoundRect,0.076200X-0.915000X0.570000X-0.915000X-0.570000X0.915000X-0.570000X0.915000X0.570000X0*%
%ADD42RoundRect,0.076200X-1.400000X0.430000X-1.400000X-0.430000X1.400000X-0.430000X1.400000X0.430000X0*%
%ADD43RoundRect,0.076200X-1.665000X0.350000X-1.665000X-0.350000X1.665000X-0.350000X1.665000X0.350000X0*%
%ADD44RoundRect,0.140000X-0.140000X-0.170000X0.140000X-0.170000X0.140000X0.170000X-0.140000X0.170000X0*%
%ADD45R,0.700000X4.300000*%
G04 APERTURE END LIST*
D10*
%TO.C,U3*%
X141674000Y-82114001D03*
X141674000Y-81464000D03*
X141674000Y-80813999D03*
X141674000Y-80164000D03*
X141674000Y-79514001D03*
X141674000Y-78864000D03*
X141674000Y-78214001D03*
D11*
X140830001Y-77370000D03*
X140180000Y-77370000D03*
X139530001Y-77370000D03*
X138880000Y-77370000D03*
X138230001Y-77370000D03*
X137580000Y-77370000D03*
X136930001Y-77370000D03*
D10*
X136086000Y-78213999D03*
X136086000Y-78864000D03*
X136086000Y-79513999D03*
X136086000Y-80164000D03*
X136086000Y-80813999D03*
X136086000Y-81464000D03*
X136086000Y-82113999D03*
D11*
X136929999Y-82958000D03*
X137580000Y-82958000D03*
X138229999Y-82958000D03*
X138880000Y-82958000D03*
X139529999Y-82958000D03*
X140180000Y-82958000D03*
X140829999Y-82958000D03*
D12*
X138880000Y-80164000D03*
%TD*%
D13*
%TO.C,J6*%
X150740000Y-119780000D03*
D14*
X150740000Y-115610000D03*
D13*
X142100000Y-119780000D03*
D14*
X142100000Y-115610000D03*
D15*
X143220000Y-115030000D03*
X144020000Y-115030000D03*
D16*
X144670000Y-115030000D03*
X145670000Y-115030000D03*
X147170000Y-115030000D03*
X148170000Y-115030000D03*
D15*
X148820000Y-115030000D03*
X149620000Y-115030000D03*
X149620000Y-115030000D03*
X148820000Y-115030000D03*
D16*
X147670000Y-115030000D03*
X146670000Y-115030000D03*
X146170000Y-115030000D03*
X145170000Y-115030000D03*
D15*
X144020000Y-115030000D03*
X143220000Y-115030000D03*
D17*
X149310000Y-116090000D03*
X143530000Y-116090000D03*
%TD*%
D18*
%TO.C,S7*%
X123070000Y-114505000D03*
X117070000Y-114505000D03*
X123070000Y-110755000D03*
X117070000Y-110755000D03*
%TD*%
%TO.C,S8*%
X131300000Y-108875000D03*
X125300000Y-108875000D03*
X131300000Y-105125000D03*
X125300000Y-105125000D03*
%TD*%
%TO.C,S9*%
X131300000Y-120475000D03*
X125300000Y-120475000D03*
X131300000Y-116725000D03*
X125300000Y-116725000D03*
%TD*%
%TO.C,S10*%
X139900000Y-114575000D03*
X133900000Y-114575000D03*
X139900000Y-110825000D03*
X133900000Y-110825000D03*
%TD*%
%TO.C,S11*%
X123870000Y-99105000D03*
X117870000Y-99105000D03*
X123870000Y-95355000D03*
X117870000Y-95355000D03*
%TD*%
D19*
%TO.C,U2*%
X147130000Y-98302500D03*
D20*
X149730000Y-101740000D03*
X149330000Y-101740000D03*
X148930000Y-101740000D03*
X148530000Y-101740000D03*
X148130000Y-101740000D03*
X147730000Y-101740000D03*
X147330000Y-101740000D03*
X146930000Y-101740000D03*
X146530000Y-101740000D03*
X146130000Y-101740000D03*
X145730000Y-101740000D03*
X145330000Y-101740000D03*
X144930000Y-101740000D03*
X144530000Y-101740000D03*
D21*
X143692500Y-100902500D03*
X143692500Y-100502500D03*
X143692500Y-100102500D03*
X143692500Y-99702500D03*
X143692500Y-99302500D03*
X143692500Y-98902500D03*
X143692500Y-98502500D03*
X143692500Y-98102500D03*
X143692500Y-97702500D03*
X143692500Y-97302500D03*
X143692500Y-96902500D03*
X143692500Y-96502500D03*
X143692500Y-96102500D03*
X143692500Y-95702500D03*
D20*
X144530000Y-94865000D03*
X144930000Y-94865000D03*
X145330000Y-94865000D03*
X145730000Y-94865000D03*
X146130000Y-94865000D03*
X146530000Y-94865000D03*
X146930000Y-94865000D03*
X147330000Y-94865000D03*
X147730000Y-94865000D03*
X148130000Y-94865000D03*
X148530000Y-94865000D03*
X148930000Y-94865000D03*
X149330000Y-94865000D03*
X149730000Y-94865000D03*
D21*
X150567500Y-95702500D03*
X150567500Y-96102500D03*
X150567500Y-96502500D03*
X150567500Y-96902500D03*
X150567500Y-97302500D03*
X150567500Y-97702500D03*
X150567500Y-98102500D03*
X150567500Y-98502500D03*
X150567500Y-98902500D03*
X150567500Y-99302500D03*
X150567500Y-99702500D03*
X150567500Y-100102500D03*
X150567500Y-100502500D03*
X150567500Y-100902500D03*
%TD*%
D22*
%TO.C,U4*%
X159975449Y-99656000D03*
D23*
X158070449Y-96956000D03*
X159340449Y-96956000D03*
X160610449Y-96956000D03*
X161880449Y-96956000D03*
X161880449Y-102356000D03*
X160610449Y-102356000D03*
X159340449Y-102356000D03*
X158070449Y-102356000D03*
%TD*%
D24*
%TO.C,C15*%
X153350000Y-98300000D03*
X153350000Y-97340000D03*
%TD*%
%TO.C,C7*%
X152146000Y-101876800D03*
X152146000Y-100916800D03*
%TD*%
D25*
%TO.C,R13*%
X145923000Y-78486000D03*
X145923000Y-79506000D03*
%TD*%
D26*
%TO.C,R8*%
X125300000Y-114810000D03*
X125300000Y-113790000D03*
%TD*%
D27*
%TO.C,R7*%
X117080000Y-107080000D03*
X118100000Y-107080000D03*
%TD*%
D28*
%TO.C,C5*%
X147713700Y-78496000D03*
X147713700Y-79456000D03*
%TD*%
D24*
%TO.C,C12*%
X141846600Y-102775600D03*
X141846600Y-101815600D03*
%TD*%
D28*
%TO.C,C10*%
X144805400Y-90756800D03*
X144805400Y-91716800D03*
%TD*%
D26*
%TO.C,R3*%
X146125000Y-88710000D03*
X146125000Y-87690000D03*
%TD*%
D24*
%TO.C,C22*%
X131500000Y-84530000D03*
X131500000Y-83570000D03*
%TD*%
D29*
%TO.C,D1*%
X156100000Y-114840000D03*
X156100000Y-115810000D03*
%TD*%
D24*
%TO.C,C9*%
X143800000Y-107030000D03*
X143800000Y-106070000D03*
%TD*%
D28*
%TO.C,C14*%
X141833600Y-99900800D03*
X141833600Y-100860800D03*
%TD*%
D25*
%TO.C,R14*%
X156100000Y-117340000D03*
X156100000Y-118360000D03*
%TD*%
D30*
%TO.C,J2*%
X161590000Y-111710500D03*
X164130000Y-111710500D03*
X166670000Y-111710500D03*
X169210000Y-111710500D03*
%TD*%
D26*
%TO.C,R15*%
X114225000Y-95320000D03*
X114225000Y-94300000D03*
%TD*%
D27*
%TO.C,R9*%
X133870000Y-107180000D03*
X134890000Y-107180000D03*
%TD*%
D31*
%TO.C,J3*%
X125290000Y-87870000D03*
D32*
X123290000Y-87870000D03*
X121290000Y-87870000D03*
X119290000Y-87870000D03*
%TD*%
D33*
%TO.C,X1*%
X148150400Y-89133701D03*
X150350400Y-89133701D03*
X150350400Y-87533699D03*
X148150400Y-87533699D03*
%TD*%
D28*
%TO.C,C4*%
X149504400Y-78496000D03*
X149504400Y-79456000D03*
%TD*%
D34*
%TO.C,J7*%
X169490000Y-104225000D03*
D35*
X172030000Y-104225000D03*
%TD*%
D25*
%TO.C,R5*%
X145150000Y-104646000D03*
X145150000Y-105666000D03*
%TD*%
D28*
%TO.C,C18*%
X145150000Y-87720000D03*
X145150000Y-88680000D03*
%TD*%
%TO.C,C6*%
X128250000Y-78795000D03*
X128250000Y-79755000D03*
%TD*%
%TO.C,C17*%
X158115000Y-93627000D03*
X158115000Y-94587000D03*
%TD*%
D24*
%TO.C,C13*%
X141850000Y-104680000D03*
X141850000Y-103720000D03*
%TD*%
D36*
%TO.C,Y1*%
X131400000Y-82075000D03*
X131400000Y-79875000D03*
X129700000Y-79875000D03*
X129700000Y-82075000D03*
%TD*%
D28*
%TO.C,C20*%
X145821400Y-90756800D03*
X145821400Y-91716800D03*
%TD*%
D25*
%TO.C,R4*%
X146600000Y-104646000D03*
X146600000Y-105666000D03*
%TD*%
D37*
%TO.C,R10*%
X125310000Y-103400000D03*
X124290000Y-103400000D03*
%TD*%
D25*
%TO.C,R11*%
X144780000Y-112266000D03*
X144780000Y-113286000D03*
%TD*%
D38*
%TO.C,J4*%
X170570000Y-81790000D03*
X170570000Y-82890000D03*
X170570000Y-83990000D03*
X170570000Y-85090000D03*
X170570000Y-86190000D03*
X170570000Y-87290000D03*
X170570000Y-88390000D03*
X170570000Y-89490000D03*
D39*
X158105000Y-80000000D03*
D40*
X158030000Y-84265000D03*
D41*
X170555000Y-77910000D03*
D42*
X170070000Y-90570000D03*
D43*
X159305000Y-77690000D03*
X159305000Y-90650000D03*
%TD*%
D37*
%TO.C,R6*%
X156339000Y-102362000D03*
X155319000Y-102362000D03*
%TD*%
D25*
%TO.C,R12*%
X148160000Y-112266000D03*
X148160000Y-113286000D03*
%TD*%
D44*
%TO.C,C23*%
X148084600Y-91160600D03*
X149044600Y-91160600D03*
%TD*%
D24*
%TO.C,C8*%
X148350000Y-107180000D03*
X148350000Y-106220000D03*
%TD*%
%TO.C,C16*%
X140919200Y-98244600D03*
X140919200Y-97284600D03*
%TD*%
%TO.C,C3*%
X150926800Y-73530400D03*
X150926800Y-72570400D03*
%TD*%
D45*
%TO.C,J1*%
X136913000Y-64138595D03*
X137913000Y-64138595D03*
X138913000Y-64138595D03*
X139913000Y-64138595D03*
X140913000Y-64138595D03*
X141913000Y-64138595D03*
X142913000Y-64138595D03*
X143913000Y-64138595D03*
X144913000Y-64138595D03*
X145913000Y-64138595D03*
X146913000Y-64138595D03*
X149913000Y-64138595D03*
X150913000Y-64138595D03*
X151913000Y-64138595D03*
X152913000Y-64138595D03*
X153913000Y-64138595D03*
X154913000Y-64138595D03*
X155913000Y-64138595D03*
%TD*%
M02*
