<?xml version="1.0" encoding="UTF-8" standalone="no"?>
<svg
   version="1.1"
   width="84.351288mm"
   height="61.9814mm"
   viewBox="0 0 84.351285 61.981398"
   id="svg480"
   sodipodi:docname="pcbb.svg"
   xmlns:inkscape="http://www.inkscape.org/namespaces/inkscape"
   xmlns:sodipodi="http://sodipodi.sourceforge.net/DTD/sodipodi-0.dtd"
   xmlns="http://www.w3.org/2000/svg"
   xmlns:svg="http://www.w3.org/2000/svg">
  <defs
     id="defs484" />
  <sodipodi:namedview
     id="namedview482"
     pagecolor="#ffffff"
     bordercolor="#000000"
     borderopacity="0.25"
     inkscape:showpageshadow="2"
     inkscape:pageopacity="0.0"
     inkscape:pagecheckerboard="0"
     inkscape:deskcolor="#d1d1d1"
     inkscape:document-units="mm" />
  <title
     id="title2">SVG Image created as pcbb.svg date 2025-03-29T22:53:40+0000 </title>
  <desc
     id="desc4">Image generated by PCBNEW </desc>
  <g
     style="fill:#000000;fill-opacity:1;stroke:#000000;stroke-linecap:round;stroke-linejoin:round;stroke-opacity:1"
     id="g8"
     transform="translate(0.02311463,-1.0636)">
    <path
       style="fill:#4d7fc4;fill-opacity:1;fill-rule:evenodd;stroke:none"
       d="M 17.7653,56.525 17.7482,56.4389 17.6994,56.3659 17.6264,56.3171 17.5403,56.3 h -0.45 l -0.0861,0.0171 -0.073,0.0488 -0.0487,0.073 -0.0172,0.0861 v 0.95 l 0.0172,0.0861 0.0487,0.073 0.073,0.0488 0.0861,0.0171 h 0.45 l 0.0861,-0.0171 0.073,-0.0488 0.0488,-0.073 0.0171,-0.0861 z"
       id="path6" />
  </g>
  <g
     style="fill:none;stroke:#4d7fc4;stroke-width:0.9;stroke-linecap:round;stroke-linejoin:round;stroke-opacity:1"
     id="g56"
     transform="translate(0.02311463,-1.0636)">
    <path
       d="m 16.0653,56.75 v 0.5"
       id="path10" />
    <path
       d="m 46.4753,56.745 v -1.1"
       id="path12" />
    <path
       d="m 46.4753,60.765 v -0.8"
       id="path14" />
    <path
       d="m 37.8353,56.745 v -1.1"
       id="path16" />
    <path
       d="m 37.8353,60.765 v -0.8"
       id="path18" />
    <path
       style="fill:#4d7fc4;fill-opacity:1;fill-rule:evenodd;stroke:none"
       d="m 52.0023,6.7886 v -4.3 h -0.7 v 4.3 z"
       id="path20" />
    <path
       style="fill:#4d7fc4;fill-opacity:1;fill-rule:evenodd;stroke:none"
       d="m 51.0023,6.7886 v -4.3 h -0.7 v 4.3 z"
       id="path22" />
    <path
       style="fill:#4d7fc4;fill-opacity:1;fill-rule:evenodd;stroke:none"
       d="m 50.0023,6.7886 v -4.3 h -0.7 v 4.3 z"
       id="path24" />
    <path
       style="fill:#4d7fc4;fill-opacity:1;fill-rule:evenodd;stroke:none"
       d="m 49.0023,6.7886 v -4.3 h -0.7 v 4.3 z"
       id="path26" />
    <path
       style="fill:#4d7fc4;fill-opacity:1;fill-rule:evenodd;stroke:none"
       d="m 48.0023,6.7886 v -4.3 h -0.7 v 4.3 z"
       id="path28" />
    <path
       style="fill:#4d7fc4;fill-opacity:1;fill-rule:evenodd;stroke:none"
       d="m 47.0023,6.7886 v -4.3 h -0.7 v 4.3 z"
       id="path30" />
    <path
       style="fill:#4d7fc4;fill-opacity:1;fill-rule:evenodd;stroke:none"
       d="m 46.0023,6.7886 v -4.3 h -0.7 v 4.3 z"
       id="path32" />
    <path
       style="fill:#4d7fc4;fill-opacity:1;fill-rule:evenodd;stroke:none"
       d="m 45.0023,6.7886 v -4.3 h -0.7 v 4.3 z"
       id="path34" />
    <path
       style="fill:#4d7fc4;fill-opacity:1;fill-rule:evenodd;stroke:none"
       d="m 44.0023,6.7886 v -4.3 h -0.7 v 4.3 z"
       id="path36" />
    <path
       style="fill:#4d7fc4;fill-opacity:1;fill-rule:evenodd;stroke:none"
       d="m 43.0023,6.7886 v -4.3 h -0.7 v 4.3 z"
       id="path38" />
    <path
       style="fill:#4d7fc4;fill-opacity:1;fill-rule:evenodd;stroke:none"
       d="m 42.0023,6.7886 v -4.3 h -0.7 v 4.3 z"
       id="path40" />
    <path
       style="fill:#4d7fc4;fill-opacity:1;fill-rule:evenodd;stroke:none"
       d="m 39.0023,6.7886 v -4.3 h -0.7 v 4.3 z"
       id="path42" />
    <path
       style="fill:#4d7fc4;fill-opacity:1;fill-rule:evenodd;stroke:none"
       d="m 38.0023,6.7886 v -4.3 h -0.7 v 4.3 z"
       id="path44" />
    <path
       style="fill:#4d7fc4;fill-opacity:1;fill-rule:evenodd;stroke:none"
       d="m 37.0023,6.7886 v -4.3 h -0.7 v 4.3 z"
       id="path46" />
    <path
       style="fill:#4d7fc4;fill-opacity:1;fill-rule:evenodd;stroke:none"
       d="m 36.0023,6.7886 v -4.3 h -0.7 v 4.3 z"
       id="path48" />
    <path
       style="fill:#4d7fc4;fill-opacity:1;fill-rule:evenodd;stroke:none"
       d="m 35.0023,6.7886 v -4.3 h -0.7 v 4.3 z"
       id="path50" />
    <path
       style="fill:#4d7fc4;fill-opacity:1;fill-rule:evenodd;stroke:none"
       d="m 34.0023,6.7886 v -4.3 h -0.7 v 4.3 z"
       id="path52" />
    <path
       style="fill:#4d7fc4;fill-opacity:1;fill-rule:evenodd;stroke:none"
       d="m 33.0023,6.7886 v -4.3 h -0.7 v 4.3 z"
       id="path54" />
  </g>
  <g
     style="fill:#4d7fc4;fill-opacity:1;stroke:none"
     id="g60"
     transform="translate(0.02311463,-1.0636)">
    <circle
       cx="36.617802"
       cy="39.8125"
       r="0.15000001"
       id="circle58" />
  </g>
  <g
     style="fill:#4d7fc4;fill-opacity:1;stroke:none"
     id="g64"
     transform="translate(0.02311463,-1.0636)">
    <circle
       cx="64.795303"
       cy="36.130001"
       r="0.2"
       id="circle62" />
  </g>
  <g
     style="fill:#4d7fc4;fill-opacity:1;stroke:none"
     id="g68"
     transform="translate(0.02311463,-1.0636)">
    <circle
       cx="47.140301"
       cy="24.575001"
       r="0.2"
       id="circle66" />
  </g>
  <g
     style="fill:#4d7fc4;fill-opacity:1;stroke:none"
     id="g72"
     transform="translate(0.02311463,-1.0636)">
    <circle
       cx="46.483101"
       cy="24.575001"
       r="0.2"
       id="circle70" />
  </g>
  <g
     style="fill:#4d7fc4;fill-opacity:1;stroke:none"
     id="g76"
     transform="translate(0.02311463,-1.0636)">
    <circle
       cx="35.455299"
       cy="39.41"
       r="0.15000001"
       id="circle74" />
  </g>
  <g
     style="fill:#4d7fc4;fill-opacity:1;stroke:none"
     id="g80"
     transform="translate(0.02311463,-1.0636)">
    <circle
       cx="69.605301"
       cy="31.77"
       r="0.2"
       id="circle78" />
  </g>
  <g
     style="fill:#4d7fc4;fill-opacity:1;stroke:none"
     id="g84"
     transform="translate(0.02311463,-1.0636)">
    <circle
       cx="41.255299"
       cy="33.77"
       r="0.2"
       id="circle82" />
  </g>
  <g
     style="fill:#4d7fc4;fill-opacity:1;stroke:none"
     id="g88"
     transform="translate(0.02311463,-1.0636)">
    <circle
       cx="48.1553"
       cy="39.18"
       r="0.2"
       id="circle86" />
  </g>
  <g
     style="fill:#4d7fc4;fill-opacity:1;stroke:none"
     id="g92"
     transform="translate(0.02311463,-1.0636)">
    <circle
       cx="43.1278"
       cy="14.1125"
       r="0.2"
       id="circle90" />
  </g>
  <g
     style="fill:#4d7fc4;fill-opacity:1;stroke:none"
     id="g96"
     transform="translate(0.02311463,-1.0636)">
    <circle
       cx="52.358101"
       cy="21.2822"
       r="0.2"
       id="circle94" />
  </g>
  <g
     style="fill:#4d7fc4;fill-opacity:1;stroke:none"
     id="g100"
     transform="translate(0.02311463,-1.0636)">
    <circle
       cx="44.375301"
       cy="20"
       r="0.2"
       id="circle98" />
  </g>
  <g
     style="fill:#4d7fc4;fill-opacity:1;stroke:none"
     id="g104"
     transform="translate(0.02311463,-1.0636)">
    <circle
       cx="47.7831"
       cy="16.4"
       r="0.2"
       id="circle102" />
  </g>
  <g
     style="fill:none;stroke:#4d7fc4;stroke-width:0.3;stroke-linecap:round;stroke-linejoin:round;stroke-opacity:1"
     id="g124"
     transform="translate(0.02311463,-1.0636)">
    <path
       d="M 36.6153,36.02 47.1403,25.495"
       id="path106" />
    <path
       d="m 64.8053,36.82 -2.9925,2.9925"
       id="path108" />
    <path
       d="m 47.1403,25.495 v -0.92"
       id="path110" />
    <path
       d="m 64.7953,36.24 0.01,0.01"
       id="path112" />
    <path
       d="M 61.8128,39.8125 H 36.6178"
       id="path114" />
    <path
       d="m 64.8053,36.25 v 0.57"
       id="path116" />
    <path
       d="M 36.6178,39.8125 36.6153,39.81"
       id="path118" />
    <path
       d="m 64.7953,36.13 v 0.11"
       id="path120" />
    <path
       d="M 36.6153,39.81 V 36.02"
       id="path122" />
  </g>
  <g
     style="fill:none;stroke:#4d7fc4;stroke-width:0.2;stroke-linecap:round;stroke-linejoin:round;stroke-opacity:1"
     id="g128"
     transform="translate(0.02311463,-1.0636)">
    <path
       d="m 64.7953,36.13 h 0.03"
       id="path126" />
  </g>
  <g
     style="fill:none;stroke:#4d7fc4;stroke-width:0.3;stroke-linecap:round;stroke-linejoin:round;stroke-opacity:1"
     id="g164"
     transform="translate(0.02311463,-1.0636)">
    <path
       d="m 35.4553,39.41 v 0.28"
       id="path130" />
    <path
       d="m 67.8153,40.6 2.19,-2.19"
       id="path132" />
    <path
       d="M 70.0053,38.41 V 32.17"
       id="path134" />
    <path
       d="M 35.4553,36.26 46.4831,25.2322"
       id="path136" />
    <path
       d="M 46.4831,25.2322 V 24.575"
       id="path138" />
    <path
       d="m 35.4553,39.69 0.9,0.9"
       id="path140" />
    <path
       d="m 37.8153,40.59 0.01,0.01"
       id="path142" />
    <path
       d="M 35.4553,39.41 V 36.26"
       id="path144" />
    <path
       d="m 37.8253,40.6 h 29.99"
       id="path146" />
    <path
       d="m 36.3553,40.59 h 1.46"
       id="path148" />
    <path
       d="m 70.0053,32.17 -0.4,-0.4"
       id="path150" />
    <path
       d="m 41.2553,33.77 v 0.1"
       id="path152" />
    <path
       d="m 41.2553,33.87 0.01,0.01"
       id="path154" />
    <path
       d="m 41.2653,36.01 3.17,3.17"
       id="path156" />
    <path
       d="m 41.2553,33.77 -0.03,0.03"
       id="path158" />
    <path
       d="m 44.4353,39.18 h 3.72"
       id="path160" />
    <path
       d="m 41.2653,33.88 v 2.13"
       id="path162" />
  </g>
  <g
     style="fill:none;stroke:#4d7fc4;stroke-width:0.45;stroke-linecap:round;stroke-linejoin:round;stroke-opacity:1"
     id="g168"
     transform="translate(0.02311463,-1.0636)">
    <path
       d="m 50.1028,14.1125 h -6.975"
       id="path166" />
  </g>
  <g
     style="fill:none;stroke:#4d7fc4;stroke-width:0.5;stroke-linecap:round;stroke-linejoin:round;stroke-opacity:1"
     id="g172"
     transform="translate(0.02311463,-1.0636)">
    <path
       d="m 50.1028,14.1125 2.2553,2.2553"
       id="path170" />
  </g>
  <g
     style="fill:none;stroke:#4d7fc4;stroke-width:0.3;stroke-linecap:round;stroke-linejoin:round;stroke-opacity:1"
     id="g176"
     transform="translate(0.02311463,-1.0636)">
    <path
       d="M 52.3581,21.2822 52.3653,21.275"
       id="path174" />
  </g>
  <g
     style="fill:none;stroke:#4d7fc4;stroke-width:0.5;stroke-linecap:round;stroke-linejoin:round;stroke-opacity:1"
     id="g180"
     transform="translate(0.02311463,-1.0636)">
    <path
       d="m 52.3581,16.3678 v 4.9144"
       id="path178" />
  </g>
  <g
     style="fill:none;stroke:#4d7fc4;stroke-width:0.3;stroke-linecap:round;stroke-linejoin:round;stroke-opacity:1"
     id="g192"
     transform="translate(0.02311463,-1.0636)">
    <path
       d="M 44.3453,17.74 46.0853,16"
       id="path182" />
    <path
       d="m 44.3753,20 -0.03,-0.03"
       id="path184" />
    <path
       d="m 47.3831,16 0.4,0.4"
       id="path186" />
    <path
       d="m 46.0853,16 h 1.2978"
       id="path188" />
    <path
       d="M 44.3453,19.97 V 17.74"
       id="path190" />
  </g>
  <g
     style="fill:#ffffff;fill-opacity:1;stroke:none"
     id="g196"
     transform="translate(0.02311463,-1.0636)">
    <circle
       cx="36.617802"
       cy="39.8125"
       r="0.1"
       id="circle194" />
  </g>
  <g
     style="fill:#ffffff;fill-opacity:1;stroke:none"
     id="g200"
     transform="translate(0.02311463,-1.0636)">
    <circle
       cx="64.795303"
       cy="36.130001"
       r="0.15000001"
       id="circle198" />
  </g>
  <g
     style="fill:#ffffff;fill-opacity:1;stroke:none"
     id="g204"
     transform="translate(0.02311463,-1.0636)">
    <circle
       cx="47.140301"
       cy="24.575001"
       r="0.15000001"
       id="circle202" />
  </g>
  <g
     style="fill:#ffffff;fill-opacity:1;stroke:none"
     id="g208"
     transform="translate(0.02311463,-1.0636)">
    <circle
       cx="46.483101"
       cy="24.575001"
       r="0.15000001"
       id="circle206" />
  </g>
  <g
     style="fill:#ffffff;fill-opacity:1;stroke:none"
     id="g212"
     transform="translate(0.02311463,-1.0636)">
    <circle
       cx="35.455299"
       cy="39.41"
       r="0.1"
       id="circle210" />
  </g>
  <g
     style="fill:#ffffff;fill-opacity:1;stroke:none"
     id="g216"
     transform="translate(0.02311463,-1.0636)">
    <circle
       cx="69.605301"
       cy="31.77"
       r="0.15000001"
       id="circle214" />
  </g>
  <g
     style="fill:#ffffff;fill-opacity:1;stroke:none"
     id="g220"
     transform="translate(0.02311463,-1.0636)">
    <circle
       cx="41.255299"
       cy="33.77"
       r="0.15000001"
       id="circle218" />
  </g>
  <g
     style="fill:#ffffff;fill-opacity:1;stroke:none"
     id="g224"
     transform="translate(0.02311463,-1.0636)">
    <circle
       cx="48.1553"
       cy="39.18"
       r="0.15000001"
       id="circle222" />
  </g>
  <g
     style="fill:#ffffff;fill-opacity:1;stroke:none"
     id="g228"
     transform="translate(0.02311463,-1.0636)">
    <circle
       cx="43.1278"
       cy="14.1125"
       r="0.15000001"
       id="circle226" />
  </g>
  <g
     style="fill:#ffffff;fill-opacity:1;stroke:none"
     id="g232"
     transform="translate(0.02311463,-1.0636)">
    <circle
       cx="52.358101"
       cy="21.2822"
       r="0.15000001"
       id="circle230" />
  </g>
  <g
     style="fill:#ffffff;fill-opacity:1;stroke:none"
     id="g236"
     transform="translate(0.02311463,-1.0636)">
    <circle
       cx="44.375301"
       cy="20"
       r="0.15000001"
       id="circle234" />
  </g>
  <g
     style="fill:#ffffff;fill-opacity:1;stroke:none"
     id="g240"
     transform="translate(0.02311463,-1.0636)">
    <circle
       cx="47.7831"
       cy="16.4"
       r="0.15000001"
       id="circle238" />
  </g>
  <g
     style="fill:#ffffff;fill-opacity:1;stroke:none"
     id="g244"
     transform="translate(0.02311463,-1.0636)">
    <circle
       cx="17.3153"
       cy="57"
       r="0.30000001"
       id="circle242" />
  </g>
  <g
     style="fill:#ffffff;fill-opacity:1;stroke:none"
     id="g248"
     transform="translate(0.02311463,-1.0636)">
    <circle
       cx="16.0653"
       cy="57"
       r="0.30000001"
       id="circle246" />
  </g>
  <g
     style="fill:#ffffff;fill-opacity:1;stroke:none"
     id="g252"
     transform="translate(0.02311463,-1.0636)">
    <circle
       cx="45.0453"
       cy="56.674999"
       r="0.30000001"
       id="circle250" />
  </g>
  <g
     style="fill:#ffffff;fill-opacity:1;stroke:none"
     id="g256"
     transform="translate(0.02311463,-1.0636)">
    <circle
       cx="39.265301"
       cy="56.674999"
       r="0.30000001"
       id="circle254" />
  </g>
  <g
     style="fill:none;stroke:#ffffff;stroke-width:0.6;stroke-linecap:round;stroke-linejoin:round;stroke-opacity:1"
     id="g266"
     transform="translate(0.02311463,-1.0636)">
    <path
       d="m 46.4753,56.745 v -1.1"
       id="path258" />
    <path
       d="m 46.4753,60.765 v -0.8"
       id="path260" />
    <path
       d="m 37.8353,56.745 v -1.1"
       id="path262" />
    <path
       d="m 37.8353,60.765 v -0.8"
       id="path264" />
  </g>
  <g
     style="fill:#000000;fill-opacity:1;stroke:none"
     id="g270"
     transform="translate(0.02311463,-1.0636)">
    <circle
       cx="17.3153"
       cy="57"
       r="0.30000001"
       id="circle268" />
  </g>
  <g
     style="fill:#000000;fill-opacity:1;stroke:none"
     id="g274"
     transform="translate(0.02311463,-1.0636)">
    <circle
       cx="16.0653"
       cy="57"
       r="0.30000001"
       id="circle272" />
  </g>
  <g
     style="fill:#000000;fill-opacity:1;stroke:none"
     id="g278"
     transform="translate(0.02311463,-1.0636)">
    <circle
       cx="45.0453"
       cy="56.674999"
       r="0.30000001"
       id="circle276" />
  </g>
  <g
     style="fill:#000000;fill-opacity:1;stroke:none"
     id="g282"
     transform="translate(0.02311463,-1.0636)">
    <circle
       cx="39.265301"
       cy="56.674999"
       r="0.30000001"
       id="circle280" />
  </g>
  <g
     style="fill:none;stroke:#000000;stroke-width:0.6;stroke-linecap:round;stroke-linejoin:round;stroke-opacity:1"
     id="g294"
     transform="translate(0.02311463,-1.0636)">
    <path
       d="m 46.4753,56.745 v -1.1"
       id="path284" />
    <path
       d="m 46.4753,60.765 v -0.8"
       id="path286" />
    <path
       d="m 37.8353,56.745 v -1.1"
       id="path288" />
    <path
       d="m 37.8353,60.765 v -0.8"
       id="path290" />
    <path
       style="fill:#02ffee;fill-opacity:0.4;fill-rule:evenodd;stroke:none"
       d="M 17.7653,56.525 17.7482,56.4389 17.6994,56.3659 17.6264,56.3171 17.5403,56.3 h -0.45 l -0.0861,0.0171 -0.073,0.0488 -0.0487,0.073 -0.0172,0.0861 v 0.95 l 0.0172,0.0861 0.0487,0.073 0.073,0.0488 0.0861,0.0171 h 0.45 l 0.0861,-0.0171 0.073,-0.0488 0.0488,-0.073 0.0171,-0.0861 z"
       id="path292" />
  </g>
  <g
     style="fill:none;stroke:#02ffee;stroke-width:0.9;stroke-linecap:round;stroke-linejoin:round;stroke-opacity:1"
     id="g298"
     transform="translate(0.02311463,-1.0636)">
    <path
       d="m 16.0653,56.75 v 0.5"
       id="path296" />
  </g>
  <g
     style="fill:#02ffee;fill-opacity:0.4;stroke:none"
     id="g302"
     transform="translate(0.02311463,-1.0636)">
    <circle
       cx="45.0453"
       cy="56.674999"
       r="0.30000001"
       id="circle300" />
  </g>
  <g
     style="fill:#02ffee;fill-opacity:0.4;stroke:none"
     id="g306"
     transform="translate(0.02311463,-1.0636)">
    <circle
       cx="39.265301"
       cy="56.674999"
       r="0.30000001"
       id="circle304" />
  </g>
  <g
     style="fill:none;stroke:#02ffee;stroke-width:0.9;stroke-linecap:round;stroke-linejoin:round;stroke-opacity:1"
     id="g352"
     transform="translate(0.02311463,-1.0636)">
    <path
       d="m 46.4753,56.745 v -1.1"
       id="path308" />
    <path
       d="m 46.4753,60.765 v -0.8"
       id="path310" />
    <path
       d="m 37.8353,56.745 v -1.1"
       id="path312" />
    <path
       d="m 37.8353,60.765 v -0.8"
       id="path314" />
    <path
       style="fill:#02ffee;fill-opacity:0.4;fill-rule:evenodd;stroke:none"
       d="m 52.0023,6.7886 v -4.3 h -0.7 v 4.3 z"
       id="path316" />
    <path
       style="fill:#02ffee;fill-opacity:0.4;fill-rule:evenodd;stroke:none"
       d="m 51.0023,6.7886 v -4.3 h -0.7 v 4.3 z"
       id="path318" />
    <path
       style="fill:#02ffee;fill-opacity:0.4;fill-rule:evenodd;stroke:none"
       d="m 50.0023,6.7886 v -4.3 h -0.7 v 4.3 z"
       id="path320" />
    <path
       style="fill:#02ffee;fill-opacity:0.4;fill-rule:evenodd;stroke:none"
       d="m 49.0023,6.7886 v -4.3 h -0.7 v 4.3 z"
       id="path322" />
    <path
       style="fill:#02ffee;fill-opacity:0.4;fill-rule:evenodd;stroke:none"
       d="m 48.0023,6.7886 v -4.3 h -0.7 v 4.3 z"
       id="path324" />
    <path
       style="fill:#02ffee;fill-opacity:0.4;fill-rule:evenodd;stroke:none"
       d="m 47.0023,6.7886 v -4.3 h -0.7 v 4.3 z"
       id="path326" />
    <path
       style="fill:#02ffee;fill-opacity:0.4;fill-rule:evenodd;stroke:none"
       d="m 46.0023,6.7886 v -4.3 h -0.7 v 4.3 z"
       id="path328" />
    <path
       style="fill:#02ffee;fill-opacity:0.4;fill-rule:evenodd;stroke:none"
       d="m 45.0023,6.7886 v -4.3 h -0.7 v 4.3 z"
       id="path330" />
    <path
       style="fill:#02ffee;fill-opacity:0.4;fill-rule:evenodd;stroke:none"
       d="m 44.0023,6.7886 v -4.3 h -0.7 v 4.3 z"
       id="path332" />
    <path
       style="fill:#02ffee;fill-opacity:0.4;fill-rule:evenodd;stroke:none"
       d="m 43.0023,6.7886 v -4.3 h -0.7 v 4.3 z"
       id="path334" />
    <path
       style="fill:#02ffee;fill-opacity:0.4;fill-rule:evenodd;stroke:none"
       d="m 42.0023,6.7886 v -4.3 h -0.7 v 4.3 z"
       id="path336" />
    <path
       style="fill:#02ffee;fill-opacity:0.4;fill-rule:evenodd;stroke:none"
       d="m 39.0023,6.7886 v -4.3 h -0.7 v 4.3 z"
       id="path338" />
    <path
       style="fill:#02ffee;fill-opacity:0.4;fill-rule:evenodd;stroke:none"
       d="m 38.0023,6.7886 v -4.3 h -0.7 v 4.3 z"
       id="path340" />
    <path
       style="fill:#02ffee;fill-opacity:0.4;fill-rule:evenodd;stroke:none"
       d="m 37.0023,6.7886 v -4.3 h -0.7 v 4.3 z"
       id="path342" />
    <path
       style="fill:#02ffee;fill-opacity:0.4;fill-rule:evenodd;stroke:none"
       d="m 36.0023,6.7886 v -4.3 h -0.7 v 4.3 z"
       id="path344" />
    <path
       style="fill:#02ffee;fill-opacity:0.4;fill-rule:evenodd;stroke:none"
       d="m 35.0023,6.7886 v -4.3 h -0.7 v 4.3 z"
       id="path346" />
    <path
       style="fill:#02ffee;fill-opacity:0.4;fill-rule:evenodd;stroke:none"
       d="m 34.0023,6.7886 v -4.3 h -0.7 v 4.3 z"
       id="path348" />
    <path
       style="fill:#02ffee;fill-opacity:0.4;fill-rule:evenodd;stroke:none"
       d="m 33.0023,6.7886 v -4.3 h -0.7 v 4.3 z"
       id="path350" />
  </g>
  <g
     style="fill:none;stroke:#d0d2cd;stroke-width:0.25;stroke-linecap:round;stroke-linejoin:round;stroke-opacity:1"
     id="g426"
     transform="translate(0.02311463,-1.0636)">
    <path
       d="M 28.8872,9.3355 22.6815,2.8126"
       id="path354" />
    <path
       d="M 55.4214,9.3318 61.6235,2.8126"
       id="path356" />
    <path
       d="M 14.0537,62.92 H 70.2513"
       id="path358" />
    <circle
       cx="5.152"
       cy="50.5686"
       r="3.3499999"
       id="circle360" />
    <path
       d="m 28.8872,9.3355 a 1.0001,1.0001 0 0 0 0.7245,0.3108"
       id="path362" />
    <path
       d="m 0.333,49.0589 a 5.05,5.05 0 0 0 1.6164,5.4143"
       id="path364" />
    <path
       d="M 54.6933,9.6462 H 52.8102"
       id="path366" />
    <path
       d="m 70.2513,62.92 a 5.05,5.05 0 0 0 3.2026,-1.1454"
       id="path368" />
    <path
       d="m 29.6117,9.6462 h 1.8832"
       id="path370" />
    <path
       d="m 14.2037,4.7837 v 0"
       id="path372" />
    <path
       d="m 1.9494,54.4732 8.9017,7.3013"
       id="path374" />
    <path
       d="m 54.6933,9.6462 a 0.9999,0.9999 0 0 0 0.728,-0.3144"
       id="path376" />
    <path
       d="M 22.6815,2.8126 A 5.0501,5.0501 0 0 0 14.2036,4.7837"
       id="path378" />
    <path
       d="M 70.1013,4.7837 A 5.05,5.05 0 0 0 61.6235,2.8126"
       id="path380" />
    <circle
       cx="79.153"
       cy="50.5686"
       r="3.3499999"
       id="circle382" />
    <path
       d="m 52.3102,9.1463 a 0.5,0.5 0 0 0 0.5,0.5"
       id="path384" />
    <path
       d="M 14.2037,4.7837 0.333,49.0589"
       id="path386" />
    <circle
       cx="19.0228"
       cy="6.2934999"
       r="3.3499999"
       id="circle388" />
    <circle
       cx="65.282204"
       cy="6.2934999"
       r="3.3499999"
       id="circle390" />
    <path
       d="m 82.3556,54.4732 -8.9017,7.3014"
       id="path392" />
    <path
       d="m 70.1013,4.7837 v 0"
       id="path394" />
    <path
       d="m 31.4949,9.6462 a 0.5,0.5 0 0 0 0.5,-0.5"
       id="path396" />
    <path
       d="M 70.1013,4.7837 83.977,49.0746"
       id="path398" />
    <path
       d="M 82.3556,54.4732 A 5.0502,5.0502 0 0 0 83.977,49.0746"
       id="path400" />
    <path
       d="M 10.8511,61.7745 A 5.05,5.05 0 0 0 14.0537,62.92"
       id="path402" />
    <path
       d="M 52.3023,1.6886 V 9.1449"
       id="path404" />
    <path
       d="m 51.8023,1.1886 0.5,0.5"
       id="path406" />
    <path
       d="m 41.6023,1.1886 h 10.2"
       id="path408" />
    <path
       d="m 41.6023,1.1886 -0.5,0.5"
       id="path410" />
    <path
       d="m 41.1023,1.6886 v 6.95"
       id="path412" />
    <path
       d="m 39.2023,1.6886 v 6.95"
       id="path414" />
    <path
       d="m 38.7023,1.1886 0.5,0.5"
       id="path416" />
    <path
       d="m 32.5023,1.1886 h 6.2"
       id="path418" />
    <path
       d="m 32.5023,1.1886 -0.5,0.5"
       id="path420" />
    <path
       d="M 32.0023,9.1449 V 1.6886"
       id="path422" />
    <path
       d="m 39.2023,8.6386 a 0.95,0.95 0 0 0 1.9,0"
       id="path424" />
  </g>
  <g
     style="fill:#d0d2cd;fill-opacity:1;stroke:none"
     id="g430"
     transform="translate(0.02311463,-1.0636)">
    <circle
       cx="17.3153"
       cy="57"
       r="0.30000001"
       id="circle428" />
  </g>
  <g
     style="fill:#d0d2cd;fill-opacity:1;stroke:none"
     id="g434"
     transform="translate(0.02311463,-1.0636)">
    <circle
       cx="16.0653"
       cy="57"
       r="0.30000001"
       id="circle432" />
  </g>
  <g
     style="fill:#d0d2cd;fill-opacity:1;stroke:none"
     id="g438"
     transform="translate(0.02311463,-1.0636)">
    <circle
       cx="45.0453"
       cy="56.674999"
       r="0.30000001"
       id="circle436" />
  </g>
  <g
     style="fill:#d0d2cd;fill-opacity:1;stroke:none"
     id="g442"
     transform="translate(0.02311463,-1.0636)">
    <circle
       cx="39.265301"
       cy="56.674999"
       r="0.30000001"
       id="circle440" />
  </g>
  <g
     style="fill:none;stroke:#d0d2cd;stroke-width:0.6;stroke-linecap:round;stroke-linejoin:round;stroke-opacity:1"
     id="g452"
     transform="translate(0.02311463,-1.0636)">
    <path
       d="m 46.4753,56.745 v -1.1"
       id="path444" />
    <path
       d="m 46.4753,60.765 v -0.8"
       id="path446" />
    <path
       d="m 37.8353,56.745 v -1.1"
       id="path448" />
    <path
       d="m 37.8353,60.765 v -0.8"
       id="path450" />
  </g>
  <g
     style="fill:#ffffff;fill-opacity:1;stroke:none"
     id="g456"
     transform="translate(0.02311463,-1.0636)">
    <circle
       cx="17.3153"
       cy="57"
       r="0.30000001"
       id="circle454" />
  </g>
  <g
     style="fill:#ffffff;fill-opacity:1;stroke:none"
     id="g460"
     transform="translate(0.02311463,-1.0636)">
    <circle
       cx="16.0653"
       cy="57"
       r="0.30000001"
       id="circle458" />
  </g>
  <g
     style="fill:#ffffff;fill-opacity:1;stroke:none"
     id="g464"
     transform="translate(0.02311463,-1.0636)">
    <circle
       cx="45.0453"
       cy="56.674999"
       r="0.30000001"
       id="circle462" />
  </g>
  <g
     style="fill:#ffffff;fill-opacity:1;stroke:none"
     id="g468"
     transform="translate(0.02311463,-1.0636)">
    <circle
       cx="39.265301"
       cy="56.674999"
       r="0.30000001"
       id="circle466" />
  </g>
  <g
     style="fill:none;stroke:#ffffff;stroke-width:0.6;stroke-linecap:round;stroke-linejoin:round;stroke-opacity:1"
     id="g478"
     transform="translate(0.02311463,-1.0636)">
    <path
       d="m 46.4753,56.745 v -1.1"
       id="path470" />
    <path
       d="m 46.4753,60.765 v -0.8"
       id="path472" />
    <path
       d="m 37.8353,56.745 v -1.1"
       id="path474" />
    <path
       d="m 37.8353,60.765 v -0.8"
       id="path476" />
  </g>
</svg>
