<?xml version="1.0" encoding="UTF-8" standalone="no"?>
<svg
   version="1.1"
   width="84.351288mm"
   height="61.9814mm"
   viewBox="0 0 84.351287 61.981398"
   id="svg922"
   sodipodi:docname="pcbb.svg"
   xmlns:inkscape="http://www.inkscape.org/namespaces/inkscape"
   xmlns:sodipodi="http://sodipodi.sourceforge.net/DTD/sodipodi-0.dtd"
   xmlns="http://www.w3.org/2000/svg"
   xmlns:svg="http://www.w3.org/2000/svg">
  <defs
     id="defs926" />
  <sodipodi:namedview
     id="namedview924"
     pagecolor="#ffffff"
     bordercolor="#000000"
     borderopacity="0.25"
     inkscape:showpageshadow="2"
     inkscape:pageopacity="0.0"
     inkscape:pagecheckerboard="0"
     inkscape:deskcolor="#d1d1d1"
     inkscape:document-units="mm" />
  <title
     id="title2">SVG Image created as pcbb.svg date 2025-05-24T01:37:53+0000 </title>
  <desc
     id="desc4">Image generated by PCBNEW </desc>
  <g
     style="fill:#000000;fill-opacity:1;stroke:#000000;stroke-linecap:round;stroke-linejoin:round;stroke-opacity:1"
     id="g6"
     transform="translate(-6.8229854,-12.2336)" />
  <g
     style="fill:#4d7fc4;fill-opacity:1;stroke:none"
     id="g16"
     transform="translate(-6.8229854,-12.2336)">
    <circle
       cx="34.0914"
       cy="62.220001"
       r="0.68580002"
       id="circle8" />
    <circle
       cx="31.551399"
       cy="62.220001"
       r="0.68580002"
       id="circle10" />
    <circle
       cx="29.0114"
       cy="62.220001"
       r="0.68580002"
       id="circle12" />
    <circle
       cx="26.471399"
       cy="62.220001"
       r="0.68580002"
       id="circle14" />
  </g>
  <g
     style="fill:none;stroke:#4d7fc4;stroke-width:0.9;stroke-linecap:round;stroke-linejoin:round;stroke-opacity:1"
     id="g62"
     transform="translate(-6.8229854,-12.2336)">
    <path
       d="m 53.3214,67.915 v -1.1"
       id="path18" />
    <path
       d="m 53.3214,71.935 v -0.8"
       id="path20" />
    <path
       d="m 44.6814,67.915 v -1.1"
       id="path22" />
    <path
       d="m 44.6814,71.935 v -0.8"
       id="path24" />
    <path
       style="fill:#4d7fc4;fill-opacity:1;fill-rule:evenodd;stroke:none"
       d="m 58.8484,17.9586 v -4.3 h -0.7 v 4.3 z"
       id="path26" />
    <path
       style="fill:#4d7fc4;fill-opacity:1;fill-rule:evenodd;stroke:none"
       d="m 57.8484,17.9586 v -4.3 h -0.7 v 4.3 z"
       id="path28" />
    <path
       style="fill:#4d7fc4;fill-opacity:1;fill-rule:evenodd;stroke:none"
       d="m 56.8484,17.9586 v -4.3 h -0.7 v 4.3 z"
       id="path30" />
    <path
       style="fill:#4d7fc4;fill-opacity:1;fill-rule:evenodd;stroke:none"
       d="m 55.8484,17.9586 v -4.3 h -0.7 v 4.3 z"
       id="path32" />
    <path
       style="fill:#4d7fc4;fill-opacity:1;fill-rule:evenodd;stroke:none"
       d="m 54.8484,17.9586 v -4.3 h -0.7 v 4.3 z"
       id="path34" />
    <path
       style="fill:#4d7fc4;fill-opacity:1;fill-rule:evenodd;stroke:none"
       d="m 53.8484,17.9586 v -4.3 h -0.7 v 4.3 z"
       id="path36" />
    <path
       style="fill:#4d7fc4;fill-opacity:1;fill-rule:evenodd;stroke:none"
       d="m 52.8484,17.9586 v -4.3 h -0.7 v 4.3 z"
       id="path38" />
    <path
       style="fill:#4d7fc4;fill-opacity:1;fill-rule:evenodd;stroke:none"
       d="m 51.8484,17.9586 v -4.3 h -0.7 v 4.3 z"
       id="path40" />
    <path
       style="fill:#4d7fc4;fill-opacity:1;fill-rule:evenodd;stroke:none"
       d="m 50.8484,17.9586 v -4.3 h -0.7 v 4.3 z"
       id="path42" />
    <path
       style="fill:#4d7fc4;fill-opacity:1;fill-rule:evenodd;stroke:none"
       d="m 49.8484,17.9586 v -4.3 h -0.7 v 4.3 z"
       id="path44" />
    <path
       style="fill:#4d7fc4;fill-opacity:1;fill-rule:evenodd;stroke:none"
       d="m 48.8484,17.9586 v -4.3 h -0.7 v 4.3 z"
       id="path46" />
    <path
       style="fill:#4d7fc4;fill-opacity:1;fill-rule:evenodd;stroke:none"
       d="m 45.8484,17.9586 v -4.3 h -0.7 v 4.3 z"
       id="path48" />
    <path
       style="fill:#4d7fc4;fill-opacity:1;fill-rule:evenodd;stroke:none"
       d="m 44.8484,17.9586 v -4.3 h -0.7 v 4.3 z"
       id="path50" />
    <path
       style="fill:#4d7fc4;fill-opacity:1;fill-rule:evenodd;stroke:none"
       d="m 43.8484,17.9586 v -4.3 h -0.7 v 4.3 z"
       id="path52" />
    <path
       style="fill:#4d7fc4;fill-opacity:1;fill-rule:evenodd;stroke:none"
       d="m 42.8484,17.9586 v -4.3 h -0.7 v 4.3 z"
       id="path54" />
    <path
       style="fill:#4d7fc4;fill-opacity:1;fill-rule:evenodd;stroke:none"
       d="m 41.8484,17.9586 v -4.3 h -0.7 v 4.3 z"
       id="path56" />
    <path
       style="fill:#4d7fc4;fill-opacity:1;fill-rule:evenodd;stroke:none"
       d="m 40.8484,17.9586 v -4.3 h -0.7 v 4.3 z"
       id="path58" />
    <path
       style="fill:#4d7fc4;fill-opacity:1;fill-rule:evenodd;stroke:none"
       d="m 39.8484,17.9586 v -4.3 h -0.7 v 4.3 z"
       id="path60" />
  </g>
  <g
     style="fill:#4d7fc4;fill-opacity:1;stroke:none"
     id="g266"
     transform="translate(-6.8229854,-12.2336)">
    <circle
       cx="51.901402"
       cy="55.301998"
       r="0.15000001"
       id="circle64" />
    <circle
       cx="48.8978"
       cy="45.650002"
       r="0.15000001"
       id="circle66" />
    <circle
       cx="48.0914"
       cy="55.301998"
       r="0.15000001"
       id="circle68" />
    <circle
       cx="51.291801"
       cy="54.285999"
       r="0.15000001"
       id="circle70" />
    <circle
       cx="47.685001"
       cy="45.650002"
       r="0.15000001"
       id="circle72" />
    <circle
       cx="56.067001"
       cy="46.8946"
       r="0.15000001"
       id="circle74" />
    <circle
       cx="53.730202"
       cy="63.480801"
       r="0.2"
       id="circle76" />
    <circle
       cx="74.355003"
       cy="39.249199"
       r="0.2"
       id="circle78" />
    <circle
       cx="26.653799"
       cy="45.294399"
       r="0.2"
       id="circle80" />
    <circle
       cx="57.438599"
       cy="37.0648"
       r="0.2"
       id="circle82" />
    <circle
       cx="34.985001"
       cy="23.6028"
       r="0.2"
       id="circle84" />
    <circle
       cx="32.394199"
       cy="27.9716"
       r="0.2"
       id="circle86" />
    <circle
       cx="46.160999"
       cy="39.554001"
       r="0.2"
       id="circle88" />
    <circle
       cx="75.0662"
       cy="31.0704"
       r="0.2"
       id="circle90" />
    <circle
       cx="26.907801"
       cy="29.139999"
       r="0.2"
       id="circle92" />
    <circle
       cx="74.710602"
       cy="26.5492"
       r="0.2"
       id="circle94" />
    <circle
       cx="14.7158"
       cy="54.032001"
       r="0.2"
       id="circle96" />
    <circle
       cx="69.782997"
       cy="59.619999"
       r="0.2"
       id="circle98" />
    <circle
       cx="34.426201"
       cy="64.496803"
       r="0.2"
       id="circle100" />
    <circle
       cx="68.817802"
       cy="45.141998"
       r="0.2"
       id="circle102" />
    <circle
       cx="57.591"
       cy="41.027199"
       r="0.2"
       id="circle104" />
    <circle
       cx="41.182598"
       cy="54.235199"
       r="0.2"
       id="circle106" />
    <circle
       cx="20.1514"
       cy="26.091999"
       r="0.2"
       id="circle108" />
    <circle
       cx="67.547798"
       cy="23.1964"
       r="0.2"
       id="circle110" />
    <circle
       cx="61.909"
       cy="36.607601"
       r="0.2"
       id="circle112" />
    <circle
       cx="26.399799"
       cy="33.102402"
       r="0.2"
       id="circle114" />
    <circle
       cx="57.489399"
       cy="64.395203"
       r="0.2"
       id="circle116" />
    <circle
       cx="54.390598"
       cy="42.805199"
       r="0.2"
       id="circle118" />
    <circle
       cx="52.714199"
       cy="36.302799"
       r="0.2"
       id="circle120" />
    <circle
       cx="20.761"
       cy="58.705601"
       r="0.2"
       id="circle122" />
    <circle
       cx="69.986198"
       cy="65.461998"
       r="0.2"
       id="circle124" />
    <circle
       cx="82.483002"
       cy="49.866402"
       r="0.2"
       id="circle126" />
    <circle
       cx="78.469803"
       cy="29.749599"
       r="0.2"
       id="circle128" />
    <circle
       cx="52.053799"
       cy="29.952801"
       r="0.2"
       id="circle130" />
    <circle
       cx="32.445"
       cy="30.3592"
       r="0.2"
       id="circle132" />
    <circle
       cx="26.5522"
       cy="50.984001"
       r="0.2"
       id="circle134" />
    <circle
       cx="44.992599"
       cy="37.826801"
       r="0.2"
       id="circle136" />
    <circle
       cx="19.8466"
       cy="33.051601"
       r="0.2"
       id="circle138" />
    <circle
       cx="63.788601"
       cy="44.1768"
       r="0.2"
       id="circle140" />
    <circle
       cx="53.4762"
       cy="40.163601"
       r="0.2"
       id="circle142" />
    <circle
       cx="28.787399"
       cy="21.367599"
       r="0.2"
       id="circle144" />
    <circle
       cx="42.960602"
       cy="36.607601"
       r="0.2"
       id="circle146" />
    <circle
       cx="47.837399"
       cy="72.828003"
       r="0.2"
       id="circle148" />
    <circle
       cx="22.8438"
       cy="46.5644"
       r="0.2"
       id="circle150" />
    <circle
       cx="63.687"
       cy="22.6884"
       r="0.2"
       id="circle152" />
    <circle
       cx="22.488199"
       cy="62.363201"
       r="0.2"
       id="circle154" />
    <circle
       cx="59.318199"
       cy="26.2952"
       r="0.2"
       id="circle156" />
    <circle
       cx="44.078201"
       cy="62.566399"
       r="0.2"
       id="circle158" />
    <circle
       cx="84.565804"
       cy="54.540001"
       r="0.2"
       id="circle160" />
    <circle
       cx="29.396999"
       cy="40.976398"
       r="0.2"
       id="circle162" />
    <circle
       cx="70.697403"
       cy="26.854"
       r="0.2"
       id="circle164" />
    <circle
       cx="40.776199"
       cy="50.9725"
       r="0.15000001"
       id="circle166" />
    <circle
       cx="44.992599"
       cy="45.3452"
       r="0.15000001"
       id="circle168" />
    <circle
       cx="40.951801"
       cy="34.548"
       r="0.15000001"
       id="circle170" />
    <circle
       cx="53.552399"
       cy="37.014"
       r="0.15000001"
       id="circle172" />
    <circle
       cx="43.977798"
       cy="45.346401"
       r="0.15000001"
       id="circle174" />
    <circle
       cx="41.589001"
       cy="50.577599"
       r="0.15000001"
       id="circle176" />
    <circle
       cx="40.9286"
       cy="38.995201"
       r="0.15000001"
       id="circle178" />
    <circle
       cx="51.444199"
       cy="37.0648"
       r="0.15000001"
       id="circle180" />
    <circle
       cx="49.767799"
       cy="42.348"
       r="0.15000001"
       id="circle182" />
    <circle
       cx="51.749001"
       cy="42.3988"
       r="0.15000001"
       id="circle184" />
    <circle
       cx="48.0914"
       cy="45.650002"
       r="0.15000001"
       id="circle186" />
    <circle
       cx="55.457401"
       cy="48.063"
       r="0.15000001"
       id="circle188" />
    <circle
       cx="60.791401"
       cy="29.952801"
       r="0.2"
       id="circle190" />
    <circle
       cx="43.092899"
       cy="52.172501"
       r="0.15000001"
       id="circle192" />
    <circle
       cx="65.363403"
       cy="50.628399"
       r="0.15000001"
       id="circle194" />
    <circle
       cx="53.3951"
       cy="48.9725"
       r="0.15000001"
       id="circle196" />
    <circle
       cx="52.561798"
       cy="53.701801"
       r="0.15000001"
       id="circle198" />
    <circle
       cx="43.671799"
       cy="52.572498"
       r="0.15000001"
       id="circle200" />
    <circle
       cx="48.497799"
       cy="45.650002"
       r="0.15000001"
       id="circle202" />
    <circle
       cx="52.409401"
       cy="52.914398"
       r="0.15000001"
       id="circle204" />
    <circle
       cx="48.497799"
       cy="54.235199"
       r="0.15000001"
       id="circle206" />
    <circle
       cx="44.027401"
       cy="48.952"
       r="0.15000001"
       id="circle208" />
    <circle
       cx="52.309399"
       cy="31.834"
       r="0.2"
       id="circle210" />
    <circle
       cx="60.791401"
       cy="30.537001"
       r="0.2"
       id="circle212" />
    <circle
       cx="42.808201"
       cy="45.3452"
       r="0.15000001"
       id="circle214" />
    <circle
       cx="48.0914"
       cy="36.9632"
       r="0.15000001"
       id="circle216" />
    <circle
       cx="46.8722"
       cy="24.2124"
       r="0.2"
       id="circle218" />
    <circle
       cx="61.2486"
       cy="32.442001"
       r="0.2"
       id="circle220" />
    <circle
       cx="55.889198"
       cy="27.590599"
       r="0.2"
       id="circle222" />
    <circle
       cx="52.282398"
       cy="31.172001"
       r="0.2"
       id="circle224" />
    <circle
       cx="29.0114"
       cy="59.874001"
       r="0.2"
       id="circle226" />
    <circle
       cx="42.478001"
       cy="47.808998"
       r="0.15000001"
       id="circle228" />
    <circle
       cx="26.4506"
       cy="60.686798"
       r="0.2"
       id="circle230" />
    <circle
       cx="43.468601"
       cy="47.7836"
       r="0.15000001"
       id="circle232" />
    <circle
       cx="39.506199"
       cy="58.908798"
       r="0.2"
       id="circle234" />
    <circle
       cx="40.090401"
       cy="55.048"
       r="0.2"
       id="circle236" />
    <circle
       cx="64.774002"
       cy="50.6311"
       r="0.15000001"
       id="circle238" />
    <circle
       cx="50.072601"
       cy="43.872002"
       r="0.15000001"
       id="circle240" />
    <circle
       cx="64.235603"
       cy="50.6311"
       r="0.15000001"
       id="circle242" />
    <circle
       cx="53.4254"
       cy="47.7836"
       r="0.15000001"
       id="circle244" />
    <circle
       cx="53.4254"
       cy="48.172501"
       r="0.15000001"
       id="circle246" />
    <circle
       cx="63.697102"
       cy="50.6311"
       r="0.15000001"
       id="circle248" />
    <circle
       cx="80.501801"
       cy="69.221199"
       r="0.15000001"
       id="circle250" />
    <circle
       cx="53.4254"
       cy="49.764801"
       r="0.15000001"
       id="circle252" />
    <circle
       cx="63.158699"
       cy="50.6311"
       r="0.15000001"
       id="circle254" />
    <circle
       cx="79.079399"
       cy="68.154404"
       r="0.15000001"
       id="circle256" />
    <circle
       cx="62.620201"
       cy="58.502399"
       r="0.15000001"
       id="circle258" />
    <circle
       cx="53.4254"
       cy="50.1712"
       r="0.15000001"
       id="circle260" />
    <circle
       cx="65.820602"
       cy="60.178799"
       r="0.15000001"
       id="circle262" />
    <circle
       cx="62.620201"
       cy="50.6311"
       r="0.15000001"
       id="circle264" />
  </g>
  <g
     style="fill:none;stroke:#4d7fc4;stroke-width:0.15;stroke-linecap:round;stroke-linejoin:round;stroke-opacity:1"
     id="g282"
     transform="translate(-6.8229854,-12.2336)">
    <path
       d="m 52.1554,52.7074 -0.072,0.072"
       id="path268" />
    <path
       d="m 52.1554,53.1215 v 0.3009"
       id="path270" />
    <path
       d="m 51.0378,45.65 1.1176,1.1176"
       id="path272" />
    <path
       d="m 48.8978,45.65 h 2.14"
       id="path274" />
    <path
       d="M 52.1554,53.4224 51.2918,54.286"
       id="path276" />
    <path
       d="m 52.0834,52.7794 v 0.2701"
       id="path278" />
    <path
       d="m 52.0834,53.0495 0.072,0.072"
       id="path280" />
  </g>
  <g
     style="fill:none;stroke:#4d7fc4;stroke-width:0.2;stroke-linecap:round;stroke-linejoin:round;stroke-opacity:1"
     id="g286"
     transform="translate(-6.8229854,-12.2336)">
    <path
       d="m 48.0914,55.302 h 3.81"
       id="path284" />
  </g>
  <g
     style="fill:none;stroke:#4d7fc4;stroke-width:0.15;stroke-linecap:round;stroke-linejoin:round;stroke-opacity:1"
     id="g380"
     transform="translate(-6.8229854,-12.2336)">
    <path
       d="m 52.1554,46.7676 v 5.9398"
       id="path288" />
    <path
       d="m 51.9014,55.302 h -0.254"
       id="path290" />
    <path
       d="M 54.9494,46.92 52.3078,44.2784"
       id="path292" />
    <path
       d="M 47.685,44.8372 V 45.65"
       id="path294" />
    <path
       d="M 48.2438,44.2784 47.685,44.8372"
       id="path296" />
    <path
       d="M 56.067,46.8946 56.0416,46.92"
       id="path298" />
    <path
       d="m 52.3078,44.2784 h -4.064"
       id="path300" />
    <path
       d="M 56.0416,46.92 H 54.9494"
       id="path302" />
    <path
       d="M 39.7487,50.9725 39.4046,50.6284"
       id="path304" />
    <path
       d="m 53.5524,37.014 -8.3312,8.3312"
       id="path306" />
    <path
       d="M 40.9518,35.162 V 34.548"
       id="path308" />
    <path
       d="M 40.7762,50.9725 H 39.7487"
       id="path310" />
    <path
       d="M 39.4046,36.7092 40.9518,35.162"
       id="path312" />
    <path
       d="M 45.2212,45.3452 H 44.9926"
       id="path314" />
    <path
       d="M 39.4046,50.6284 V 36.7092"
       id="path316" />
    <path
       d="M 40.4206,49.968 V 39.554"
       id="path318" />
    <path
       d="M 49.1582,40.57 V 39.3508"
       id="path320" />
    <path
       d="m 40.4206,39.554 0.5588,-0.5588"
       id="path322" />
    <path
       d="m 41.5382,50.5776 h -0.508"
       id="path324" />
    <path
       d="M 41.0302,50.5776 40.4206,49.968"
       id="path326" />
    <path
       d="M 43.9766,45.3452 H 44.383"
       id="path328" />
    <path
       d="m 49.1582,39.3508 2.286,-2.286"
       id="path330" />
    <path
       d="M 44.383,45.3452 49.1582,40.57"
       id="path332" />
    <path
       d="M 51.749,42.3988 51.6982,42.348"
       id="path334" />
    <path
       d="M 51.6982,42.348 H 49.7424"
       id="path336" />
    <path
       d="M 55.4574,48.063 51.9776,44.5832"
       id="path338" />
    <path
       d="M 51.9776,44.5832 H 48.701"
       id="path340" />
    <path
       d="M 48.0914,45.1928 V 45.65"
       id="path342" />
    <path
       d="m 48.701,44.5832 -0.6096,0.6096"
       id="path344" />
    <path
       d="m 60.4866,44.634 4.826,4.826"
       id="path346" />
    <path
       d="M 38.1854,68.2052 V 63.176"
       id="path348" />
    <path
       d="m 43.0929,58.2685 v -6.096"
       id="path350" />
    <path
       d="m 65.3126,49.46 v 1.1176"
       id="path352" />
    <path
       d="m 65.3634,50.6284 v 0.7874"
       id="path354" />
    <path
       d="m 65.3126,50.5776 0.0508,0.0508"
       id="path356" />
    <path
       d="m 38.1854,63.176 4.9075,-4.9075"
       id="path358" />
    <path
       d="m 61.5534,30.4608 v 0.8636"
       id="path360" />
    <path
       d="m 61.5534,31.3244 -1.0668,1.0668"
       id="path362" />
    <path
       d="M 55.6098,67.7226 54.1874,69.145"
       id="path364" />
    <path
       d="m 65.3634,51.4158 -9.7536,9.7536"
       id="path366" />
    <path
       d="m 55.6098,61.1694 v 6.5532"
       id="path368" />
    <path
       d="M 54.1874,69.145 H 39.1252"
       id="path370" />
    <path
       d="M 60.4866,32.3912 V 44.634"
       id="path372" />
    <path
       d="m 61.0454,29.9528 0.508,0.508"
       id="path374" />
    <path
       d="M 39.1252,69.145 38.1854,68.2052"
       id="path376" />
    <path
       d="m 60.7914,29.9528 h 0.254"
       id="path378" />
  </g>
  <g
     style="fill:none;stroke:#4d7fc4;stroke-width:0.2;stroke-linecap:round;stroke-linejoin:round;stroke-opacity:1"
     id="g416"
     transform="translate(-6.8229854,-12.2336)">
    <path
       d="m 51.3426,44.888 1.4224,1.4224"
       id="path382" />
    <path
       d="m 52.765,52.5588 -0.3556,0.3556"
       id="path384" />
    <path
       d="M 51.9522,54.6924 H 48.4978"
       id="path386" />
    <path
       d="M 43.6718,52.5725 V 49.3076"
       id="path388" />
    <path
       d="m 52.5618,54.0828 -0.6096,0.6096"
       id="path390" />
    <path
       d="M 53.3951,48.9725 H 52.765"
       id="path392" />
    <path
       d="m 52.765,46.3104 v 6.2484"
       id="path394" />
    <path
       d="M 48.4978,45.2436 48.8534,44.888"
       id="path396" />
    <path
       d="M 48.4978,45.65 V 45.2436"
       id="path398" />
    <path
       d="m 45.145,54.6924 h 3.3528"
       id="path400" />
    <path
       d="m 52.5618,53.7018 v 0.381"
       id="path402" />
    <path
       d="m 43.6718,52.5725 v 0.6467"
       id="path404" />
    <path
       d="M 43.6718,49.3076 44.0274,48.952"
       id="path406" />
    <path
       d="m 43.6718,53.2192 1.4732,1.4732"
       id="path408" />
    <path
       d="m 48.8534,44.888 h 2.4892"
       id="path410" />
    <path
       d="m 53.3951,48.9725 -0.0303,0.0303"
       id="path412" />
    <path
       d="m 48.4978,54.2352 v 0.4572"
       id="path414" />
  </g>
  <g
     style="fill:none;stroke:#4d7fc4;stroke-width:0.15;stroke-linecap:round;stroke-linejoin:round;stroke-opacity:1"
     id="g434"
     transform="translate(-6.8229854,-12.2336)">
    <path
       d="m 52.3364,31.807 h 4.391"
       id="path418" />
    <path
       d="m 56.7274,31.807 1.27,-1.27"
       id="path420" />
    <path
       d="m 52.3094,31.834 0.027,-0.027"
       id="path422" />
    <path
       d="m 60.7914,30.537 h -0.254"
       id="path424" />
    <path
       d="m 57.9974,30.537 h 2.794"
       id="path426" />
    <path
       d="m 42.8082,45.3452 h 0.7112"
       id="path428" />
    <path
       d="m 43.5194,45.3452 4.572,-4.572"
       id="path430" />
    <path
       d="m 48.0914,40.7732 v -3.81"
       id="path432" />
  </g>
  <g
     style="fill:none;stroke:#4d7fc4;stroke-width:0.3048;stroke-linecap:round;stroke-linejoin:round;stroke-opacity:1"
     id="g446"
     transform="translate(-6.8229854,-12.2336)">
    <path
       d="m 61.4518,32.442 1.1684,-1.1684"
       id="path436" />
    <path
       d="m 62.6202,27.0064 -2.794,-2.794"
       id="path438" />
    <path
       d="M 62.6202,31.2736 V 27.0064"
       id="path440" />
    <path
       d="M 59.8262,24.2124 H 46.8722"
       id="path442" />
    <path
       d="m 61.2486,32.442 h 0.2032"
       id="path444" />
  </g>
  <g
     style="fill:none;stroke:#4d7fc4;stroke-width:0.15;stroke-linecap:round;stroke-linejoin:round;stroke-opacity:1"
     id="g548"
     transform="translate(-6.8229854,-12.2336)">
    <path
       d="M 55.8892,30.3846 55.1018,31.172"
       id="path448" />
    <path
       d="m 55.8892,27.5906 v 2.794"
       id="path450" />
    <path
       d="M 55.1018,31.172 H 52.2824"
       id="path452" />
    <path
       d="m 42.1478,48.1392 v 9.0932"
       id="path454" />
    <path
       d="M 39.5062,59.874 H 29.0114"
       id="path456" />
    <path
       d="m 42.478,47.809 -0.3302,0.3302"
       id="path458" />
    <path
       d="M 42.1478,57.2324 39.5062,59.874"
       id="path460" />
    <path
       d="M 42.6304,57.8166 V 48.6218"
       id="path462" />
    <path
       d="m 39.7602,60.6868 2.8702,-2.8702"
       id="path464" />
    <path
       d="M 26.4506,60.6868 H 39.7602"
       id="path466" />
    <path
       d="m 42.6304,48.6218 0.8382,-0.8382"
       id="path468" />
    <path
       d="m 43.4686,47.7836 h 0.0508"
       id="path470" />
    <path
       d="m 40.0904,55.048 v 3.3274"
       id="path472" />
    <path
       d="M 39.557,58.9088 H 39.5062"
       id="path474" />
    <path
       d="M 40.0904,58.3754 39.557,58.9088"
       id="path476" />
    <path
       d="m 52.6634,43.872 2.6416,2.6416"
       id="path478" />
    <path
       d="m 56.9814,46.5136 2.4892,2.4892"
       id="path480" />
    <path
       d="m 59.4706,49.0028 h 4.2672"
       id="path482" />
    <path
       d="m 64.774,50.039 v 0.5921"
       id="path484" />
    <path
       d="M 63.7378,49.0028 64.774,50.039"
       id="path486" />
    <path
       d="m 55.305,46.5136 h 1.6764"
       id="path488" />
    <path
       d="m 50.0726,43.872 h 2.5908"
       id="path490" />
    <path
       d="m 64.2458,50.6208 -0.0102,0.0103"
       id="path492" />
    <path
       d="m 55.051,49.3584 h 8.4328"
       id="path494" />
    <path
       d="m 63.4838,49.3584 0.762,0.762"
       id="path496" />
    <path
       d="m 53.4254,47.7836 h 0.0508"
       id="path498" />
    <path
       d="m 53.4762,47.7836 1.5748,1.5748"
       id="path500" />
    <path
       d="m 64.2458,50.1204 v 0.5004"
       id="path502" />
    <path
       d="M 63.687,50.621 V 50.2728"
       id="path504" />
    <path
       d="M 55.1018,49.8664 53.4079,48.1725"
       id="path506" />
    <path
       d="M 63.687,50.2728 63.2806,49.8664"
       id="path508" />
    <path
       d="M 63.6971,50.6311 63.687,50.621"
       id="path510" />
    <path
       d="M 63.2806,49.8664 H 55.1018"
       id="path512" />
    <path
       d="m 79.435,68.1544 1.0668,1.0668"
       id="path514" />
    <path
       d="m 62.7248,50.1174 -0.003,0.003"
       id="path516" />
    <path
       d="M 62.8712,50.1174 H 62.7248"
       id="path518" />
    <path
       d="M 79.0794,68.1544 H 79.435"
       id="path520" />
    <path
       d="m 54.4414,49.7648 h -1.016"
       id="path522" />
    <path
       d="M 54.797,50.1204 54.4414,49.7648"
       id="path524" />
    <path
       d="M 62.7218,50.1204 H 54.797"
       id="path526" />
    <path
       d="M 63.1587,50.4049 62.8712,50.1174"
       id="path528" />
    <path
       d="M 63.1587,50.6311 V 50.4049"
       id="path530" />
    <path
       d="m 62.6202,58.858 1.27,1.27"
       id="path532" />
    <path
       d="m 63.8902,60.128 h 1.9812"
       id="path534" />
    <path
       d="M 62.6202,50.6284 H 54.797"
       id="path536" />
    <path
       d="M 54.3398,50.1712 H 53.4254"
       id="path538" />
    <path
       d="M 54.797,50.6284 54.3398,50.1712"
       id="path540" />
    <path
       d="M 62.6202,58.5024 V 58.858"
       id="path542" />
    <path
       style="fill:#4d7fc4;fill-opacity:1;fill-rule:evenodd;stroke:none"
       d="m 53.0962,50.3695 -0.0559,0.0418 -0.0245,0.0655 -3e-4,0.0089 v 2.123 l -0.0381,0.092 -0.2492,0.2492 -0.0321,0.0556 -0.0066,0.0249 v 0 l -0.0396,0.0685 v 0 0 l -0.056,0.056 -0.0299,0.0173 -0.0482,0.0505 -0.0132,0.0686 0.0259,0.0649 0.057,0.0405 0.0084,0.0026 0.0839,0.0225 v 0 l 0.0685,0.0396 v 0 l 0.056,0.0559 v 0 l 0.0395,0.0685 h 1e-4 l 0.0106,0.0398 0.0098,0.0367 v 0.0791 l -0.0166,0.0621 -0.0038,0.0143 -0.013,0.0224 -0.0166,0.062 v 0.2305 l -0.0155,0.0373 -0.0226,0.0547 -0.6096,0.6096 v 0 l -0.0653,0.0653 -0.0084,0.0153 -0.0251,0.046 0.005,0.0697 0.0285,0.0443 0.0426,0.0426 v 0 l 0.0395,0.0685 h 1e-4 l 0.0136,0.051 0.0068,0.0255 v 0.0791 l -4e-4,0.0016 -0.02,0.0748 h -1e-4 l -0.0395,0.0685 v 0 0 l -0.056,0.056 v 0 0 l -0.0685,0.0395 v 0 l -0.0764,0.0205 v 0 h -0.0791 v 0 l -0.0765,-0.0205 -0.0223,-0.0129 -0.062,-0.0166 h -3.4093 l -0.062,0.0166 -0.0224,0.0129 -0.0764,0.0205 v 0 h -0.0791 v 0 L 47.9754,55.582 47.9069,55.5425 47.851,55.4865 47.8114,55.418 47.7909,55.3416 v -0.0791 l 0.0205,-0.0765 0.033,-0.0571 0.0165,-0.0679 -0.0229,-0.066 -0.0549,-0.0432 -0.0461,-0.0089 h -2.6418 v 0 l -0.0921,-0.0381 -1.473,-1.473 -0.0613,-0.0335 -0.0697,0.005 -0.0559,0.0418 -0.0245,0.0655 -3e-4,0.0088 v 4.7043 0 0.0897 l -0.0071,0.0172 -0.007,0.0168 v 0 l -0.0202,0.0489 -0.0809,0.0808 v 0 l -4.756,4.756 -0.0334,0.0613 -0.0029,0.0264 v 4.7397 l 0.0197,0.067 0.0166,0.0206 0.7351,0.7351 0.0613,0.0335 0.0264,0.0028 h 14.7727 l 0.067,-0.0197 0.0206,-0.0166 1.091,-1.0909 h -2.9294 v 0.1055 l -0.0273,0.1018 -0.0527,0.0913 -0.0746,0.0746 -0.0913,0.0527 -0.1018,0.0273 v 0 h -0.1055 v 0 L 51.7368,68.2182 51.6455,68.1655 51.571,68.0909 51.5182,67.9996 51.4909,67.8978 v -0.1055 h -4.979 v 0.1055 l -0.0273,0.1018 -0.0527,0.0913 -0.0746,0.0746 -0.0913,0.0527 -0.1018,0.0273 v 0 h -0.1055 v 0 L 45.9568,68.2182 45.8655,68.1655 45.791,68.0909 45.7382,67.9996 45.7109,67.8978 v -0.1055 l 0.0273,-0.1019 0.0528,-0.0913 0.0745,-0.0746 0.0913,-0.0527 0.1019,-0.0273 h 0.1055 l 0.1018,0.0273 v 0 l 0.0913,0.0527 0.0746,0.0746 0.0527,0.0913 v 0 l 0.0273,0.1019 h 4.979 l 0.0273,-0.1019 0.0528,-0.0913 0.0745,-0.0746 0.0913,-0.0527 0.1019,-0.0273 h 0.1055 l 0.1018,0.0273 v 0 l 0.0913,0.0527 0.0746,0.0746 0.0527,0.0913 v 0 l 0.0273,0.1019 h 2.9294 l 0.1267,-0.1268 0.0335,-0.0613 0.0028,-0.0263 v -6.4533 0 l 8e-4,-0.0019 0.0098,-0.0236 0.0238,-0.0574 9.6829,-9.683 0.0335,-0.0613 0.0028,-0.0263 v -0.2884 l -0.0197,-0.067 -0.0528,-0.0458 -0.0691,-0.0099 -0.0444,0.0153 -0.0048,0.0028 -0.0571,0.033 -0.0764,0.0205 v 0 h -0.0791 v 0 L 64.658,50.9111 64.5895,50.8715 v 0 l -0.0064,-0.0049 -0.0015,0.0019 -0.0504,-0.0275 -0.0697,0.005 -0.034,0.0218 -10e-4,-0.0012 -0.0064,0.0049 v 0 0 0 l -0.0685,0.0396 v 0 0 l -0.0765,0.0205 v 0 H 64.196 v 0 l -0.0764,-0.0205 -0.0685,-0.0396 v 0 l -0.0065,-0.0049 -0.0015,0.0019 -0.0504,-0.0275 -0.0697,0.005 -0.034,0.0218 -9e-4,-0.0012 -0.0065,0.0049 v 0 0 0 l -0.0685,0.0396 v 0 0 l -0.0764,0.0205 v 0 h -0.0791 v 0 l -0.0765,-0.0205 -0.0685,-0.0396 v 0 l -0.0064,-0.0049 -0.0015,0.0019 -0.0504,-0.0275 -0.0697,0.005 -0.034,0.0218 -10e-4,-0.0012 -0.0064,0.0049 v 0 0 0 l -0.0685,0.0396 v 0 0 l -0.0765,0.0205 v 0 h -0.0791 v 0 l -0.0764,-0.0205 -0.0685,-0.0396 v 0 l -0.0065,-0.0049 -0.0015,0.0019 -0.0504,-0.0275 -0.0697,0.005 -0.034,0.0218 -9e-4,-0.0012 -0.0065,0.0049 v 0 0 0 l -0.0685,0.0396 v 0 0 l -0.0764,0.0205 v 0 h -0.0791 v 0 l -0.0765,-0.0205 -0.0685,-0.0396 v 0 l -0.0017,-10e-4 -0.062,-0.0166 h -7.5301 v 0 h -0.0897 l -0.0623,-0.0258 -0.0206,-0.0085 -0.0634,-0.0634 v 0 l -0.0175,-0.0175 v 0 L 54.2827,50.433 54.2214,50.3996 54.1951,50.3967 h -0.526 l -0.062,0.0166 -0.0657,0.0379 -0.0764,0.0205 v 0 h -0.0791 v 0 L 53.3094,50.4512 53.2409,50.4117 53.2272,50.398 53.1659,50.3645 Z"
       id="path544" />
    <path
       style="fill:#4d7fc4;fill-opacity:1;fill-rule:evenodd;stroke:none"
       d="m 25.6116,12.7212 -0.0107,6e-4 -0.3983,0.0394 -0.0106,0.0015 -0.3935,0.0737 -0.0104,0.0024 -0.3856,0.1074 -0.0102,0.0033 -0.3748,0.1404 -0.0099,0.0042 -0.3613,0.1722 -0.0095,0.0051 -0.3451,0.2028 -0.009,0.0058 -0.3262,0.2319 -0.0085,0.0066 -0.0625,0.0532 -0.2424,0.2061 -0.0079,0.0073 -0.2814,0.2846 -0.0072,0.008 -0.2558,0.3078 -0.0065,0.0086 -0.2282,0.3289 -0.0057,0.009 -0.1989,0.3474 -0.0049,0.0095 -0.1681,0.3633 -0.0041,0.0099 -0.1347,0.3727 -0.0016,0.0046 -8e-4,0.0027 -0.0075,0.0276 -0.003,0.0053 -0.0041,0.0128 v 2e-4 l -10e-5,3e-4 -2e-4,7e-4 -0.0045,0.0143 v 0 l -13.8378,44.17 v 0 l -0.0135,0.0429 -0.0014,0.0051 -0.102,0.3814 -0.0023,0.0103 -0.0688,0.3861 -0.0014,0.0104 -0.0359,0.3906 -5e-4,0.0105 -0.0026,0.3921 4e-4,0.0105 0.0305,0.391 0.0013,0.0105 0.0636,0.387 0.0022,0.0103 0.0961,0.3802 0.003,0.0101 0.1281,0.3707 0.0038,0.0098 0.159,0.3585 0.0046,0.0094 0.1888,0.3438 0.0055,0.009 0.2172,0.3266 0.0062,0.0085 0.2441,0.3069 0.0069,0.008 0.2692,0.2852 0.0075,0.0073 0.2943,0.263 0.004,0.0034 0.0038,0.0031 v 0 l 0.0311,0.0255 v 0 l 4.8337,3.9647 3.9944,3.2763 v 0 l 0.0347,0.0285 0.0042,0.0033 0.3197,0.24 0.0087,0.006 0.3368,0.2103 0.0093,0.0053 0.3536,0.1806 0.0097,0.0044 0.3677,0.1497 0.0101,0.0036 0.3792,0.1175 0.0103,0.0027 0.388,0.0846 0.0104,0.0018 0.3938,0.051 0.0106,9e-4 0.3861,0.0166 0.0131,6e-4 0.0053,1e-4 h 56.1375 0.01 v 0 h 0.0209 0.024 v 0 l 0.0054,-1e-4 0.3993,-0.0172 0.0106,-9e-4 0.3938,-0.051 0.0105,-0.0018 0.3879,-0.0846 0.0103,-0.0027 0.3793,-0.1175 0.01,-0.0036 0.3678,-0.1496 0.0096,-0.0045 0.3536,-0.1806 0.0093,-0.0053 0.3368,-0.2102 0.0088,-0.0061 0.3191,-0.2395 0.0042,-0.0033 4.1959,-3.4416 0.1069,-0.0877 h -3.6115 v 0.0791 l -0.0136,0.0509 -0.0068,0.0255 h -10e-5 l -0.0395,0.0685 v 0 0 l -0.056,0.056 v 0 0 l -0.0685,0.0395 v 0 l -0.0764,0.0205 v 0 h -0.0791 v 0 l -0.0765,-0.0205 -0.0685,-0.0395 -0.0559,-0.056 -0.0396,-0.0685 -0.0196,-0.0732 -0.0321,-0.0556 -0.7801,-0.7801 -0.0614,-0.0335 -0.0697,0.005 -0.0186,0.0087 -0.0449,0.0259 -0.0764,0.0205 v 0 h -0.0791 v 0 L 78.9634,68.4344 78.8949,68.3949 78.839,68.3389 78.7994,68.2704 78.7789,68.194 v -0.0791 l 0.0205,-0.0765 v 0 l 0.0396,-0.0685 v 0 l 0.0559,-0.0559 v 0 l 0.0685,-0.0396 v 0 l 0.0255,-0.0068 0.051,-0.0137 h 0.0791 l 0.0382,0.0103 0.0382,0.0102 v 0 l 0.0657,0.0379 0.0155,0.0042 0.0115,0.0074 0.035,0.005 h 0.0526 v 0 h 0.0145 0.0897 v 0 l 0.0343,0.0142 0.0243,0.0101 v 0 l 0.0243,0.0101 0.9262,0.9262 0.0556,0.0321 0.0732,0.0196 v 0 l 0.0685,0.0396 v 0 l 0.056,0.0559 v 0 l 0.0395,0.0685 h 10e-5 l 0.0136,0.051 0.0068,0.0255 h 3.6115 l 4.5504,-3.7323 v 0 l 0.0101,-0.0084 0.007,-0.0057 0.0277,-0.0227 0.004,-0.0034 0.2937,-0.2624 0.0075,-0.0073 0.2686,-0.2844 0.0068,-0.0079 0.044,-0.0552 0.1996,-0.2508 0.0062,-0.0084 0.0625,-0.0937 0.1544,-0.2318 0.0055,-0.009 0.1886,-0.3426 0.0046,-0.0094 0.0023,-0.005 0.1568,-0.3524 0.0038,-0.0097 0.1282,-0.3695 0.0031,-0.01 0.011,-0.0434 0.0855,-0.3357 0.0022,-0.0102 0.0642,-0.3858 0.0013,-0.0104 0.0313,-0.3899 4e-4,-0.0105 V 61.908 l -0.0015,-0.3487 h -1.094 v 0.0083 0.3504 l -7e-4,0.0063 -0.0345,0.3506 v 0 l -0.0699,0.3518 h -1e-4 l -0.1041,0.3432 -0.1372,0.3314 v 0 l -0.1691,0.3163 v 0 l -0.1993,0.2982 v 0 l -0.2275,0.2773 -0.2536,0.2536 v 0 0 l -0.2773,0.2276 v 0 0 l -0.2982,0.1992 v 0 0 0 0 l -0.3163,0.1691 v 0 h -1e-4 l -0.3313,0.1373 -0.3433,0.1041 v 0 0 0 l -0.2206,0.0439 -0.1311,0.0261 -0.357,0.0351 v 0 h -0.3587 v 0 L 85.4628,65.354 85.2887,65.3193 85.111,65.284 v 0 0 0 L 84.7678,65.1799 84.4364,65.0426 84.1201,64.8735 83.8219,64.6743 83.5446,64.4467 83.291,64.1931 83.0634,63.9158 82.8642,63.6176 82.6951,63.3013 82.5578,62.9699 82.4537,62.6267 v 0 0 L 82.417,62.4423 82.3837,62.2749 82.3486,61.918 v -0.3587 l 0.0351,-0.357 0.0329,-0.165 0.0371,-0.1867 v 0 0 -1e-4 l 0.1041,-0.3432 0.1373,-0.3314 0.0071,-0.0132 0.0125,-0.0234 H 66.1211 v 0.0791 l -0.0016,0.0061 -0.0188,0.0703 h -1e-4 l -0.0395,0.0685 v 0 0 l -0.056,0.056 v 0 0 l -0.0579,0.0334 -0.0106,0.0061 -0.0764,0.0205 v 0 h -0.0791 v 0 l -0.0765,-0.0205 -0.0685,-0.0395 -0.0129,-0.013 -0.0165,-0.0165 -0.0613,-0.0334 -0.0264,-0.0029 h -1.5839 v 0 h -0.0897 l -0.0792,-0.0328 -0.0037,-0.0015 -0.0634,-0.0634 v 0 l -0.0175,-0.0175 v 0 l -1.1717,-1.1717 v 0 l -0.0174,-0.0174 v 0 l -0.0634,-0.0634 v 0 0 l -0.0172,-0.0415 -0.0172,-0.0414 v -0.1568 l -0.0166,-0.062 -0.012,-0.0208 -0.0259,-0.0449 -0.0205,-0.0764 v -0.0791 l 0.0205,-0.0765 0.0323,-0.0558 0.0073,-0.0127 v 0 l 0.0559,-0.0559 v 0 l 0.0685,-0.0396 v 0 l 0.0255,-0.0068 0.051,-0.0137 h 0.0791 l 0.0382,0.0103 0.0382,0.0102 v 0 l 0.0685,0.0396 v 0 l 0.056,0.0559 v 0 l 0.0395,0.0685 h 1e-4 l 0.0026,0.0099 0.0178,0.0666 v 0.0791 l -0.0107,0.0402 -0.0097,0.0362 h -1e-4 l -0.0258,0.0449 -0.0165,0.0679 0.0228,0.066 0.0134,0.0157 1.0532,1.0533 0.0613,0.0335 0.0264,0.0028 h 1.6394 l 0.0321,-0.0042 0.0746,-0.02 h 0.0791 l 0.0382,0.0103 0.0382,0.0102 v 0 l 0.0685,0.0396 v 0 l 0.056,0.0559 v 0 l 0.0395,0.0685 h 1e-4 l 0.007,0.0264 0.0134,0.0501 h 16.5936 l 0.1495,-0.2797 v 0 0 l 0.0212,-0.0317 0.178,-0.2665 v 0 0 l 0.2276,-0.2773 v 0 0 l 0.2536,-0.2536 0.2772,-0.2275 h 1e-4 l 0.2982,-0.1993 v 0 l 0.3163,-0.1691 v 0 l 0.3314,-0.1372 0.3432,-0.1042 v 0 l 0.3518,-0.0699 v 0 l 0.2699,-0.0266 0.087,-0.0086 h 0.3587 l 0.0805,0.0079 0.2765,0.0273 v 0 l 0.3517,0.0699 v 0 l 0.3433,0.1042 0.3314,0.1372 v 0 l 0.3163,0.1691 v 0 l 0.2982,0.1993 v 0 l 0.2773,0.2275 0.2536,0.2536 0.2275,0.2773 v 0 l 0.1993,0.2982 v 0 l 0.1691,0.3163 v 0 l 0.1372,0.3314 0.1041,0.3433 h 1e-4 l 0.0699,0.3517 v 0 l 0.0272,0.2765 0.008,0.0805 h 1.094 l -1e-4,-0.0366 -5e-4,-0.0105 -0.0347,-0.3896 -0.0014,-0.0103 -0.0675,-0.3853 -0.0022,-0.0102 -0.1003,-0.38 -0.0016,-0.0054 -0.0033,-0.0107 -3.0489,-9.7318 H 65.6639 v 0.0791 l -0.0126,0.0472 -0.0078,0.0292 v 0 l -0.038,0.0657 -0.0166,0.062 v 0.4889 0 0.0997 0 l -0.0242,0.0586 -0.0101,0.0243 v 0 l -0.0634,0.0634 v 0 l -0.0175,0.0174 -9.6021,9.6021 -0.0334,0.0613 -0.0029,0.0264 v 6.3536 0 0.0997 0 l -0.0242,0.0586 -0.0101,0.0243 v 0 l -0.0634,0.0634 v 0 l -0.0175,0.0174 v 0 l -1.4049,1.405 v 0 l -0.0641,0.0265 -0.0188,0.0078 H 54.1426 39.1701 v 0 h -0.0897 l -0.0586,-0.0243 -0.0243,-0.01 -0.0634,-0.0634 v 0 l -0.0175,-0.0175 v 0 l -0.8589,-0.8589 v 0 L 37.9943,68.333 37.9732,68.2822 37.9599,68.2501 v -0.0897 -0.01 0 -4.9151 0 -0.1041 0 l 0.0243,-0.0586 0.0101,-0.0243 0.0634,-0.0634 0.0071,-0.0071 v 0 l 0.6754,-0.6754 h -6.3525 l -0.0321,0.1616 v 0 l -0.063,0.1522 h -1e-4 l -0.0915,0.1369 v 0 l -0.1165,0.1165 v 0 l -0.1369,0.0915 v 0 l -0.0212,0.0088 -0.131,0.0543 v 0 0 l -0.1616,0.0321 v 0 h -0.1647 l -0.1087,-0.0216 -0.0529,-0.0105 -0.1522,-0.0631 -0.137,-0.0915 -0.1165,-0.1165 -0.0915,-0.1369 -0.063,-0.1522 -0.0105,-0.0529 -0.0217,-0.1087 h -0.8674 l -0.0321,0.1616 v 0 l -0.063,0.1522 h -10e-5 l -0.0915,0.1369 v 0 l -0.1165,0.1165 v 0 l -0.1369,0.0915 v 0 l -0.0212,0.0088 -0.131,0.0543 v 0 0 l -0.1616,0.0321 v 0 h -0.1647 l -0.1087,-0.0216 -0.0529,-0.0105 -0.1522,-0.0631 -0.137,-0.0915 -0.1165,-0.1165 -0.0915,-0.1369 -0.063,-0.1522 -0.0105,-0.0529 -0.0217,-0.1087 h -0.8674 l -0.0321,0.1616 v 0 l -0.063,0.1522 h -10e-5 l -0.0915,0.1369 v 0 l -0.1165,0.1165 v 0 l -0.1369,0.0915 v 0 l -0.0212,0.0088 -0.131,0.0543 v 0 0 l -0.1616,0.0321 v 0 h -0.1647 l -0.1087,-0.0216 -0.0529,-0.0105 -0.1522,-0.0631 -0.137,-0.0915 -0.1165,-0.1165 -0.0915,-0.1369 -0.063,-0.1522 -0.0105,-0.0529 -0.0217,-0.1087 v -0.1647 l 0.0322,-0.1616 v 0 0 l 0.063,-0.1522 v 0 0 l 0.0915,-0.137 v 0 l 0.1165,-0.1165 v 0 L 25.955,61.5593 H 15.6486 v 0.0083 0.3504 l -6e-4,0.0063 -0.0345,0.3506 v 0 l -0.07,0.3518 v 0 l -0.1041,0.3432 -0.1373,0.3314 v 0 l -0.1691,0.3163 v 0 l -0.1992,0.2982 v 0 l -0.2276,0.2773 -0.2536,0.2536 v 0 0 l -0.2773,0.2276 v 0 0 l -0.2982,0.1992 v 0 0 0 0 l -0.3163,0.1691 v 0 0 l -0.3314,0.1373 -0.3432,0.1041 v 0 0 0 l -0.2206,0.0439 -0.1312,0.0261 -0.3569,0.0351 v 0 h -0.3587 v 0 L 11.4618,65.354 11.2877,65.3193 11.1101,65.284 v 0 0 0 L 10.7668,65.1799 10.4355,65.0426 10.1191,64.8735 9.8209,64.6743 9.5436,64.4467 9.29,64.1931 9.0625,63.9158 8.8632,63.6176 8.6941,63.3013 8.5569,62.9699 8.4528,62.6267 v 0 0 L 8.4161,62.4423 8.3828,62.2749 8.3476,61.918 v -0.3587 l 0.0352,-0.357 0.0328,-0.165 0.0372,-0.1867 v 0 0 -1e-4 l 0.1041,-0.3432 0.1372,-0.3314 0.0071,-0.0132 0.162,-0.3031 v 0 0 l 0.0212,-0.0317 0.1781,-0.2665 v 0 0 L 9.29,59.2841 v 0 0 L 9.5436,59.0305 9.8209,58.803 v 0 l 0.2982,-0.1993 v 0 l 0.3163,-0.1691 h 10e-5 l 0.3313,-0.1372 0.3433,-0.1042 v 0 l 0.3517,-0.0699 h 10e-5 l 0.2699,-0.0266 0.087,-0.0086 h 0.3587 l 0.0804,0.0079 0.2765,0.0273 v 0 l 0.3518,0.0699 v 0 l 0.3432,0.1042 0.3314,0.1372 v 0 l 0.3163,0.1691 v 0 l 0.2982,0.1993 h 10e-5 l 0.2772,0.2275 0.2536,0.2536 0.2276,0.2773 v 0 l 0.1992,0.2982 v 0 l 0.1691,0.3163 v 0 l 0.1373,0.3314 0.1041,0.3433 v 0 l 0.07,0.3517 v 0 l 0.0272,0.2765 0.0079,0.0805 H 25.955 l 0.1203,-0.0804 v 0 l 0.1522,-0.063 v 0 l 0.1616,-0.0322 v 0 h 0.1647 v 0 l 0.1616,0.0322 v 0 l 0.1522,0.063 v 0 l 0.1369,0.0915 v 0 l 0.1165,0.1165 v 0 l 0.0915,0.137 h 10e-5 l 0.063,0.1522 v 0 l 0.0321,0.1616 v 0 0.1647 0 0 h 0.8674 v -0.1647 l 0.0322,-0.1616 v 0 0 l 0.063,-0.1522 v 0 0 l 0.0915,-0.137 v 0 l 0.1165,-0.1165 v 0 l 0.137,-0.0915 v 0 l 0.1522,-0.063 v 0 l 0.1616,-0.0322 v 0 h 0.1647 v 0 l 0.1616,0.0322 v 0 l 0.1522,0.063 v 0 l 0.1369,0.0915 v 0 l 0.1165,0.1165 v 0 l 0.0915,0.137 h 10e-5 l 0.063,0.1522 v 0 l 0.0321,0.1616 v 0 0.1647 0 0 h 0.8674 v -0.1647 l 0.0322,-0.1616 v 0 0 l 0.063,-0.1522 v 0 0 l 0.0915,-0.137 v 0 l 0.1165,-0.1165 v 0 l 0.137,-0.0915 v 0 l 0.1522,-0.063 v 0 l 0.1616,-0.0322 v 0 h 0.1647 v 0 l 0.1616,0.0322 v 0 l 0.1522,0.063 v 0 l 0.1369,0.0915 v 0 l 0.1165,0.1165 v 0 l 0.0915,0.137 h 1e-4 l 0.063,0.1522 v 0 l 0.0321,0.1616 v 0 0.1647 0 0 h 6.3525 l 1.1817,-1.1818 0.0335,-0.0613 -0.005,-0.0697 -0.0419,-0.0559 -0.0654,-0.0244 -0.012,-3e-4 -0.0191,5e-4 -0.0069,0.0028 h -0.0897 v 0 H 26.7722 l -0.0671,0.0197 -0.0206,0.0166 -0.0187,0.0187 v 0 0 l -0.0799,0.0461 v 0 0 l -0.0891,0.0239 v 0 h -0.0923 v 0 L 26.3153,61.0134 26.2354,60.9673 26.1702,60.902 26.124,60.8221 26.1001,60.733 v -0.0923 l 0.0239,-0.0892 v 0 l 0.0462,-0.0799 v 0 0 l 0.0652,-0.0652 v 0 -10e-5 l 0.0799,-0.0461 v 0 0 0 l 0.0892,-0.0239 h 0.0923 l 0.0891,0.0239 v 0 0 0 l 0.0799,0.0461 v 10e-5 l 0.0187,0.0186 0.0613,0.0335 0.0264,0.0028 h 2.135 l 0.067,-0.0197 0.0371,-0.0427 0.0039,0.011 0.0171,0.0133 0.0139,0.0168 0.0132,0.0042 0.011,0.0085 0.0216,0.002 0.0207,0.0066 h 0.003 10.4998 l 0.067,-0.0197 0.0206,-0.0166 2.6655,-2.6655 0.0335,-0.0613 0.0028,-0.0263 v -0.0783 l -0.0197,-0.067 -0.0528,-0.0458 -0.0691,-0.0099 -0.0636,0.029 -0.0065,0.006 -2.4958,2.4959 v 0 l -0.0634,0.0634 -0.0344,0.0142 -0.0485,0.0201 v 0 h -0.1042 v 0 H 29.333 l -0.0576,0.0142 -0.0167,0.0088 -0.0321,0.032 -0.0799,0.0461 -0.0764,0.0205 -0.0121,0.0064 -0.0157,0.0151 -0.0186,0.0113 -0.006,0.0125 -0.0086,0.0082 -0.0084,-0.0185 -0.0588,-0.0378 -0.0028,-7e-4 -0.0632,-0.017 v 0 0 0 l -0.0799,-0.0461 v 0 0 L 28.731,60.0892 28.6848,60.0093 28.6609,59.9202 v -0.0923 l 0.0239,-0.0892 v 0 l 0.0462,-0.0799 v 0 0 l 0.0652,-0.0652 v 0 0 l 0.0799,-0.0462 v 0 0 0 l 0.0892,-0.0239 h 0.0923 l 0.0891,0.0239 v 0 0 0 l 0.0799,0.0462 v 0 l 0.0187,0.0186 0.0613,0.0335 0.0264,0.0028 h 10.0285 l 0.0294,-0.0086 0.03,-0.0065 0.005,-0.0038 0.0026,-8e-4 0.0206,-0.0166 0.1412,-0.1412 0.0335,-0.0613 -0.005,-0.0697 -0.0418,-0.0559 -0.0655,-0.0245 -0.0088,-3e-4 h -0.0426 v 0 L 39.3709,59.2354 39.291,59.1893 39.2258,59.124 39.1796,59.0441 39.1557,58.955 v -0.0923 l 0.0239,-0.0892 0.0052,-0.0089 0.041,-0.071 v 0 0 l 0.0652,-0.0652 v 0 -10e-5 l 0.0799,-0.0461 v 0 0 0 l 0.0892,-0.0239 h 0.0772 l 0.067,-0.0197 0.0206,-0.0166 0.2037,-0.2037 0.0335,-0.0613 0.0028,-0.0263 V 55.3696 L 39.8452,55.3025 39.8286,55.2819 39.81,55.2632 39.7638,55.1833 39.7399,55.0942 v -0.0923 l 0.0239,-0.0892 v 0 L 39.81,54.8328 v 0 0 l 0.0652,-0.0652 v 0 -1e-4 l 0.0799,-0.0461 v 0 0 0 l 0.0892,-0.0239 h 0.0923 l 0.0891,0.0239 v 0 0 0 l 0.0799,0.0461 v 1e-4 l 0.0653,0.0652 v 0 l 0.0461,0.0799 v 0 0 0 l 0.0239,0.0892 v 0.0923 l -0.0062,0.0233 -0.0177,0.0658 v 0 l -0.0461,0.0799 v 0 l -0.0187,0.0187 -0.0334,0.0613 -0.0029,0.0264 v 2.961 0 0.0897 l -0.0028,0.0068 -5e-4,0.0191 0.0064,0.0239 0.0022,0.0247 0.0066,0.0085 0.0027,0.0104 0.0183,0.0167 0.0152,0.0196 0.0102,0.0036 0.0079,0.0072 0.0245,0.0042 0.0233,0.0082 0.0105,-0.0024 0.0106,0.0018 0.0228,-0.0097 0.0241,-0.0057 0.0136,-0.0103 0.0038,-0.0017 0.0018,-0.0027 0.0071,-0.0054 1.3618,-1.3618 0.0335,-0.0613 0.0028,-0.0263 V 50.947 l -0.0197,-0.0671 -0.0528,-0.0457 -0.0691,-0.01 -0.0444,0.0154 -0.0313,0.018 v 0 0 l -0.0764,0.0205 v 0 h -0.0791 v 0 l -0.0765,-0.0205 -0.0656,-0.0379 -0.0155,-0.0041 -0.0116,-0.0075 -0.0349,-0.005 h -0.1447 l -0.067,0.0197 -0.0458,0.0528 -0.0112,0.0515 v 0.0059 0.0791 l -0.0136,0.0509 -0.0068,0.0255 h -1e-4 l -0.0395,0.0685 v 0 0 l -0.056,0.056 v 0 0 l -0.0685,0.0395 v 0 0 l -0.0764,0.0205 v 0 h -0.0791 v 0 l -0.0765,-0.0205 -0.0656,-0.0379 -0.062,-0.0166 h -0.739 v 0 h -0.0897 l -0.0586,-0.0243 -0.0243,-0.01 -0.0634,-0.0634 v 0 l -0.0175,-0.0175 v 0 l -0.2632,-0.2632 v 0 l -0.0634,-0.0634 -0.0101,-0.0243 -0.0243,-0.0586 v -0.0897 -0.01 0 V 39.469 H 28.7137 v 0.1581 l -0.0409,0.1527 v 0 l -0.079,0.1369 v 0 0 l -0.1119,0.1118 v 0 0 l -0.1369,0.0791 v 0 l -0.1527,0.0409 v 0 h -0.1581 v 0 l -0.1528,-0.0409 -0.1369,-0.0791 -0.1118,-0.1118 -0.079,-0.1369 -0.041,-0.1527 V 39.469 l 0.041,-0.1528 0.0059,-0.0102 0.0731,-0.1267 v 0 l 0.1118,-0.1118 v 0 l 0.1369,-0.079 v -1e-4 0 l 0.1528,-0.0409 h 0.1581 l 0.1527,0.0409 v 1e-4 l 0.1369,0.079 v 0 l 0.1119,0.1118 v 0 l 0.079,0.1369 v 0 l 0.0409,0.1528 h 10.4654 v -2.8046 0 l 7e-4,-0.0017 0.0071,-0.0171 0.0266,-0.0641 0.0705,-0.0705 v 0 l 1.406,-1.4061 0.0147,-0.0269 0.0166,-0.0258 9e-4,-0.0062 0.0013,-0.0024 0.0028,-0.0263 v -0.2256 l -0.0166,-0.062 -0.0023,-0.004 -0.0356,-0.0617 -0.0205,-0.0764 v -0.0791 l 0.0205,-0.0765 v 0 l 0.0396,-0.0685 v 0 l 0.0559,-0.0559 v 0 l 0.0685,-0.0396 v 0 l 0.0255,-0.0068 0.051,-0.0137 h 0.0791 l 0.0382,0.0103 0.0382,0.0102 v 0 l 0.0685,0.0396 v 0 l 0.056,0.0559 v 0 l 0.0395,0.0685 h 1e-4 l 0.0136,0.051 0.0068,0.0255 v 0.0791 l -0.0136,0.0509 -0.0068,0.0255 v 0 l -0.038,0.0657 -0.0166,0.062 v 0.3155 0 0.0997 0 l -0.0242,0.0586 -0.0101,0.0243 v 0 l -0.0634,0.0634 v 0 l -0.0175,0.0174 -1.3957,1.3957 -0.0334,0.0613 -0.0029,0.0264 v 13.6297 l 0.0087,0.0294 0.0065,0.03 0.0038,0.005 7e-4,0.0026 0.0166,0.0206 0.1394,0.1394 0.0613,0.0335 0.0264,0.0028 h 0.6391 l 0.062,-0.0166 0.0309,-0.0178 0.0482,-0.0506 0.0132,-0.0686 -0.0259,-0.0649 -0.0098,-0.011 -0.3409,-0.3409 v 0 l -0.0174,-0.0174 v 0 l -0.0634,-0.0634 -0.0201,-0.0485 -0.0143,-0.0344 v -0.0897 -0.01 0 -10.2884 -0.0259 0 -0.0897 l 0.0344,-0.0829 v 0 L 40.2929,39.3629 40.3,39.3558 v 0 l 0.2918,-0.2919 0.0335,-0.0613 0.0028,-0.0263 v -0.0206 l 0.0205,-0.0765 v 0 l 0.0396,-0.0685 v 0 l 0.0559,-0.0559 v 0 l 0.0685,-0.0396 v 0 l 0.0255,-0.0068 0.051,-0.0137 h 0.0791 l 0.0382,0.0103 0.0382,0.0102 v 0 l 0.0685,0.0396 v 0 l 0.056,0.0559 v 0 l 0.0395,0.0685 h 1e-4 l 0.0136,0.051 0.0068,0.0255 v 0.0791 l -0.0087,0.0327 -0.0117,0.0437 h -1e-4 l -0.0395,0.0685 v 0 0 l -0.056,0.056 v 0 0 l -0.0685,0.0395 v 0 0 l -0.0038,0.0011 -0.0035,0.002 -2e-4,10e-5 v 0 l -0.0519,0.03 -0.3028,0.3027 -0.0334,0.0613 -0.0029,0.0264 v 10.1245 l 0.0197,0.067 0.0166,0.0206 0.4049,0.4049 0.0269,0.0147 0.0259,0.0166 0.0062,9e-4 0.0023,0.0013 0.0264,0.0028 h 0.1704 l 0.062,-0.0166 0.0656,-0.0379 v 0 l 0.0255,-0.0068 0.051,-0.0137 h 0.0791 l 0.0509,0.0137 0.0255,0.0068 0.0313,0.0181 0.0679,0.0165 0.0661,-0.0229 0.0431,-0.0549 0.0089,-0.0461 v -2.1139 0 l 0.0344,-0.0829 0.1896,-0.1896 0.0321,-0.0556 0.0196,-0.0733 0.0147,-0.0254 0.0249,-0.0431 v 0 l 0.0559,-0.0559 v 0 L 42.362,47.529 v 0 l 0.0255,-0.0068 0.051,-0.0137 h 0.0791 l 0.0382,0.0103 0.0382,0.0102 v 0 l 0.0685,0.0396 v 0 l 0.056,0.0559 v 0 l 0.0395,0.0685 h 10e-5 l 0.0204,0.0765 v 0.086 l 0.0063,0.0212 0.0015,0.0221 0.0081,0.0108 0.0038,0.0129 0.0167,0.0145 0.0133,0.0177 0.0126,0.0047 0.0102,0.0089 0.0219,0.0031 0.0208,0.0077 0.0131,-0.0028 0.0134,0.0019 0.0201,-0.0092 0.0217,-0.0047 0.0177,-0.0133 0.004,-0.0018 0.0065,-0.0061 0.1467,-0.1466 0.0321,-0.0556 0.0196,-0.0733 0.0249,-0.0431 0.0147,-0.0254 v 0 l 0.0559,-0.0559 v 0 l 0.0685,-0.0396 v 0 l 0.0255,-0.0068 0.051,-0.0137 h 0.0791 l 0.0382,0.0103 0.0382,0.0102 v 0 l 0.0685,0.0396 v 0 l 0.056,0.0559 v 0 l 0.0395,0.0685 h 10e-5 l 0.0136,0.051 0.0068,0.0255 v 0.0791 l -0.0068,0.0254 -0.0136,0.051 h -10e-5 l -0.0395,0.0685 v 0 0 l -0.056,0.056 v 0 0 l -0.044,0.0254 -0.0245,0.0141 -0.0732,0.0197 -0.0556,0.0321 -0.5636,0.5635 -0.0334,0.0613 -0.0029,0.0264 v 2.9967 l 0.0197,0.0671 0.0528,0.0457 0.0692,0.01 0.0144,-0.003 0.0414,-0.0111 v 0 h 0.0791 l 0.0509,0.0137 0.0255,0.0068 0.0264,0.0153 0.0679,0.0164 0.0661,-0.0228 0.0431,-0.055 0.0089,-0.046 v -2.5426 0 l 0.0022,-0.0053 0.036,-0.0868 0.0704,-0.0704 0.1787,-0.1787 0.0321,-0.0556 0.0067,-0.025 0.0141,-0.0243 0.0255,-0.0442 v 0 l 0.0559,-0.0559 v 0 l 0.0685,-0.0396 v 0 l 0.0255,-0.0068 0.051,-0.0137 h 0.0791 l 0.0382,0.0103 0.0382,0.0102 v 0 l 0.0685,0.0396 v 0 l 0.056,0.0559 v 0 l 0.0395,0.0685 h 10e-5 l 0.0104,0.0391 0.01,0.0374 v 0.0791 l -0.0031,0.0118 -0.0173,0.0646 h -10e-5 l -0.0395,0.0685 v 0 0 l -0.056,0.056 v 0 0 l -0.0355,0.0205 -0.033,0.019 -0.0249,0.0067 -0.0139,0.008 -0.0135,0.003 -0.0282,0.0211 -0.1043,0.1043 -0.0334,0.0613 -0.0029,0.0263 v 2.9095 l 0.0166,0.062 0.013,0.0223 v 0 l 0.0136,0.051 0.0068,0.0255 v 0.0791 l -0.0106,0.0396 -0.0098,0.0368 -0.013,0.0224 -0.0166,0.062 v 0.2912 l 0.0197,0.067 0.0166,0.0207 1.2539,1.2538 0.0613,0.0335 0.0264,0.0028 h 2.7803 l 0.0671,-0.0197 0.0457,-0.0528 0.01,-0.0691 -0.003,-0.0145 -0.0016,-0.0061 -0.0014,-0.0049 v -0.0791 l 0.0205,-0.0765 0.0102,-0.0177 0.0294,-0.0508 v 0 l 0.0559,-0.0559 v 0 l 0.0685,-0.0396 v 0 l 0.0255,-0.0068 0.051,-0.0137 h 0.0791 l 0.0382,0.0103 0.0382,0.0102 v 0 l 0.0685,0.0396 v 0 l 0.056,0.0559 v 0 l 0.0395,0.0685 h 1e-4 l 0.0204,0.0765 v 0.0791 l -0.0029,0.011 0.0016,0.0699 0.0392,0.0578 0.0642,0.0275 0.0147,9e-4 h 1.9522 l 0.0671,-0.0197 0.0457,-0.0528 0.0112,-0.0515 v -0.0714 l 0.0136,-0.0508 0.0069,-0.0257 0.0293,-0.0508 0.0103,-0.0177 v 0 l 0.0559,-0.0559 v 0 l 0.0685,-0.0396 v 0 0 0 0 l 0.0733,-0.0196 0.0556,-0.0321 0.5889,-0.589 0.0147,-0.0269 0.0166,-0.0258 9e-4,-0.0062 0.0013,-0.0024 0.0028,-0.0263 v -0.0115 l -0.0197,-0.067 -0.0166,-0.0207 -0.0013,-0.0013 -0.0344,-0.0829 v -0.0897 -0.2701 l 0.014,-0.0338 0.0204,-0.049 0.0013,-0.0014 0.002,-0.0037 0.0034,-0.0051 -4e-4,-3e-4 0.0285,-0.0522 0.0028,-0.0264 v -5.6502 l -0.0197,-0.067 -0.0166,-0.0207 -0.9129,-0.9129 -0.0613,-0.0334 -0.0263,-0.0029 h -1.7516 l -0.062,0.0166 -0.0657,0.0379 -0.0764,0.0205 v 0 h -0.0791 v 0 l -0.0765,-0.0205 -0.022,-0.0127 -0.0679,-0.0164 -0.0561,0.0164 -0.022,0.0127 -0.0764,0.0205 v 0 h -0.0791 v 0 L 48.3818,45.93 48.3566,45.9155 48.2887,45.899 48.2326,45.9155 48.2074,45.93 v 0 0 l -0.0764,0.0205 v 0 h -0.0791 v 0 L 47.9754,45.93 47.9502,45.9155 47.8823,45.899 47.8262,45.9155 47.801,45.93 v 0 0 l -0.0764,0.0205 v 0 h -0.0791 v 0 L 47.569,45.93 47.5005,45.8905 47.4446,45.8345 47.405,45.766 47.3845,45.6896 v -0.0791 l 0.0205,-0.0765 0.0353,-0.061 0.0026,-0.0046 0.0166,-0.062 v -0.5008 -0.0235 0 -0.0897 l 0.0201,-0.0486 0.0143,-0.0343 0.0634,-0.0634 0.0071,-0.0071 v 0 l 0.4708,-0.4709 0.0175,-0.0174 0.0634,-0.0634 v 0 l 0.0243,-0.0101 v 0 l 0.0586,-0.0243 v 0 0 h 0.0897 0.0144 v 0 h 1.3462 l 0.0671,-0.0197 0.0457,-0.0528 0.0091,-0.0607 h 9e-4 v -0.006 l 2e-4,-10e-4 -2e-4,-0.0011 v -0.0791 l 0.0205,-0.0765 v 0 l 0.0396,-0.0685 v 0 l 0.0559,-0.0559 v 0 l 0.0685,-0.0396 v 0 l 0.0255,-0.0068 0.051,-0.0137 h 0.0791 l 0.0382,0.0103 0.0382,0.0102 v 0 l 0.0657,0.0379 0.062,0.0166 h 2.3023 v 0 h 0.0897 l 0.0317,0.0132 0.0156,0.0064 v 0 l 0.0356,0.0148 v 0 l 0.0634,0.0634 v 0 l 1.2574,1.2574 1.2501,1.2501 0.0613,0.0335 0.0264,0.0028 h 1.4868 0.0897 v 0 0 l 0.0829,0.0344 v 0 l 2.4185,2.4185 0.0613,0.0335 0.0264,0.0028 h 4.0631 v 0 h 0.0145 0.0897 v 0 l 0.0343,0.0142 0.0243,0.0101 v 0 l 0.0243,0.0101 1.0099,1.0098 0.0194,0.0106 0.0167,0.0145 0.0134,0.002 0.0118,0.0064 0.0221,-0.0016 0.0219,0.0032 0.0122,-0.0056 0.0135,-10e-4 0.0177,-0.0132 0.0201,-0.0092 0.0073,-0.0114 0.0108,-0.008 0.0077,-0.0208 0.012,-0.0186 0.0032,-0.0219 0.0015,-0.0042 3e-4,-0.0088 v -0.1291 l -0.0197,-0.067 -0.0166,-0.0207 -4.6745,-4.6745 v 0 l -0.0174,-0.0174 v 0 l -0.0634,-0.0634 -0.0217,-0.0523 -0.0127,-0.0306 v -0.0897 0 -2.2299 h -8.2116 v 0.0791 l -0.0136,0.0509 -0.0068,0.0255 h -10e-5 l -0.0395,0.0685 v 0 0 l -0.056,0.056 v 0 0 l -0.016,0.0092 -0.0525,0.0303 -0.0764,0.0205 v 0 h -0.0791 v 0 L 51.633,42.6788 51.5645,42.6393 51.5533,42.628 51.5351,42.6098 51.4738,42.5764 51.4474,42.5735 h -1.4359 l -0.062,0.0166 -0.0657,0.0379 -0.0764,0.0205 v 0 h -0.0791 v 0 L 49.6518,42.628 49.5833,42.5885 49.5274,42.5325 49.4878,42.464 49.4673,42.3876 v -0.0791 l 0.0205,-0.0765 0.0102,-0.0177 0.0294,-0.0508 v 0 l 0.0559,-0.0559 v 0 l 0.0685,-0.0396 v 0 l 0.0255,-0.0068 0.051,-0.0137 h 0.0791 l 0.0382,0.0103 0.0382,0.0102 v 0 l 0.0657,0.0379 0.062,0.0166 h 1.5913 l 0.0321,-0.0042 0.0746,-0.02 h 0.0791 l 0.0283,0.0076 0.0481,0.0129 v 0 l 0.0685,0.0396 v 0 l 0.056,0.0559 v 0 l 0.0395,0.0685 h 10e-5 l 0.0068,0.0257 0.0136,0.0508 h 8.2116 v -5.3848 h -6.4082 v 0.0791 l -0.0136,0.0508 -0.0068,0.0256 h -1e-4 l -0.0395,0.0685 v 0 0 l -0.056,0.056 v 0 0 l -0.0685,0.0395 v 0 l -0.0732,0.0197 -0.0556,0.0321 -8.1272,8.1272 v 0 l -0.0634,0.0634 -0.0243,0.01 -0.0586,0.0243 h -0.0298 l -0.062,0.0166 -0.0657,0.0379 -0.0764,0.0205 v 0 h -0.0791 v 0 l -0.0765,-0.0205 -0.0685,-0.0395 -0.0559,-0.056 -0.0052,-0.0088 -0.0505,-0.0483 -0.0686,-0.0132 -0.0601,0.0224 -0.0085,0.006 -0.0485,0.0486 -0.0344,0.0142 -0.0485,0.0201 v 0 h -0.1042 v 0 h -0.1001 l -0.062,0.0166 -0.0678,0.0392 -0.0764,0.0204 v 0 h -0.0791 v 0 l -0.0764,-0.0204 -0.0686,-0.0396 -0.0199,-0.0199 -0.0613,-0.0335 -0.0697,0.005 -0.0041,0.0016 -0.0315,0.013 -0.0425,0.0176 h -0.5124 l -0.062,0.0166 -0.0657,0.0379 -0.0764,0.0205 v 0 h -0.0791 v 0 l -0.0765,-0.0205 -0.0685,-0.0395 -0.0559,-0.056 -0.0396,-0.0685 -0.0205,-0.0764 v -0.0791 l 0.0205,-0.0765 0.0314,-0.0544 0.0082,-0.0141 v 0 l 0.0559,-0.0559 v 0 l 0.0685,-0.0396 v 0 l 0.0388,-0.0104 0.0377,-0.0101 h 0.0791 l 0.0377,0.0101 0.0387,0.0104 v 0 l 0.0657,0.0379 0.062,0.0166 h 0.3228 l 0.067,-0.0197 0.0206,-0.0166 4.3673,-4.3673 0.0335,-0.0613 0.0028,-0.0263 v -3.4216 l -0.0166,-0.062 -0.0234,-0.0405 -0.0145,-0.0252 -0.0205,-0.0764 v -0.0791 l 0.0205,-0.0765 0.0132,-0.0228 0.0264,-0.0457 v 0 l 0.0559,-0.0559 v 0 l 0.0685,-0.0396 v 0 l 0.0255,-0.0068 0.051,-0.0137 h 0.0791 l 0.0382,0.0103 0.0382,0.0102 v 0 l 0.0685,0.0396 v 0 l 0.056,0.0559 v 0 l 0.0395,0.0685 h 10e-5 l 0.0088,0.0331 0.0116,0.0434 v 0.0791 l -0.006,0.0225 -0.0144,0.0539 v 0 l -0.038,0.0657 -0.0166,0.062 v 3.5215 0 0.0328 0.0319 l 0.0197,0.067 0.0528,0.0458 0.0518,0.0074 0.0174,0.0025 v 0 0 l 0.0398,-0.0182 0.0237,-0.0108 0.0065,-0.0061 0.3678,-0.3678 0.0335,-0.0613 0.0028,-0.0263 v -1.1193 0 l 0.0344,-0.0829 0.0705,-0.0705 v 0 l 2.0749,-2.0749 0.0321,-0.0556 0.0196,-0.0733 0.0145,-0.0251 0.0251,-0.0434 v 0 l 0.0559,-0.0559 v 0 l 0.0685,-0.0396 v 0 l 0.0255,-0.0068 0.051,-0.0137 h 0.0791 l 0.0345,0.0093 0.0419,0.0112 v 0 l 0.0685,0.0396 v 0 l 0.056,0.0559 v 0 l 0.0395,0.0685 h 10e-5 l 0.006,0.0225 0.0144,0.054 v 0.0791 l -0.0116,0.0433 -0.0088,0.0331 h -10e-5 l -0.0395,0.0685 v 0 0 l -0.056,0.056 v 0 0 l -0.016,0.0092 -0.0525,0.0303 -0.0732,0.0197 -0.0556,0.0321 -2.0114,2.0113 -0.0334,0.0613 -0.0029,0.0264 v 1.0296 0 0.0393 l 0.0197,0.067 0.0308,0.0267 0.022,0.0191 v 0 0 l 0.0431,0.0061 0.0261,0.0038 v 0 0 l 0.0354,-0.0162 0.0281,-0.0128 0.0065,-0.0061 3.6253,-3.6252 0.0321,-0.0556 0.0196,-0.0733 0.0102,-0.0177 0.0294,-0.0508 v 0 l 0.0559,-0.0559 v 0 l 0.0685,-0.0396 v 0 l 0.0255,-0.0068 0.051,-0.0137 h 0.0791 l 0.0345,0.0093 0.0419,0.0112 v 0 l 0.0685,0.0396 v 0 l 0.056,0.0559 v 0 l 0.0395,0.0685 h 1e-4 l 0.0068,0.0257 0.0136,0.0508 h 6.4082 v -4.524 0 -0.1041 0 l 0.0344,-0.0829 v 0 l 0.0634,-0.0634 0.0071,-0.0071 v 0 l 0.9256,-0.9257 0.0335,-0.0613 0.0028,-0.0263 v -0.4081 l -0.0197,-0.0671 -0.0528,-0.0457 -0.0691,-0.01 -0.0636,0.029 -0.0262,0.0317 -0.0246,0.0427 -0.0653,0.0653 v 0 0 l -0.0799,0.0461 v 0 0 l -0.0891,0.0239 v 0 h -0.0923 v 0 l -0.0892,-0.0239 -0.0799,-0.0461 -0.0186,-0.0187 -0.0614,-0.0334 -0.0263,-0.0029 h -2.3277 l -0.067,0.0197 -0.0207,0.0166 -1.1288,1.1289 v 0 l -0.0705,0.0705 -0.0641,0.0265 -0.0188,0.0078 H 52.658 l -0.0671,0.0197 -0.0206,0.0166 -0.0388,0.0388 -0.0069,0.0069 v 0 0 l -0.0799,0.0461 v 0 0 l -0.0891,0.0239 v 0 h -0.0923 v 0 L 52.1741,32.1606 52.0942,32.1145 52.029,32.0492 51.9828,31.9693 51.9589,31.8802 v -0.0923 l 0.0239,-0.0892 v 0 l 0.0462,-0.0799 v 0 0 l 0.0146,-0.0146 0.0038,-0.007 0.0064,-0.0046 0.0101,-0.0256 0.0132,-0.0241 -6e-4,-0.0079 0.0029,-0.0074 -0.0054,-0.027 -0.0019,-0.0274 -0.0027,-0.0042 H 28.7137 v 0.1581 l -0.0192,0.0716 -0.0217,0.0811 v 0 l -0.079,0.1369 v 0 0 l -0.1119,0.1118 v 0 0 l -0.1369,0.0791 v 0 l -0.1527,0.0409 v 0 h -0.1581 v 0 l -0.1528,-0.0409 -0.1369,-0.0791 -0.1118,-0.1118 -0.079,-0.1369 -0.041,-0.1527 V 31.469 l 0.041,-0.1528 0.0015,-0.0027 0.0775,-0.1342 v 0 l 0.1118,-0.1118 v 0 l 0.1369,-0.079 v -10e-5 0 l 0.1528,-0.0409 h 0.1581 l 0.1527,0.0409 v 10e-5 l 0.1369,0.079 v 0 l 0.1119,0.1118 v 0 l 0.079,0.1369 v 0 l 0.0409,0.1528 h 23.3557 l -0.0024,-0.0039 -0.0012,-0.0061 -0.0184,-0.0249 -0.0023,-0.0037 -7e-4,-8e-4 -0.0424,-0.0424 -0.0462,-0.0799 -0.0239,-0.0891 v -0.0923 l 0.0239,-0.0892 0.0279,-0.0483 0.0183,-0.0316 v 0 0 l 0.0652,-0.0652 v 0 -10e-5 l 0.0799,-0.0461 v 0 0 0 l 0.0892,-0.0239 h 0.0923 l 0.0891,0.0239 v 0 0 0 l 0.0799,0.0461 v 10e-5 l 0.0187,0.0186 0.0613,0.0335 0.0264,0.0028 h 2.3531 l 0.067,-0.0197 0.0206,-0.0166 0.5827,-0.5827 0.0335,-0.0613 0.0028,-0.0263 V 27.9122 L 55.644,27.8451 55.6274,27.8245 55.6088,27.8058 55.5626,27.7259 55.5387,27.6368 v -0.0923 l 0.0239,-0.0892 v 0 l 0.0462,-0.0799 v 0 0 l 0.0652,-0.0652 v 0 0 l 0.0799,-0.0462 v 0 0 0 l 0.0892,-0.0239 h 0.0923 l 0.0891,0.0239 v 0 0 0 l 0.0799,0.0462 v 0 l 0.0653,0.0652 v 0 l 0.0461,0.0799 v 0 l 0.0239,0.0892 v 0.0923 l -0.0239,0.0891 v 0 l -0.0461,0.0799 v 0 l -0.0187,0.0187 -0.0334,0.0613 -0.0029,0.0264 v 2.4176 0 0.0997 0 l -0.0242,0.0586 -0.0101,0.0243 v 0 l -0.0634,0.0634 v 0 l -0.724,0.724 v 0 l -0.0634,0.0634 v 0 l -0.0067,0.0066 -0.0215,0.0395 -0.012,0.0219 0.005,0.0697 0.0131,0.0174 0.0288,0.0385 0.0477,0.0178 0.0178,0.0066 0.0088,3e-4 h 1.2721 l 0.067,-0.0197 0.0206,-0.0166 1.1185,-1.1185 v 0 l 0.0809,-0.0808 v 0 l 0.0308,-0.0128 0.0521,-0.0216 h 0.0897 0.0144 v 0 h 2.3223 l 0.0671,-0.0197 0.0457,-0.0528 0.01,-0.0691 -0.0154,-0.0444 -0.0216,-0.0374 v 0 0 L 60.4409,29.999 v -0.0923 l 0.0239,-0.0892 0.0323,-0.0558 0.0139,-0.0241 v 0 0 l 0.0652,-0.0652 v 0 -10e-5 l 0.0799,-0.0461 v 0 0 0 l 0.0892,-0.0239 h 0.0923 l 0.0891,0.0239 v 0 0 0 l 0.0799,0.0461 v 10e-5 l 0.0213,0.0212 0.0515,0.0281 -4e-4,9e-4 0.0086,0.0036 0.0016,9e-4 0.001,2e-4 0.083,0.0344 0.5714,0.5714 v 0 l 0.0343,0.0829 v 0.1041 0 0.7595 0 0.0897 l -0.0012,0.0029 -2e-4,0.0149 0.0065,0.0231 0.0021,0.0238 0.0072,0.0092 0.0031,0.0112 0.0179,0.0159 0.0147,0.0189 0.011,0.0039 0.0087,0.0077 0.0236,0.0037 0.0226,0.0079 0.0113,-0.0026 0.0115,0.0017 0.0219,-0.0096 0.0233,-0.0055 0.015,-0.0115 0.0037,-0.0016 0.0016,-0.0024 0.006,-0.0046 0.2918,-0.2918 0.0335,-0.0613 0.0028,-0.0264 V 27.1833 L 62.2976,27.1162 62.281,27.0956 59.7371,24.5516 59.6758,24.5182 59.6494,24.5153 H 47.0818 l -0.062,0.0166 -0.0123,0.0071 -0.0891,0.0239 v 0 h -0.0923 v 0 L 46.7369,24.539 46.657,24.4929 46.5918,24.4276 46.5456,24.3477 46.5217,24.2586 v -0.0923 l 0.0239,-0.0892 0.0293,-0.0507 0.0169,-0.0292 v 0 0 L 46.657,23.932 v 0 0 l 0.0799,-0.0462 v 0 0 0 l 0.0892,-0.0239 h 0.0923 l 0.0891,0.0239 0.0123,0.0071 0.062,0.0166 h 12.6969 10e-5 0.0076 0.0797 l 0.0578,0.0155 0.0192,0.0052 0.0691,0.0398 v 0 l 2.8504,2.8504 v 0 l 0.0399,0.0691 v 0 l 0.0206,0.077 v 0 0.0898 0 4.1698 10e-5 0.0075 0.0798 l -0.0206,0.077 -0.0399,0.0691 -1.1684,1.1684 -0.0564,0.0564 -0.0691,0.0399 -0.077,0.0206 h -0.0335 l -0.062,0.0166 -0.0123,0.0071 -0.0891,0.0239 v 0 h -0.0923 v 0 l -0.0892,-0.0239 -0.0799,-0.0461 -0.0652,-0.0653 -0.0247,-0.0427 -0.0506,-0.0482 -0.0686,-0.0132 -0.0648,0.026 -0.0405,0.0569 -0.0069,0.0406 v 11.8127 l 0.0197,0.067 0.0166,0.0206 4.7554,4.7554 v 0 l 0.0343,0.0829 v 0.1041 0 0.8075 l 0.0197,0.067 0.0166,0.0207 0.0295,0.0294 v 0 l 0.0395,0.0685 h 1e-4 l 0.0102,0.0383 0.0102,0.0382 H 87.4831 L 77.0493,17.2841 h -1.2705 v 0.3587 l -0.0351,0.357 v 0 l -0.07,0.3517 v 0 l -0.1041,0.3433 -0.1373,0.3314 v 0 l -0.169,0.3163 h -1e-4 l -0.1992,0.2982 v 0 l -0.2276,0.2773 -0.2536,0.2536 v 0 0 l -0.2772,0.2275 h -1e-4 v 0 l -0.2982,0.1993 v 0 0 0 0 l -0.3163,0.1691 v 0 0 l -0.3314,0.1372 -0.3432,0.1041 v 0 10e-5 0 l -0.2206,0.0438 -0.1312,0.0261 -0.3569,0.0352 v 0 H 71.949 v 0 l -0.357,-0.0352 -0.1741,-0.0346 -0.1776,-0.0353 v 0 -10e-5 0 L 70.897,20.9047 70.5657,20.7675 70.2493,20.5984 69.9511,20.3991 69.6738,20.1716 69.4202,19.918 69.1927,19.6407 68.9934,19.3425 68.8243,19.0262 68.6871,18.6948 68.583,18.3515 v 0 0 l -0.05,-0.2511 -0.02,-0.1006 -0.0352,-0.357 v -0.3587 l 0.0352,-0.3569 0.0261,-0.1312 0.0439,-0.2206 v 0 0 0 l 0.1041,-0.3432 0.1372,-0.3314 0.108,-0.202 0.0611,-0.1143 v 0 0 l 0.1023,-0.153 0.097,-0.1452 v 0 0 l 0.2275,-0.2773 v 0 0 l 0.2536,-0.2536 0.2773,-0.2276 v 0 l 0.2982,-0.1992 v 0 l 0.3164,-0.1691 v 0 l 0.3313,-0.1373 0.3433,-0.1041 v 0 l 0.3517,-0.07 h 1e-4 l 0.2699,-0.0265 0.087,-0.0086 h 0.3587 l 0.0804,0.0079 0.2765,0.0272 v 0 l 0.3518,0.07 v 0 l 0.3432,0.1041 0.3314,0.1373 v 0 l 0.3163,0.1691 v 0 l 0.2982,0.1992 h 1e-4 l 0.2772,0.2276 0.2536,0.2536 0.2276,0.2773 v 0 l 0.1992,0.2982 h 1e-4 l 0.169,0.3163 v 0 l 0.1373,0.3314 0.1041,0.3432 v 0 l 0.07,0.3518 v 0 l 0.0351,0.3569 h 1.2705 L 76.6748,16.089 v 0 l -2e-4,-7e-4 -0.0047,-0.0108 6e-4,-3e-4 -0.0031,-0.0075 v 0 l -0.0065,-0.0239 -0.0031,-0.0101 -4e-4,-9e-4 -0.1347,-0.3727 -0.0041,-0.0099 -0.1681,-0.3633 -0.0049,-0.0095 -0.1989,-0.3474 -0.0057,-0.009 -0.2282,-0.3289 -0.0065,-0.0085 -0.2557,-0.3079 -0.0072,-0.008 -0.2815,-0.2846 -0.0078,-0.0073 -0.305,-0.2592 -0.0084,-0.0066 -0.3263,-0.2319 -0.009,-0.0059 -0.3451,-0.2028 -0.0094,-0.005 -0.3613,-0.1723 -0.0099,-0.0042 -0.3749,-0.1403 -0.0101,-0.0034 -0.3856,-0.1074 -0.0105,-0.0024 -0.3934,-0.0737 -0.0106,-0.0015 -0.3984,-0.0394 -0.0106,-6e-4 -0.4003,-0.0048 -0.0107,3e-4 -0.3992,0.0298 -0.0106,0.0013 -0.395,0.0642 h -10e-5 l -0.0105,0.0021 -0.0975,0.0247 -0.2906,0.0735 -0.0102,0.003 -0.089,0.0309 -0.2891,0.1004 -0.01,0.004 -0.3654,0.1635 -0.0096,0.0048 -0.1794,0.0998 -0.1704,0.0947 -0.0092,0.0056 -0.3317,0.224 -0.0086,0.0064 -0.3111,0.2518 -0.008,0.0071 -0.2902,0.2797 -0.0038,0.0038 -0.0309,0.0325 v 0 l -2.5715,2.7029 -3.5994,3.7834 -5e-4,5e-4 -0.0284,0.0302 -0.0291,0.031 -0.1377,0.1112 -0.0903,0.0546 -0.0612,0.037 -0.0471,0.0203 -0.1155,0.0499 -0.1705,0.0475 -0.1754,0.024 v 0 0 h -0.0797 -0.0088 -1.8317 -2e-4 -0.0512 v 0 H 59.5774 L 59.4228,21.086 59.2771,21.0257 59.146,20.9381 59.0344,20.8266 58.9468,20.6955 58.8865,20.5498 58.8557,20.3951 v 0 l -6e-4,-0.006 h -8e-4 L 58.8515,20.3678 58.8479,20.3544 V 15.044 L 58.8282,14.977 58.7754,14.9312 58.7239,14.92 h -6.601 l -0.067,0.0197 -0.0458,0.0528 -0.0112,0.0515 v 2.9294 0 0 l -0.0087,0.0439 v 0 0 l -0.0333,0.0498 -0.0497,0.0333 h -1e-4 v 0 l -0.0438,0.0087 v 0 h -0.7297 l -0.0439,-0.0087 v 0 0 l -0.0224,-0.015 -0.0667,-0.0209 -0.0673,0.0185 -0.0037,0.0024 -0.0224,0.015 v 0 h -1e-4 l -0.0438,0.0087 v 0 h -0.7297 l -0.0439,-0.0087 v 0 0 l -0.0224,-0.015 -0.0667,-0.0209 -0.0673,0.0185 -0.0037,0.0024 -0.0224,0.015 v 0 h -1e-4 l -0.0438,0.0087 v 0 h -0.7297 l -0.0439,-0.0087 v 0 0 l -0.0224,-0.015 -0.0667,-0.0209 -0.0673,0.0185 -0.0037,0.0024 -0.0224,0.015 v 0 h -1e-4 l -0.0438,0.0087 v 0 h -0.4904 l -0.067,0.0197 -0.0458,0.0528 -0.0112,0.0515 v 1.6791 l -0.0341,0.2045 -0.0673,0.196 v 0 l -0.0986,0.1822 v 0 l -0.1273,0.1636 v 0 0 0 l -0.0566,0.0521 -0.0959,0.0882 -0.1621,0.1059 -0.0114,0.0075 -0.1897,0.0832 -0.2009,0.0509 -0.0689,0.0057 -0.1377,0.0114 v 0 0 L 46.8745,21.0531 46.7919,21.0463 46.591,20.9954 46.4012,20.9122 46.2277,20.7988 46.0753,20.6585 45.948,20.4949 45.8493,20.3127 45.782,20.1167 45.7479,19.9122 V 19.8086 19.761 18.2331 l -0.0197,-0.067 -0.0528,-0.0458 -0.0515,-0.0112 h -0.4903 l -0.0439,-0.0087 v 0 0 l -0.0224,-0.015 -0.0667,-0.0209 -0.0673,0.0185 -0.0037,0.0024 -0.0224,0.015 v 0 h -1e-4 l -0.0438,0.0087 v 0 h -0.7297 l -0.0439,-0.0087 v 0 0 l -0.0224,-0.015 -0.0667,-0.0209 -0.0673,0.0185 -0.0037,0.0024 -0.0224,0.015 v 0 h -1e-4 l -0.0438,0.0087 v 0 h -0.7297 l -0.0439,-0.0087 v 0 0 l -0.0224,-0.015 -0.0667,-0.0209 -0.0673,0.0185 -0.0037,0.0024 -0.0224,0.015 v 0 h -1e-4 l -0.0438,0.0087 v 0 h -0.7297 l -0.0439,-0.0087 v 0 0 l -0.0224,-0.015 -0.0667,-0.0209 -0.0673,0.0185 -0.0037,0.0024 -0.0224,0.015 v 0 h -1e-4 l -0.0438,0.0087 v 0 h -0.7297 l -0.0439,-0.0087 v 0 0 l -0.0224,-0.015 -0.0667,-0.0209 -0.0673,0.0185 -0.0037,0.0024 -0.0224,0.015 v 0 h -1e-4 l -0.0438,0.0087 v 0 h -0.7297 l -0.0439,-0.0087 v 0 0 l -0.0224,-0.015 -0.0667,-0.0209 -0.0673,0.0185 -0.0037,0.0024 -0.0224,0.015 v 0 h -1e-4 l -0.0438,0.0087 v 0 h -0.5904 l -0.067,0.0197 -0.0458,0.0528 -0.0112,0.0515 v 2.1213 l -0.0032,0.0121 -0.003,0.0226 h -6e-4 l -6e-4,0.006 v 0 0 l -0.0308,0.1547 -0.0604,0.1457 v 0 0 l -0.0876,0.1311 v 0 l -0.1115,0.1115 v 0 l -0.1059,0.0707 -0.0252,0.0169 -0.1456,0.0603 -0.1547,0.0308 h -0.0393 v 0 H 38.341 38.2934 v 0 h -0.01 v 0 h -1.768 -0.0063 -2e-4 -0.0511 v 0 h -0.0224 -0.0172 -0.0083 l -3e-4,-10e-5 h -0.0398 v 0 0 l -0.0511,-0.0069 -0.1232,-0.0168 -0.107,-0.0296 -0.0625,-0.0173 -0.0018,-8e-4 -0.1598,-0.0685 -0.1509,-0.0905 -0.1373,-0.11 -0.0333,-0.0349 -1e-4,-10e-5 -0.0431,-0.0453 -0.0169,-0.0178 v 0 l -0.0165,-0.0173 v 0 l -3.2125,-3.3768 h -2.7344 v 0.3587 l -0.0352,0.357 v 0 l -0.07,0.3517 v 0 l -0.1041,0.3433 -0.1372,0.3314 v 0 l -0.1691,0.3163 v 0 l -0.1993,0.2982 v 0 l -0.2275,0.2773 -0.2536,0.2536 v 0 0 l -0.2773,0.2275 v 0 0 l -0.2982,0.1993 v 0 0 0 0 l -0.3163,0.1691 h -10e-5 v 0 l -0.3313,0.1372 -0.3433,0.1041 v 0 10e-5 0 l -0.2206,0.0438 -0.1311,0.0261 -0.357,0.0352 v 0 h -0.3587 v 0 l -0.3569,-0.0352 -0.1741,-0.0346 -0.1777,-0.0353 v 0 -10e-5 0 L 24.6376,20.9047 24.3062,20.7675 23.9899,20.5984 23.6916,20.3991 23.4144,20.1716 23.1608,19.918 22.9332,19.6407 22.734,19.3425 22.5649,19.0262 22.4276,18.6948 22.3235,18.3515 v 0 0 l -0.05,-0.2511 -0.02,-0.1006 -0.0351,-0.357 v -0.3587 l 0.0351,-0.3569 0.0261,-0.1312 0.0439,-0.2206 v 0 0 0 l 0.1041,-0.3432 0.1373,-0.3314 0.1079,-0.202 0.0612,-0.1143 v 0 0 l 0.1022,-0.153 0.097,-0.1452 v 0 0 l 0.2276,-0.2773 v 0 0 l 0.2536,-0.2536 0.2772,-0.2276 h 10e-5 l 0.2982,-0.1992 v 0 l 0.3163,-0.1691 v 0 l 0.3314,-0.1373 0.3432,-0.1041 v 0 l 0.3518,-0.07 v 0 l 0.2699,-0.0265 0.087,-0.0086 h 0.3587 l 0.0805,0.0079 0.2764,0.0272 h 10e-5 l 0.3517,0.07 v 0 l 0.3433,0.1041 0.3313,0.1373 h 10e-5 l 0.3163,0.1691 v 0 l 0.2982,0.1992 v 0 l 0.2773,0.2276 0.2536,0.2536 0.2275,0.2773 v 0 l 0.1993,0.2982 v 0 l 0.1691,0.3163 v 0 l 0.1372,0.3314 0.1041,0.3432 v 0 l 0.07,0.3518 v 0 l 0.0352,0.3569 h 2.7344 l -2.9111,-3.0598 v 0 l -0.031,-0.0326 -0.0037,-0.0038 -0.2902,-0.2796 -0.008,-0.0071 -0.3111,-0.2519 -0.0086,-0.0063 -0.3318,-0.224 -0.0091,-0.0056 -0.3499,-0.1945 -0.0095,-0.0048 -0.3654,-0.1635 -0.0099,-0.004 -0.3782,-0.1313 -0.0102,-0.003 -0.3881,-0.0982 -0.0105,-0.0021 -0.3951,-0.0643 -0.0107,-0.0012 -0.3991,-0.0298 -0.0107,-4e-4 z"
       id="path546" />
  </g>
  <g
     style="fill:#02ffee;fill-opacity:0.4;stroke:none"
     id="g562"
     transform="translate(-6.8229854,-12.2336)">
    <circle
       cx="34.0914"
       cy="62.220001"
       r="0.68580002"
       id="circle550" />
    <circle
       cx="31.551399"
       cy="62.220001"
       r="0.68580002"
       id="circle552" />
    <circle
       cx="29.0114"
       cy="62.220001"
       r="0.68580002"
       id="circle554" />
    <circle
       cx="26.471399"
       cy="62.220001"
       r="0.68580002"
       id="circle556" />
    <circle
       cx="51.891399"
       cy="67.845001"
       r="0.30000001"
       id="circle558" />
    <circle
       cx="46.111401"
       cy="67.845001"
       r="0.30000001"
       id="circle560" />
  </g>
  <g
     style="fill:none;stroke:#02ffee;stroke-width:0.9;stroke-linecap:round;stroke-linejoin:round;stroke-opacity:1"
     id="g572"
     transform="translate(-6.8229854,-12.2336)">
    <path
       d="m 53.3214,67.915 v -1.1"
       id="path564" />
    <path
       d="m 53.3214,71.935 v -0.8"
       id="path566" />
    <path
       d="m 44.6814,67.915 v -1.1"
       id="path568" />
    <path
       d="m 44.6814,71.935 v -0.8"
       id="path570" />
  </g>
  <g
     style="fill:#02ffee;fill-opacity:0.4;stroke:none"
     id="g614"
     transform="translate(-6.8229854,-12.2336)">
    <circle
       cx="28.113199"
       cy="39.548"
       r="0.5"
       id="circle574" />
    <circle
       cx="28.113199"
       cy="31.548"
       r="0.5"
       id="circle576" />
    <path
       style="fill:#02ffee;fill-opacity:0.4;fill-rule:evenodd;stroke:none"
       d="m 58.8484,17.9586 v -4.3 h -0.7 v 4.3 z"
       id="path578" />
    <path
       style="fill:#02ffee;fill-opacity:0.4;fill-rule:evenodd;stroke:none"
       d="m 57.8484,17.9586 v -4.3 h -0.7 v 4.3 z"
       id="path580" />
    <path
       style="fill:#02ffee;fill-opacity:0.4;fill-rule:evenodd;stroke:none"
       d="m 56.8484,17.9586 v -4.3 h -0.7 v 4.3 z"
       id="path582" />
    <path
       style="fill:#02ffee;fill-opacity:0.4;fill-rule:evenodd;stroke:none"
       d="m 55.8484,17.9586 v -4.3 h -0.7 v 4.3 z"
       id="path584" />
    <path
       style="fill:#02ffee;fill-opacity:0.4;fill-rule:evenodd;stroke:none"
       d="m 54.8484,17.9586 v -4.3 h -0.7 v 4.3 z"
       id="path586" />
    <path
       style="fill:#02ffee;fill-opacity:0.4;fill-rule:evenodd;stroke:none"
       d="m 53.8484,17.9586 v -4.3 h -0.7 v 4.3 z"
       id="path588" />
    <path
       style="fill:#02ffee;fill-opacity:0.4;fill-rule:evenodd;stroke:none"
       d="m 52.8484,17.9586 v -4.3 h -0.7 v 4.3 z"
       id="path590" />
    <path
       style="fill:#02ffee;fill-opacity:0.4;fill-rule:evenodd;stroke:none"
       d="m 51.8484,17.9586 v -4.3 h -0.7 v 4.3 z"
       id="path592" />
    <path
       style="fill:#02ffee;fill-opacity:0.4;fill-rule:evenodd;stroke:none"
       d="m 50.8484,17.9586 v -4.3 h -0.7 v 4.3 z"
       id="path594" />
    <path
       style="fill:#02ffee;fill-opacity:0.4;fill-rule:evenodd;stroke:none"
       d="m 49.8484,17.9586 v -4.3 h -0.7 v 4.3 z"
       id="path596" />
    <path
       style="fill:#02ffee;fill-opacity:0.4;fill-rule:evenodd;stroke:none"
       d="m 48.8484,17.9586 v -4.3 h -0.7 v 4.3 z"
       id="path598" />
    <path
       style="fill:#02ffee;fill-opacity:0.4;fill-rule:evenodd;stroke:none"
       d="m 45.8484,17.9586 v -4.3 h -0.7 v 4.3 z"
       id="path600" />
    <path
       style="fill:#02ffee;fill-opacity:0.4;fill-rule:evenodd;stroke:none"
       d="m 44.8484,17.9586 v -4.3 h -0.7 v 4.3 z"
       id="path602" />
    <path
       style="fill:#02ffee;fill-opacity:0.4;fill-rule:evenodd;stroke:none"
       d="m 43.8484,17.9586 v -4.3 h -0.7 v 4.3 z"
       id="path604" />
    <path
       style="fill:#02ffee;fill-opacity:0.4;fill-rule:evenodd;stroke:none"
       d="m 42.8484,17.9586 v -4.3 h -0.7 v 4.3 z"
       id="path606" />
    <path
       style="fill:#02ffee;fill-opacity:0.4;fill-rule:evenodd;stroke:none"
       d="m 41.8484,17.9586 v -4.3 h -0.7 v 4.3 z"
       id="path608" />
    <path
       style="fill:#02ffee;fill-opacity:0.4;fill-rule:evenodd;stroke:none"
       d="m 40.8484,17.9586 v -4.3 h -0.7 v 4.3 z"
       id="path610" />
    <path
       style="fill:#02ffee;fill-opacity:0.4;fill-rule:evenodd;stroke:none"
       d="m 39.8484,17.9586 v -4.3 h -0.7 v 4.3 z"
       id="path612" />
  </g>
  <g
     style="fill:none;stroke:#d0d2cd;stroke-width:0.25;stroke-linecap:round;stroke-linejoin:round;stroke-opacity:1"
     id="g688"
     transform="translate(-6.8229854,-12.2336)">
    <path
       d="M 35.7333,20.5055 29.5276,13.9827"
       id="path616" />
    <path
       d="m 62.2675,20.5018 6.2021,-6.5191"
       id="path618" />
    <path
       d="M 20.8998,74.09 H 77.0974"
       id="path620" />
    <circle
       cx="11.9981"
       cy="61.738602"
       r="3.3499999"
       id="circle622" />
    <path
       d="m 35.7333,20.5055 a 1.0001,1.0001 0 0 0 0.7245,0.3108"
       id="path624" />
    <path
       d="m 7.1791,60.2289 a 5.05,5.05 0 0 0 1.6164,5.4143"
       id="path626" />
    <path
       d="M 61.5394,20.8163 H 59.6562"
       id="path628" />
    <path
       d="M 77.0974,74.09 A 5.05,5.05 0 0 0 80.3,72.9446"
       id="path630" />
    <path
       d="M 36.4578,20.8163 H 38.341"
       id="path632" />
    <path
       d="m 21.0498,15.9537 v 0"
       id="path634" />
    <path
       d="m 8.7955,65.6432 8.9017,7.3014"
       id="path636" />
    <path
       d="m 61.5394,20.8163 a 0.9999,0.9999 0 0 0 0.728,-0.3145"
       id="path638" />
    <path
       d="m 29.5276,13.9827 a 5.0501,5.0501 0 0 0 -8.4779,1.971"
       id="path640" />
    <path
       d="m 76.9474,15.9537 a 5.05,5.05 0 0 0 -8.4778,-1.971"
       id="path642" />
    <circle
       cx="85.9991"
       cy="61.738602"
       r="3.3499999"
       id="circle644" />
    <path
       d="m 59.1562,20.3163 a 0.5,0.5 0 0 0 0.5,0.5"
       id="path646" />
    <path
       d="M 21.0498,15.9537 7.1791,60.2289"
       id="path648" />
    <circle
       cx="25.8689"
       cy="17.463499"
       r="3.3499999"
       id="circle650" />
    <circle
       cx="72.128304"
       cy="17.463499"
       r="3.3499999"
       id="circle652" />
    <path
       d="M 89.2017,65.6432 80.3,72.9446"
       id="path654" />
    <path
       d="m 76.9474,15.9537 v 0"
       id="path656" />
    <path
       d="m 38.341,20.8163 a 0.5,0.5 0 0 0 0.5,-0.5"
       id="path658" />
    <path
       d="M 76.9474,15.9537 90.8231,60.2446"
       id="path660" />
    <path
       d="m 89.2017,65.6432 a 5.0502,5.0502 0 0 0 1.6214,-5.3986"
       id="path662" />
    <path
       d="M 17.6972,72.9446 A 5.05,5.05 0 0 0 20.8998,74.09"
       id="path664" />
    <path
       d="m 59.1484,12.8586 v 7.4563"
       id="path666" />
    <path
       d="m 58.6484,12.3586 0.5,0.5"
       id="path668" />
    <path
       d="m 48.4484,12.3586 h 10.2"
       id="path670" />
    <path
       d="m 48.4484,12.3586 -0.5,0.5"
       id="path672" />
    <path
       d="m 47.9484,12.8586 v 6.95"
       id="path674" />
    <path
       d="m 46.0484,12.8586 v 6.95"
       id="path676" />
    <path
       d="m 45.5484,12.3586 0.5,0.5"
       id="path678" />
    <path
       d="m 39.3484,12.3586 h 6.2"
       id="path680" />
    <path
       d="m 39.3484,12.3586 -0.5,0.5"
       id="path682" />
    <path
       d="M 38.8484,20.3149 V 12.8586"
       id="path684" />
    <path
       d="m 46.0484,19.8086 a 0.95,0.95 0 0 0 1.9,0"
       id="path686" />
  </g>
  <g
     style="fill:#ffffff;fill-opacity:1;stroke:none"
     id="g904"
     transform="translate(-6.8229854,-12.2336)">
    <circle
       cx="51.901402"
       cy="55.301998"
       r="0.1"
       id="circle690" />
    <circle
       cx="48.8978"
       cy="45.650002"
       r="0.1"
       id="circle692" />
    <circle
       cx="48.0914"
       cy="55.301998"
       r="0.1"
       id="circle694" />
    <circle
       cx="51.291801"
       cy="54.285999"
       r="0.1"
       id="circle696" />
    <circle
       cx="47.685001"
       cy="45.650002"
       r="0.1"
       id="circle698" />
    <circle
       cx="56.067001"
       cy="46.8946"
       r="0.1"
       id="circle700" />
    <circle
       cx="53.730202"
       cy="63.480801"
       r="0.15000001"
       id="circle702" />
    <circle
       cx="74.355003"
       cy="39.249199"
       r="0.15000001"
       id="circle704" />
    <circle
       cx="26.653799"
       cy="45.294399"
       r="0.15000001"
       id="circle706" />
    <circle
       cx="57.438599"
       cy="37.0648"
       r="0.15000001"
       id="circle708" />
    <circle
       cx="34.985001"
       cy="23.6028"
       r="0.15000001"
       id="circle710" />
    <circle
       cx="32.394199"
       cy="27.9716"
       r="0.15000001"
       id="circle712" />
    <circle
       cx="46.160999"
       cy="39.554001"
       r="0.15000001"
       id="circle714" />
    <circle
       cx="75.0662"
       cy="31.0704"
       r="0.15000001"
       id="circle716" />
    <circle
       cx="26.907801"
       cy="29.139999"
       r="0.15000001"
       id="circle718" />
    <circle
       cx="74.710602"
       cy="26.5492"
       r="0.15000001"
       id="circle720" />
    <circle
       cx="14.7158"
       cy="54.032001"
       r="0.15000001"
       id="circle722" />
    <circle
       cx="69.782997"
       cy="59.619999"
       r="0.15000001"
       id="circle724" />
    <circle
       cx="34.426201"
       cy="64.496803"
       r="0.15000001"
       id="circle726" />
    <circle
       cx="68.817802"
       cy="45.141998"
       r="0.15000001"
       id="circle728" />
    <circle
       cx="57.591"
       cy="41.027199"
       r="0.15000001"
       id="circle730" />
    <circle
       cx="41.182598"
       cy="54.235199"
       r="0.15000001"
       id="circle732" />
    <circle
       cx="20.1514"
       cy="26.091999"
       r="0.15000001"
       id="circle734" />
    <circle
       cx="67.547798"
       cy="23.1964"
       r="0.15000001"
       id="circle736" />
    <circle
       cx="61.909"
       cy="36.607601"
       r="0.15000001"
       id="circle738" />
    <circle
       cx="26.399799"
       cy="33.102402"
       r="0.15000001"
       id="circle740" />
    <circle
       cx="57.489399"
       cy="64.395203"
       r="0.15000001"
       id="circle742" />
    <circle
       cx="54.390598"
       cy="42.805199"
       r="0.15000001"
       id="circle744" />
    <circle
       cx="52.714199"
       cy="36.302799"
       r="0.15000001"
       id="circle746" />
    <circle
       cx="20.761"
       cy="58.705601"
       r="0.15000001"
       id="circle748" />
    <circle
       cx="69.986198"
       cy="65.461998"
       r="0.15000001"
       id="circle750" />
    <circle
       cx="82.483002"
       cy="49.866402"
       r="0.15000001"
       id="circle752" />
    <circle
       cx="78.469803"
       cy="29.749599"
       r="0.15000001"
       id="circle754" />
    <circle
       cx="52.053799"
       cy="29.952801"
       r="0.15000001"
       id="circle756" />
    <circle
       cx="32.445"
       cy="30.3592"
       r="0.15000001"
       id="circle758" />
    <circle
       cx="26.5522"
       cy="50.984001"
       r="0.15000001"
       id="circle760" />
    <circle
       cx="44.992599"
       cy="37.826801"
       r="0.15000001"
       id="circle762" />
    <circle
       cx="19.8466"
       cy="33.051601"
       r="0.15000001"
       id="circle764" />
    <circle
       cx="63.788601"
       cy="44.1768"
       r="0.15000001"
       id="circle766" />
    <circle
       cx="53.4762"
       cy="40.163601"
       r="0.15000001"
       id="circle768" />
    <circle
       cx="28.787399"
       cy="21.367599"
       r="0.15000001"
       id="circle770" />
    <circle
       cx="42.960602"
       cy="36.607601"
       r="0.15000001"
       id="circle772" />
    <circle
       cx="47.837399"
       cy="72.828003"
       r="0.15000001"
       id="circle774" />
    <circle
       cx="22.8438"
       cy="46.5644"
       r="0.15000001"
       id="circle776" />
    <circle
       cx="63.687"
       cy="22.6884"
       r="0.15000001"
       id="circle778" />
    <circle
       cx="22.488199"
       cy="62.363201"
       r="0.15000001"
       id="circle780" />
    <circle
       cx="59.318199"
       cy="26.2952"
       r="0.15000001"
       id="circle782" />
    <circle
       cx="44.078201"
       cy="62.566399"
       r="0.15000001"
       id="circle784" />
    <circle
       cx="84.565804"
       cy="54.540001"
       r="0.15000001"
       id="circle786" />
    <circle
       cx="29.396999"
       cy="40.976398"
       r="0.15000001"
       id="circle788" />
    <circle
       cx="70.697403"
       cy="26.854"
       r="0.15000001"
       id="circle790" />
    <circle
       cx="40.776199"
       cy="50.9725"
       r="0.1"
       id="circle792" />
    <circle
       cx="44.992599"
       cy="45.3452"
       r="0.1"
       id="circle794" />
    <circle
       cx="40.951801"
       cy="34.548"
       r="0.1"
       id="circle796" />
    <circle
       cx="53.552399"
       cy="37.014"
       r="0.1"
       id="circle798" />
    <circle
       cx="43.977798"
       cy="45.346401"
       r="0.1"
       id="circle800" />
    <circle
       cx="41.589001"
       cy="50.577599"
       r="0.1"
       id="circle802" />
    <circle
       cx="40.9286"
       cy="38.995201"
       r="0.1"
       id="circle804" />
    <circle
       cx="51.444199"
       cy="37.0648"
       r="0.1"
       id="circle806" />
    <circle
       cx="49.767799"
       cy="42.348"
       r="0.1"
       id="circle808" />
    <circle
       cx="51.749001"
       cy="42.3988"
       r="0.1"
       id="circle810" />
    <circle
       cx="48.0914"
       cy="45.650002"
       r="0.1"
       id="circle812" />
    <circle
       cx="55.457401"
       cy="48.063"
       r="0.1"
       id="circle814" />
    <circle
       cx="60.791401"
       cy="29.952801"
       r="0.15000001"
       id="circle816" />
    <circle
       cx="43.092899"
       cy="52.172501"
       r="0.1"
       id="circle818" />
    <circle
       cx="65.363403"
       cy="50.628399"
       r="0.1"
       id="circle820" />
    <circle
       cx="53.3951"
       cy="48.9725"
       r="0.1"
       id="circle822" />
    <circle
       cx="52.561798"
       cy="53.701801"
       r="0.1"
       id="circle824" />
    <circle
       cx="43.671799"
       cy="52.572498"
       r="0.1"
       id="circle826" />
    <circle
       cx="48.497799"
       cy="45.650002"
       r="0.1"
       id="circle828" />
    <circle
       cx="52.409401"
       cy="52.914398"
       r="0.1"
       id="circle830" />
    <circle
       cx="48.497799"
       cy="54.235199"
       r="0.1"
       id="circle832" />
    <circle
       cx="44.027401"
       cy="48.952"
       r="0.1"
       id="circle834" />
    <circle
       cx="52.309399"
       cy="31.834"
       r="0.15000001"
       id="circle836" />
    <circle
       cx="60.791401"
       cy="30.537001"
       r="0.15000001"
       id="circle838" />
    <circle
       cx="42.808201"
       cy="45.3452"
       r="0.1"
       id="circle840" />
    <circle
       cx="48.0914"
       cy="36.9632"
       r="0.1"
       id="circle842" />
    <circle
       cx="46.8722"
       cy="24.2124"
       r="0.15000001"
       id="circle844" />
    <circle
       cx="61.2486"
       cy="32.442001"
       r="0.15000001"
       id="circle846" />
    <circle
       cx="55.889198"
       cy="27.590599"
       r="0.15000001"
       id="circle848" />
    <circle
       cx="52.282398"
       cy="31.172001"
       r="0.15000001"
       id="circle850" />
    <circle
       cx="29.0114"
       cy="59.874001"
       r="0.15000001"
       id="circle852" />
    <circle
       cx="42.478001"
       cy="47.808998"
       r="0.1"
       id="circle854" />
    <circle
       cx="26.4506"
       cy="60.686798"
       r="0.15000001"
       id="circle856" />
    <circle
       cx="43.468601"
       cy="47.7836"
       r="0.1"
       id="circle858" />
    <circle
       cx="39.506199"
       cy="58.908798"
       r="0.15000001"
       id="circle860" />
    <circle
       cx="40.090401"
       cy="55.048"
       r="0.15000001"
       id="circle862" />
    <circle
       cx="64.774002"
       cy="50.6311"
       r="0.1"
       id="circle864" />
    <circle
       cx="50.072601"
       cy="43.872002"
       r="0.1"
       id="circle866" />
    <circle
       cx="64.235603"
       cy="50.6311"
       r="0.1"
       id="circle868" />
    <circle
       cx="53.4254"
       cy="47.7836"
       r="0.1"
       id="circle870" />
    <circle
       cx="53.4254"
       cy="48.172501"
       r="0.1"
       id="circle872" />
    <circle
       cx="63.697102"
       cy="50.6311"
       r="0.1"
       id="circle874" />
    <circle
       cx="80.501801"
       cy="69.221199"
       r="0.1"
       id="circle876" />
    <circle
       cx="53.4254"
       cy="49.764801"
       r="0.1"
       id="circle878" />
    <circle
       cx="63.158699"
       cy="50.6311"
       r="0.1"
       id="circle880" />
    <circle
       cx="79.079399"
       cy="68.154404"
       r="0.1"
       id="circle882" />
    <circle
       cx="62.620201"
       cy="58.502399"
       r="0.1"
       id="circle884" />
    <circle
       cx="53.4254"
       cy="50.1712"
       r="0.1"
       id="circle886" />
    <circle
       cx="65.820602"
       cy="60.178799"
       r="0.1"
       id="circle888" />
    <circle
       cx="62.620201"
       cy="50.6311"
       r="0.1"
       id="circle890" />
    <circle
       cx="34.0914"
       cy="62.220001"
       r="0.43180001"
       id="circle892" />
    <circle
       cx="31.551399"
       cy="62.220001"
       r="0.43180001"
       id="circle894" />
    <circle
       cx="29.0114"
       cy="62.220001"
       r="0.43180001"
       id="circle896" />
    <circle
       cx="26.471399"
       cy="62.220001"
       r="0.43180001"
       id="circle898" />
    <circle
       cx="51.891399"
       cy="67.845001"
       r="0.30000001"
       id="circle900" />
    <circle
       cx="46.111401"
       cy="67.845001"
       r="0.30000001"
       id="circle902" />
  </g>
  <g
     style="fill:none;stroke:#ffffff;stroke-width:0.6;stroke-linecap:round;stroke-linejoin:round;stroke-opacity:1"
     id="g914"
     transform="translate(-6.8229854,-12.2336)">
    <path
       d="m 53.3214,67.915 v -1.1"
       id="path906" />
    <path
       d="m 53.3214,71.935 v -0.8"
       id="path908" />
    <path
       d="m 44.6814,67.915 v -1.1"
       id="path910" />
    <path
       d="m 44.6814,71.935 v -0.8"
       id="path912" />
  </g>
  <g
     style="fill:#ffffff;fill-opacity:1;stroke:none"
     id="g920"
     transform="translate(-6.8229854,-12.2336)">
    <circle
       cx="28.113199"
       cy="39.548"
       r="0.5"
       id="circle916" />
    <circle
       cx="28.113199"
       cy="31.548"
       r="0.5"
       id="circle918" />
  </g>
</svg>
