<?xml version="1.0" encoding="UTF-8" standalone="no"?>
<svg
   version="1.1"
   width="84.351288mm"
   height="61.9814mm"
   viewBox="0 0 84.351287 61.981402"
   id="svg296"
   sodipodi:docname="pcbb.svg"
   xmlns:inkscape="http://www.inkscape.org/namespaces/inkscape"
   xmlns:sodipodi="http://sodipodi.sourceforge.net/DTD/sodipodi-0.dtd"
   xmlns="http://www.w3.org/2000/svg"
   xmlns:svg="http://www.w3.org/2000/svg">
  <defs
     id="defs300" />
  <sodipodi:namedview
     id="namedview298"
     pagecolor="#ffffff"
     bordercolor="#000000"
     borderopacity="0.25"
     inkscape:showpageshadow="2"
     inkscape:pageopacity="0.0"
     inkscape:pagecheckerboard="0"
     inkscape:deskcolor="#d1d1d1"
     inkscape:document-units="mm" />
  <title
     id="title2">SVG Image created as pcbb.svg date 2025-03-14T17:55:47+0000 </title>
  <desc
     id="desc4">Image generated by PCBNEW </desc>
  <g
     style="fill:#000000;fill-opacity:1;stroke:#000000;stroke-linecap:round;stroke-linejoin:round;stroke-opacity:1"
     id="g8"
     transform="translate(-6.8229854,-12.2336)">
    <path
       style="fill:#4d7fc4;fill-opacity:1;fill-rule:evenodd;stroke:none"
       d="m 64.4864,59.195 -0.0171,-0.0861 -0.0488,-0.073 -0.073,-0.0487 -0.0861,-0.0172 h -0.45 l -0.0861,0.0172 -0.073,0.0487 -0.0487,0.073 -0.0172,0.0861 v 0.95 l 0.0172,0.0861 0.0487,0.073 0.073,0.0488 0.0861,0.0171 h 0.45 l 0.0861,-0.0171 0.073,-0.0488 0.0488,-0.073 0.0171,-0.0861 z"
       id="path6" />
  </g>
  <g
     style="fill:none;stroke:#4d7fc4;stroke-width:0.9;stroke-linecap:round;stroke-linejoin:round;stroke-opacity:1"
     id="g56"
     transform="translate(-6.8229854,-12.2336)">
    <path
       d="m 62.7864,59.42 v 0.5"
       id="path10" />
    <path
       d="m 53.3214,67.915 v -1.1"
       id="path12" />
    <path
       d="m 53.3214,71.935 v -0.8"
       id="path14" />
    <path
       d="m 44.6814,67.915 v -1.1"
       id="path16" />
    <path
       d="m 44.6814,71.935 v -0.8"
       id="path18" />
    <path
       style="fill:#4d7fc4;fill-opacity:1;fill-rule:evenodd;stroke:none"
       d="m 58.8484,17.9586 v -4.3 h -0.7 v 4.3 z"
       id="path20" />
    <path
       style="fill:#4d7fc4;fill-opacity:1;fill-rule:evenodd;stroke:none"
       d="m 57.8484,17.9586 v -4.3 h -0.7 v 4.3 z"
       id="path22" />
    <path
       style="fill:#4d7fc4;fill-opacity:1;fill-rule:evenodd;stroke:none"
       d="m 56.8484,17.9586 v -4.3 h -0.7 v 4.3 z"
       id="path24" />
    <path
       style="fill:#4d7fc4;fill-opacity:1;fill-rule:evenodd;stroke:none"
       d="m 55.8484,17.9586 v -4.3 h -0.7 v 4.3 z"
       id="path26" />
    <path
       style="fill:#4d7fc4;fill-opacity:1;fill-rule:evenodd;stroke:none"
       d="m 54.8484,17.9586 v -4.3 h -0.7 v 4.3 z"
       id="path28" />
    <path
       style="fill:#4d7fc4;fill-opacity:1;fill-rule:evenodd;stroke:none"
       d="m 53.8484,17.9586 v -4.3 h -0.7 v 4.3 z"
       id="path30" />
    <path
       style="fill:#4d7fc4;fill-opacity:1;fill-rule:evenodd;stroke:none"
       d="m 52.8484,17.9586 v -4.3 h -0.7 v 4.3 z"
       id="path32" />
    <path
       style="fill:#4d7fc4;fill-opacity:1;fill-rule:evenodd;stroke:none"
       d="m 51.8484,17.9586 v -4.3 h -0.7 v 4.3 z"
       id="path34" />
    <path
       style="fill:#4d7fc4;fill-opacity:1;fill-rule:evenodd;stroke:none"
       d="m 50.8484,17.9586 v -4.3 h -0.7 v 4.3 z"
       id="path36" />
    <path
       style="fill:#4d7fc4;fill-opacity:1;fill-rule:evenodd;stroke:none"
       d="m 49.8484,17.9586 v -4.3 h -0.7 v 4.3 z"
       id="path38" />
    <path
       style="fill:#4d7fc4;fill-opacity:1;fill-rule:evenodd;stroke:none"
       d="m 48.8484,17.9586 v -4.3 h -0.7 v 4.3 z"
       id="path40" />
    <path
       style="fill:#4d7fc4;fill-opacity:1;fill-rule:evenodd;stroke:none"
       d="m 45.8484,17.9586 v -4.3 h -0.7 v 4.3 z"
       id="path42" />
    <path
       style="fill:#4d7fc4;fill-opacity:1;fill-rule:evenodd;stroke:none"
       d="m 44.8484,17.9586 v -4.3 h -0.7 v 4.3 z"
       id="path44" />
    <path
       style="fill:#4d7fc4;fill-opacity:1;fill-rule:evenodd;stroke:none"
       d="m 43.8484,17.9586 v -4.3 h -0.7 v 4.3 z"
       id="path46" />
    <path
       style="fill:#4d7fc4;fill-opacity:1;fill-rule:evenodd;stroke:none"
       d="m 42.8484,17.9586 v -4.3 h -0.7 v 4.3 z"
       id="path48" />
    <path
       style="fill:#4d7fc4;fill-opacity:1;fill-rule:evenodd;stroke:none"
       d="m 41.8484,17.9586 v -4.3 h -0.7 v 4.3 z"
       id="path50" />
    <path
       style="fill:#4d7fc4;fill-opacity:1;fill-rule:evenodd;stroke:none"
       d="m 40.8484,17.9586 v -4.3 h -0.7 v 4.3 z"
       id="path52" />
    <path
       style="fill:#4d7fc4;fill-opacity:1;fill-rule:evenodd;stroke:none"
       d="m 39.8484,17.9586 v -4.3 h -0.7 v 4.3 z"
       id="path54" />
  </g>
  <g
     style="fill:#ffffff;fill-opacity:1;stroke:none"
     id="g60"
     transform="translate(-6.8229854,-12.2336)">
    <circle
       cx="64.0364"
       cy="59.669998"
       r="0.30000001"
       id="circle58" />
  </g>
  <g
     style="fill:#ffffff;fill-opacity:1;stroke:none"
     id="g64"
     transform="translate(-6.8229854,-12.2336)">
    <circle
       cx="62.7864"
       cy="59.669998"
       r="0.30000001"
       id="circle62" />
  </g>
  <g
     style="fill:#ffffff;fill-opacity:1;stroke:none"
     id="g68"
     transform="translate(-6.8229854,-12.2336)">
    <circle
       cx="51.891399"
       cy="67.845001"
       r="0.30000001"
       id="circle66" />
  </g>
  <g
     style="fill:#ffffff;fill-opacity:1;stroke:none"
     id="g72"
     transform="translate(-6.8229854,-12.2336)">
    <circle
       cx="46.111401"
       cy="67.845001"
       r="0.30000001"
       id="circle70" />
  </g>
  <g
     style="fill:none;stroke:#ffffff;stroke-width:0.6;stroke-linecap:round;stroke-linejoin:round;stroke-opacity:1"
     id="g82"
     transform="translate(-6.8229854,-12.2336)">
    <path
       d="m 53.3214,67.915 v -1.1"
       id="path74" />
    <path
       d="m 53.3214,71.935 v -0.8"
       id="path76" />
    <path
       d="m 44.6814,67.915 v -1.1"
       id="path78" />
    <path
       d="m 44.6814,71.935 v -0.8"
       id="path80" />
  </g>
  <g
     style="fill:#000000;fill-opacity:1;stroke:none"
     id="g86"
     transform="translate(-6.8229854,-12.2336)">
    <circle
       cx="64.0364"
       cy="59.669998"
       r="0.30000001"
       id="circle84" />
  </g>
  <g
     style="fill:#000000;fill-opacity:1;stroke:none"
     id="g90"
     transform="translate(-6.8229854,-12.2336)">
    <circle
       cx="62.7864"
       cy="59.669998"
       r="0.30000001"
       id="circle88" />
  </g>
  <g
     style="fill:#000000;fill-opacity:1;stroke:none"
     id="g94"
     transform="translate(-6.8229854,-12.2336)">
    <circle
       cx="51.891399"
       cy="67.845001"
       r="0.30000001"
       id="circle92" />
  </g>
  <g
     style="fill:#000000;fill-opacity:1;stroke:none"
     id="g98"
     transform="translate(-6.8229854,-12.2336)">
    <circle
       cx="46.111401"
       cy="67.845001"
       r="0.30000001"
       id="circle96" />
  </g>
  <g
     style="fill:none;stroke:#000000;stroke-width:0.6;stroke-linecap:round;stroke-linejoin:round;stroke-opacity:1"
     id="g110"
     transform="translate(-6.8229854,-12.2336)">
    <path
       d="m 53.3214,67.915 v -1.1"
       id="path100" />
    <path
       d="m 53.3214,71.935 v -0.8"
       id="path102" />
    <path
       d="m 44.6814,67.915 v -1.1"
       id="path104" />
    <path
       d="m 44.6814,71.935 v -0.8"
       id="path106" />
    <path
       style="fill:#02ffee;fill-opacity:0.4;fill-rule:evenodd;stroke:none"
       d="m 64.4864,59.195 -0.0171,-0.0861 -0.0488,-0.073 -0.073,-0.0487 -0.0861,-0.0172 h -0.45 l -0.0861,0.0172 -0.073,0.0487 -0.0487,0.073 -0.0172,0.0861 v 0.95 l 0.0172,0.0861 0.0487,0.073 0.073,0.0488 0.0861,0.0171 h 0.45 l 0.0861,-0.0171 0.073,-0.0488 0.0488,-0.073 0.0171,-0.0861 z"
       id="path108" />
  </g>
  <g
     style="fill:none;stroke:#02ffee;stroke-width:0.9;stroke-linecap:round;stroke-linejoin:round;stroke-opacity:1"
     id="g114"
     transform="translate(-6.8229854,-12.2336)">
    <path
       d="m 62.7864,59.42 v 0.5"
       id="path112" />
  </g>
  <g
     style="fill:#02ffee;fill-opacity:0.4;stroke:none"
     id="g118"
     transform="translate(-6.8229854,-12.2336)">
    <circle
       cx="51.891399"
       cy="67.845001"
       r="0.30000001"
       id="circle116" />
  </g>
  <g
     style="fill:#02ffee;fill-opacity:0.4;stroke:none"
     id="g122"
     transform="translate(-6.8229854,-12.2336)">
    <circle
       cx="46.111401"
       cy="67.845001"
       r="0.30000001"
       id="circle120" />
  </g>
  <g
     style="fill:none;stroke:#02ffee;stroke-width:0.9;stroke-linecap:round;stroke-linejoin:round;stroke-opacity:1"
     id="g168"
     transform="translate(-6.8229854,-12.2336)">
    <path
       d="m 53.3214,67.915 v -1.1"
       id="path124" />
    <path
       d="m 53.3214,71.935 v -0.8"
       id="path126" />
    <path
       d="m 44.6814,67.915 v -1.1"
       id="path128" />
    <path
       d="m 44.6814,71.935 v -0.8"
       id="path130" />
    <path
       style="fill:#02ffee;fill-opacity:0.4;fill-rule:evenodd;stroke:none"
       d="m 58.8484,17.9586 v -4.3 h -0.7 v 4.3 z"
       id="path132" />
    <path
       style="fill:#02ffee;fill-opacity:0.4;fill-rule:evenodd;stroke:none"
       d="m 57.8484,17.9586 v -4.3 h -0.7 v 4.3 z"
       id="path134" />
    <path
       style="fill:#02ffee;fill-opacity:0.4;fill-rule:evenodd;stroke:none"
       d="m 56.8484,17.9586 v -4.3 h -0.7 v 4.3 z"
       id="path136" />
    <path
       style="fill:#02ffee;fill-opacity:0.4;fill-rule:evenodd;stroke:none"
       d="m 55.8484,17.9586 v -4.3 h -0.7 v 4.3 z"
       id="path138" />
    <path
       style="fill:#02ffee;fill-opacity:0.4;fill-rule:evenodd;stroke:none"
       d="m 54.8484,17.9586 v -4.3 h -0.7 v 4.3 z"
       id="path140" />
    <path
       style="fill:#02ffee;fill-opacity:0.4;fill-rule:evenodd;stroke:none"
       d="m 53.8484,17.9586 v -4.3 h -0.7 v 4.3 z"
       id="path142" />
    <path
       style="fill:#02ffee;fill-opacity:0.4;fill-rule:evenodd;stroke:none"
       d="m 52.8484,17.9586 v -4.3 h -0.7 v 4.3 z"
       id="path144" />
    <path
       style="fill:#02ffee;fill-opacity:0.4;fill-rule:evenodd;stroke:none"
       d="m 51.8484,17.9586 v -4.3 h -0.7 v 4.3 z"
       id="path146" />
    <path
       style="fill:#02ffee;fill-opacity:0.4;fill-rule:evenodd;stroke:none"
       d="m 50.8484,17.9586 v -4.3 h -0.7 v 4.3 z"
       id="path148" />
    <path
       style="fill:#02ffee;fill-opacity:0.4;fill-rule:evenodd;stroke:none"
       d="m 49.8484,17.9586 v -4.3 h -0.7 v 4.3 z"
       id="path150" />
    <path
       style="fill:#02ffee;fill-opacity:0.4;fill-rule:evenodd;stroke:none"
       d="m 48.8484,17.9586 v -4.3 h -0.7 v 4.3 z"
       id="path152" />
    <path
       style="fill:#02ffee;fill-opacity:0.4;fill-rule:evenodd;stroke:none"
       d="m 45.8484,17.9586 v -4.3 h -0.7 v 4.3 z"
       id="path154" />
    <path
       style="fill:#02ffee;fill-opacity:0.4;fill-rule:evenodd;stroke:none"
       d="m 44.8484,17.9586 v -4.3 h -0.7 v 4.3 z"
       id="path156" />
    <path
       style="fill:#02ffee;fill-opacity:0.4;fill-rule:evenodd;stroke:none"
       d="m 43.8484,17.9586 v -4.3 h -0.7 v 4.3 z"
       id="path158" />
    <path
       style="fill:#02ffee;fill-opacity:0.4;fill-rule:evenodd;stroke:none"
       d="m 42.8484,17.9586 v -4.3 h -0.7 v 4.3 z"
       id="path160" />
    <path
       style="fill:#02ffee;fill-opacity:0.4;fill-rule:evenodd;stroke:none"
       d="m 41.8484,17.9586 v -4.3 h -0.7 v 4.3 z"
       id="path162" />
    <path
       style="fill:#02ffee;fill-opacity:0.4;fill-rule:evenodd;stroke:none"
       d="m 40.8484,17.9586 v -4.3 h -0.7 v 4.3 z"
       id="path164" />
    <path
       style="fill:#02ffee;fill-opacity:0.4;fill-rule:evenodd;stroke:none"
       d="m 39.8484,17.9586 v -4.3 h -0.7 v 4.3 z"
       id="path166" />
  </g>
  <g
     style="fill:none;stroke:#d0d2cd;stroke-width:0.25;stroke-linecap:round;stroke-linejoin:round;stroke-opacity:1"
     id="g242"
     transform="translate(-6.8229854,-12.2336)">
    <path
       d="M 35.7333,20.5055 29.5276,13.9827"
       id="path170" />
    <path
       d="m 62.2675,20.5018 6.2021,-6.5191"
       id="path172" />
    <path
       d="M 20.8998,74.09 H 77.0974"
       id="path174" />
    <circle
       cx="11.9981"
       cy="61.738602"
       r="3.3499999"
       id="circle176" />
    <path
       d="m 35.7333,20.5055 a 1.0001,1.0001 0 0 0 0.7245,0.3108"
       id="path178" />
    <path
       d="m 7.1791,60.2289 a 5.05,5.05 0 0 0 1.6164,5.4143"
       id="path180" />
    <path
       d="M 61.5394,20.8163 H 59.6562"
       id="path182" />
    <path
       d="M 77.0974,74.09 A 5.05,5.05 0 0 0 80.3,72.9446"
       id="path184" />
    <path
       d="M 36.4578,20.8163 H 38.341"
       id="path186" />
    <path
       d="m 21.0498,15.9537 v 0"
       id="path188" />
    <path
       d="m 8.7955,65.6432 8.9017,7.3014"
       id="path190" />
    <path
       d="m 61.5394,20.8163 a 0.9999,0.9999 0 0 0 0.728,-0.3145"
       id="path192" />
    <path
       d="m 29.5276,13.9827 a 5.0501,5.0501 0 0 0 -8.4779,1.971"
       id="path194" />
    <path
       d="m 76.9474,15.9537 a 5.05,5.05 0 0 0 -8.4778,-1.971"
       id="path196" />
    <circle
       cx="85.9991"
       cy="61.738602"
       r="3.3499999"
       id="circle198" />
    <path
       d="m 59.1562,20.3163 a 0.5,0.5 0 0 0 0.5,0.5"
       id="path200" />
    <path
       d="M 21.0498,15.9537 7.1791,60.2289"
       id="path202" />
    <circle
       cx="25.8689"
       cy="17.463499"
       r="3.3499999"
       id="circle204" />
    <circle
       cx="72.128304"
       cy="17.463499"
       r="3.3499999"
       id="circle206" />
    <path
       d="M 89.2017,65.6432 80.3,72.9446"
       id="path208" />
    <path
       d="m 76.9474,15.9537 v 0"
       id="path210" />
    <path
       d="m 38.341,20.8163 a 0.5,0.5 0 0 0 0.5,-0.5"
       id="path212" />
    <path
       d="M 76.9474,15.9537 90.8231,60.2446"
       id="path214" />
    <path
       d="m 89.2017,65.6432 a 5.0502,5.0502 0 0 0 1.6214,-5.3986"
       id="path216" />
    <path
       d="M 17.6972,72.9446 A 5.05,5.05 0 0 0 20.8998,74.09"
       id="path218" />
    <path
       d="m 59.1484,12.8586 v 7.4563"
       id="path220" />
    <path
       d="m 58.6484,12.3586 0.5,0.5"
       id="path222" />
    <path
       d="m 48.4484,12.3586 h 10.2"
       id="path224" />
    <path
       d="m 48.4484,12.3586 -0.5,0.5"
       id="path226" />
    <path
       d="m 47.9484,12.8586 v 6.95"
       id="path228" />
    <path
       d="m 46.0484,12.8586 v 6.95"
       id="path230" />
    <path
       d="m 45.5484,12.3586 0.5,0.5"
       id="path232" />
    <path
       d="m 39.3484,12.3586 h 6.2"
       id="path234" />
    <path
       d="m 39.3484,12.3586 -0.5,0.5"
       id="path236" />
    <path
       d="M 38.8484,20.3149 V 12.8586"
       id="path238" />
    <path
       d="m 46.0484,19.8086 a 0.95,0.95 0 0 0 1.9,0"
       id="path240" />
  </g>
  <g
     style="fill:#d0d2cd;fill-opacity:1;stroke:none"
     id="g246"
     transform="translate(-6.8229854,-12.2336)">
    <circle
       cx="64.0364"
       cy="59.669998"
       r="0.30000001"
       id="circle244" />
  </g>
  <g
     style="fill:#d0d2cd;fill-opacity:1;stroke:none"
     id="g250"
     transform="translate(-6.8229854,-12.2336)">
    <circle
       cx="62.7864"
       cy="59.669998"
       r="0.30000001"
       id="circle248" />
  </g>
  <g
     style="fill:#d0d2cd;fill-opacity:1;stroke:none"
     id="g254"
     transform="translate(-6.8229854,-12.2336)">
    <circle
       cx="51.891399"
       cy="67.845001"
       r="0.30000001"
       id="circle252" />
  </g>
  <g
     style="fill:#d0d2cd;fill-opacity:1;stroke:none"
     id="g258"
     transform="translate(-6.8229854,-12.2336)">
    <circle
       cx="46.111401"
       cy="67.845001"
       r="0.30000001"
       id="circle256" />
  </g>
  <g
     style="fill:none;stroke:#d0d2cd;stroke-width:0.6;stroke-linecap:round;stroke-linejoin:round;stroke-opacity:1"
     id="g268"
     transform="translate(-6.8229854,-12.2336)">
    <path
       d="m 53.3214,67.915 v -1.1"
       id="path260" />
    <path
       d="m 53.3214,71.935 v -0.8"
       id="path262" />
    <path
       d="m 44.6814,67.915 v -1.1"
       id="path264" />
    <path
       d="m 44.6814,71.935 v -0.8"
       id="path266" />
  </g>
  <g
     style="fill:#ffffff;fill-opacity:1;stroke:none"
     id="g272"
     transform="translate(-6.8229854,-12.2336)">
    <circle
       cx="64.0364"
       cy="59.669998"
       r="0.30000001"
       id="circle270" />
  </g>
  <g
     style="fill:#ffffff;fill-opacity:1;stroke:none"
     id="g276"
     transform="translate(-6.8229854,-12.2336)">
    <circle
       cx="62.7864"
       cy="59.669998"
       r="0.30000001"
       id="circle274" />
  </g>
  <g
     style="fill:#ffffff;fill-opacity:1;stroke:none"
     id="g280"
     transform="translate(-6.8229854,-12.2336)">
    <circle
       cx="51.891399"
       cy="67.845001"
       r="0.30000001"
       id="circle278" />
  </g>
  <g
     style="fill:#ffffff;fill-opacity:1;stroke:none"
     id="g284"
     transform="translate(-6.8229854,-12.2336)">
    <circle
       cx="46.111401"
       cy="67.845001"
       r="0.30000001"
       id="circle282" />
  </g>
  <g
     style="fill:none;stroke:#ffffff;stroke-width:0.6;stroke-linecap:round;stroke-linejoin:round;stroke-opacity:1"
     id="g294"
     transform="translate(-6.8229854,-12.2336)">
    <path
       d="m 53.3214,67.915 v -1.1"
       id="path286" />
    <path
       d="m 53.3214,71.935 v -0.8"
       id="path288" />
    <path
       d="m 44.6814,67.915 v -1.1"
       id="path290" />
    <path
       d="m 44.6814,71.935 v -0.8"
       id="path292" />
  </g>
</svg>
