<?xml version="1.0" encoding="UTF-8" standalone="no"?>
<svg
   version="1.1"
   width="84.351341mm"
   height="61.9814mm"
   viewBox="0 0 84.351339 61.981402"
   id="svg402"
   sodipodi:docname="pcbb.svg"
   xmlns:inkscape="http://www.inkscape.org/namespaces/inkscape"
   xmlns:sodipodi="http://sodipodi.sourceforge.net/DTD/sodipodi-0.dtd"
   xmlns="http://www.w3.org/2000/svg"
   xmlns:svg="http://www.w3.org/2000/svg">
  <defs
     id="defs406" />
  <sodipodi:namedview
     id="namedview404"
     pagecolor="#ffffff"
     bordercolor="#000000"
     borderopacity="0.25"
     inkscape:showpageshadow="2"
     inkscape:pageopacity="0.0"
     inkscape:pagecheckerboard="0"
     inkscape:deskcolor="#d1d1d1"
     inkscape:document-units="mm" />
  <title
     id="title2">SVG Image created as pcbb.svg date 2025-05-22T01:40:18+0000 </title>
  <desc
     id="desc4">Image generated by PCBNEW </desc>
  <g
     style="fill:#000000;fill-opacity:1;stroke:#000000;stroke-linecap:round;stroke-linejoin:round;stroke-opacity:1"
     id="g6"
     transform="translate(0.00549421,-3.1136)" />
  <g
     style="fill:#4d7fc4;fill-opacity:1;stroke:none"
     id="g16"
     transform="translate(0.00549421,-3.1136)">
    <circle
       cx="27.263"
       cy="53.099998"
       r="0.68580002"
       id="circle8" />
    <circle
       cx="24.723"
       cy="53.099998"
       r="0.68580002"
       id="circle10" />
    <circle
       cx="22.183001"
       cy="53.099998"
       r="0.68580002"
       id="circle12" />
    <circle
       cx="19.643"
       cy="53.099998"
       r="0.68580002"
       id="circle14" />
  </g>
  <g
     style="fill:none;stroke:#4d7fc4;stroke-width:0.9;stroke-linecap:round;stroke-linejoin:round;stroke-opacity:1"
     id="g62"
     transform="translate(0.00549421,-3.1136)">
    <path
       d="m 46.493,58.795 v -1.1"
       id="path18" />
    <path
       d="m 46.493,62.815 v -0.8"
       id="path20" />
    <path
       d="m 37.853,58.795 v -1.1"
       id="path22" />
    <path
       d="m 37.853,62.815 v -0.8"
       id="path24" />
    <path
       style="fill:#4d7fc4;fill-opacity:1;fill-rule:evenodd;stroke:none"
       d="m 52.02,8.8386 v -4.3 h -0.7 v 4.3 z"
       id="path26" />
    <path
       style="fill:#4d7fc4;fill-opacity:1;fill-rule:evenodd;stroke:none"
       d="m 51.02,8.8386 v -4.3 h -0.7 v 4.3 z"
       id="path28" />
    <path
       style="fill:#4d7fc4;fill-opacity:1;fill-rule:evenodd;stroke:none"
       d="m 50.02,8.8386 v -4.3 h -0.7 v 4.3 z"
       id="path30" />
    <path
       style="fill:#4d7fc4;fill-opacity:1;fill-rule:evenodd;stroke:none"
       d="m 49.02,8.8386 v -4.3 h -0.7 v 4.3 z"
       id="path32" />
    <path
       style="fill:#4d7fc4;fill-opacity:1;fill-rule:evenodd;stroke:none"
       d="m 48.02,8.8386 v -4.3 h -0.7 v 4.3 z"
       id="path34" />
    <path
       style="fill:#4d7fc4;fill-opacity:1;fill-rule:evenodd;stroke:none"
       d="m 47.02,8.8386 v -4.3 h -0.7 v 4.3 z"
       id="path36" />
    <path
       style="fill:#4d7fc4;fill-opacity:1;fill-rule:evenodd;stroke:none"
       d="m 46.02,8.8386 v -4.3 h -0.7 v 4.3 z"
       id="path38" />
    <path
       style="fill:#4d7fc4;fill-opacity:1;fill-rule:evenodd;stroke:none"
       d="m 45.02,8.8386 v -4.3 h -0.7 v 4.3 z"
       id="path40" />
    <path
       style="fill:#4d7fc4;fill-opacity:1;fill-rule:evenodd;stroke:none"
       d="m 44.02,8.8386 v -4.3 h -0.7 v 4.3 z"
       id="path42" />
    <path
       style="fill:#4d7fc4;fill-opacity:1;fill-rule:evenodd;stroke:none"
       d="m 43.02,8.8386 v -4.3 h -0.7 v 4.3 z"
       id="path44" />
    <path
       style="fill:#4d7fc4;fill-opacity:1;fill-rule:evenodd;stroke:none"
       d="m 42.02,8.8386 v -4.3 h -0.7 v 4.3 z"
       id="path46" />
    <path
       style="fill:#4d7fc4;fill-opacity:1;fill-rule:evenodd;stroke:none"
       d="m 39.02,8.8386 v -4.3 h -0.7 v 4.3 z"
       id="path48" />
    <path
       style="fill:#4d7fc4;fill-opacity:1;fill-rule:evenodd;stroke:none"
       d="m 38.02,8.8386 v -4.3 h -0.7 v 4.3 z"
       id="path50" />
    <path
       style="fill:#4d7fc4;fill-opacity:1;fill-rule:evenodd;stroke:none"
       d="m 37.02,8.8386 v -4.3 h -0.7 v 4.3 z"
       id="path52" />
    <path
       style="fill:#4d7fc4;fill-opacity:1;fill-rule:evenodd;stroke:none"
       d="m 36.02,8.8386 v -4.3 h -0.7 v 4.3 z"
       id="path54" />
    <path
       style="fill:#4d7fc4;fill-opacity:1;fill-rule:evenodd;stroke:none"
       d="m 35.02,8.8386 v -4.3 h -0.7 v 4.3 z"
       id="path56" />
    <path
       style="fill:#4d7fc4;fill-opacity:1;fill-rule:evenodd;stroke:none"
       d="m 34.02,8.8386 v -4.3 h -0.7 v 4.3 z"
       id="path58" />
    <path
       style="fill:#4d7fc4;fill-opacity:1;fill-rule:evenodd;stroke:none"
       d="m 33.02,8.8386 v -4.3 h -0.7 v 4.3 z"
       id="path60" />
  </g>
  <g
     style="fill:#4d7fc4;fill-opacity:1;stroke:none"
     id="g104"
     transform="translate(0.00549421,-3.1136)">
    <circle
       cx="40.774899"
       cy="36.319901"
       r="0.2"
       id="circle64" />
    <circle
       cx="47.867001"
       cy="38.358799"
       r="0.2"
       id="circle66" />
    <circle
       cx="36.818001"
       cy="41.863998"
       r="0.2"
       id="circle68" />
    <circle
       cx="39.993"
       cy="36.1744"
       r="0.2"
       id="circle70" />
    <circle
       cx="46.470001"
       cy="28.783001"
       r="0.2"
       id="circle72" />
    <circle
       cx="37.133999"
       cy="36.617401"
       r="0.2"
       id="circle74" />
    <circle
       cx="46.1926"
       cy="28.367001"
       r="0.2"
       id="circle76" />
    <circle
       cx="36.310001"
       cy="41.229"
       r="0.2"
       id="circle78" />
    <circle
       cx="46.901798"
       cy="37.190399"
       r="0.2"
       id="circle80" />
    <circle
       cx="40.958199"
       cy="35.5648"
       r="0.2"
       id="circle82" />
    <circle
       cx="41.263"
       cy="36.428398"
       r="0.2"
       id="circle84" />
    <circle
       cx="47.359001"
       cy="38.866798"
       r="0.2"
       id="circle86" />
    <circle
       cx="53.963001"
       cy="20.8328"
       r="0.2"
       id="circle88" />
    <circle
       cx="36.3354"
       cy="43.032398"
       r="0.2"
       id="circle90" />
    <circle
       cx="45.480999"
       cy="22.714001"
       r="0.2"
       id="circle92" />
    <circle
       cx="53.963001"
       cy="21.417"
       r="0.2"
       id="circle94" />
    <circle
       cx="45.453999"
       cy="27.767"
       r="0.2"
       id="circle96" />
    <circle
       cx="35.293999"
       cy="38.688999"
       r="0.2"
       id="circle98" />
    <circle
       cx="49.060799"
       cy="18.4706"
       r="0.2"
       id="circle100" />
    <circle
       cx="45.453999"
       cy="22.052"
       r="0.2"
       id="circle102" />
  </g>
  <g
     style="fill:none;stroke:#4d7fc4;stroke-width:0.15;stroke-linecap:round;stroke-linejoin:round;stroke-opacity:1"
     id="g190"
     transform="translate(0.00549421,-3.1136)">
    <path
       d="M 40.7818,36.3268 40.7749,36.3199"
       id="path106" />
    <path
       d="m 40.8058,36.3268 h -0.024"
       id="path108" />
    <path
       d="M 45.07,36.1714 44.9236,36.025"
       id="path110" />
    <path
       d="m 41.1076,36.025 -0.3018,0.3018"
       id="path112" />
    <path
       d="m 44.9236,36.025 h -3.816"
       id="path114" />
    <path
       d="M 47.2574,38.3588 45.07,36.1714"
       id="path116" />
    <path
       d="m 45.07,36.1714 h -6e-4"
       id="path118" />
    <path
       d="M 47.867,38.3588 H 47.2574"
       id="path120" />
    <path
       d="M 39.5358,35.7172 36.818,38.435"
       id="path122" />
    <path
       d="m 36.818,38.435 v 3.429"
       id="path124" />
    <path
       d="m 46.47,28.783 -6.9342,6.9342"
       id="path126" />
    <path
       d="M 39.993,36.1744 39.5358,35.7172"
       id="path128" />
    <path
       d="m 37.134,36.6174 0.3279,0.3279"
       id="path130" />
    <path
       d="m 36.31,38.2496 1.3043,-1.3043"
       id="path132" />
    <path
       d="M 37.6143,36.9453 46.1926,28.367"
       id="path134" />
    <path
       d="M 36.31,41.229 V 38.2496"
       id="path136" />
    <path
       d="m 37.4619,36.9453 h 0.1524"
       id="path138" />
    <path
       d="m 45.1238,35.5648 1.6256,1.6256"
       id="path140" />
    <path
       d="m 40.9582,35.5648 h 4.1656"
       id="path142" />
    <path
       d="m 44.819,36.3268 2.54,2.54"
       id="path144" />
    <path
       d="M 41.263,36.4284 41.4154,36.276"
       id="path146" />
    <path
       d="M 41.4154,36.276 H 44.819"
       id="path148" />
    <path
       d="m 44.819,36.276 v 0.0508"
       id="path150" />
    <path
       d="m 36.2846,42.9308 v 0.0508"
       id="path152" />
    <path
       d="m 36.2846,42.9816 0.0508,0.0508"
       id="path154" />
    <path
       d="m 53.963,20.8328 -2.794,-2.794"
       id="path156" />
    <path
       d="m 34.8114,41.4576 1.4732,1.4732"
       id="path158" />
    <path
       d="m 47.613,18.0388 -2.6924,2.6924"
       id="path160" />
    <path
       d="M 44.9206,27.5384 34.8114,37.6476"
       id="path162" />
    <path
       d="m 44.9206,20.7312 v 6.8072"
       id="path164" />
    <path
       d="M 51.169,18.0388 H 47.613"
       id="path166" />
    <path
       d="m 34.8114,37.6476 v 3.81"
       id="path168" />
    <path
       d="m 45.508,22.687 h 4.391"
       id="path170" />
    <path
       d="m 49.899,22.687 1.27,-1.27"
       id="path172" />
    <path
       d="m 45.481,22.714 0.027,-0.027"
       id="path174" />
    <path
       d="M 53.963,21.417 H 53.709"
       id="path176" />
    <path
       d="m 51.169,21.417 h 2.794"
       id="path178" />
    <path
       d="M 35.294,38.689 V 37.927"
       id="path180" />
    <path
       d="m 35.294,37.927 10.16,-10.16"
       id="path182" />
    <path
       d="M 49.0608,21.2646 48.2734,22.052"
       id="path184" />
    <path
       d="m 49.0608,18.4706 v 2.794"
       id="path186" />
    <path
       d="M 48.2734,22.052 H 45.454"
       id="path188" />
  </g>
  <g
     style="fill:#02ffee;fill-opacity:0.4;stroke:none"
     id="g204"
     transform="translate(0.00549421,-3.1136)">
    <circle
       cx="27.263"
       cy="53.099998"
       r="0.68580002"
       id="circle192" />
    <circle
       cx="24.723"
       cy="53.099998"
       r="0.68580002"
       id="circle194" />
    <circle
       cx="22.183001"
       cy="53.099998"
       r="0.68580002"
       id="circle196" />
    <circle
       cx="19.643"
       cy="53.099998"
       r="0.68580002"
       id="circle198" />
    <circle
       cx="45.063"
       cy="58.724998"
       r="0.30000001"
       id="circle200" />
    <circle
       cx="39.283001"
       cy="58.724998"
       r="0.30000001"
       id="circle202" />
  </g>
  <g
     style="fill:none;stroke:#02ffee;stroke-width:0.9;stroke-linecap:round;stroke-linejoin:round;stroke-opacity:1"
     id="g214"
     transform="translate(0.00549421,-3.1136)">
    <path
       d="m 46.493,58.795 v -1.1"
       id="path206" />
    <path
       d="m 46.493,62.815 v -0.8"
       id="path208" />
    <path
       d="m 37.853,58.795 v -1.1"
       id="path210" />
    <path
       d="m 37.853,62.815 v -0.8"
       id="path212" />
  </g>
  <g
     style="fill:#02ffee;fill-opacity:0.4;stroke:none"
     id="g256"
     transform="translate(0.00549421,-3.1136)">
    <circle
       cx="23.913"
       cy="23.809999"
       r="0.5"
       id="circle216" />
    <circle
       cx="23.913"
       cy="31.809999"
       r="0.5"
       id="circle218" />
    <path
       style="fill:#02ffee;fill-opacity:0.4;fill-rule:evenodd;stroke:none"
       d="m 52.02,8.8386 v -4.3 h -0.7 v 4.3 z"
       id="path220" />
    <path
       style="fill:#02ffee;fill-opacity:0.4;fill-rule:evenodd;stroke:none"
       d="m 51.02,8.8386 v -4.3 h -0.7 v 4.3 z"
       id="path222" />
    <path
       style="fill:#02ffee;fill-opacity:0.4;fill-rule:evenodd;stroke:none"
       d="m 50.02,8.8386 v -4.3 h -0.7 v 4.3 z"
       id="path224" />
    <path
       style="fill:#02ffee;fill-opacity:0.4;fill-rule:evenodd;stroke:none"
       d="m 49.02,8.8386 v -4.3 h -0.7 v 4.3 z"
       id="path226" />
    <path
       style="fill:#02ffee;fill-opacity:0.4;fill-rule:evenodd;stroke:none"
       d="m 48.02,8.8386 v -4.3 h -0.7 v 4.3 z"
       id="path228" />
    <path
       style="fill:#02ffee;fill-opacity:0.4;fill-rule:evenodd;stroke:none"
       d="m 47.02,8.8386 v -4.3 h -0.7 v 4.3 z"
       id="path230" />
    <path
       style="fill:#02ffee;fill-opacity:0.4;fill-rule:evenodd;stroke:none"
       d="m 46.02,8.8386 v -4.3 h -0.7 v 4.3 z"
       id="path232" />
    <path
       style="fill:#02ffee;fill-opacity:0.4;fill-rule:evenodd;stroke:none"
       d="m 45.02,8.8386 v -4.3 h -0.7 v 4.3 z"
       id="path234" />
    <path
       style="fill:#02ffee;fill-opacity:0.4;fill-rule:evenodd;stroke:none"
       d="m 44.02,8.8386 v -4.3 h -0.7 v 4.3 z"
       id="path236" />
    <path
       style="fill:#02ffee;fill-opacity:0.4;fill-rule:evenodd;stroke:none"
       d="m 43.02,8.8386 v -4.3 h -0.7 v 4.3 z"
       id="path238" />
    <path
       style="fill:#02ffee;fill-opacity:0.4;fill-rule:evenodd;stroke:none"
       d="m 42.02,8.8386 v -4.3 h -0.7 v 4.3 z"
       id="path240" />
    <path
       style="fill:#02ffee;fill-opacity:0.4;fill-rule:evenodd;stroke:none"
       d="m 39.02,8.8386 v -4.3 h -0.7 v 4.3 z"
       id="path242" />
    <path
       style="fill:#02ffee;fill-opacity:0.4;fill-rule:evenodd;stroke:none"
       d="m 38.02,8.8386 v -4.3 h -0.7 v 4.3 z"
       id="path244" />
    <path
       style="fill:#02ffee;fill-opacity:0.4;fill-rule:evenodd;stroke:none"
       d="m 37.02,8.8386 v -4.3 h -0.7 v 4.3 z"
       id="path246" />
    <path
       style="fill:#02ffee;fill-opacity:0.4;fill-rule:evenodd;stroke:none"
       d="m 36.02,8.8386 v -4.3 h -0.7 v 4.3 z"
       id="path248" />
    <path
       style="fill:#02ffee;fill-opacity:0.4;fill-rule:evenodd;stroke:none"
       d="m 35.02,8.8386 v -4.3 h -0.7 v 4.3 z"
       id="path250" />
    <path
       style="fill:#02ffee;fill-opacity:0.4;fill-rule:evenodd;stroke:none"
       d="m 34.02,8.8386 v -4.3 h -0.7 v 4.3 z"
       id="path252" />
    <path
       style="fill:#02ffee;fill-opacity:0.4;fill-rule:evenodd;stroke:none"
       d="m 33.02,8.8386 v -4.3 h -0.7 v 4.3 z"
       id="path254" />
  </g>
  <g
     style="fill:none;stroke:#d0d2cd;stroke-width:0.25;stroke-linecap:round;stroke-linejoin:round;stroke-opacity:1"
     id="g330"
     transform="translate(0.00549421,-3.1136)">
    <path
       d="M 28.9049,11.3855 22.6992,4.8626"
       id="path258" />
    <path
       d="M 55.439,11.3818 61.6412,4.8626"
       id="path260" />
    <path
       d="M 14.0714,64.97 H 70.269"
       id="path262" />
    <circle
       cx="5.1697001"
       cy="52.618599"
       r="3.3499999"
       id="circle264" />
    <path
       d="m 28.9049,11.3855 a 1.0001,1.0001 0 0 0 0.7245,0.3108"
       id="path266" />
    <path
       d="m 0.3506,51.1089 a 5.05,5.05 0 0 0 1.6165,5.4143"
       id="path268" />
    <path
       d="M 54.711,11.6962 H 52.8278"
       id="path270" />
    <path
       d="m 70.269,64.97 a 5.05,5.05 0 0 0 3.2026,-1.1454"
       id="path272" />
    <path
       d="m 29.6294,11.6962 h 1.8831"
       id="path274" />
    <path
       d="m 14.2214,6.8337 v 0"
       id="path276" />
    <path
       d="m 1.9671,56.5232 8.9017,7.3013"
       id="path278" />
    <path
       d="m 54.711,11.6962 a 0.9999,0.9999 0 0 0 0.728,-0.3144"
       id="path280" />
    <path
       d="M 22.6992,4.8626 A 5.0501,5.0501 0 0 0 14.2213,6.8337"
       id="path282" />
    <path
       d="M 70.1189,6.8337 A 5.05,5.05 0 0 0 61.6412,4.8626"
       id="path284" />
    <circle
       cx="79.170601"
       cy="52.618599"
       r="3.3499999"
       id="circle286" />
    <path
       d="m 52.3278,11.1963 a 0.5,0.5 0 0 0 0.5,0.5"
       id="path288" />
    <path
       d="M 14.2214,6.8337 0.3506,51.1089"
       id="path290" />
    <circle
       cx="19.0404"
       cy="8.3435001"
       r="3.3499999"
       id="circle292" />
    <circle
       cx="65.299896"
       cy="8.3435001"
       r="3.3499999"
       id="circle294" />
    <path
       d="m 82.3732,56.5232 -8.9016,7.3014"
       id="path296" />
    <path
       d="m 70.1189,6.8337 v 0"
       id="path298" />
    <path
       d="m 31.5125,11.6962 a 0.5,0.5 0 0 0 0.5,-0.5"
       id="path300" />
    <path
       d="M 70.1189,6.8337 83.9946,51.1246"
       id="path302" />
    <path
       d="m 82.3732,56.5232 a 5.0502,5.0502 0 0 0 1.6215,-5.3986"
       id="path304" />
    <path
       d="M 10.8688,63.8245 A 5.05,5.05 0 0 0 14.0714,64.97"
       id="path306" />
    <path
       d="m 52.32,3.7386 v 7.4563"
       id="path308" />
    <path
       d="m 51.82,3.2386 0.5,0.5"
       id="path310" />
    <path
       d="m 41.62,3.2386 h 10.2"
       id="path312" />
    <path
       d="m 41.62,3.2386 -0.5,0.5"
       id="path314" />
    <path
       d="m 41.12,3.7386 v 6.95"
       id="path316" />
    <path
       d="m 39.22,3.7386 v 6.95"
       id="path318" />
    <path
       d="m 38.72,3.2386 0.5,0.5"
       id="path320" />
    <path
       d="m 32.52,3.2386 h 6.2"
       id="path322" />
    <path
       d="m 32.52,3.2386 -0.5,0.5"
       id="path324" />
    <path
       d="M 32.02,11.1949 V 3.7386"
       id="path326" />
    <path
       d="m 39.22,10.6886 a 0.95,0.95 0 0 0 1.9,0"
       id="path328" />
  </g>
  <g
     style="fill:#ffffff;fill-opacity:1;stroke:none"
     id="g384"
     transform="translate(0.00549421,-3.1136)">
    <circle
       cx="40.774899"
       cy="36.319901"
       r="0.15000001"
       id="circle332" />
    <circle
       cx="47.867001"
       cy="38.358799"
       r="0.15000001"
       id="circle334" />
    <circle
       cx="36.818001"
       cy="41.863998"
       r="0.15000001"
       id="circle336" />
    <circle
       cx="39.993"
       cy="36.1744"
       r="0.15000001"
       id="circle338" />
    <circle
       cx="46.470001"
       cy="28.783001"
       r="0.15000001"
       id="circle340" />
    <circle
       cx="37.133999"
       cy="36.617401"
       r="0.15000001"
       id="circle342" />
    <circle
       cx="46.1926"
       cy="28.367001"
       r="0.15000001"
       id="circle344" />
    <circle
       cx="36.310001"
       cy="41.229"
       r="0.15000001"
       id="circle346" />
    <circle
       cx="46.901798"
       cy="37.190399"
       r="0.15000001"
       id="circle348" />
    <circle
       cx="40.958199"
       cy="35.5648"
       r="0.15000001"
       id="circle350" />
    <circle
       cx="41.263"
       cy="36.428398"
       r="0.15000001"
       id="circle352" />
    <circle
       cx="47.359001"
       cy="38.866798"
       r="0.15000001"
       id="circle354" />
    <circle
       cx="53.963001"
       cy="20.8328"
       r="0.15000001"
       id="circle356" />
    <circle
       cx="36.3354"
       cy="43.032398"
       r="0.15000001"
       id="circle358" />
    <circle
       cx="45.480999"
       cy="22.714001"
       r="0.15000001"
       id="circle360" />
    <circle
       cx="53.963001"
       cy="21.417"
       r="0.15000001"
       id="circle362" />
    <circle
       cx="45.453999"
       cy="27.767"
       r="0.15000001"
       id="circle364" />
    <circle
       cx="35.293999"
       cy="38.688999"
       r="0.15000001"
       id="circle366" />
    <circle
       cx="49.060799"
       cy="18.4706"
       r="0.15000001"
       id="circle368" />
    <circle
       cx="45.453999"
       cy="22.052"
       r="0.15000001"
       id="circle370" />
    <circle
       cx="27.263"
       cy="53.099998"
       r="0.43180001"
       id="circle372" />
    <circle
       cx="24.723"
       cy="53.099998"
       r="0.43180001"
       id="circle374" />
    <circle
       cx="22.183001"
       cy="53.099998"
       r="0.43180001"
       id="circle376" />
    <circle
       cx="19.643"
       cy="53.099998"
       r="0.43180001"
       id="circle378" />
    <circle
       cx="45.063"
       cy="58.724998"
       r="0.30000001"
       id="circle380" />
    <circle
       cx="39.283001"
       cy="58.724998"
       r="0.30000001"
       id="circle382" />
  </g>
  <g
     style="fill:none;stroke:#ffffff;stroke-width:0.6;stroke-linecap:round;stroke-linejoin:round;stroke-opacity:1"
     id="g394"
     transform="translate(0.00549421,-3.1136)">
    <path
       d="m 46.493,58.795 v -1.1"
       id="path386" />
    <path
       d="m 46.493,62.815 v -0.8"
       id="path388" />
    <path
       d="m 37.853,58.795 v -1.1"
       id="path390" />
    <path
       d="m 37.853,62.815 v -0.8"
       id="path392" />
  </g>
  <g
     style="fill:#ffffff;fill-opacity:1;stroke:none"
     id="g400"
     transform="translate(0.00549421,-3.1136)">
    <circle
       cx="23.913"
       cy="23.809999"
       r="0.5"
       id="circle396" />
    <circle
       cx="23.913"
       cy="31.809999"
       r="0.5"
       id="circle398" />
  </g>
</svg>
