<?xml version="1.0" encoding="UTF-8" standalone="no"?>
<svg
   version="1.1"
   width="187.61342mm"
   height="121.57mm"
   viewBox="0 0 187.61342 121.57"
   id="svg508"
   sodipodi:docname="pcbb.svg"
   xmlns:inkscape="http://www.inkscape.org/namespaces/inkscape"
   xmlns:sodipodi="http://sodipodi.sourceforge.net/DTD/sodipodi-0.dtd"
   xmlns="http://www.w3.org/2000/svg"
   xmlns:svg="http://www.w3.org/2000/svg">
  <defs
     id="defs512" />
  <sodipodi:namedview
     id="namedview510"
     pagecolor="#ffffff"
     bordercolor="#000000"
     borderopacity="0.25"
     inkscape:showpageshadow="2"
     inkscape:pageopacity="0.0"
     inkscape:pagecheckerboard="0"
     inkscape:deskcolor="#d1d1d1"
     inkscape:document-units="mm" />
  <title
     id="title2">SVG Image created as pcbb.svg date 2025-05-23T04:07:10+0000 </title>
  <desc
     id="desc4">Image generated by PCBNEW </desc>
  <g
     style="fill:#000000;fill-opacity:1;stroke:#000000;stroke-linecap:round;stroke-linejoin:round;stroke-opacity:1"
     id="g6"
     transform="translate(0.01881463,-0.975)" />
  <g
     style="fill:#4d7fc4;fill-opacity:1;stroke:none"
     id="g16"
     transform="translate(0.01881463,-0.975)">
    <circle
       cx="27.249599"
       cy="110.55"
       r="0.68580002"
       id="circle8" />
    <circle
       cx="24.7096"
       cy="110.55"
       r="0.68580002"
       id="circle10" />
    <circle
       cx="22.1696"
       cy="110.55"
       r="0.68580002"
       id="circle12" />
    <circle
       cx="19.629601"
       cy="110.55"
       r="0.68580002"
       id="circle14" />
  </g>
  <g
     style="fill:none;stroke:#4d7fc4;stroke-width:0.9;stroke-linecap:round;stroke-linejoin:round;stroke-opacity:1"
     id="g28"
     transform="translate(0.01881463,-0.975)">
    <path
       d="m 46.4796,116.245 v -1.1"
       id="path18" />
    <path
       d="m 46.4796,120.265 v -0.8"
       id="path20" />
    <path
       d="m 37.8396,116.245 v -1.1"
       id="path22" />
    <path
       d="m 37.8396,120.265 v -0.8"
       id="path24" />
    <path
       style="fill:#4d7fc4;fill-opacity:1;fill-rule:evenodd;stroke:none"
       d="m 187.5946,2.675 v -1.7 h -1.7 v 1.7 z"
       id="path26" />
  </g>
  <g
     style="fill:#4d7fc4;fill-opacity:1;stroke:none"
     id="g130"
     transform="translate(0.01881463,-0.975)">
    <circle
       cx="186.7446"
       cy="4.3649998"
       r="0.85000002"
       id="circle30" />
    <path
       style="fill:#4d7fc4;fill-opacity:1;fill-rule:evenodd;stroke:none"
       d="m 52.0066,66.2886 v -4.3 h -0.7 v 4.3 z"
       id="path32" />
    <path
       style="fill:#4d7fc4;fill-opacity:1;fill-rule:evenodd;stroke:none"
       d="m 51.0066,66.2886 v -4.3 h -0.7 v 4.3 z"
       id="path34" />
    <path
       style="fill:#4d7fc4;fill-opacity:1;fill-rule:evenodd;stroke:none"
       d="m 50.0066,66.2886 v -4.3 h -0.7 v 4.3 z"
       id="path36" />
    <path
       style="fill:#4d7fc4;fill-opacity:1;fill-rule:evenodd;stroke:none"
       d="m 49.0066,66.2886 v -4.3 h -0.7 v 4.3 z"
       id="path38" />
    <path
       style="fill:#4d7fc4;fill-opacity:1;fill-rule:evenodd;stroke:none"
       d="m 48.0066,66.2886 v -4.3 h -0.7 v 4.3 z"
       id="path40" />
    <path
       style="fill:#4d7fc4;fill-opacity:1;fill-rule:evenodd;stroke:none"
       d="m 47.0066,66.2886 v -4.3 h -0.7 v 4.3 z"
       id="path42" />
    <path
       style="fill:#4d7fc4;fill-opacity:1;fill-rule:evenodd;stroke:none"
       d="m 46.0066,66.2886 v -4.3 h -0.7 v 4.3 z"
       id="path44" />
    <path
       style="fill:#4d7fc4;fill-opacity:1;fill-rule:evenodd;stroke:none"
       d="m 45.0066,66.2886 v -4.3 h -0.7 v 4.3 z"
       id="path46" />
    <path
       style="fill:#4d7fc4;fill-opacity:1;fill-rule:evenodd;stroke:none"
       d="m 44.0066,66.2886 v -4.3 h -0.7 v 4.3 z"
       id="path48" />
    <path
       style="fill:#4d7fc4;fill-opacity:1;fill-rule:evenodd;stroke:none"
       d="m 43.0066,66.2886 v -4.3 h -0.7 v 4.3 z"
       id="path50" />
    <path
       style="fill:#4d7fc4;fill-opacity:1;fill-rule:evenodd;stroke:none"
       d="m 42.0066,66.2886 v -4.3 h -0.7 v 4.3 z"
       id="path52" />
    <path
       style="fill:#4d7fc4;fill-opacity:1;fill-rule:evenodd;stroke:none"
       d="m 39.0066,66.2886 v -4.3 h -0.7 v 4.3 z"
       id="path54" />
    <path
       style="fill:#4d7fc4;fill-opacity:1;fill-rule:evenodd;stroke:none"
       d="m 38.0066,66.2886 v -4.3 h -0.7 v 4.3 z"
       id="path56" />
    <path
       style="fill:#4d7fc4;fill-opacity:1;fill-rule:evenodd;stroke:none"
       d="m 37.0066,66.2886 v -4.3 h -0.7 v 4.3 z"
       id="path58" />
    <path
       style="fill:#4d7fc4;fill-opacity:1;fill-rule:evenodd;stroke:none"
       d="m 36.0066,66.2886 v -4.3 h -0.7 v 4.3 z"
       id="path60" />
    <path
       style="fill:#4d7fc4;fill-opacity:1;fill-rule:evenodd;stroke:none"
       d="m 35.0066,66.2886 v -4.3 h -0.7 v 4.3 z"
       id="path62" />
    <path
       style="fill:#4d7fc4;fill-opacity:1;fill-rule:evenodd;stroke:none"
       d="m 34.0066,66.2886 v -4.3 h -0.7 v 4.3 z"
       id="path64" />
    <path
       style="fill:#4d7fc4;fill-opacity:1;fill-rule:evenodd;stroke:none"
       d="m 33.0066,66.2886 v -4.3 h -0.7 v 4.3 z"
       id="path66" />
    <circle
       cx="40.843201"
       cy="93.980003"
       r="0.15000001"
       id="circle68" />
    <circle
       cx="49.225201"
       cy="95.224602"
       r="0.15000001"
       id="circle70" />
    <circle
       cx="36.779202"
       cy="99.263199"
       r="0.15000001"
       id="circle72" />
    <circle
       cx="46.990002"
       cy="86.131401"
       r="0.15000001"
       id="circle74" />
    <circle
       cx="42.062401"
       cy="92.2528"
       r="0.15000001"
       id="circle76" />
    <circle
       cx="46.024799"
       cy="86.131401"
       r="0.15000001"
       id="circle78" />
    <circle
       cx="36.271198"
       cy="98.9076"
       r="0.15000001"
       id="circle80" />
    <circle
       cx="42.9006"
       cy="91.058998"
       r="0.15000001"
       id="circle82" />
    <circle
       cx="47.694801"
       cy="86.131401"
       r="0.15000001"
       id="circle84" />
    <circle
       cx="41.249599"
       cy="93.980003"
       r="0.15000001"
       id="circle86" />
    <circle
       cx="47.802799"
       cy="96.443802"
       r="0.15000001"
       id="circle88" />
    <circle
       cx="53.9496"
       cy="78.282799"
       r="0.2"
       id="circle90" />
    <circle
       cx="36.321999"
       cy="100.5332"
       r="0.15000001"
       id="circle92" />
    <circle
       cx="45.467602"
       cy="80.164001"
       r="0.2"
       id="circle94" />
    <circle
       cx="53.9496"
       cy="78.866997"
       r="0.2"
       id="circle96" />
    <circle
       cx="44.805599"
       cy="86.106003"
       r="0.15000001"
       id="circle98" />
    <circle
       cx="35.255199"
       cy="96.265999"
       r="0.15000001"
       id="circle100" />
    <circle
       cx="49.047401"
       cy="75.920601"
       r="0.2"
       id="circle102" />
    <circle
       cx="45.440601"
       cy="79.501999"
       r="0.2"
       id="circle104" />
    <circle
       cx="25.7556"
       cy="104.5972"
       r="0.15000001"
       id="circle106" />
    <circle
       cx="35.4076"
       cy="100.6348"
       r="0.15000001"
       id="circle108" />
    <circle
       cx="56.9468"
       cy="97.383598"
       r="0.15000001"
       id="circle110" />
    <circle
       cx="43.230801"
       cy="93.045403"
       r="0.15000001"
       id="circle112" />
    <circle
       cx="55.981602"
       cy="97.942398"
       r="0.15000001"
       id="circle114" />
    <circle
       cx="46.058102"
       cy="96.113602"
       r="0.15000001"
       id="circle116" />
    <circle
       cx="46.058102"
       cy="96.502502"
       r="0.15000001"
       id="circle118" />
    <circle
       cx="56.997601"
       cy="98.297997"
       r="0.15000001"
       id="circle120" />
    <circle
       cx="46.0756"
       cy="98.094803"
       r="0.15000001"
       id="circle122" />
    <circle
       cx="55.972"
       cy="98.735001"
       r="0.15000001"
       id="circle124" />
    <circle
       cx="46.0756"
       cy="98.501198"
       r="0.15000001"
       id="circle126" />
    <circle
       cx="57.048401"
       cy="99.059998"
       r="0.15000001"
       id="circle128" />
  </g>
  <g
     style="fill:none;stroke:#4d7fc4;stroke-width:0.15;stroke-linecap:round;stroke-linejoin:round;stroke-opacity:1"
     id="g266"
     transform="translate(0.01881463,-0.975)">
    <path
       d="M 45.1104,93.3704 H 41.1988"
       id="path132" />
    <path
       d="M 41.1988,93.3704 40.8432,93.726"
       id="path134" />
    <path
       d="M 40.8432,93.726 V 93.98"
       id="path136" />
    <path
       d="M 49.1998,95.25 H 46.99"
       id="path138" />
    <path
       d="M 46.99,95.25 45.1104,93.3704"
       id="path140" />
    <path
       d="M 49.2252,95.2246 49.1998,95.25"
       id="path142" />
    <path
       d="m 40.9448,92.202 -4.1402,4.1402"
       id="path144" />
    <path
       d="m 46.99,86.1314 v 0.0254"
       id="path146" />
    <path
       d="m 41.7068,91.44 -0.762,0.762"
       id="path148" />
    <path
       d="M 42.0624,92.2528 H 40.9956"
       id="path150" />
    <path
       d="M 41.8592,91.2876 41.7068,91.44"
       id="path152" />
    <path
       d="m 46.99,86.1568 -5.1308,5.1308"
       id="path154" />
    <path
       d="M 36.8046,96.3422 V 99.314"
       id="path156" />
    <path
       d="m 36.2712,95.885 v 3.0226"
       id="path158" />
    <path
       d="M 46.0248,86.1314 36.2712,95.885"
       id="path160" />
    <path
       d="m 47.6948,86.2139 -4.7942,4.7943"
       id="path162" />
    <path
       d="M 42.9006,91.0082 V 91.059"
       id="path164" />
    <path
       d="m 47.6948,86.2013 v 0.0126"
       id="path166" />
    <path
       d="m 41.2496,93.98 0.3556,-0.3556"
       id="path168" />
    <path
       d="m 47.8028,96.4184 v 0.0254"
       id="path170" />
    <path
       d="m 41.6052,93.6244 h 3.4036"
       id="path172" />
    <path
       d="m 45.0088,93.6244 2.794,2.794"
       id="path174" />
    <path
       d="m 44.9072,78.1812 v 6.8072"
       id="path176" />
    <path
       d="m 47.5996,75.4888 -2.6924,2.6924"
       id="path178" />
    <path
       d="m 34.5948,98.7552 1.7272,1.7272"
       id="path180" />
    <path
       d="m 53.9496,78.2828 -2.794,-2.794"
       id="path182" />
    <path
       d="m 34.5948,95.3008 v 3.4544"
       id="path184" />
    <path
       d="m 51.1556,75.4888 h -3.556"
       id="path186" />
    <path
       d="M 44.9072,84.9884 34.5948,95.3008"
       id="path188" />
    <path
       d="m 45.4946,80.137 h 4.391"
       id="path190" />
    <path
       d="m 49.8856,80.137 1.27,-1.27"
       id="path192" />
    <path
       d="m 45.4676,80.164 0.027,-0.027"
       id="path194" />
    <path
       d="m 53.9496,78.867 h -0.254"
       id="path196" />
    <path
       d="m 51.1556,78.867 h 2.794"
       id="path198" />
    <path
       d="m 35.2806,95.631 9.525,-9.525"
       id="path200" />
    <path
       d="M 35.2806,96.139 V 95.631"
       id="path202" />
    <path
       d="M 49.0474,78.7146 48.26,79.502"
       id="path204" />
    <path
       d="m 49.0474,75.9206 v 2.794"
       id="path206" />
    <path
       d="M 48.26,79.502 H 45.4406"
       id="path208" />
    <path
       d="m 25.7556,104.5464 v 0.1016"
       id="path210" />
    <path
       d="m 28.8036,100.6348 -0.9144,0.9144"
       id="path212" />
    <path
       d="m 27.8892,101.5492 -2.1336,2.1336"
       id="path214" />
    <path
       d="m 35.4076,100.6348 h -6.604"
       id="path216" />
    <path
       d="m 25.7556,103.6828 v 0.8636"
       id="path218" />
    <path
       d="m 47.3456,94.8436 h 2.794"
       id="path220" />
    <path
       d="m 50.1396,94.8436 2.4892,2.4892"
       id="path222" />
    <path
       d="m 56.896,97.3328 0.0508,0.0508"
       id="path224" />
    <path
       d="m 45.5474,93.0454 1.7982,1.7982"
       id="path226" />
    <path
       d="m 43.2308,93.0454 h 2.3166"
       id="path228" />
    <path
       d="M 52.6288,97.3328 H 56.896"
       id="path230" />
    <path
       d="m 48.4124,97.8916 -1.778,-1.778"
       id="path232" />
    <path
       d="M 55.9816,97.9424 55.9308,97.8916"
       id="path234" />
    <path
       d="M 46.6344,96.1136 H 46.0581"
       id="path236" />
    <path
       d="M 55.9308,97.8916 H 48.4124"
       id="path238" />
    <path
       d="m 46.0581,97.2391 0.4493,0.4493"
       id="path240" />
    <path
       d="m 46.0581,96.5025 v 0.7366"
       id="path242" />
    <path
       d="m 48.3362,98.2726 h 8.636"
       id="path244" />
    <path
       d="m 47.752,97.6884 0.5842,0.5842"
       id="path246" />
    <path
       d="m 56.9722,98.2726 0.0254,0.0254"
       id="path248" />
    <path
       d="M 46.5074,97.6884 H 47.752"
       id="path250" />
    <path
       d="m 48.2346,98.7298 h 7.7322"
       id="path252" />
    <path
       d="m 46.0756,98.0948 h 1.524"
       id="path254" />
    <path
       d="M 55.9668,98.7298 55.972,98.735"
       id="path256" />
    <path
       d="m 47.5996,98.0948 0.635,0.635"
       id="path258" />
    <path
       d="M 57.0484,99.06 H 48.0568"
       id="path260" />
    <path
       d="M 47.498,98.5012 H 46.0756"
       id="path262" />
    <path
       d="M 48.0568,99.06 47.498,98.5012"
       id="path264" />
  </g>
  <g
     style="fill:#02ffee;fill-opacity:0.4;stroke:none"
     id="g280"
     transform="translate(0.01881463,-0.975)">
    <circle
       cx="27.249599"
       cy="110.55"
       r="0.68580002"
       id="circle268" />
    <circle
       cx="24.7096"
       cy="110.55"
       r="0.68580002"
       id="circle270" />
    <circle
       cx="22.1696"
       cy="110.55"
       r="0.68580002"
       id="circle272" />
    <circle
       cx="19.629601"
       cy="110.55"
       r="0.68580002"
       id="circle274" />
    <circle
       cx="45.049599"
       cy="116.175"
       r="0.30000001"
       id="circle276" />
    <circle
       cx="39.2696"
       cy="116.175"
       r="0.30000001"
       id="circle278" />
  </g>
  <g
     style="fill:none;stroke:#02ffee;stroke-width:0.9;stroke-linecap:round;stroke-linejoin:round;stroke-opacity:1"
     id="g292"
     transform="translate(0.01881463,-0.975)">
    <path
       d="m 46.4796,116.245 v -1.1"
       id="path282" />
    <path
       d="m 46.4796,120.265 v -0.8"
       id="path284" />
    <path
       d="m 37.8396,116.245 v -1.1"
       id="path286" />
    <path
       d="m 37.8396,120.265 v -0.8"
       id="path288" />
    <path
       style="fill:#02ffee;fill-opacity:0.4;fill-rule:evenodd;stroke:none"
       d="m 187.5946,2.675 v -1.7 h -1.7 v 1.7 z"
       id="path290" />
  </g>
  <g
     style="fill:#02ffee;fill-opacity:0.4;stroke:none"
     id="g336"
     transform="translate(0.01881463,-0.975)">
    <circle
       cx="186.7446"
       cy="4.3649998"
       r="0.85000002"
       id="circle294" />
    <circle
       cx="21.8706"
       cy="87.896004"
       r="0.5"
       id="circle296" />
    <circle
       cx="21.8706"
       cy="79.896004"
       r="0.5"
       id="circle298" />
    <path
       style="fill:#02ffee;fill-opacity:0.4;fill-rule:evenodd;stroke:none"
       d="m 52.0066,66.2886 v -4.3 h -0.7 v 4.3 z"
       id="path300" />
    <path
       style="fill:#02ffee;fill-opacity:0.4;fill-rule:evenodd;stroke:none"
       d="m 51.0066,66.2886 v -4.3 h -0.7 v 4.3 z"
       id="path302" />
    <path
       style="fill:#02ffee;fill-opacity:0.4;fill-rule:evenodd;stroke:none"
       d="m 50.0066,66.2886 v -4.3 h -0.7 v 4.3 z"
       id="path304" />
    <path
       style="fill:#02ffee;fill-opacity:0.4;fill-rule:evenodd;stroke:none"
       d="m 49.0066,66.2886 v -4.3 h -0.7 v 4.3 z"
       id="path306" />
    <path
       style="fill:#02ffee;fill-opacity:0.4;fill-rule:evenodd;stroke:none"
       d="m 48.0066,66.2886 v -4.3 h -0.7 v 4.3 z"
       id="path308" />
    <path
       style="fill:#02ffee;fill-opacity:0.4;fill-rule:evenodd;stroke:none"
       d="m 47.0066,66.2886 v -4.3 h -0.7 v 4.3 z"
       id="path310" />
    <path
       style="fill:#02ffee;fill-opacity:0.4;fill-rule:evenodd;stroke:none"
       d="m 46.0066,66.2886 v -4.3 h -0.7 v 4.3 z"
       id="path312" />
    <path
       style="fill:#02ffee;fill-opacity:0.4;fill-rule:evenodd;stroke:none"
       d="m 45.0066,66.2886 v -4.3 h -0.7 v 4.3 z"
       id="path314" />
    <path
       style="fill:#02ffee;fill-opacity:0.4;fill-rule:evenodd;stroke:none"
       d="m 44.0066,66.2886 v -4.3 h -0.7 v 4.3 z"
       id="path316" />
    <path
       style="fill:#02ffee;fill-opacity:0.4;fill-rule:evenodd;stroke:none"
       d="m 43.0066,66.2886 v -4.3 h -0.7 v 4.3 z"
       id="path318" />
    <path
       style="fill:#02ffee;fill-opacity:0.4;fill-rule:evenodd;stroke:none"
       d="m 42.0066,66.2886 v -4.3 h -0.7 v 4.3 z"
       id="path320" />
    <path
       style="fill:#02ffee;fill-opacity:0.4;fill-rule:evenodd;stroke:none"
       d="m 39.0066,66.2886 v -4.3 h -0.7 v 4.3 z"
       id="path322" />
    <path
       style="fill:#02ffee;fill-opacity:0.4;fill-rule:evenodd;stroke:none"
       d="m 38.0066,66.2886 v -4.3 h -0.7 v 4.3 z"
       id="path324" />
    <path
       style="fill:#02ffee;fill-opacity:0.4;fill-rule:evenodd;stroke:none"
       d="m 37.0066,66.2886 v -4.3 h -0.7 v 4.3 z"
       id="path326" />
    <path
       style="fill:#02ffee;fill-opacity:0.4;fill-rule:evenodd;stroke:none"
       d="m 36.0066,66.2886 v -4.3 h -0.7 v 4.3 z"
       id="path328" />
    <path
       style="fill:#02ffee;fill-opacity:0.4;fill-rule:evenodd;stroke:none"
       d="m 35.0066,66.2886 v -4.3 h -0.7 v 4.3 z"
       id="path330" />
    <path
       style="fill:#02ffee;fill-opacity:0.4;fill-rule:evenodd;stroke:none"
       d="m 34.0066,66.2886 v -4.3 h -0.7 v 4.3 z"
       id="path332" />
    <path
       style="fill:#02ffee;fill-opacity:0.4;fill-rule:evenodd;stroke:none"
       d="m 33.0066,66.2886 v -4.3 h -0.7 v 4.3 z"
       id="path334" />
  </g>
  <g
     style="fill:none;stroke:#d0d2cd;stroke-width:0.25;stroke-linecap:round;stroke-linejoin:round;stroke-opacity:1"
     id="g410"
     transform="translate(0.01881463,-0.975)">
    <path
       d="M 28.8915,68.8355 22.6858,62.3126"
       id="path338" />
    <path
       d="m 55.4256,68.8318 6.2022,-6.5192"
       id="path340" />
    <path
       d="M 14.058,122.42 H 70.2556"
       id="path342" />
    <circle
       cx="5.1563001"
       cy="110.0686"
       r="3.3499999"
       id="circle344" />
    <path
       d="m 28.8915,68.8355 a 1.0001,1.0001 0 0 0 0.7245,0.3108"
       id="path346" />
    <path
       d="m 0.3373,108.5589 a 5.05,5.05 0 0 0 1.6164,5.4143"
       id="path348" />
    <path
       d="M 54.6976,69.1462 H 52.8144"
       id="path350" />
    <path
       d="m 70.2556,122.42 a 5.05,5.05 0 0 0 3.2026,-1.1454"
       id="path352" />
    <path
       d="m 29.616,69.1462 h 1.8831"
       id="path354" />
    <path
       d="m 14.208,64.2837 v 0"
       id="path356" />
    <path
       d="m 1.9537,113.9732 8.9017,7.3013"
       id="path358" />
    <path
       d="m 54.6976,69.1462 a 0.9999,0.9999 0 0 0 0.728,-0.3144"
       id="path360" />
    <path
       d="m 22.6858,62.3126 a 5.0501,5.0501 0 0 0 -8.4779,1.9711"
       id="path362" />
    <path
       d="M 70.1055,64.2837 A 5.05,5.05 0 0 0 61.6278,62.3126"
       id="path364" />
    <circle
       cx="79.157204"
       cy="110.0686"
       r="3.3499999"
       id="circle366" />
    <path
       d="m 52.3144,68.6463 a 0.5,0.5 0 0 0 0.5,0.5"
       id="path368" />
    <path
       d="M 14.208,64.2837 0.3372,108.5589"
       id="path370" />
    <circle
       cx="19.027"
       cy="65.793503"
       r="3.3499999"
       id="circle372" />
    <circle
       cx="65.286499"
       cy="65.793503"
       r="3.3499999"
       id="circle374" />
    <path
       d="m 82.3598,113.9732 -8.9016,7.3014"
       id="path376" />
    <path
       d="m 70.1055,64.2837 v 0"
       id="path378" />
    <path
       d="m 31.4991,69.1462 a 0.5,0.5 0 0 0 0.5,-0.5"
       id="path380" />
    <path
       d="m 70.1055,64.2837 13.8757,44.2909"
       id="path382" />
    <path
       d="m 82.3598,113.9732 a 5.0502,5.0502 0 0 0 1.6215,-5.3986"
       id="path384" />
    <path
       d="M 10.8554,121.2745 A 5.05,5.05 0 0 0 14.058,122.42"
       id="path386" />
    <path
       d="m 52.3066,61.1886 v 7.4563"
       id="path388" />
    <path
       d="m 51.8066,60.6886 0.5,0.5"
       id="path390" />
    <path
       d="m 41.6066,60.6886 h 10.2"
       id="path392" />
    <path
       d="m 41.6066,60.6886 -0.5,0.5"
       id="path394" />
    <path
       d="m 41.1066,61.1886 v 6.95"
       id="path396" />
    <path
       d="m 39.2066,61.1886 v 6.95"
       id="path398" />
    <path
       d="m 38.7066,60.6886 0.5,0.5"
       id="path400" />
    <path
       d="m 32.5066,60.6886 h 6.2"
       id="path402" />
    <path
       d="m 32.5066,60.6886 -0.5,0.5"
       id="path404" />
    <path
       d="M 32.0066,68.6449 V 61.1886"
       id="path406" />
    <path
       d="m 39.2066,68.1386 a 0.95,0.95 0 0 0 1.9,0"
       id="path408" />
  </g>
  <g
     style="fill:#ffffff;fill-opacity:1;stroke:none"
     id="g486"
     transform="translate(0.01881463,-0.975)">
    <circle
       cx="40.843201"
       cy="93.980003"
       r="0.1"
       id="circle412" />
    <circle
       cx="49.225201"
       cy="95.224602"
       r="0.1"
       id="circle414" />
    <circle
       cx="36.779202"
       cy="99.263199"
       r="0.1"
       id="circle416" />
    <circle
       cx="46.990002"
       cy="86.131401"
       r="0.1"
       id="circle418" />
    <circle
       cx="42.062401"
       cy="92.2528"
       r="0.1"
       id="circle420" />
    <circle
       cx="46.024799"
       cy="86.131401"
       r="0.1"
       id="circle422" />
    <circle
       cx="36.271198"
       cy="98.9076"
       r="0.1"
       id="circle424" />
    <circle
       cx="42.9006"
       cy="91.058998"
       r="0.1"
       id="circle426" />
    <circle
       cx="47.694801"
       cy="86.131401"
       r="0.1"
       id="circle428" />
    <circle
       cx="41.249599"
       cy="93.980003"
       r="0.1"
       id="circle430" />
    <circle
       cx="47.802799"
       cy="96.443802"
       r="0.1"
       id="circle432" />
    <circle
       cx="53.9496"
       cy="78.282799"
       r="0.15000001"
       id="circle434" />
    <circle
       cx="36.321999"
       cy="100.5332"
       r="0.1"
       id="circle436" />
    <circle
       cx="45.467602"
       cy="80.164001"
       r="0.15000001"
       id="circle438" />
    <circle
       cx="53.9496"
       cy="78.866997"
       r="0.15000001"
       id="circle440" />
    <circle
       cx="44.805599"
       cy="86.106003"
       r="0.1"
       id="circle442" />
    <circle
       cx="35.255199"
       cy="96.265999"
       r="0.1"
       id="circle444" />
    <circle
       cx="49.047401"
       cy="75.920601"
       r="0.15000001"
       id="circle446" />
    <circle
       cx="45.440601"
       cy="79.501999"
       r="0.15000001"
       id="circle448" />
    <circle
       cx="25.7556"
       cy="104.5972"
       r="0.1"
       id="circle450" />
    <circle
       cx="35.4076"
       cy="100.6348"
       r="0.1"
       id="circle452" />
    <circle
       cx="56.9468"
       cy="97.383598"
       r="0.1"
       id="circle454" />
    <circle
       cx="43.230801"
       cy="93.045403"
       r="0.1"
       id="circle456" />
    <circle
       cx="55.981602"
       cy="97.942398"
       r="0.1"
       id="circle458" />
    <circle
       cx="46.058102"
       cy="96.113602"
       r="0.1"
       id="circle460" />
    <circle
       cx="46.058102"
       cy="96.502502"
       r="0.1"
       id="circle462" />
    <circle
       cx="56.997601"
       cy="98.297997"
       r="0.1"
       id="circle464" />
    <circle
       cx="46.0756"
       cy="98.094803"
       r="0.1"
       id="circle466" />
    <circle
       cx="55.972"
       cy="98.735001"
       r="0.1"
       id="circle468" />
    <circle
       cx="46.0756"
       cy="98.501198"
       r="0.1"
       id="circle470" />
    <circle
       cx="57.048401"
       cy="99.059998"
       r="0.1"
       id="circle472" />
    <circle
       cx="27.249599"
       cy="110.55"
       r="0.43180001"
       id="circle474" />
    <circle
       cx="24.7096"
       cy="110.55"
       r="0.43180001"
       id="circle476" />
    <circle
       cx="22.1696"
       cy="110.55"
       r="0.43180001"
       id="circle478" />
    <circle
       cx="19.629601"
       cy="110.55"
       r="0.43180001"
       id="circle480" />
    <circle
       cx="45.049599"
       cy="116.175"
       r="0.30000001"
       id="circle482" />
    <circle
       cx="39.2696"
       cy="116.175"
       r="0.30000001"
       id="circle484" />
  </g>
  <g
     style="fill:none;stroke:#ffffff;stroke-width:0.6;stroke-linecap:round;stroke-linejoin:round;stroke-opacity:1"
     id="g496"
     transform="translate(0.01881463,-0.975)">
    <path
       d="m 46.4796,116.245 v -1.1"
       id="path488" />
    <path
       d="m 46.4796,120.265 v -0.8"
       id="path490" />
    <path
       d="m 37.8396,116.245 v -1.1"
       id="path492" />
    <path
       d="m 37.8396,120.265 v -0.8"
       id="path494" />
  </g>
  <g
     style="fill:#ffffff;fill-opacity:1;stroke:none"
     id="g506"
     transform="translate(0.01881463,-0.975)">
    <circle
       cx="186.7446"
       cy="1.825"
       r="0.5"
       id="circle498" />
    <circle
       cx="186.7446"
       cy="4.3649998"
       r="0.5"
       id="circle500" />
    <circle
       cx="21.8706"
       cy="87.896004"
       r="0.5"
       id="circle502" />
    <circle
       cx="21.8706"
       cy="79.896004"
       r="0.5"
       id="circle504" />
  </g>
</svg>
