%TF.GenerationSoftware,KiCad,Pcbnew,9.0.0*%
%TF.CreationDate,2025-05-31T20:06:24-04:00*%
%TF.ProjectId,status,73746174-7573-42e6-9b69-6361645f7063,rev?*%
%TF.SameCoordinates,Original*%
%TF.FileFunction,Copper,L4,Bot*%
%TF.FilePolarity,Positive*%
%FSLAX46Y46*%
G04 Gerber Fmt 4.6, Leading zero omitted, Abs format (unit mm)*
G04 Created by KiCad (PCBNEW 9.0.0) date 2025-05-31 20:06:24*
%MOMM*%
%LPD*%
G01*
G04 APERTURE LIST*
G04 Aperture macros list*
%AMRoundRect*
0 Rectangle with rounded corners*
0 $1 Rounding radius*
0 $2 $3 $4 $5 $6 $7 $8 $9 X,Y pos of 4 corners*
0 Add a 4 corners polygon primitive as box body*
4,1,4,$2,$3,$4,$5,$6,$7,$8,$9,$2,$3,0*
0 Add four circle primitives for the rounded corners*
1,1,$1+$1,$2,$3*
1,1,$1+$1,$4,$5*
1,1,$1+$1,$6,$7*
1,1,$1+$1,$8,$9*
0 Add four rect primitives between the rounded corners*
20,1,$1+$1,$2,$3,$4,$5,0*
20,1,$1+$1,$4,$5,$6,$7,0*
20,1,$1+$1,$6,$7,$8,$9,0*
20,1,$1+$1,$8,$9,$2,$3,0*%
G04 Aperture macros list end*
%TA.AperFunction,ComponentPad*%
%ADD10C,1.371600*%
%TD*%
%TA.AperFunction,ComponentPad*%
%ADD11R,1.524000X1.524000*%
%TD*%
%TA.AperFunction,ComponentPad*%
%ADD12C,1.524000*%
%TD*%
%TA.AperFunction,ComponentPad*%
%ADD13O,0.900000X2.000000*%
%TD*%
%TA.AperFunction,ComponentPad*%
%ADD14O,0.900000X1.700000*%
%TD*%
%TA.AperFunction,ComponentPad*%
%ADD15R,1.700000X1.700000*%
%TD*%
%TA.AperFunction,ComponentPad*%
%ADD16O,1.700000X1.700000*%
%TD*%
%TA.AperFunction,ConnectorPad*%
%ADD17R,0.700000X4.300000*%
%TD*%
%TA.AperFunction,SMDPad,CuDef*%
%ADD18RoundRect,0.140000X-0.170000X0.140000X-0.170000X-0.140000X0.170000X-0.140000X0.170000X0.140000X0*%
%TD*%
%TA.AperFunction,ViaPad*%
%ADD19C,0.550000*%
%TD*%
%TA.AperFunction,ViaPad*%
%ADD20C,0.400000*%
%TD*%
%TA.AperFunction,Conductor*%
%ADD21C,0.150000*%
%TD*%
%TA.AperFunction,Conductor*%
%ADD22C,0.540000*%
%TD*%
%TA.AperFunction,Conductor*%
%ADD23C,0.500000*%
%TD*%
%TA.AperFunction,Conductor*%
%ADD24C,0.304800*%
%TD*%
G04 APERTURE END LIST*
D10*
%TO.P,J2,1,1*%
%TO.N,/SDA*%
X161590000Y-111710500D03*
%TO.P,J2,2,2*%
%TO.N,/SCL*%
X164130000Y-111710500D03*
%TO.P,J2,3,3*%
%TO.N,+3.3V*%
X166670000Y-111710500D03*
%TO.P,J2,4,4*%
%TO.N,GND*%
X169210000Y-111710500D03*
%TD*%
D11*
%TO.P,J3,1,Pin_1*%
%TO.N,/SWCLK*%
X121050000Y-87425000D03*
D12*
%TO.P,J3,2,Pin_2*%
%TO.N,/SWD*%
X121050000Y-85425000D03*
%TO.P,J3,3,Pin_3*%
%TO.N,+3.3V*%
X121050000Y-83425000D03*
%TO.P,J3,4,Pin_4*%
%TO.N,GND*%
X121050000Y-81425000D03*
%TD*%
D13*
%TO.P,J6,S1,SHIELD*%
%TO.N,GND*%
X142100000Y-115610000D03*
D14*
X142100000Y-119780000D03*
D13*
X150740000Y-115610000D03*
D14*
X150740000Y-119780000D03*
%TD*%
D15*
%TO.P,J7,1,Pin_1*%
%TO.N,/~{USB_BOOT_S}*%
X169490000Y-104225000D03*
D16*
%TO.P,J7,2,Pin_2*%
%TO.N,GND*%
X169490000Y-101685000D03*
%TD*%
D17*
%TO.P,J1,B1,+12V*%
%TO.N,GND*%
X136913000Y-64138595D03*
%TO.P,J1,B2,+12V*%
X137913000Y-64138595D03*
%TO.P,J1,B3,+12V*%
X138913000Y-64138595D03*
%TO.P,J1,B4,GND*%
X139913000Y-64138595D03*
%TO.P,J1,B5,SMCLK*%
X140913000Y-64138595D03*
%TO.P,J1,B6,SMDAT*%
X141913000Y-64138595D03*
%TO.P,J1,B7,GND*%
X142913000Y-64138595D03*
%TO.P,J1,B8,+3.3V*%
%TO.N,unconnected-(J1-+3.3V-PadB8)*%
X143913000Y-64138595D03*
%TO.P,J1,B9,JTAG1*%
%TO.N,+3.3V*%
X144913000Y-64138595D03*
%TO.P,J1,B10,3.3Vaux*%
X145913000Y-64138595D03*
%TO.P,J1,B11,~{WAKE}*%
X146913000Y-64138595D03*
%TO.P,J1,B12,RSVD*%
%TO.N,+5V*%
X149913000Y-64138595D03*
%TO.P,J1,B13,GND*%
X150913000Y-64138595D03*
%TO.P,J1,B14,PETp0*%
X151913000Y-64138595D03*
%TO.P,J1,B15,PETn0*%
%TO.N,unconnected-(J1-PETn0-PadB15)*%
X152913000Y-64138595D03*
%TO.P,J1,B16,GND*%
%TO.N,unconnected-(J1-GND-PadB16)*%
X153913000Y-64138595D03*
%TO.P,J1,B17,~{PRSNT2}*%
%TO.N,unconnected-(J1-~{PRSNT2}-PadB17)*%
X154913000Y-64138595D03*
%TO.P,J1,B18,GND*%
%TO.N,unconnected-(J1-GND-PadB18)*%
X155913000Y-64138595D03*
%TD*%
D18*
%TO.P,C13,1*%
%TO.N,GND*%
X144983200Y-100815200D03*
%TO.P,C13,2*%
%TO.N,+3.3V*%
X144983200Y-101775200D03*
%TD*%
%TO.P,C11,1*%
%TO.N,GND*%
X146735800Y-100840600D03*
%TO.P,C11,2*%
%TO.N,+3.3V*%
X146735800Y-101800600D03*
%TD*%
D19*
%TO.N,+1V1*%
X143750000Y-91725000D03*
X141475000Y-104525000D03*
X150375000Y-108250000D03*
%TO.N,/CS_SD*%
X145719800Y-86233000D03*
X176350000Y-82475000D03*
%TO.N,GND*%
X154305000Y-121285000D03*
X149860000Y-121285000D03*
X167640000Y-106680000D03*
X159385000Y-121285000D03*
X149860000Y-111760000D03*
X140106400Y-81281600D03*
X147243800Y-96139000D03*
X143510000Y-121285000D03*
X177800000Y-111760000D03*
X115620800Y-82016600D03*
X152857200Y-117271800D03*
X163372800Y-100634800D03*
X138912600Y-81281600D03*
X173990000Y-121285000D03*
X152298400Y-98069400D03*
X177800000Y-119380000D03*
X134620000Y-76200000D03*
X176606200Y-74472800D03*
X145161000Y-96088200D03*
X123175000Y-118275000D03*
X180187600Y-100685600D03*
X152247600Y-107899200D03*
X127965200Y-90373200D03*
X142240000Y-111760000D03*
X172500000Y-112375000D03*
X149377400Y-98374200D03*
X145084800Y-98323400D03*
X138912600Y-80168500D03*
X124460000Y-96520000D03*
X124460000Y-86360000D03*
X119380000Y-91440000D03*
X175260000Y-71120000D03*
X165075000Y-89825000D03*
X119380000Y-106680000D03*
X129540000Y-71120000D03*
X116840000Y-96520000D03*
X124950000Y-107400000D03*
X137718800Y-80214800D03*
X137625000Y-107525000D03*
X127000000Y-76200000D03*
X160020000Y-116840000D03*
X138725000Y-104950000D03*
X132825000Y-79825000D03*
X147116800Y-100482400D03*
X147320000Y-106680000D03*
X134620000Y-101600000D03*
X106680000Y-106680000D03*
X180340000Y-96520000D03*
X129540000Y-96520000D03*
X159425000Y-78175000D03*
X165150000Y-105050000D03*
X163372800Y-97180400D03*
X147130000Y-98302500D03*
X137160000Y-71120000D03*
X111760000Y-116840000D03*
X166624000Y-102006400D03*
X117475000Y-121285000D03*
X133400000Y-120250000D03*
X135229600Y-88646000D03*
X146685000Y-119380000D03*
X136779000Y-117246400D03*
X183515000Y-114300000D03*
X154025600Y-95986600D03*
X137160000Y-86360000D03*
X114300000Y-111760000D03*
X180340000Y-91440000D03*
X157480000Y-119380000D03*
X186055000Y-106045000D03*
X173800000Y-92975000D03*
X114300000Y-86360000D03*
X161442400Y-103581200D03*
X138912600Y-79148000D03*
X124460000Y-111760000D03*
X141605000Y-71120000D03*
X132080000Y-106680000D03*
X143560800Y-77241400D03*
X157480000Y-91400000D03*
X160020000Y-71120000D03*
X158200000Y-86400000D03*
X165775000Y-79025000D03*
X159969200Y-103581200D03*
X123825000Y-71120000D03*
X180340000Y-116840000D03*
X114300000Y-101600000D03*
X142240000Y-86360000D03*
X182880000Y-101600000D03*
X172720000Y-106680000D03*
X140106400Y-80164000D03*
X168275000Y-71120000D03*
X142722600Y-100253800D03*
X158699200Y-103530400D03*
X125200000Y-81350000D03*
X160800000Y-89550000D03*
X144780000Y-116840000D03*
X152400000Y-71120000D03*
X148894800Y-92735400D03*
X111760000Y-106680000D03*
X165735000Y-121285000D03*
X134518400Y-79908400D03*
X145084800Y-100330000D03*
X144780000Y-71120000D03*
X129540000Y-86360000D03*
X149453600Y-96062800D03*
X132080000Y-111760000D03*
X111760000Y-96520000D03*
X137718800Y-81281600D03*
X154940000Y-111760000D03*
X162560000Y-76200000D03*
X149377400Y-100380800D03*
X130575000Y-114675000D03*
X170180000Y-76200000D03*
X140106400Y-79148000D03*
X180340000Y-106680000D03*
X119380000Y-116840000D03*
X165750000Y-76000000D03*
X167640000Y-96520000D03*
X172135800Y-95681800D03*
X111760000Y-91440000D03*
X137718800Y-79148000D03*
X118110000Y-71120000D03*
X147350000Y-81900000D03*
X148590000Y-71120000D03*
X119380000Y-76200000D03*
X136775000Y-104925000D03*
X177175000Y-102725000D03*
X156850000Y-77325000D03*
X174250000Y-117550000D03*
X132025000Y-95200000D03*
X123175000Y-92375000D03*
X146925000Y-75250000D03*
X121175000Y-104025000D03*
X132525000Y-74025000D03*
X123150000Y-77000000D03*
X157600000Y-112050000D03*
%TO.N,/MOSI*%
X156260800Y-99669600D03*
X176587500Y-83712500D03*
%TO.N,/MISO*%
X153136600Y-93294200D03*
X175250000Y-92600000D03*
X155549600Y-98907600D03*
X178200000Y-92575000D03*
D20*
X178275000Y-87700000D03*
D19*
X148945600Y-84556600D03*
%TO.N,/SCK*%
X149987000Y-83845400D03*
X143586200Y-83413600D03*
D20*
X177525000Y-85600000D03*
D19*
X140487400Y-85902800D03*
X174100000Y-94250000D03*
X177375000Y-94250000D03*
%TO.N,/SWCLK*%
X142494000Y-91414600D03*
X134569200Y-92862400D03*
%TO.N,/STBY*%
X134645400Y-77876400D03*
X153345000Y-100228400D03*
%TO.N,+3.3V*%
X144913000Y-68017000D03*
X147825000Y-102850000D03*
X143510000Y-102844600D03*
%TO.N,/TX*%
X144018000Y-80162400D03*
X134620000Y-78867000D03*
%TO.N,/RESET*%
X153098500Y-94221300D03*
X154000200Y-91795600D03*
%TO.N,+5V*%
X148539200Y-72542400D03*
X151900000Y-68017000D03*
X134210800Y-80820000D03*
%TO.N,/RX*%
X139522200Y-75920600D03*
X143129000Y-79502000D03*
%TO.N,/CS*%
X144551400Y-83134200D03*
X140208000Y-89814400D03*
%TO.N,/SCL*%
X164150000Y-108500000D03*
X152933400Y-96139000D03*
%TO.N,/SDA*%
X161590000Y-109056800D03*
X152044400Y-96545400D03*
%TO.N,/~{USB_BOOT_S}*%
X156210000Y-107645200D03*
X155320000Y-103380000D03*
%TO.N,/SWD*%
X134575000Y-91600000D03*
X141808200Y-90347800D03*
%TO.N,/Push_Left*%
X131175850Y-99085400D03*
X141452600Y-95656400D03*
%TO.N,/Push_Down*%
X142240000Y-98120200D03*
X132562600Y-99110800D03*
%TO.N,/Push_Right*%
X142265400Y-98958400D03*
X133223000Y-99110800D03*
%TO.N,/Push_Up*%
X142011400Y-96215200D03*
X131876800Y-99085400D03*
%TO.N,/RUN*%
X130479800Y-99060000D03*
X141039400Y-91897200D03*
%TD*%
D21*
%TO.N,+1V1*%
X140175000Y-116850000D02*
X140175000Y-105875000D01*
X142825000Y-103175000D02*
X141475000Y-104525000D01*
X140175000Y-105875000D02*
X141475000Y-104575000D01*
X150375000Y-108250000D02*
X153175000Y-111050000D01*
X143750000Y-91725000D02*
X143400000Y-92075000D01*
X141475000Y-104575000D02*
X141475000Y-104525000D01*
X141375000Y-118050000D02*
X140175000Y-116850000D01*
X142825000Y-102425000D02*
X142825000Y-103175000D01*
X153175000Y-115175000D02*
X150300000Y-118050000D01*
X153175000Y-111050000D02*
X153175000Y-115175000D01*
X150300000Y-118050000D02*
X141375000Y-118050000D01*
X143400000Y-101850000D02*
X142825000Y-102425000D01*
X143400000Y-92075000D02*
X143400000Y-101850000D01*
%TO.N,/CS_SD*%
X172050000Y-93275000D02*
X162125000Y-93275000D01*
X147624800Y-83337400D02*
X145719800Y-85242400D01*
X162125000Y-93275000D02*
X152187400Y-83337400D01*
X176275000Y-82475000D02*
X175075000Y-83675000D01*
X175075000Y-90250000D02*
X172050000Y-93275000D01*
X145719800Y-85242400D02*
X145719800Y-86233000D01*
X152187400Y-83337400D02*
X147624800Y-83337400D01*
X175075000Y-83675000D02*
X175075000Y-90250000D01*
X176350000Y-82475000D02*
X176275000Y-82475000D01*
%TO.N,/MOSI*%
X176587500Y-83712500D02*
X176275000Y-84025000D01*
X171715500Y-99302500D02*
X156627900Y-99302500D01*
X176275000Y-84025000D02*
X176275000Y-94743000D01*
X176275000Y-94743000D02*
X171715500Y-99302500D01*
X156627900Y-99302500D02*
X156260800Y-99669600D01*
%TO.N,/MISO*%
X152603200Y-92989400D02*
X152908000Y-93294200D01*
X178100000Y-92475000D02*
X178200000Y-92575000D01*
X178100000Y-87875000D02*
X178100000Y-92475000D01*
X175250000Y-94521745D02*
X170864145Y-98907600D01*
X170864145Y-98907600D02*
X155549600Y-98907600D01*
X178275000Y-87700000D02*
X178100000Y-87875000D01*
X175250000Y-92600000D02*
X175250000Y-94521745D01*
X175250000Y-92600000D02*
X175275000Y-92575000D01*
X148945600Y-84556600D02*
X149936200Y-84556600D01*
X149936200Y-84556600D02*
X152603200Y-87223600D01*
X152603200Y-87223600D02*
X152603200Y-92989400D01*
X152908000Y-93294200D02*
X153136600Y-93294200D01*
%TO.N,/SCK*%
X174100000Y-94250000D02*
X161475000Y-94250000D01*
X143586200Y-83921600D02*
X141554200Y-85953600D01*
X140538200Y-85953600D02*
X140487400Y-85902800D01*
X143586200Y-83413600D02*
X143586200Y-83921600D01*
X141554200Y-85953600D02*
X140538200Y-85953600D01*
X177225000Y-94100000D02*
X177375000Y-94250000D01*
X161475000Y-94250000D02*
X151070400Y-83845400D01*
X151070400Y-83845400D02*
X149987000Y-83845400D01*
X177525000Y-85600000D02*
X177225000Y-85900000D01*
X177225000Y-85900000D02*
X177225000Y-94100000D01*
%TO.N,/SWCLK*%
X137208513Y-91414600D02*
X142494000Y-91414600D01*
X135786113Y-92837000D02*
X137208513Y-91414600D01*
X134594600Y-92837000D02*
X135786113Y-92837000D01*
X134569200Y-92862400D02*
X134594600Y-92837000D01*
%TO.N,/STBY*%
X150475000Y-118675000D02*
X139680800Y-118675000D01*
X126466600Y-78130400D02*
X127381000Y-77216000D01*
X133553200Y-77216000D02*
X134213600Y-77876400D01*
X126466600Y-97536000D02*
X126466600Y-78130400D01*
X132588000Y-103657400D02*
X126466600Y-97536000D01*
X127381000Y-77216000D02*
X133553200Y-77216000D01*
X153543000Y-115607000D02*
X150475000Y-118675000D01*
X132588000Y-111582200D02*
X132588000Y-103657400D01*
X139680800Y-118675000D02*
X132588000Y-111582200D01*
X153345000Y-100228400D02*
X153543000Y-100426400D01*
X134213600Y-77876400D02*
X134645400Y-77876400D01*
X153543000Y-100426400D02*
X153543000Y-115607000D01*
%TO.N,+3.3V*%
X146735800Y-102850000D02*
X147695600Y-102850000D01*
D22*
X144913000Y-68017000D02*
X144913000Y-64138595D01*
D21*
X144675000Y-102875000D02*
X143604200Y-102875000D01*
X146735800Y-101800600D02*
X146735800Y-102850000D01*
X144983200Y-102566800D02*
X144675000Y-102875000D01*
X144957800Y-101876800D02*
X144983200Y-101902200D01*
D23*
X144913000Y-64138595D02*
X146913000Y-64138595D01*
D21*
X144983200Y-101902200D02*
X144983200Y-102566800D01*
%TO.N,/TX*%
X144018000Y-80162400D02*
X143992600Y-80137000D01*
X141198600Y-80137000D02*
X140614400Y-80721200D01*
X135305800Y-78867000D02*
X134620000Y-78867000D01*
X143992600Y-80137000D02*
X141198600Y-80137000D01*
X140614400Y-80721200D02*
X137160000Y-80721200D01*
X137160000Y-80721200D02*
X135305800Y-78867000D01*
%TO.N,/RESET*%
X154051000Y-93878400D02*
X154051000Y-91846400D01*
X153098500Y-94221300D02*
X153708100Y-94221300D01*
X153708100Y-94221300D02*
X154051000Y-93878400D01*
X154051000Y-91846400D02*
X154000200Y-91795600D01*
D24*
%TO.N,+5V*%
X145347600Y-72542400D02*
X148539200Y-72542400D01*
X138144400Y-82620000D02*
X143210000Y-82620000D01*
X143210000Y-82620000D02*
X144729200Y-81100800D01*
D22*
X151913000Y-68004000D02*
X151913000Y-64138595D01*
X151900000Y-68017000D02*
X151913000Y-68004000D01*
D24*
X144729200Y-73160800D02*
X145347600Y-72542400D01*
X134210800Y-80820000D02*
X136344400Y-80820000D01*
X136344400Y-80820000D02*
X138144400Y-82620000D01*
D23*
X149913000Y-64138595D02*
X151913000Y-64138595D01*
D24*
X144729200Y-81100800D02*
X144729200Y-73160800D01*
D21*
%TO.N,/RX*%
X139522200Y-77851000D02*
X141173200Y-79502000D01*
X141173200Y-79502000D02*
X143129000Y-79502000D01*
X139522200Y-75920600D02*
X139522200Y-77851000D01*
%TO.N,/CS*%
X140208000Y-89814400D02*
X144526000Y-85496400D01*
X144526000Y-85496400D02*
X144526000Y-83134200D01*
%TO.N,/SCL*%
X154279600Y-97002600D02*
X154279600Y-102792145D01*
X164100000Y-108450000D02*
X155850000Y-108450000D01*
X153416000Y-96139000D02*
X154279600Y-97002600D01*
X164150000Y-108500000D02*
X164100000Y-108450000D01*
X152933400Y-96139000D02*
X153416000Y-96139000D01*
X155850000Y-108450000D02*
X154279600Y-106879600D01*
X154279600Y-106879600D02*
X154279600Y-102692200D01*
%TO.N,/SDA*%
X161590000Y-109056800D02*
X161550000Y-109016800D01*
X161550000Y-109016800D02*
X155651200Y-109016800D01*
X153949400Y-98120200D02*
X152374600Y-96545400D01*
X155651200Y-109016800D02*
X153949400Y-107315000D01*
X153949400Y-107315000D02*
X153949400Y-98120200D01*
X152374600Y-96545400D02*
X152044400Y-96545400D01*
%TO.N,/~{USB_BOOT_S}*%
X155321000Y-106756200D02*
X155321000Y-103378000D01*
X156210000Y-107645200D02*
X155321000Y-106756200D01*
%TO.N,/SWD*%
X134575000Y-91600000D02*
X134575000Y-91776000D01*
X134575000Y-91776000D02*
X134751000Y-91600000D01*
X136136400Y-91600000D02*
X137388600Y-90347800D01*
X137388600Y-90347800D02*
X141808200Y-90347800D01*
X134751000Y-91600000D02*
X136136400Y-91600000D01*
%TO.N,/Push_Left*%
X131165600Y-98950780D02*
X131165600Y-98450400D01*
X132041000Y-97575000D02*
X140055000Y-97575000D01*
X131175850Y-99085400D02*
X131175850Y-98961030D01*
X131175850Y-98961030D02*
X131165600Y-98950780D01*
X140055000Y-97575000D02*
X141452600Y-96177400D01*
X131165600Y-98450400D02*
X132041000Y-97575000D01*
X141452600Y-96177400D02*
X141452600Y-95656400D01*
%TO.N,/Push_Down*%
X132562600Y-98729800D02*
X132742400Y-98550000D01*
X132742400Y-98550000D02*
X141810200Y-98550000D01*
X141810200Y-98550000D02*
X142240000Y-98120200D01*
X132562600Y-99110800D02*
X132562600Y-98729800D01*
%TO.N,/Push_Right*%
X142240000Y-98933000D02*
X142265400Y-98958400D01*
X133400800Y-98933000D02*
X142240000Y-98933000D01*
X133223000Y-99110800D02*
X133400800Y-98933000D01*
%TO.N,/Push_Up*%
X140251600Y-97975000D02*
X142011400Y-96215200D01*
X132352200Y-97975000D02*
X140251600Y-97975000D01*
X131724400Y-98602800D02*
X132352200Y-97975000D01*
X131858870Y-99085400D02*
X131724400Y-98950930D01*
X131724400Y-98950930D02*
X131724400Y-98602800D01*
X131876800Y-99085400D02*
X131858870Y-99085400D01*
%TO.N,/RUN*%
X131856400Y-97150000D02*
X134929800Y-97150000D01*
X130479800Y-98526600D02*
X131856400Y-97150000D01*
X140963200Y-91821000D02*
X141039400Y-91897200D01*
X134929800Y-97150000D02*
X140258800Y-91821000D01*
X130479800Y-99060000D02*
X130479800Y-98526600D01*
X140258800Y-91821000D02*
X140963200Y-91821000D01*
%TD*%
%TA.AperFunction,Conductor*%
%TO.N,GND*%
G36*
X143582129Y-80365882D02*
G01*
X143594080Y-80364741D01*
X143615033Y-80375543D01*
X143637650Y-80382185D01*
X143647063Y-80392057D01*
X143656182Y-80396759D01*
X143672378Y-80417355D01*
X143672565Y-80417212D01*
X143677514Y-80423661D01*
X143677515Y-80423663D01*
X143756737Y-80502885D01*
X143853763Y-80558903D01*
X143961982Y-80587900D01*
X143961984Y-80587900D01*
X144074016Y-80587900D01*
X144074018Y-80587900D01*
X144182237Y-80558903D01*
X144240300Y-80525379D01*
X144308200Y-80508907D01*
X144374227Y-80531759D01*
X144417417Y-80586680D01*
X144426300Y-80632767D01*
X144426300Y-80923972D01*
X144406615Y-80991011D01*
X144389981Y-81011653D01*
X143120853Y-82280781D01*
X143059530Y-82314266D01*
X143033172Y-82317100D01*
X138321227Y-82317100D01*
X138254188Y-82297415D01*
X138233546Y-82280781D01*
X137111148Y-81158382D01*
X137100537Y-81138951D01*
X137086037Y-81122218D01*
X137084118Y-81108882D01*
X137077663Y-81097059D01*
X137079242Y-81074976D01*
X137076090Y-81053060D01*
X137081685Y-81040805D01*
X137082647Y-81027367D01*
X137095915Y-81009642D01*
X137105112Y-80989503D01*
X137116445Y-80982218D01*
X137124519Y-80971434D01*
X137145262Y-80963696D01*
X137163888Y-80951726D01*
X137185810Y-80948573D01*
X137189983Y-80947017D01*
X137198823Y-80946701D01*
X137204855Y-80946701D01*
X137204855Y-80946700D01*
X137219291Y-80946700D01*
X140555103Y-80946700D01*
X140555111Y-80946701D01*
X140569545Y-80946701D01*
X140659253Y-80946701D01*
X140659255Y-80946701D01*
X140717860Y-80922425D01*
X140742136Y-80912370D01*
X140805570Y-80848936D01*
X140805570Y-80848935D01*
X140823008Y-80831497D01*
X140823009Y-80831494D01*
X141255686Y-80398819D01*
X141317009Y-80365334D01*
X141343367Y-80362500D01*
X143570611Y-80362500D01*
X143582129Y-80365882D01*
G37*
%TD.AperFunction*%
%TA.AperFunction,Conductor*%
G36*
X169799801Y-61051108D02*
G01*
X169810500Y-61051700D01*
X170208833Y-61091101D01*
X170219446Y-61092617D01*
X170612889Y-61166309D01*
X170623316Y-61168733D01*
X171008932Y-61276171D01*
X171019094Y-61279482D01*
X171278397Y-61376577D01*
X171393957Y-61419848D01*
X171403834Y-61424042D01*
X171765143Y-61596285D01*
X171774620Y-61601317D01*
X172119687Y-61804152D01*
X172128694Y-61809985D01*
X172454941Y-62041900D01*
X172463394Y-62048478D01*
X172698207Y-62248087D01*
X172768368Y-62307729D01*
X172776231Y-62315022D01*
X172812992Y-62352205D01*
X173057649Y-62599670D01*
X173064856Y-62607621D01*
X173320596Y-62915516D01*
X173327089Y-62924059D01*
X173555262Y-63252924D01*
X173560992Y-63261997D01*
X173759881Y-63609363D01*
X173764804Y-63618897D01*
X173932672Y-63981630D01*
X173932910Y-63982143D01*
X173936990Y-63992064D01*
X174054941Y-64318355D01*
X174073616Y-64370014D01*
X174075291Y-64374973D01*
X174089075Y-64418973D01*
X174089146Y-64419073D01*
X174092074Y-64428393D01*
X174092074Y-64428414D01*
X174092103Y-64428486D01*
X187928437Y-108593789D01*
X187928565Y-108594345D01*
X187944808Y-108646191D01*
X187946273Y-108651241D01*
X188048229Y-109032673D01*
X188050511Y-109042937D01*
X188119325Y-109429041D01*
X188120730Y-109439461D01*
X188156590Y-109830029D01*
X188157106Y-109840530D01*
X188159749Y-110232712D01*
X188159374Y-110243220D01*
X188128783Y-110634223D01*
X188127521Y-110644646D01*
X188063912Y-111031678D01*
X188061773Y-111041952D01*
X187965609Y-111422184D01*
X187962601Y-111432259D01*
X187834577Y-111802963D01*
X187830727Y-111812747D01*
X187671749Y-112171294D01*
X187667083Y-112180716D01*
X187478315Y-112524483D01*
X187472868Y-112533477D01*
X187255647Y-112860030D01*
X187249458Y-112868529D01*
X187005359Y-113175499D01*
X186998472Y-113183444D01*
X186729244Y-113468632D01*
X186721709Y-113475965D01*
X186427445Y-113738968D01*
X186423470Y-113742372D01*
X186419658Y-113745500D01*
X186419639Y-113745515D01*
X186388554Y-113771012D01*
X186388554Y-113771013D01*
X178460767Y-120273569D01*
X177560456Y-121012025D01*
X177560454Y-121012026D01*
X177525721Y-121040514D01*
X177521536Y-121043799D01*
X177201876Y-121283804D01*
X177193097Y-121289824D01*
X176856302Y-121500112D01*
X176847039Y-121505357D01*
X176493448Y-121685985D01*
X176483770Y-121690416D01*
X176115992Y-121840053D01*
X176105969Y-121843638D01*
X175726712Y-121961182D01*
X175716419Y-121963894D01*
X175328474Y-122048479D01*
X175317986Y-122050298D01*
X174924222Y-122101299D01*
X174913617Y-122102212D01*
X174527520Y-122118800D01*
X174514443Y-122119362D01*
X174509122Y-122119476D01*
X118371621Y-122119476D01*
X118361625Y-122119475D01*
X118361623Y-122119475D01*
X118340764Y-122119475D01*
X118316692Y-122119475D01*
X118316691Y-122119474D01*
X118311373Y-122119361D01*
X117912017Y-122102207D01*
X117901411Y-122101294D01*
X117507649Y-122050296D01*
X117497162Y-122048477D01*
X117109219Y-121963896D01*
X117098925Y-121961184D01*
X116719669Y-121843644D01*
X116709646Y-121840059D01*
X116341878Y-121690429D01*
X116332200Y-121685999D01*
X115978600Y-121505370D01*
X115969337Y-121500125D01*
X115632542Y-121289842D01*
X115623763Y-121283822D01*
X115304666Y-121044245D01*
X115300478Y-121040958D01*
X114122207Y-120074513D01*
X110376116Y-117001882D01*
X106447248Y-113779332D01*
X106437103Y-113771011D01*
X106430147Y-113765305D01*
X106402396Y-113742543D01*
X106398413Y-113739133D01*
X106104778Y-113476754D01*
X106097262Y-113469444D01*
X105828665Y-113185126D01*
X105821793Y-113177206D01*
X105777823Y-113121978D01*
X105679845Y-112998912D01*
X105578184Y-112871221D01*
X105572006Y-112862750D01*
X105509566Y-112769050D01*
X105355102Y-112537257D01*
X105349672Y-112528310D01*
X105161053Y-112185674D01*
X105156389Y-112176284D01*
X105125402Y-112106642D01*
X104997375Y-111818905D01*
X104993539Y-111809196D01*
X104865292Y-111439680D01*
X104862277Y-111429640D01*
X104832907Y-111314366D01*
X104765706Y-111050610D01*
X104763557Y-111040387D01*
X104699348Y-110654530D01*
X104698070Y-110644157D01*
X104666689Y-110254277D01*
X104666291Y-110243809D01*
X104666316Y-110237974D01*
X104667804Y-109889257D01*
X105761855Y-109889257D01*
X105761855Y-109897608D01*
X105761855Y-110247933D01*
X105762481Y-110254286D01*
X105797010Y-110604870D01*
X105797013Y-110604887D01*
X105866980Y-110956643D01*
X105866983Y-110956654D01*
X105971104Y-111299895D01*
X106038992Y-111463791D01*
X106107064Y-111628132D01*
X106108364Y-111631269D01*
X106108366Y-111631274D01*
X106277434Y-111947578D01*
X106277451Y-111947606D01*
X106476697Y-112245800D01*
X106476714Y-112245823D01*
X106704255Y-112523082D01*
X106957867Y-112776694D01*
X106957872Y-112776698D01*
X106957873Y-112776699D01*
X107235132Y-113004240D01*
X107235139Y-113004245D01*
X107235149Y-113004252D01*
X107533343Y-113203498D01*
X107533348Y-113203501D01*
X107533360Y-113203509D01*
X107533369Y-113203513D01*
X107533371Y-113203515D01*
X107849675Y-113372583D01*
X107849677Y-113372583D01*
X107849683Y-113372587D01*
X108181056Y-113509846D01*
X108524286Y-113613964D01*
X108524292Y-113613965D01*
X108524295Y-113613966D01*
X108524306Y-113613969D01*
X108744887Y-113657844D01*
X108876069Y-113683938D01*
X109233017Y-113719095D01*
X109233020Y-113719095D01*
X109591690Y-113719095D01*
X109591693Y-113719095D01*
X109948641Y-113683938D01*
X110122764Y-113649302D01*
X110300403Y-113613969D01*
X110300414Y-113613966D01*
X110300414Y-113613965D01*
X110300424Y-113613964D01*
X110643654Y-113509846D01*
X110975027Y-113372587D01*
X111291350Y-113203509D01*
X111589578Y-113004240D01*
X111866837Y-112776699D01*
X112120459Y-112523077D01*
X112348000Y-112245818D01*
X112547269Y-111947590D01*
X112716347Y-111631267D01*
X112853606Y-111299894D01*
X112957724Y-110956664D01*
X112957726Y-110956654D01*
X112957729Y-110956643D01*
X113009380Y-110696971D01*
X113027698Y-110604881D01*
X113062855Y-110247933D01*
X113062855Y-109889257D01*
X113027698Y-109532309D01*
X113000839Y-109397282D01*
X112957729Y-109180546D01*
X112957726Y-109180535D01*
X112957725Y-109180532D01*
X112957724Y-109180526D01*
X112853606Y-108837296D01*
X112716347Y-108505923D01*
X112709559Y-108493224D01*
X112547275Y-108189611D01*
X112547273Y-108189609D01*
X112547269Y-108189600D01*
X112546321Y-108188181D01*
X112348012Y-107891389D01*
X112348005Y-107891379D01*
X112348000Y-107891372D01*
X112120459Y-107614113D01*
X112120458Y-107614112D01*
X112120454Y-107614107D01*
X111866842Y-107360495D01*
X111589583Y-107132954D01*
X111589560Y-107132937D01*
X111291366Y-106933691D01*
X111291338Y-106933674D01*
X110975034Y-106764606D01*
X110975029Y-106764604D01*
X110966789Y-106761191D01*
X110846451Y-106711345D01*
X110643655Y-106627344D01*
X110300414Y-106523223D01*
X110300403Y-106523220D01*
X109948647Y-106453253D01*
X109948630Y-106453250D01*
X109678706Y-106426665D01*
X109591693Y-106418095D01*
X109233017Y-106418095D01*
X109152542Y-106426021D01*
X108876079Y-106453250D01*
X108876062Y-106453253D01*
X108524306Y-106523220D01*
X108524295Y-106523223D01*
X108181054Y-106627344D01*
X107849680Y-106764604D01*
X107849675Y-106764606D01*
X107533371Y-106933674D01*
X107533343Y-106933691D01*
X107235149Y-107132937D01*
X107235126Y-107132954D01*
X106957867Y-107360495D01*
X106704255Y-107614107D01*
X106476714Y-107891366D01*
X106476697Y-107891389D01*
X106277451Y-108189583D01*
X106277434Y-108189611D01*
X106108366Y-108505915D01*
X106108364Y-108505920D01*
X105971104Y-108837294D01*
X105866983Y-109180535D01*
X105866980Y-109180546D01*
X105797013Y-109532302D01*
X105797010Y-109532319D01*
X105769781Y-109808782D01*
X105761855Y-109889257D01*
X104667804Y-109889257D01*
X104667960Y-109852669D01*
X104668447Y-109842226D01*
X104703155Y-109452623D01*
X104704525Y-109442237D01*
X104772024Y-109056956D01*
X104774260Y-109046752D01*
X104874511Y-108666863D01*
X104876073Y-108661449D01*
X104880756Y-108646503D01*
X109803080Y-92934542D01*
X112823957Y-83291964D01*
X113393134Y-81475160D01*
X113439964Y-81325678D01*
X119788000Y-81325678D01*
X119788000Y-81524321D01*
X119819075Y-81720520D01*
X119819075Y-81720523D01*
X119880457Y-81909437D01*
X119970641Y-82086432D01*
X119997730Y-82123715D01*
X119997731Y-82123716D01*
X120669000Y-81452447D01*
X120669000Y-81475160D01*
X120694964Y-81572061D01*
X120745124Y-81658940D01*
X120816060Y-81729876D01*
X120902939Y-81780036D01*
X120999840Y-81806000D01*
X121022553Y-81806000D01*
X120351283Y-82477268D01*
X120351283Y-82477269D01*
X120388567Y-82504358D01*
X120429673Y-82525303D01*
X120480469Y-82573278D01*
X120497264Y-82641099D01*
X120474727Y-82707234D01*
X120461060Y-82723469D01*
X120341214Y-82843315D01*
X120241356Y-82992762D01*
X120241349Y-82992775D01*
X120172568Y-83158829D01*
X120172565Y-83158841D01*
X120137500Y-83335122D01*
X120137500Y-83514877D01*
X120172565Y-83691158D01*
X120172568Y-83691170D01*
X120241349Y-83857224D01*
X120241356Y-83857237D01*
X120341214Y-84006684D01*
X120341217Y-84006688D01*
X120468311Y-84133782D01*
X120468315Y-84133785D01*
X120617762Y-84233643D01*
X120617775Y-84233650D01*
X120783571Y-84302324D01*
X120783834Y-84302433D01*
X120783838Y-84302433D01*
X120783839Y-84302434D01*
X120788608Y-84303383D01*
X120850519Y-84335768D01*
X120885093Y-84396484D01*
X120881352Y-84466254D01*
X120840486Y-84522926D01*
X120788608Y-84546617D01*
X120783839Y-84547565D01*
X120783829Y-84547568D01*
X120617775Y-84616349D01*
X120617762Y-84616356D01*
X120468315Y-84716214D01*
X120468311Y-84716217D01*
X120341217Y-84843311D01*
X120341214Y-84843315D01*
X120241356Y-84992762D01*
X120241349Y-84992775D01*
X120172568Y-85158829D01*
X120172565Y-85158841D01*
X120137500Y-85335122D01*
X120137500Y-85514877D01*
X120172565Y-85691158D01*
X120172568Y-85691170D01*
X120241349Y-85857224D01*
X120241356Y-85857237D01*
X120341214Y-86006684D01*
X120341217Y-86006688D01*
X120468311Y-86133782D01*
X120468315Y-86133785D01*
X120617762Y-86233643D01*
X120617775Y-86233650D01*
X120715042Y-86273939D01*
X120769446Y-86317780D01*
X120791511Y-86384074D01*
X120774232Y-86451773D01*
X120723095Y-86499384D01*
X120667590Y-86512500D01*
X120273178Y-86512500D01*
X120229282Y-86521231D01*
X120229275Y-86521234D01*
X120179496Y-86554495D01*
X120179495Y-86554496D01*
X120146234Y-86604275D01*
X120146231Y-86604282D01*
X120137500Y-86648177D01*
X120137500Y-86648180D01*
X120137500Y-88201820D01*
X120137500Y-88201822D01*
X120137499Y-88201822D01*
X120146231Y-88245717D01*
X120146232Y-88245721D01*
X120146233Y-88245722D01*
X120179496Y-88295504D01*
X120229278Y-88328767D01*
X120229281Y-88328767D01*
X120229282Y-88328768D01*
X120273177Y-88337500D01*
X120273180Y-88337500D01*
X121826822Y-88337500D01*
X121870717Y-88328768D01*
X121870717Y-88328767D01*
X121870722Y-88328767D01*
X121920504Y-88295504D01*
X121953767Y-88245722D01*
X121962500Y-88201820D01*
X121962500Y-86648180D01*
X121962500Y-86648177D01*
X121953768Y-86604282D01*
X121953767Y-86604281D01*
X121953767Y-86604278D01*
X121920504Y-86554496D01*
X121920503Y-86554495D01*
X121870724Y-86521234D01*
X121870717Y-86521231D01*
X121826822Y-86512500D01*
X121826820Y-86512500D01*
X121432410Y-86512500D01*
X121365371Y-86492815D01*
X121319616Y-86440011D01*
X121309672Y-86370853D01*
X121338697Y-86307297D01*
X121384958Y-86273939D01*
X121482224Y-86233650D01*
X121482224Y-86233649D01*
X121482231Y-86233647D01*
X121631685Y-86133785D01*
X121758785Y-86006685D01*
X121858647Y-85857231D01*
X121859512Y-85855144D01*
X121893842Y-85772263D01*
X121927433Y-85691166D01*
X121962500Y-85514873D01*
X121962500Y-85335127D01*
X121962500Y-85335124D01*
X121962499Y-85335122D01*
X121927433Y-85158834D01*
X121909137Y-85114663D01*
X121858650Y-84992775D01*
X121858643Y-84992762D01*
X121758785Y-84843315D01*
X121758782Y-84843311D01*
X121631688Y-84716217D01*
X121631684Y-84716214D01*
X121482237Y-84616356D01*
X121482224Y-84616349D01*
X121316170Y-84547568D01*
X121316166Y-84547567D01*
X121316156Y-84547565D01*
X121311391Y-84546617D01*
X121249482Y-84514233D01*
X121214907Y-84453518D01*
X121218646Y-84383748D01*
X121259512Y-84327076D01*
X121311391Y-84303382D01*
X121316166Y-84302433D01*
X121482231Y-84233647D01*
X121631685Y-84133785D01*
X121758785Y-84006685D01*
X121858647Y-83857231D01*
X121927433Y-83691166D01*
X121962500Y-83514873D01*
X121962500Y-83335127D01*
X121962500Y-83335124D01*
X121962499Y-83335122D01*
X121945440Y-83249360D01*
X121927433Y-83158834D01*
X121922212Y-83146230D01*
X121858650Y-82992775D01*
X121858643Y-82992762D01*
X121758785Y-82843315D01*
X121758782Y-82843311D01*
X121638940Y-82723469D01*
X121605455Y-82662146D01*
X121610439Y-82592454D01*
X121652311Y-82536521D01*
X121670328Y-82525302D01*
X121711425Y-82504362D01*
X121748716Y-82477268D01*
X121077448Y-81806000D01*
X121100160Y-81806000D01*
X121197061Y-81780036D01*
X121283940Y-81729876D01*
X121354876Y-81658940D01*
X121405036Y-81572061D01*
X121431000Y-81475160D01*
X121431000Y-81452447D01*
X122102268Y-82123715D01*
X122129362Y-82086425D01*
X122219542Y-81909437D01*
X122280924Y-81720523D01*
X122280924Y-81720520D01*
X122312000Y-81524321D01*
X122312000Y-81325678D01*
X122280924Y-81129479D01*
X122280924Y-81129476D01*
X122219542Y-80940562D01*
X122129358Y-80763567D01*
X122102268Y-80726283D01*
X121431000Y-81397551D01*
X121431000Y-81374840D01*
X121405036Y-81277939D01*
X121354876Y-81191060D01*
X121283940Y-81120124D01*
X121197061Y-81069964D01*
X121100160Y-81044000D01*
X121077447Y-81044000D01*
X121748716Y-80372731D01*
X121748715Y-80372730D01*
X121711432Y-80345641D01*
X121534437Y-80255457D01*
X121345522Y-80194075D01*
X121149321Y-80163000D01*
X120950679Y-80163000D01*
X120754479Y-80194075D01*
X120754476Y-80194075D01*
X120565562Y-80255457D01*
X120388564Y-80345643D01*
X120351283Y-80372729D01*
X120351282Y-80372730D01*
X121022554Y-81044000D01*
X120999840Y-81044000D01*
X120902939Y-81069964D01*
X120816060Y-81120124D01*
X120745124Y-81191060D01*
X120694964Y-81277939D01*
X120669000Y-81374840D01*
X120669000Y-81397552D01*
X119997730Y-80726282D01*
X119997729Y-80726283D01*
X119970643Y-80763564D01*
X119880457Y-80940562D01*
X119819075Y-81129476D01*
X119819075Y-81129479D01*
X119788000Y-81325678D01*
X113439964Y-81325678D01*
X114455051Y-78085542D01*
X126241099Y-78085542D01*
X126241099Y-78085545D01*
X126241099Y-78175255D01*
X126241099Y-78175256D01*
X126241100Y-78189693D01*
X126241100Y-97481142D01*
X126241099Y-97481156D01*
X126241099Y-97580855D01*
X126257253Y-97619852D01*
X126257254Y-97619855D01*
X126275430Y-97663736D01*
X126356300Y-97744606D01*
X126356306Y-97744611D01*
X132326181Y-103714486D01*
X132359666Y-103775809D01*
X132362500Y-103802167D01*
X132362500Y-111527342D01*
X132362499Y-111527356D01*
X132362499Y-111627053D01*
X132362500Y-111627058D01*
X132386772Y-111685657D01*
X132396829Y-111709935D01*
X132396830Y-111709936D01*
X132460264Y-111773370D01*
X132460265Y-111773370D01*
X139489629Y-118802734D01*
X139489630Y-118802736D01*
X139553064Y-118866170D01*
X139577339Y-118876225D01*
X139635945Y-118900501D01*
X139635946Y-118900501D01*
X139740089Y-118900501D01*
X139740097Y-118900500D01*
X141084764Y-118900500D01*
X141151803Y-118920185D01*
X141197558Y-118972989D01*
X141207502Y-119042147D01*
X141199325Y-119071953D01*
X141186508Y-119102894D01*
X141186506Y-119102902D01*
X141150000Y-119286428D01*
X141150000Y-119530000D01*
X141800000Y-119530000D01*
X141800000Y-120030000D01*
X141150000Y-120030000D01*
X141150000Y-120273571D01*
X141186506Y-120457097D01*
X141186508Y-120457105D01*
X141258119Y-120629991D01*
X141258124Y-120630000D01*
X141362086Y-120785589D01*
X141362089Y-120785593D01*
X141494406Y-120917910D01*
X141494410Y-120917913D01*
X141649999Y-121021875D01*
X141650012Y-121021882D01*
X141822889Y-121093489D01*
X141822896Y-121093491D01*
X141850000Y-121098882D01*
X141850000Y-120346988D01*
X141859940Y-120364205D01*
X141915795Y-120420060D01*
X141984204Y-120459556D01*
X142060504Y-120480000D01*
X142139496Y-120480000D01*
X142215796Y-120459556D01*
X142284205Y-120420060D01*
X142340060Y-120364205D01*
X142350000Y-120346988D01*
X142350000Y-121098881D01*
X142377103Y-121093491D01*
X142377110Y-121093489D01*
X142549987Y-121021882D01*
X142550000Y-121021875D01*
X142705589Y-120917913D01*
X142705593Y-120917910D01*
X142837910Y-120785593D01*
X142837913Y-120785589D01*
X142941875Y-120630000D01*
X142941880Y-120629991D01*
X143013491Y-120457105D01*
X143013493Y-120457097D01*
X143049999Y-120273571D01*
X143050000Y-120273569D01*
X143050000Y-120030000D01*
X142400000Y-120030000D01*
X142400000Y-119530000D01*
X143050000Y-119530000D01*
X143050000Y-119286430D01*
X143049999Y-119286428D01*
X143013493Y-119102902D01*
X143013491Y-119102894D01*
X143000675Y-119071953D01*
X142993206Y-119002484D01*
X143024481Y-118940005D01*
X143084569Y-118904352D01*
X143115236Y-118900500D01*
X149724764Y-118900500D01*
X149791803Y-118920185D01*
X149837558Y-118972989D01*
X149847502Y-119042147D01*
X149839325Y-119071953D01*
X149826508Y-119102894D01*
X149826506Y-119102902D01*
X149790000Y-119286428D01*
X149790000Y-119530000D01*
X150440000Y-119530000D01*
X150440000Y-120030000D01*
X149790000Y-120030000D01*
X149790000Y-120273571D01*
X149826506Y-120457097D01*
X149826508Y-120457105D01*
X149898119Y-120629991D01*
X149898124Y-120630000D01*
X150002086Y-120785589D01*
X150002089Y-120785593D01*
X150134406Y-120917910D01*
X150134410Y-120917913D01*
X150289999Y-121021875D01*
X150290012Y-121021882D01*
X150462889Y-121093489D01*
X150462896Y-121093491D01*
X150490000Y-121098882D01*
X150490000Y-120346988D01*
X150499940Y-120364205D01*
X150555795Y-120420060D01*
X150624204Y-120459556D01*
X150700504Y-120480000D01*
X150779496Y-120480000D01*
X150855796Y-120459556D01*
X150924205Y-120420060D01*
X150980060Y-120364205D01*
X150990000Y-120346988D01*
X150990000Y-121098881D01*
X151017103Y-121093491D01*
X151017110Y-121093489D01*
X151189987Y-121021882D01*
X151190000Y-121021875D01*
X151345589Y-120917913D01*
X151345593Y-120917910D01*
X151477910Y-120785593D01*
X151477913Y-120785589D01*
X151581875Y-120630000D01*
X151581880Y-120629991D01*
X151653491Y-120457105D01*
X151653493Y-120457097D01*
X151689999Y-120273571D01*
X151690000Y-120273569D01*
X151690000Y-120030000D01*
X151040000Y-120030000D01*
X151040000Y-119530000D01*
X151690000Y-119530000D01*
X151690000Y-119286430D01*
X151689999Y-119286428D01*
X151653493Y-119102902D01*
X151653491Y-119102894D01*
X151581880Y-118930008D01*
X151581875Y-118929999D01*
X151477913Y-118774410D01*
X151477910Y-118774406D01*
X151345593Y-118642089D01*
X151345589Y-118642086D01*
X151190000Y-118538124D01*
X151189987Y-118538117D01*
X151178156Y-118533217D01*
X151123752Y-118489376D01*
X151101687Y-118423082D01*
X151118966Y-118355383D01*
X151137920Y-118330983D01*
X153653294Y-115815610D01*
X153653297Y-115815608D01*
X153670735Y-115798170D01*
X153670736Y-115798170D01*
X153734170Y-115734736D01*
X153734170Y-115734734D01*
X153734172Y-115734733D01*
X153752907Y-115689500D01*
X153768500Y-115651855D01*
X153768500Y-111792870D01*
X160753699Y-111792870D01*
X160785837Y-111954434D01*
X160785839Y-111954440D01*
X160848879Y-112106633D01*
X160848884Y-112106642D01*
X160940403Y-112243609D01*
X160940406Y-112243613D01*
X161056886Y-112360093D01*
X161056890Y-112360096D01*
X161193857Y-112451615D01*
X161193863Y-112451618D01*
X161193864Y-112451619D01*
X161346060Y-112514661D01*
X161346064Y-112514661D01*
X161346065Y-112514662D01*
X161507629Y-112546800D01*
X161507632Y-112546800D01*
X161672370Y-112546800D01*
X161791630Y-112523077D01*
X161833940Y-112514661D01*
X161986136Y-112451619D01*
X162123110Y-112360096D01*
X162239596Y-112243610D01*
X162331119Y-112106636D01*
X162394161Y-111954440D01*
X162421116Y-111818931D01*
X162426300Y-111792870D01*
X163293699Y-111792870D01*
X163325837Y-111954434D01*
X163325839Y-111954440D01*
X163388879Y-112106633D01*
X163388884Y-112106642D01*
X163480403Y-112243609D01*
X163480406Y-112243613D01*
X163596886Y-112360093D01*
X163596890Y-112360096D01*
X163733857Y-112451615D01*
X163733863Y-112451618D01*
X163733864Y-112451619D01*
X163886060Y-112514661D01*
X163886064Y-112514661D01*
X163886065Y-112514662D01*
X164047629Y-112546800D01*
X164047632Y-112546800D01*
X164212370Y-112546800D01*
X164331630Y-112523077D01*
X164373940Y-112514661D01*
X164526136Y-112451619D01*
X164663110Y-112360096D01*
X164779596Y-112243610D01*
X164871119Y-112106636D01*
X164934161Y-111954440D01*
X164961116Y-111818931D01*
X164966300Y-111792870D01*
X165833699Y-111792870D01*
X165865837Y-111954434D01*
X165865839Y-111954440D01*
X165928879Y-112106633D01*
X165928884Y-112106642D01*
X166020403Y-112243609D01*
X166020406Y-112243613D01*
X166136886Y-112360093D01*
X166136890Y-112360096D01*
X166273857Y-112451615D01*
X166273863Y-112451618D01*
X166273864Y-112451619D01*
X166426060Y-112514661D01*
X166426064Y-112514661D01*
X166426065Y-112514662D01*
X166587629Y-112546800D01*
X166587632Y-112546800D01*
X166752370Y-112546800D01*
X166752371Y-112546799D01*
X166763415Y-112544602D01*
X166789869Y-112539341D01*
X166789874Y-112539340D01*
X166878507Y-112521709D01*
X166913940Y-112514661D01*
X167066136Y-112451619D01*
X167203110Y-112360096D01*
X167319596Y-112243610D01*
X167411119Y-112106636D01*
X167474161Y-111954440D01*
X167501116Y-111818931D01*
X167506300Y-111792870D01*
X167506300Y-111628132D01*
X167506299Y-111628126D01*
X167504119Y-111617169D01*
X168024200Y-111617169D01*
X168024200Y-111803830D01*
X168053397Y-111988172D01*
X168111077Y-112165691D01*
X168195811Y-112331991D01*
X168212282Y-112354662D01*
X168782721Y-111784223D01*
X168807626Y-111877169D01*
X168864474Y-111975631D01*
X168944869Y-112056026D01*
X169043331Y-112112874D01*
X169136275Y-112137778D01*
X168565835Y-112708216D01*
X168588504Y-112724686D01*
X168754808Y-112809422D01*
X168932327Y-112867102D01*
X169116670Y-112896300D01*
X169303330Y-112896300D01*
X169487672Y-112867102D01*
X169665191Y-112809422D01*
X169831496Y-112724686D01*
X169854162Y-112708217D01*
X169854162Y-112708216D01*
X169283724Y-112137777D01*
X169376669Y-112112874D01*
X169475131Y-112056026D01*
X169555526Y-111975631D01*
X169612374Y-111877169D01*
X169637278Y-111784224D01*
X170207716Y-112354662D01*
X170207717Y-112354662D01*
X170224186Y-112331996D01*
X170308922Y-112165691D01*
X170366602Y-111988172D01*
X170395800Y-111803830D01*
X170395800Y-111617169D01*
X170366602Y-111432827D01*
X170308922Y-111255308D01*
X170224186Y-111089004D01*
X170207716Y-111066336D01*
X170207716Y-111066335D01*
X169637277Y-111636774D01*
X169612374Y-111543831D01*
X169555526Y-111445369D01*
X169475131Y-111364974D01*
X169376669Y-111308126D01*
X169283724Y-111283222D01*
X169854162Y-110712782D01*
X169831491Y-110696311D01*
X169665191Y-110611577D01*
X169487672Y-110553897D01*
X169303330Y-110524700D01*
X169116670Y-110524700D01*
X168932327Y-110553897D01*
X168754808Y-110611577D01*
X168588502Y-110696314D01*
X168565836Y-110712782D01*
X168565835Y-110712782D01*
X169136275Y-111283221D01*
X169043331Y-111308126D01*
X168944869Y-111364974D01*
X168864474Y-111445369D01*
X168807626Y-111543831D01*
X168782722Y-111636775D01*
X168212282Y-111066335D01*
X168212282Y-111066336D01*
X168195814Y-111089002D01*
X168111077Y-111255308D01*
X168053397Y-111432827D01*
X168024200Y-111617169D01*
X167504119Y-111617169D01*
X167474162Y-111466565D01*
X167474161Y-111466564D01*
X167474161Y-111466560D01*
X167411119Y-111314364D01*
X167411118Y-111314363D01*
X167411115Y-111314357D01*
X167319596Y-111177390D01*
X167319593Y-111177386D01*
X167203113Y-111060906D01*
X167203109Y-111060903D01*
X167066142Y-110969384D01*
X167066133Y-110969379D01*
X166913940Y-110906339D01*
X166913934Y-110906337D01*
X166789864Y-110881658D01*
X166789863Y-110881657D01*
X166752371Y-110874200D01*
X166752368Y-110874200D01*
X166587632Y-110874200D01*
X166587630Y-110874200D01*
X166426065Y-110906337D01*
X166426059Y-110906339D01*
X166273866Y-110969379D01*
X166273857Y-110969384D01*
X166136890Y-111060903D01*
X166136886Y-111060906D01*
X166020406Y-111177386D01*
X166020403Y-111177390D01*
X165928884Y-111314357D01*
X165928879Y-111314366D01*
X165865839Y-111466559D01*
X165865837Y-111466565D01*
X165833700Y-111628129D01*
X165833700Y-111628132D01*
X165833700Y-111792868D01*
X165833700Y-111792870D01*
X165833699Y-111792870D01*
X164966300Y-111792870D01*
X164966300Y-111628129D01*
X164934162Y-111466565D01*
X164934161Y-111466564D01*
X164934161Y-111466560D01*
X164871119Y-111314364D01*
X164871118Y-111314363D01*
X164871115Y-111314357D01*
X164779596Y-111177390D01*
X164779593Y-111177386D01*
X164663113Y-111060906D01*
X164663109Y-111060903D01*
X164526142Y-110969384D01*
X164526133Y-110969379D01*
X164373940Y-110906339D01*
X164373934Y-110906337D01*
X164212370Y-110874200D01*
X164212368Y-110874200D01*
X164047632Y-110874200D01*
X164047630Y-110874200D01*
X163886065Y-110906337D01*
X163886059Y-110906339D01*
X163733866Y-110969379D01*
X163733857Y-110969384D01*
X163596890Y-111060903D01*
X163596886Y-111060906D01*
X163480406Y-111177386D01*
X163480403Y-111177390D01*
X163388884Y-111314357D01*
X163388879Y-111314366D01*
X163325839Y-111466559D01*
X163325837Y-111466565D01*
X163293700Y-111628129D01*
X163293700Y-111628132D01*
X163293700Y-111792868D01*
X163293700Y-111792870D01*
X163293699Y-111792870D01*
X162426300Y-111792870D01*
X162426300Y-111628129D01*
X162394162Y-111466565D01*
X162394161Y-111466564D01*
X162394161Y-111466560D01*
X162331119Y-111314364D01*
X162331118Y-111314363D01*
X162331115Y-111314357D01*
X162239596Y-111177390D01*
X162239593Y-111177386D01*
X162123113Y-111060906D01*
X162123109Y-111060903D01*
X161986142Y-110969384D01*
X161986133Y-110969379D01*
X161833940Y-110906339D01*
X161833934Y-110906337D01*
X161672370Y-110874200D01*
X161672368Y-110874200D01*
X161507632Y-110874200D01*
X161507630Y-110874200D01*
X161346065Y-110906337D01*
X161346059Y-110906339D01*
X161193866Y-110969379D01*
X161193857Y-110969384D01*
X161056890Y-111060903D01*
X161056886Y-111060906D01*
X160940406Y-111177386D01*
X160940403Y-111177390D01*
X160848884Y-111314357D01*
X160848879Y-111314366D01*
X160785839Y-111466559D01*
X160785837Y-111466565D01*
X160753700Y-111628129D01*
X160753700Y-111628132D01*
X160753700Y-111792868D01*
X160753700Y-111792870D01*
X160753699Y-111792870D01*
X153768500Y-111792870D01*
X153768500Y-109889257D01*
X179762805Y-109889257D01*
X179762805Y-109897608D01*
X179762805Y-110247933D01*
X179763431Y-110254286D01*
X179797960Y-110604870D01*
X179797963Y-110604887D01*
X179867930Y-110956643D01*
X179867933Y-110956654D01*
X179972054Y-111299895D01*
X180039942Y-111463791D01*
X180108014Y-111628132D01*
X180109314Y-111631269D01*
X180109316Y-111631274D01*
X180278384Y-111947578D01*
X180278401Y-111947606D01*
X180477647Y-112245800D01*
X180477664Y-112245823D01*
X180705205Y-112523082D01*
X180958817Y-112776694D01*
X180958822Y-112776698D01*
X180958823Y-112776699D01*
X181236082Y-113004240D01*
X181236089Y-113004245D01*
X181236099Y-113004252D01*
X181534293Y-113203498D01*
X181534298Y-113203501D01*
X181534310Y-113203509D01*
X181534319Y-113203513D01*
X181534321Y-113203515D01*
X181850625Y-113372583D01*
X181850627Y-113372583D01*
X181850633Y-113372587D01*
X182182006Y-113509846D01*
X182525236Y-113613964D01*
X182525242Y-113613965D01*
X182525245Y-113613966D01*
X182525256Y-113613969D01*
X182745837Y-113657844D01*
X182877019Y-113683938D01*
X183233967Y-113719095D01*
X183233970Y-113719095D01*
X183592640Y-113719095D01*
X183592643Y-113719095D01*
X183949591Y-113683938D01*
X184123714Y-113649302D01*
X184301353Y-113613969D01*
X184301364Y-113613966D01*
X184301364Y-113613965D01*
X184301374Y-113613964D01*
X184644604Y-113509846D01*
X184975977Y-113372587D01*
X185292300Y-113203509D01*
X185590528Y-113004240D01*
X185867787Y-112776699D01*
X186121409Y-112523077D01*
X186348950Y-112245818D01*
X186548219Y-111947590D01*
X186717297Y-111631267D01*
X186854556Y-111299894D01*
X186958674Y-110956664D01*
X186958676Y-110956654D01*
X186958679Y-110956643D01*
X187010330Y-110696971D01*
X187028648Y-110604881D01*
X187063805Y-110247933D01*
X187063805Y-109889257D01*
X187028648Y-109532309D01*
X187001789Y-109397282D01*
X186958679Y-109180546D01*
X186958676Y-109180535D01*
X186958675Y-109180532D01*
X186958674Y-109180526D01*
X186854556Y-108837296D01*
X186717297Y-108505923D01*
X186710509Y-108493224D01*
X186548225Y-108189611D01*
X186548223Y-108189609D01*
X186548219Y-108189600D01*
X186547271Y-108188181D01*
X186348962Y-107891389D01*
X186348955Y-107891379D01*
X186348950Y-107891372D01*
X186121409Y-107614113D01*
X186121408Y-107614112D01*
X186121404Y-107614107D01*
X185867792Y-107360495D01*
X185590533Y-107132954D01*
X185590510Y-107132937D01*
X185292316Y-106933691D01*
X185292288Y-106933674D01*
X184975984Y-106764606D01*
X184975979Y-106764604D01*
X184967739Y-106761191D01*
X184847401Y-106711345D01*
X184644605Y-106627344D01*
X184301364Y-106523223D01*
X184301353Y-106523220D01*
X183949597Y-106453253D01*
X183949580Y-106453250D01*
X183679656Y-106426665D01*
X183592643Y-106418095D01*
X183233967Y-106418095D01*
X183153492Y-106426021D01*
X182877029Y-106453250D01*
X182877012Y-106453253D01*
X182525256Y-106523220D01*
X182525245Y-106523223D01*
X182182004Y-106627344D01*
X181850630Y-106764604D01*
X181850625Y-106764606D01*
X181534321Y-106933674D01*
X181534293Y-106933691D01*
X181236099Y-107132937D01*
X181236076Y-107132954D01*
X180958817Y-107360495D01*
X180705205Y-107614107D01*
X180477664Y-107891366D01*
X180477647Y-107891389D01*
X180278401Y-108189583D01*
X180278384Y-108189611D01*
X180109316Y-108505915D01*
X180109314Y-108505920D01*
X179972054Y-108837294D01*
X179867933Y-109180535D01*
X179867930Y-109180546D01*
X179797963Y-109532302D01*
X179797960Y-109532319D01*
X179770731Y-109808782D01*
X179762805Y-109889257D01*
X153768500Y-109889257D01*
X153768500Y-107752367D01*
X153788185Y-107685328D01*
X153840989Y-107639573D01*
X153910147Y-107629629D01*
X153973703Y-107658654D01*
X153980181Y-107664686D01*
X155460029Y-109144534D01*
X155460030Y-109144536D01*
X155523464Y-109207970D01*
X155555011Y-109221037D01*
X155606346Y-109242301D01*
X155606347Y-109242301D01*
X155710489Y-109242301D01*
X155710497Y-109242300D01*
X161134182Y-109242300D01*
X161201221Y-109261985D01*
X161241568Y-109304299D01*
X161249515Y-109318063D01*
X161328737Y-109397285D01*
X161425763Y-109453303D01*
X161533982Y-109482300D01*
X161533984Y-109482300D01*
X161646016Y-109482300D01*
X161646018Y-109482300D01*
X161754237Y-109453303D01*
X161851263Y-109397285D01*
X161930485Y-109318063D01*
X161986503Y-109221037D01*
X162015500Y-109112818D01*
X162015500Y-109000782D01*
X161986503Y-108892563D01*
X161968569Y-108861500D01*
X161952096Y-108793599D01*
X161974949Y-108727573D01*
X162029870Y-108684382D01*
X162075956Y-108675500D01*
X163688408Y-108675500D01*
X163755447Y-108695185D01*
X163795795Y-108737500D01*
X163809512Y-108761259D01*
X163809514Y-108761262D01*
X163809515Y-108761263D01*
X163888737Y-108840485D01*
X163985763Y-108896503D01*
X164093982Y-108925500D01*
X164093984Y-108925500D01*
X164206016Y-108925500D01*
X164206018Y-108925500D01*
X164314237Y-108896503D01*
X164411263Y-108840485D01*
X164490485Y-108761263D01*
X164546503Y-108664237D01*
X164575500Y-108556018D01*
X164575500Y-108443982D01*
X164546503Y-108335763D01*
X164490485Y-108238737D01*
X164411263Y-108159515D01*
X164314237Y-108103497D01*
X164206018Y-108074500D01*
X164093982Y-108074500D01*
X163985763Y-108103497D01*
X163985760Y-108103498D01*
X163888740Y-108159513D01*
X163888734Y-108159517D01*
X163860071Y-108188181D01*
X163798748Y-108221666D01*
X163772390Y-108224500D01*
X156520397Y-108224500D01*
X156453358Y-108204815D01*
X156407603Y-108152011D01*
X156397659Y-108082853D01*
X156426684Y-108019297D01*
X156458395Y-107993114D01*
X156471263Y-107985685D01*
X156550485Y-107906463D01*
X156606503Y-107809437D01*
X156635500Y-107701218D01*
X156635500Y-107589182D01*
X156606503Y-107480963D01*
X156550485Y-107383937D01*
X156471263Y-107304715D01*
X156374237Y-107248697D01*
X156266018Y-107219700D01*
X156154767Y-107219700D01*
X156087728Y-107200015D01*
X156067086Y-107183381D01*
X155582819Y-106699114D01*
X155549334Y-106637791D01*
X155546500Y-106611433D01*
X155546500Y-103806610D01*
X155566185Y-103739571D01*
X155582819Y-103718929D01*
X155599493Y-103702255D01*
X155660485Y-103641263D01*
X155716503Y-103544237D01*
X155745500Y-103436018D01*
X155745500Y-103323982D01*
X155716503Y-103215763D01*
X155660485Y-103118737D01*
X155581263Y-103039515D01*
X155487355Y-102985297D01*
X155484239Y-102983498D01*
X155484238Y-102983497D01*
X155484237Y-102983497D01*
X155376018Y-102954500D01*
X155263982Y-102954500D01*
X155155763Y-102983497D01*
X155155760Y-102983498D01*
X155058740Y-103039513D01*
X155058734Y-103039517D01*
X154979517Y-103118734D01*
X154979513Y-103118740D01*
X154923498Y-103215760D01*
X154923497Y-103215763D01*
X154894500Y-103323982D01*
X154894500Y-103436018D01*
X154923497Y-103544237D01*
X154979515Y-103641263D01*
X154979517Y-103641265D01*
X155059181Y-103720929D01*
X155092666Y-103782252D01*
X155095500Y-103808610D01*
X155095500Y-106701342D01*
X155095499Y-106701356D01*
X155095499Y-106801053D01*
X155095500Y-106801058D01*
X155119772Y-106859657D01*
X155129829Y-106883935D01*
X155129830Y-106883936D01*
X155193264Y-106947370D01*
X155193265Y-106947370D01*
X155210705Y-106964810D01*
X155748181Y-107502286D01*
X155760266Y-107524419D01*
X155775784Y-107544299D01*
X155778289Y-107557424D01*
X155781666Y-107563609D01*
X155783981Y-107578628D01*
X155784835Y-107587930D01*
X155784500Y-107589182D01*
X155784500Y-107701218D01*
X155800836Y-107762185D01*
X155801803Y-107772716D01*
X155797023Y-107797035D01*
X155796434Y-107821812D01*
X155790404Y-107830721D01*
X155788330Y-107841275D01*
X155771162Y-107859149D01*
X155757271Y-107879674D01*
X155747384Y-107883907D01*
X155739932Y-107891667D01*
X155715823Y-107897422D01*
X155693043Y-107907178D01*
X155682434Y-107905394D01*
X155671972Y-107907892D01*
X155648582Y-107899701D01*
X155624140Y-107895591D01*
X155611847Y-107886837D01*
X155606029Y-107884800D01*
X155602327Y-107880058D01*
X155590641Y-107871736D01*
X154541419Y-106822514D01*
X154507934Y-106761191D01*
X154505100Y-106734833D01*
X154505100Y-101435000D01*
X168162769Y-101435000D01*
X169056988Y-101435000D01*
X169024075Y-101492007D01*
X168990000Y-101619174D01*
X168990000Y-101750826D01*
X169024075Y-101877993D01*
X169056988Y-101935000D01*
X168162769Y-101935000D01*
X168173242Y-102001126D01*
X168173242Y-102001129D01*
X168238904Y-102203217D01*
X168335379Y-102392557D01*
X168460272Y-102564459D01*
X168460276Y-102564464D01*
X168610535Y-102714723D01*
X168610540Y-102714727D01*
X168782442Y-102839620D01*
X168971782Y-102936095D01*
X169114814Y-102982569D01*
X169172489Y-103022006D01*
X169199688Y-103086365D01*
X169187773Y-103155211D01*
X169140529Y-103206687D01*
X169076496Y-103224500D01*
X168625178Y-103224500D01*
X168581282Y-103233231D01*
X168581275Y-103233234D01*
X168531496Y-103266495D01*
X168531495Y-103266496D01*
X168498234Y-103316275D01*
X168498231Y-103316282D01*
X168489500Y-103360177D01*
X168489500Y-103360180D01*
X168489500Y-105089820D01*
X168489500Y-105089822D01*
X168489499Y-105089822D01*
X168498231Y-105133717D01*
X168498232Y-105133721D01*
X168498233Y-105133722D01*
X168531496Y-105183504D01*
X168581278Y-105216767D01*
X168581281Y-105216767D01*
X168581282Y-105216768D01*
X168625177Y-105225500D01*
X168625180Y-105225500D01*
X170354822Y-105225500D01*
X170398717Y-105216768D01*
X170398717Y-105216767D01*
X170398722Y-105216767D01*
X170448504Y-105183504D01*
X170481767Y-105133722D01*
X170490500Y-105089820D01*
X170490500Y-103360180D01*
X170490500Y-103360177D01*
X170481768Y-103316282D01*
X170481767Y-103316281D01*
X170481767Y-103316278D01*
X170448504Y-103266496D01*
X170448503Y-103266495D01*
X170398724Y-103233234D01*
X170398717Y-103233231D01*
X170354822Y-103224500D01*
X170354820Y-103224500D01*
X169903504Y-103224500D01*
X169836465Y-103204815D01*
X169790710Y-103152011D01*
X169780766Y-103082853D01*
X169809791Y-103019297D01*
X169865186Y-102982569D01*
X170008217Y-102936095D01*
X170197557Y-102839620D01*
X170369459Y-102714727D01*
X170369464Y-102714723D01*
X170519723Y-102564464D01*
X170519727Y-102564459D01*
X170644620Y-102392557D01*
X170741095Y-102203217D01*
X170806757Y-102001129D01*
X170806757Y-102001126D01*
X170817231Y-101935000D01*
X169923012Y-101935000D01*
X169955925Y-101877993D01*
X169990000Y-101750826D01*
X169990000Y-101619174D01*
X169955925Y-101492007D01*
X169923012Y-101435000D01*
X170817231Y-101435000D01*
X170806757Y-101368873D01*
X170806757Y-101368870D01*
X170741095Y-101166782D01*
X170644620Y-100977442D01*
X170519727Y-100805540D01*
X170519723Y-100805535D01*
X170369464Y-100655276D01*
X170369459Y-100655272D01*
X170197557Y-100530379D01*
X170008215Y-100433903D01*
X169806124Y-100368241D01*
X169740000Y-100357768D01*
X169740000Y-101251988D01*
X169682993Y-101219075D01*
X169555826Y-101185000D01*
X169424174Y-101185000D01*
X169297007Y-101219075D01*
X169240000Y-101251988D01*
X169240000Y-100357768D01*
X169239999Y-100357768D01*
X169173875Y-100368241D01*
X168971784Y-100433903D01*
X168782442Y-100530379D01*
X168610540Y-100655272D01*
X168610535Y-100655276D01*
X168460276Y-100805535D01*
X168460272Y-100805540D01*
X168335379Y-100977442D01*
X168238904Y-101166782D01*
X168173242Y-101368870D01*
X168173242Y-101368873D01*
X168162769Y-101435000D01*
X154505100Y-101435000D01*
X154505100Y-98851582D01*
X155124100Y-98851582D01*
X155124100Y-98963618D01*
X155153097Y-99071837D01*
X155209115Y-99168863D01*
X155288337Y-99248085D01*
X155385363Y-99304103D01*
X155493582Y-99333100D01*
X155493584Y-99333100D01*
X155605616Y-99333100D01*
X155605618Y-99333100D01*
X155713837Y-99304103D01*
X155713845Y-99304098D01*
X155721347Y-99300992D01*
X155721932Y-99302404D01*
X155780935Y-99288084D01*
X155846964Y-99310928D01*
X155890161Y-99365844D01*
X155896811Y-99435397D01*
X155882437Y-99473942D01*
X155864299Y-99505358D01*
X155864297Y-99505363D01*
X155835300Y-99613582D01*
X155835300Y-99725618D01*
X155863778Y-99831898D01*
X155864297Y-99833836D01*
X155864298Y-99833839D01*
X155875853Y-99853852D01*
X155920315Y-99930863D01*
X155999537Y-100010085D01*
X156096563Y-100066103D01*
X156204782Y-100095100D01*
X156204784Y-100095100D01*
X156316816Y-100095100D01*
X156316818Y-100095100D01*
X156425037Y-100066103D01*
X156522063Y-100010085D01*
X156601285Y-99930863D01*
X156657303Y-99833837D01*
X156686300Y-99725618D01*
X156686300Y-99652000D01*
X156705985Y-99584961D01*
X156758789Y-99539206D01*
X156810300Y-99528000D01*
X171670643Y-99528000D01*
X171670645Y-99528001D01*
X171760355Y-99528001D01*
X171818960Y-99503725D01*
X171843236Y-99493670D01*
X171906670Y-99430236D01*
X171906670Y-99430235D01*
X171924108Y-99412797D01*
X171924110Y-99412794D01*
X176402734Y-94934170D01*
X176402736Y-94934170D01*
X176466170Y-94870736D01*
X176480390Y-94836405D01*
X176500501Y-94787854D01*
X176500501Y-94698145D01*
X176500501Y-94688156D01*
X176500500Y-94688142D01*
X176500500Y-94193982D01*
X176949500Y-94193982D01*
X176949500Y-94306018D01*
X176978497Y-94414237D01*
X177034515Y-94511263D01*
X177113737Y-94590485D01*
X177210763Y-94646503D01*
X177318982Y-94675500D01*
X177318984Y-94675500D01*
X177431016Y-94675500D01*
X177431018Y-94675500D01*
X177539237Y-94646503D01*
X177636263Y-94590485D01*
X177715485Y-94511263D01*
X177771503Y-94414237D01*
X177800500Y-94306018D01*
X177800500Y-94193982D01*
X177771503Y-94085763D01*
X177715485Y-93988737D01*
X177636263Y-93909515D01*
X177571579Y-93872169D01*
X177539239Y-93853498D01*
X177531730Y-93850388D01*
X177532571Y-93848355D01*
X177482734Y-93817968D01*
X177452214Y-93755116D01*
X177450500Y-93734571D01*
X177450500Y-92518982D01*
X177774500Y-92518982D01*
X177774500Y-92631018D01*
X177803497Y-92739237D01*
X177859515Y-92836263D01*
X177938737Y-92915485D01*
X178035763Y-92971503D01*
X178143982Y-93000500D01*
X178143984Y-93000500D01*
X178256016Y-93000500D01*
X178256018Y-93000500D01*
X178364237Y-92971503D01*
X178461263Y-92915485D01*
X178540485Y-92836263D01*
X178596503Y-92739237D01*
X178625500Y-92631018D01*
X178625500Y-92518982D01*
X178596503Y-92410763D01*
X178540485Y-92313737D01*
X178461263Y-92234515D01*
X178402921Y-92200831D01*
X178387499Y-92191927D01*
X178339284Y-92141359D01*
X178325500Y-92084540D01*
X178325500Y-88144481D01*
X178345185Y-88077442D01*
X178397989Y-88031687D01*
X178402866Y-88029936D01*
X178402779Y-88029725D01*
X178410289Y-88026614D01*
X178490205Y-87980473D01*
X178490204Y-87980473D01*
X178490212Y-87980469D01*
X178555469Y-87915212D01*
X178601614Y-87835288D01*
X178625500Y-87746144D01*
X178625500Y-87653856D01*
X178601614Y-87564712D01*
X178601611Y-87564706D01*
X178555473Y-87484794D01*
X178555470Y-87484791D01*
X178555469Y-87484788D01*
X178490212Y-87419531D01*
X178490209Y-87419529D01*
X178490205Y-87419526D01*
X178410293Y-87373388D01*
X178410290Y-87373387D01*
X178410289Y-87373386D01*
X178410288Y-87373386D01*
X178321144Y-87349500D01*
X178228856Y-87349500D01*
X178139712Y-87373386D01*
X178139711Y-87373386D01*
X178139709Y-87373387D01*
X178139706Y-87373388D01*
X178059794Y-87419526D01*
X178059785Y-87419533D01*
X177994533Y-87484785D01*
X177994526Y-87484794D01*
X177948388Y-87564706D01*
X177948387Y-87564709D01*
X177924500Y-87653856D01*
X177924500Y-87686196D01*
X177910274Y-87734641D01*
X177913504Y-87735979D01*
X177898774Y-87771537D01*
X177898774Y-87771539D01*
X177888719Y-87795813D01*
X177874499Y-87830143D01*
X177874499Y-87934288D01*
X177874500Y-87934297D01*
X177874500Y-92254556D01*
X177857887Y-92316556D01*
X177803498Y-92410760D01*
X177803497Y-92410763D01*
X177774500Y-92518982D01*
X177450500Y-92518982D01*
X177450500Y-86074500D01*
X177470185Y-86007461D01*
X177522989Y-85961706D01*
X177563266Y-85952943D01*
X177563084Y-85951561D01*
X177571135Y-85950500D01*
X177571144Y-85950500D01*
X177660288Y-85926614D01*
X177740212Y-85880469D01*
X177805469Y-85815212D01*
X177851614Y-85735288D01*
X177875500Y-85646144D01*
X177875500Y-85553856D01*
X177851614Y-85464712D01*
X177825032Y-85418671D01*
X177805473Y-85384794D01*
X177805470Y-85384791D01*
X177805469Y-85384788D01*
X177740212Y-85319531D01*
X177740209Y-85319529D01*
X177740205Y-85319526D01*
X177660293Y-85273388D01*
X177660290Y-85273387D01*
X177660289Y-85273386D01*
X177660288Y-85273386D01*
X177571144Y-85249500D01*
X177478856Y-85249500D01*
X177389712Y-85273386D01*
X177389711Y-85273386D01*
X177389709Y-85273387D01*
X177389706Y-85273388D01*
X177309794Y-85319526D01*
X177309785Y-85319533D01*
X177244533Y-85384785D01*
X177244526Y-85384794D01*
X177198388Y-85464706D01*
X177198387Y-85464709D01*
X177198386Y-85464711D01*
X177198386Y-85464712D01*
X177184945Y-85514875D01*
X177174500Y-85553856D01*
X177174500Y-85580231D01*
X177165856Y-85609668D01*
X177159333Y-85639657D01*
X177155577Y-85644673D01*
X177154815Y-85647270D01*
X177138182Y-85667911D01*
X177097265Y-85708829D01*
X177097264Y-85708830D01*
X177033830Y-85772263D01*
X177033830Y-85772265D01*
X176999499Y-85855144D01*
X176999499Y-85959288D01*
X176999500Y-85959297D01*
X176999500Y-94016158D01*
X176982889Y-94078154D01*
X176978500Y-94085756D01*
X176978497Y-94085763D01*
X176949500Y-94193982D01*
X176500500Y-94193982D01*
X176500500Y-84262000D01*
X176520185Y-84194961D01*
X176572989Y-84149206D01*
X176624500Y-84138000D01*
X176643516Y-84138000D01*
X176643518Y-84138000D01*
X176751737Y-84109003D01*
X176848763Y-84052985D01*
X176927985Y-83973763D01*
X176984003Y-83876737D01*
X177013000Y-83768518D01*
X177013000Y-83656482D01*
X176984003Y-83548263D01*
X176927985Y-83451237D01*
X176848763Y-83372015D01*
X176751737Y-83315997D01*
X176643518Y-83287000D01*
X176531482Y-83287000D01*
X176423263Y-83315997D01*
X176423260Y-83315998D01*
X176326240Y-83372013D01*
X176326234Y-83372017D01*
X176247017Y-83451234D01*
X176247013Y-83451240D01*
X176190998Y-83548260D01*
X176190997Y-83548263D01*
X176162000Y-83656482D01*
X176162000Y-83767732D01*
X176142315Y-83834771D01*
X176137452Y-83841795D01*
X176132063Y-83849030D01*
X176083830Y-83897264D01*
X176074297Y-83920279D01*
X176068398Y-83934519D01*
X176068397Y-83934521D01*
X176049499Y-83980144D01*
X176049499Y-84084288D01*
X176049500Y-84084297D01*
X176049500Y-94598233D01*
X176029815Y-94665272D01*
X176013181Y-94685914D01*
X171658414Y-99040681D01*
X171597091Y-99074166D01*
X171570733Y-99077000D01*
X171313011Y-99077000D01*
X171245972Y-99057315D01*
X171200217Y-99004511D01*
X171190273Y-98935353D01*
X171219298Y-98871797D01*
X171225330Y-98865319D01*
X172243385Y-97847264D01*
X175377734Y-94712915D01*
X175377736Y-94712915D01*
X175441170Y-94649481D01*
X175455390Y-94615150D01*
X175475501Y-94566599D01*
X175475501Y-94476890D01*
X175475501Y-94466901D01*
X175475500Y-94466887D01*
X175475500Y-93027610D01*
X175495185Y-92960571D01*
X175511819Y-92939929D01*
X175536266Y-92915482D01*
X175590485Y-92861263D01*
X175646503Y-92764237D01*
X175675500Y-92656018D01*
X175675500Y-92543982D01*
X175646503Y-92435763D01*
X175590485Y-92338737D01*
X175511263Y-92259515D01*
X175414237Y-92203497D01*
X175306018Y-92174500D01*
X175193982Y-92174500D01*
X175085763Y-92203497D01*
X175085760Y-92203498D01*
X174988740Y-92259513D01*
X174988734Y-92259517D01*
X174909517Y-92338734D01*
X174909513Y-92338740D01*
X174853498Y-92435760D01*
X174853497Y-92435763D01*
X174824500Y-92543982D01*
X174824500Y-92656018D01*
X174853497Y-92764237D01*
X174909515Y-92861263D01*
X174909517Y-92861265D01*
X174988181Y-92939929D01*
X175021666Y-93001252D01*
X175024500Y-93027610D01*
X175024500Y-94376978D01*
X175004815Y-94444017D01*
X174988181Y-94464659D01*
X170807059Y-98645781D01*
X170745736Y-98679266D01*
X170719378Y-98682100D01*
X155977210Y-98682100D01*
X155910171Y-98662415D01*
X155889529Y-98645781D01*
X155810865Y-98567117D01*
X155810863Y-98567115D01*
X155713837Y-98511097D01*
X155605618Y-98482100D01*
X155493582Y-98482100D01*
X155385363Y-98511097D01*
X155385360Y-98511098D01*
X155288340Y-98567113D01*
X155288334Y-98567117D01*
X155209117Y-98646334D01*
X155209113Y-98646340D01*
X155153098Y-98743360D01*
X155153097Y-98743363D01*
X155124100Y-98851582D01*
X154505100Y-98851582D01*
X154505100Y-97073372D01*
X154505100Y-97047457D01*
X154505101Y-97047455D01*
X154505101Y-96957746D01*
X154470770Y-96874865D01*
X154470770Y-96874864D01*
X154407336Y-96811430D01*
X154400271Y-96804365D01*
X154400264Y-96804359D01*
X153624610Y-96028705D01*
X153607170Y-96011264D01*
X153543736Y-95947830D01*
X153543735Y-95947829D01*
X153519457Y-95937772D01*
X153519457Y-95937771D01*
X153460858Y-95913500D01*
X153460856Y-95913499D01*
X153460855Y-95913499D01*
X153371145Y-95913499D01*
X153361009Y-95913499D01*
X153293970Y-95893814D01*
X153273328Y-95877180D01*
X153194665Y-95798517D01*
X153194663Y-95798515D01*
X153097637Y-95742497D01*
X152989418Y-95713500D01*
X152877382Y-95713500D01*
X152769163Y-95742497D01*
X152769160Y-95742498D01*
X152672140Y-95798513D01*
X152672134Y-95798517D01*
X152592917Y-95877734D01*
X152592913Y-95877740D01*
X152536898Y-95974760D01*
X152536897Y-95974763D01*
X152507900Y-96082982D01*
X152507900Y-96108650D01*
X152488215Y-96175689D01*
X152435411Y-96221444D01*
X152366253Y-96231388D01*
X152312770Y-96208860D01*
X152312702Y-96208979D01*
X152311757Y-96208433D01*
X152308413Y-96207025D01*
X152305664Y-96204915D01*
X152208639Y-96148898D01*
X152208638Y-96148897D01*
X152208637Y-96148897D01*
X152100418Y-96119900D01*
X151988382Y-96119900D01*
X151880163Y-96148897D01*
X151880160Y-96148898D01*
X151783140Y-96204913D01*
X151783134Y-96204917D01*
X151703917Y-96284134D01*
X151703913Y-96284140D01*
X151647898Y-96381160D01*
X151647897Y-96381163D01*
X151618900Y-96489382D01*
X151618900Y-96601418D01*
X151647897Y-96709637D01*
X151703915Y-96806663D01*
X151783137Y-96885885D01*
X151880163Y-96941903D01*
X151988382Y-96970900D01*
X151988384Y-96970900D01*
X152100416Y-96970900D01*
X152100418Y-96970900D01*
X152208637Y-96941903D01*
X152280650Y-96900325D01*
X152348546Y-96883854D01*
X152414573Y-96906706D01*
X152430328Y-96920033D01*
X153687581Y-98177286D01*
X153721066Y-98238609D01*
X153723900Y-98264967D01*
X153723900Y-99741058D01*
X153704215Y-99808097D01*
X153651411Y-99853852D01*
X153582253Y-99863796D01*
X153537901Y-99848446D01*
X153509237Y-99831897D01*
X153401018Y-99802900D01*
X153288982Y-99802900D01*
X153180763Y-99831897D01*
X153180760Y-99831898D01*
X153083740Y-99887913D01*
X153083734Y-99887917D01*
X153004517Y-99967134D01*
X153004513Y-99967140D01*
X152948498Y-100064160D01*
X152948497Y-100064163D01*
X152919500Y-100172382D01*
X152919500Y-100284418D01*
X152948497Y-100392637D01*
X153004515Y-100489663D01*
X153083737Y-100568885D01*
X153180763Y-100624903D01*
X153225594Y-100636915D01*
X153285253Y-100673278D01*
X153315783Y-100736124D01*
X153317500Y-100756689D01*
X153317500Y-110574233D01*
X153297815Y-110641272D01*
X153245011Y-110687027D01*
X153175853Y-110696971D01*
X153112297Y-110667946D01*
X153105819Y-110661914D01*
X150836819Y-108392914D01*
X150803334Y-108331591D01*
X150800500Y-108305233D01*
X150800500Y-108193984D01*
X150800500Y-108193982D01*
X150771503Y-108085763D01*
X150715485Y-107988737D01*
X150636263Y-107909515D01*
X150539237Y-107853497D01*
X150431018Y-107824500D01*
X150318982Y-107824500D01*
X150210763Y-107853497D01*
X150210760Y-107853498D01*
X150113740Y-107909513D01*
X150113734Y-107909517D01*
X150034517Y-107988734D01*
X150034513Y-107988740D01*
X149978498Y-108085760D01*
X149978497Y-108085763D01*
X149949500Y-108193982D01*
X149949500Y-108306018D01*
X149978497Y-108414237D01*
X150034515Y-108511263D01*
X150113737Y-108590485D01*
X150210763Y-108646503D01*
X150318982Y-108675500D01*
X150318984Y-108675500D01*
X150430233Y-108675500D01*
X150497272Y-108695185D01*
X150517914Y-108711819D01*
X152913181Y-111107086D01*
X152946666Y-111168409D01*
X152949500Y-111194767D01*
X152949500Y-115030232D01*
X152929815Y-115097271D01*
X152913181Y-115117913D01*
X151901681Y-116129413D01*
X151840358Y-116162898D01*
X151770666Y-116157914D01*
X151714733Y-116116042D01*
X151690316Y-116050578D01*
X151690000Y-116041732D01*
X151690000Y-115860000D01*
X151040000Y-115860000D01*
X151040000Y-115360000D01*
X151690000Y-115360000D01*
X151690000Y-114966430D01*
X151689999Y-114966428D01*
X151653493Y-114782902D01*
X151653491Y-114782894D01*
X151581880Y-114610008D01*
X151581875Y-114609999D01*
X151477913Y-114454410D01*
X151477910Y-114454406D01*
X151345593Y-114322089D01*
X151345589Y-114322086D01*
X151190000Y-114218124D01*
X151189991Y-114218119D01*
X151017103Y-114146507D01*
X151017100Y-114146506D01*
X150990000Y-114141115D01*
X150990000Y-114893011D01*
X150980060Y-114875795D01*
X150924205Y-114819940D01*
X150855796Y-114780444D01*
X150779496Y-114760000D01*
X150700504Y-114760000D01*
X150624204Y-114780444D01*
X150555795Y-114819940D01*
X150499940Y-114875795D01*
X150490000Y-114893011D01*
X150490000Y-114141116D01*
X150489999Y-114141115D01*
X150462899Y-114146506D01*
X150462896Y-114146507D01*
X150290008Y-114218119D01*
X150289999Y-114218124D01*
X150134410Y-114322086D01*
X150134406Y-114322089D01*
X150002089Y-114454406D01*
X150002086Y-114454410D01*
X149898124Y-114609999D01*
X149898119Y-114610008D01*
X149826508Y-114782894D01*
X149826506Y-114782902D01*
X149790000Y-114966428D01*
X149790000Y-115360000D01*
X150440000Y-115360000D01*
X150440000Y-115860000D01*
X149776799Y-115860000D01*
X149744551Y-115877608D01*
X149674860Y-115872622D01*
X149630515Y-115844122D01*
X149555914Y-115769521D01*
X149555913Y-115769520D01*
X149464587Y-115716793D01*
X149362727Y-115689500D01*
X149257273Y-115689500D01*
X149155413Y-115716793D01*
X149155410Y-115716794D01*
X149064085Y-115769521D01*
X148989521Y-115844085D01*
X148936794Y-115935410D01*
X148936793Y-115935413D01*
X148909500Y-116037273D01*
X148909500Y-116142727D01*
X148936793Y-116244587D01*
X148989520Y-116335913D01*
X149064087Y-116410480D01*
X149155413Y-116463207D01*
X149257273Y-116490500D01*
X149257275Y-116490500D01*
X149362725Y-116490500D01*
X149362727Y-116490500D01*
X149464587Y-116463207D01*
X149555913Y-116410480D01*
X149613159Y-116353233D01*
X149674478Y-116319751D01*
X149744170Y-116324735D01*
X149800104Y-116366606D01*
X149822454Y-116416726D01*
X149826506Y-116437098D01*
X149826508Y-116437105D01*
X149898119Y-116609991D01*
X149898124Y-116610000D01*
X150002086Y-116765589D01*
X150002089Y-116765593D01*
X150134406Y-116897910D01*
X150134410Y-116897913D01*
X150289999Y-117001875D01*
X150290012Y-117001882D01*
X150462889Y-117073489D01*
X150462896Y-117073491D01*
X150490000Y-117078882D01*
X150490000Y-116326988D01*
X150499940Y-116344205D01*
X150555795Y-116400060D01*
X150624204Y-116439556D01*
X150700504Y-116460000D01*
X150779496Y-116460000D01*
X150855796Y-116439556D01*
X150924205Y-116400060D01*
X150980060Y-116344205D01*
X150990000Y-116326988D01*
X150990000Y-116989733D01*
X150970315Y-117056772D01*
X150953681Y-117077414D01*
X150242914Y-117788181D01*
X150181591Y-117821666D01*
X150155233Y-117824500D01*
X141519767Y-117824500D01*
X141452728Y-117804815D01*
X141432086Y-117788181D01*
X140436819Y-116792914D01*
X140403334Y-116731591D01*
X140400500Y-116705233D01*
X140400500Y-114966428D01*
X141150000Y-114966428D01*
X141150000Y-115360000D01*
X141800000Y-115360000D01*
X141800000Y-115860000D01*
X141150000Y-115860000D01*
X141150000Y-116253571D01*
X141186506Y-116437097D01*
X141186508Y-116437105D01*
X141258119Y-116609991D01*
X141258124Y-116610000D01*
X141362086Y-116765589D01*
X141362089Y-116765593D01*
X141494406Y-116897910D01*
X141494410Y-116897913D01*
X141649999Y-117001875D01*
X141650012Y-117001882D01*
X141822889Y-117073489D01*
X141822896Y-117073491D01*
X141850000Y-117078882D01*
X141850000Y-116326988D01*
X141859940Y-116344205D01*
X141915795Y-116400060D01*
X141984204Y-116439556D01*
X142060504Y-116460000D01*
X142139496Y-116460000D01*
X142215796Y-116439556D01*
X142284205Y-116400060D01*
X142340060Y-116344205D01*
X142350000Y-116326988D01*
X142350000Y-117078881D01*
X142377103Y-117073491D01*
X142377110Y-117073489D01*
X142549987Y-117001882D01*
X142550000Y-117001875D01*
X142705589Y-116897913D01*
X142705593Y-116897910D01*
X142837910Y-116765593D01*
X142837913Y-116765589D01*
X142941875Y-116610000D01*
X142941880Y-116609991D01*
X143013491Y-116437105D01*
X143013493Y-116437100D01*
X143017544Y-116416731D01*
X143049926Y-116354818D01*
X143110640Y-116320242D01*
X143180410Y-116323979D01*
X143226843Y-116353236D01*
X143284087Y-116410480D01*
X143375413Y-116463207D01*
X143477273Y-116490500D01*
X143477275Y-116490500D01*
X143582725Y-116490500D01*
X143582727Y-116490500D01*
X143684587Y-116463207D01*
X143775913Y-116410480D01*
X143850480Y-116335913D01*
X143903207Y-116244587D01*
X143930500Y-116142727D01*
X143930500Y-116037273D01*
X143903207Y-115935413D01*
X143850480Y-115844087D01*
X143775913Y-115769520D01*
X143684587Y-115716793D01*
X143582727Y-115689500D01*
X143477273Y-115689500D01*
X143375413Y-115716793D01*
X143375410Y-115716794D01*
X143284087Y-115769520D01*
X143209484Y-115844123D01*
X143148160Y-115877607D01*
X143078469Y-115872622D01*
X143058829Y-115860000D01*
X142400000Y-115860000D01*
X142400000Y-115360000D01*
X143050000Y-115360000D01*
X143050000Y-114966430D01*
X143049999Y-114966428D01*
X143013493Y-114782902D01*
X143013491Y-114782894D01*
X142941880Y-114610008D01*
X142941875Y-114609999D01*
X142837913Y-114454410D01*
X142837910Y-114454406D01*
X142705593Y-114322089D01*
X142705589Y-114322086D01*
X142550000Y-114218124D01*
X142549991Y-114218119D01*
X142377103Y-114146507D01*
X142377100Y-114146506D01*
X142350000Y-114141115D01*
X142350000Y-114893011D01*
X142340060Y-114875795D01*
X142284205Y-114819940D01*
X142215796Y-114780444D01*
X142139496Y-114760000D01*
X142060504Y-114760000D01*
X141984204Y-114780444D01*
X141915795Y-114819940D01*
X141859940Y-114875795D01*
X141850000Y-114893011D01*
X141850000Y-114141116D01*
X141849999Y-114141115D01*
X141822899Y-114146506D01*
X141822896Y-114146507D01*
X141650008Y-114218119D01*
X141649999Y-114218124D01*
X141494410Y-114322086D01*
X141494406Y-114322089D01*
X141362089Y-114454406D01*
X141362086Y-114454410D01*
X141258124Y-114609999D01*
X141258119Y-114610008D01*
X141186508Y-114782894D01*
X141186506Y-114782902D01*
X141150000Y-114966428D01*
X140400500Y-114966428D01*
X140400500Y-106019766D01*
X140420185Y-105952727D01*
X140436814Y-105932089D01*
X141382085Y-104986818D01*
X141443408Y-104953334D01*
X141469766Y-104950500D01*
X141531016Y-104950500D01*
X141531018Y-104950500D01*
X141639237Y-104921503D01*
X141736263Y-104865485D01*
X141815485Y-104786263D01*
X141871503Y-104689237D01*
X141900500Y-104581018D01*
X141900500Y-104469766D01*
X141920185Y-104402727D01*
X141936819Y-104382085D01*
X142134391Y-104184513D01*
X143016170Y-103302736D01*
X143047728Y-103226546D01*
X143091567Y-103172144D01*
X143157861Y-103150078D01*
X143225561Y-103167356D01*
X143242187Y-103180272D01*
X143242291Y-103180138D01*
X143248731Y-103185079D01*
X143248737Y-103185085D01*
X143345763Y-103241103D01*
X143453982Y-103270100D01*
X143453984Y-103270100D01*
X143566016Y-103270100D01*
X143566018Y-103270100D01*
X143674237Y-103241103D01*
X143771263Y-103185085D01*
X143819529Y-103136819D01*
X143880852Y-103103334D01*
X143907210Y-103100500D01*
X144630143Y-103100500D01*
X144630145Y-103100501D01*
X144719855Y-103100501D01*
X144780211Y-103075500D01*
X144802736Y-103066170D01*
X144866170Y-103002736D01*
X144866170Y-103002735D01*
X144883608Y-102985297D01*
X144883610Y-102985294D01*
X145110934Y-102757970D01*
X145110936Y-102757970D01*
X145174370Y-102694536D01*
X145201355Y-102629388D01*
X145208701Y-102611654D01*
X145208701Y-102521945D01*
X145208701Y-102511956D01*
X145208700Y-102511942D01*
X145208700Y-102289050D01*
X145228385Y-102222011D01*
X145281189Y-102176256D01*
X145282614Y-102175616D01*
X145290860Y-102171974D01*
X145320216Y-102159013D01*
X145397013Y-102082216D01*
X145440882Y-101982862D01*
X145443700Y-101958573D01*
X145443699Y-101597671D01*
X145463383Y-101530633D01*
X145504579Y-101490939D01*
X145548577Y-101464918D01*
X145548583Y-101464914D01*
X145662914Y-101350583D01*
X145662921Y-101350574D01*
X145747670Y-101207272D01*
X145798739Y-101159588D01*
X145867481Y-101147085D01*
X145932070Y-101173730D01*
X145972000Y-101231066D01*
X145973478Y-101235798D01*
X145973766Y-101236790D01*
X145973768Y-101236795D01*
X146056078Y-101375974D01*
X146056085Y-101375983D01*
X146170416Y-101490314D01*
X146170425Y-101490321D01*
X146214419Y-101516338D01*
X146262104Y-101567406D01*
X146275300Y-101623071D01*
X146275300Y-101983965D01*
X146275302Y-101983988D01*
X146278117Y-102008259D01*
X146278118Y-102008262D01*
X146321986Y-102107615D01*
X146398784Y-102184413D01*
X146436386Y-102201016D01*
X146489763Y-102246102D01*
X146510290Y-102312888D01*
X146510300Y-102314450D01*
X146510300Y-102894853D01*
X146510301Y-102894858D01*
X146544627Y-102977733D01*
X146608066Y-103041172D01*
X146668420Y-103066170D01*
X146690945Y-103075500D01*
X146780655Y-103075500D01*
X147397390Y-103075500D01*
X147464429Y-103095185D01*
X147485071Y-103111819D01*
X147563737Y-103190485D01*
X147660763Y-103246503D01*
X147768982Y-103275500D01*
X147768984Y-103275500D01*
X147881016Y-103275500D01*
X147881018Y-103275500D01*
X147989237Y-103246503D01*
X148086263Y-103190485D01*
X148165485Y-103111263D01*
X148221503Y-103014237D01*
X148250500Y-102906018D01*
X148250500Y-102793982D01*
X148221503Y-102685763D01*
X148165485Y-102588737D01*
X148086263Y-102509515D01*
X147989237Y-102453497D01*
X147881018Y-102424500D01*
X147768982Y-102424500D01*
X147660763Y-102453497D01*
X147660760Y-102453498D01*
X147563740Y-102509513D01*
X147563734Y-102509517D01*
X147485071Y-102588181D01*
X147423748Y-102621666D01*
X147397390Y-102624500D01*
X147085300Y-102624500D01*
X147076614Y-102621949D01*
X147067653Y-102623238D01*
X147043612Y-102612259D01*
X147018261Y-102604815D01*
X147012333Y-102597974D01*
X147004097Y-102594213D01*
X146989807Y-102571978D01*
X146972506Y-102552011D01*
X146970218Y-102541496D01*
X146966323Y-102535435D01*
X146961300Y-102500500D01*
X146961300Y-102314450D01*
X146980985Y-102247411D01*
X147033789Y-102201656D01*
X147035214Y-102201016D01*
X147048075Y-102195337D01*
X147072816Y-102184413D01*
X147149613Y-102107616D01*
X147193482Y-102008262D01*
X147196300Y-101983973D01*
X147196299Y-101623071D01*
X147215983Y-101556033D01*
X147257179Y-101516339D01*
X147301177Y-101490318D01*
X147301183Y-101490314D01*
X147415514Y-101375983D01*
X147415521Y-101375974D01*
X147497831Y-101236795D01*
X147540304Y-101090600D01*
X145869336Y-101090600D01*
X145869336Y-101086239D01*
X145842374Y-101088100D01*
X145800684Y-101065200D01*
X144178696Y-101065200D01*
X144221168Y-101211395D01*
X144303478Y-101350574D01*
X144303485Y-101350583D01*
X144417816Y-101464914D01*
X144417825Y-101464921D01*
X144461819Y-101490938D01*
X144509504Y-101542006D01*
X144522700Y-101597671D01*
X144522700Y-101958565D01*
X144522702Y-101958588D01*
X144525517Y-101982859D01*
X144525518Y-101982862D01*
X144569386Y-102082215D01*
X144646184Y-102159013D01*
X144683786Y-102175616D01*
X144697988Y-102187612D01*
X144714903Y-102195337D01*
X144724128Y-102209691D01*
X144737163Y-102220702D01*
X144742625Y-102238474D01*
X144752677Y-102254115D01*
X144757286Y-102286176D01*
X144757690Y-102287488D01*
X144757700Y-102289050D01*
X144757700Y-102422033D01*
X144738015Y-102489072D01*
X144721381Y-102509714D01*
X144617914Y-102613181D01*
X144556591Y-102646666D01*
X144530233Y-102649500D01*
X143960276Y-102649500D01*
X143893237Y-102629815D01*
X143852889Y-102587501D01*
X143850485Y-102583337D01*
X143771265Y-102504117D01*
X143771263Y-102504115D01*
X143674237Y-102448097D01*
X143566018Y-102419100D01*
X143453982Y-102419100D01*
X143449166Y-102419100D01*
X143427920Y-102412861D01*
X143405833Y-102411282D01*
X143395049Y-102403209D01*
X143382127Y-102399415D01*
X143367628Y-102382683D01*
X143349899Y-102369411D01*
X143345191Y-102356788D01*
X143336372Y-102346611D01*
X143333220Y-102324694D01*
X143325482Y-102303946D01*
X143328344Y-102290785D01*
X143326428Y-102277453D01*
X143335627Y-102257309D01*
X143340334Y-102235673D01*
X143353603Y-102217945D01*
X143355453Y-102213897D01*
X143361465Y-102207438D01*
X143510295Y-102058608D01*
X143510299Y-102058606D01*
X143527735Y-102041170D01*
X143527736Y-102041170D01*
X143591170Y-101977736D01*
X143614399Y-101921655D01*
X143625501Y-101894854D01*
X143625501Y-101805145D01*
X143625500Y-101805142D01*
X143625500Y-100565200D01*
X144178696Y-100565200D01*
X144733200Y-100565200D01*
X145233200Y-100565200D01*
X145849664Y-100565200D01*
X145849664Y-100569536D01*
X145876286Y-100567625D01*
X145918391Y-100590600D01*
X146485800Y-100590600D01*
X146985800Y-100590600D01*
X147540304Y-100590600D01*
X147497831Y-100444404D01*
X147415521Y-100305225D01*
X147415514Y-100305216D01*
X147301183Y-100190885D01*
X147301174Y-100190878D01*
X147161995Y-100108568D01*
X147161990Y-100108566D01*
X147006718Y-100063455D01*
X147006712Y-100063454D01*
X146985800Y-100061809D01*
X146985800Y-100590600D01*
X146485800Y-100590600D01*
X146485800Y-100061810D01*
X146485799Y-100061809D01*
X146464887Y-100063454D01*
X146464881Y-100063455D01*
X146309609Y-100108566D01*
X146309604Y-100108568D01*
X146170425Y-100190878D01*
X146170416Y-100190885D01*
X146056085Y-100305216D01*
X146056081Y-100305222D01*
X145971329Y-100448528D01*
X145920259Y-100496211D01*
X145851517Y-100508714D01*
X145786928Y-100482068D01*
X145746998Y-100424732D01*
X145745518Y-100419992D01*
X145745230Y-100419003D01*
X145662921Y-100279825D01*
X145662914Y-100279816D01*
X145548583Y-100165485D01*
X145548574Y-100165478D01*
X145409395Y-100083168D01*
X145409390Y-100083166D01*
X145254118Y-100038055D01*
X145254112Y-100038054D01*
X145233200Y-100036409D01*
X145233200Y-100565200D01*
X144733200Y-100565200D01*
X144733200Y-100036410D01*
X144733199Y-100036409D01*
X144712287Y-100038054D01*
X144712281Y-100038055D01*
X144557009Y-100083166D01*
X144557004Y-100083168D01*
X144417825Y-100165478D01*
X144417816Y-100165485D01*
X144303485Y-100279816D01*
X144303478Y-100279825D01*
X144221168Y-100419004D01*
X144178696Y-100565200D01*
X143625500Y-100565200D01*
X143625500Y-92274500D01*
X143645185Y-92207461D01*
X143697989Y-92161706D01*
X143749500Y-92150500D01*
X143806016Y-92150500D01*
X143806018Y-92150500D01*
X143914237Y-92121503D01*
X144011263Y-92065485D01*
X144090485Y-91986263D01*
X144146503Y-91889237D01*
X144175500Y-91781018D01*
X144175500Y-91668982D01*
X144146503Y-91560763D01*
X144090485Y-91463737D01*
X144011263Y-91384515D01*
X143946579Y-91347169D01*
X143914239Y-91328498D01*
X143914238Y-91328497D01*
X143914237Y-91328497D01*
X143806018Y-91299500D01*
X143693982Y-91299500D01*
X143585763Y-91328497D01*
X143585760Y-91328498D01*
X143488740Y-91384513D01*
X143488734Y-91384517D01*
X143409517Y-91463734D01*
X143409513Y-91463740D01*
X143353498Y-91560760D01*
X143353497Y-91560763D01*
X143324500Y-91668982D01*
X143324500Y-91780232D01*
X143316965Y-91805892D01*
X143313018Y-91832344D01*
X143306426Y-91841784D01*
X143304815Y-91847271D01*
X143293779Y-91861933D01*
X143291082Y-91865011D01*
X143272265Y-91883829D01*
X143272264Y-91883830D01*
X143208830Y-91947264D01*
X143207490Y-91950500D01*
X143199672Y-91969373D01*
X143199670Y-91969376D01*
X143174499Y-92030144D01*
X143174499Y-92134288D01*
X143174500Y-92134297D01*
X143174500Y-101705232D01*
X143154815Y-101772271D01*
X143138181Y-101792913D01*
X142633830Y-102297263D01*
X142633830Y-102297265D01*
X142599499Y-102380144D01*
X142599499Y-102484288D01*
X142599500Y-102484297D01*
X142599500Y-103030232D01*
X142579815Y-103097271D01*
X142563181Y-103117913D01*
X141617913Y-104063181D01*
X141556590Y-104096666D01*
X141530232Y-104099500D01*
X141418982Y-104099500D01*
X141310763Y-104128497D01*
X141310760Y-104128498D01*
X141213740Y-104184513D01*
X141213734Y-104184517D01*
X141134517Y-104263734D01*
X141134513Y-104263740D01*
X141078498Y-104360760D01*
X141078497Y-104360763D01*
X141049500Y-104468982D01*
X141049500Y-104581018D01*
X141052226Y-104591190D01*
X141050561Y-104661040D01*
X141020131Y-104710962D01*
X140047265Y-105683829D01*
X139983830Y-105747263D01*
X139983830Y-105747265D01*
X139949499Y-105830144D01*
X139949499Y-105934288D01*
X139949500Y-105934297D01*
X139949500Y-116795142D01*
X139949499Y-116795156D01*
X139949499Y-116894853D01*
X139949500Y-116894858D01*
X139973772Y-116953457D01*
X139983829Y-116977735D01*
X139983830Y-116977736D01*
X140047264Y-117041170D01*
X140047265Y-117041170D01*
X141183829Y-118177734D01*
X141183830Y-118177736D01*
X141243915Y-118237821D01*
X141265571Y-118277484D01*
X141277398Y-118299142D01*
X141272414Y-118368834D01*
X141248467Y-118400821D01*
X141230542Y-118424768D01*
X141182861Y-118442551D01*
X141165078Y-118449184D01*
X141156232Y-118449500D01*
X139825567Y-118449500D01*
X139758528Y-118429815D01*
X139737886Y-118413181D01*
X132849819Y-111525114D01*
X132816334Y-111463791D01*
X132813500Y-111437433D01*
X132813500Y-103716697D01*
X132813501Y-103716688D01*
X132813501Y-103612546D01*
X132813501Y-103612545D01*
X132779170Y-103529665D01*
X132779170Y-103529664D01*
X132715736Y-103466230D01*
X132708671Y-103459165D01*
X132708664Y-103459159D01*
X126728419Y-97478914D01*
X126694934Y-97417591D01*
X126692100Y-97391233D01*
X126692100Y-78275167D01*
X126711785Y-78208128D01*
X126728419Y-78187486D01*
X127438086Y-77477819D01*
X127499409Y-77444334D01*
X127525767Y-77441500D01*
X133408433Y-77441500D01*
X133475472Y-77461185D01*
X133496114Y-77477819D01*
X134022429Y-78004134D01*
X134022430Y-78004136D01*
X134085864Y-78067570D01*
X134120195Y-78081790D01*
X134168746Y-78101901D01*
X134168747Y-78101901D01*
X134217791Y-78101901D01*
X134284830Y-78121586D01*
X134305472Y-78138220D01*
X134384137Y-78216885D01*
X134453584Y-78256980D01*
X134501799Y-78307547D01*
X134515023Y-78376154D01*
X134489055Y-78441019D01*
X134453585Y-78471754D01*
X134358737Y-78526515D01*
X134358734Y-78526517D01*
X134279517Y-78605734D01*
X134279513Y-78605740D01*
X134223498Y-78702760D01*
X134223497Y-78702763D01*
X134194500Y-78810982D01*
X134194500Y-78923018D01*
X134223497Y-79031237D01*
X134279515Y-79128263D01*
X134358737Y-79207485D01*
X134455763Y-79263503D01*
X134563982Y-79292500D01*
X134563984Y-79292500D01*
X134676016Y-79292500D01*
X134676018Y-79292500D01*
X134784237Y-79263503D01*
X134881263Y-79207485D01*
X134959929Y-79128819D01*
X134986856Y-79114115D01*
X135012675Y-79097523D01*
X135018875Y-79096631D01*
X135021252Y-79095334D01*
X135047610Y-79092500D01*
X135161033Y-79092500D01*
X135228072Y-79112185D01*
X135248714Y-79128819D01*
X136425313Y-80305418D01*
X136458798Y-80366741D01*
X136453814Y-80436433D01*
X136411942Y-80492366D01*
X136346478Y-80516783D01*
X136337632Y-80517099D01*
X136296926Y-80517099D01*
X136296910Y-80517100D01*
X134561010Y-80517100D01*
X134493971Y-80497415D01*
X134473329Y-80480781D01*
X134472065Y-80479517D01*
X134472063Y-80479515D01*
X134397443Y-80436433D01*
X134375039Y-80423498D01*
X134375038Y-80423497D01*
X134375037Y-80423497D01*
X134266818Y-80394500D01*
X134154782Y-80394500D01*
X134046563Y-80423497D01*
X134046560Y-80423498D01*
X133949540Y-80479513D01*
X133949534Y-80479517D01*
X133870317Y-80558734D01*
X133870313Y-80558740D01*
X133814298Y-80655760D01*
X133814297Y-80655763D01*
X133785300Y-80763982D01*
X133785300Y-80876018D01*
X133814297Y-80984237D01*
X133870315Y-81081263D01*
X133949537Y-81160485D01*
X134046563Y-81216503D01*
X134154782Y-81245500D01*
X134154784Y-81245500D01*
X134266816Y-81245500D01*
X134266818Y-81245500D01*
X134375037Y-81216503D01*
X134472063Y-81160485D01*
X134473329Y-81159219D01*
X134474656Y-81158493D01*
X134478509Y-81155538D01*
X134478970Y-81156138D01*
X134534652Y-81125734D01*
X134561010Y-81122900D01*
X136167572Y-81122900D01*
X136234611Y-81142585D01*
X136255253Y-81159219D01*
X137897678Y-82801643D01*
X137897688Y-82801654D01*
X137902018Y-82805984D01*
X137902019Y-82805985D01*
X137958415Y-82862381D01*
X137958417Y-82862382D01*
X137958421Y-82862385D01*
X138024437Y-82900499D01*
X138024438Y-82900499D01*
X138024440Y-82900500D01*
X138027485Y-82902258D01*
X138104522Y-82922900D01*
X138184278Y-82922900D01*
X143162519Y-82922900D01*
X143170120Y-82922900D01*
X143170122Y-82922901D01*
X143175798Y-82922901D01*
X143209265Y-82932730D01*
X143242828Y-82942586D01*
X143242831Y-82942589D01*
X143242836Y-82942591D01*
X143265209Y-82968415D01*
X143288583Y-82995390D01*
X143288583Y-82995394D01*
X143288587Y-82995398D01*
X143292769Y-83024500D01*
X143298527Y-83064548D01*
X143298525Y-83064551D01*
X143298526Y-83064557D01*
X143283257Y-83097983D01*
X143269502Y-83128104D01*
X143269496Y-83128109D01*
X143269496Y-83128111D01*
X143269494Y-83128111D01*
X143263470Y-83134582D01*
X143245717Y-83152334D01*
X143245713Y-83152340D01*
X143189698Y-83249360D01*
X143189697Y-83249363D01*
X143160700Y-83357582D01*
X143160700Y-83469618D01*
X143189697Y-83577837D01*
X143245715Y-83674863D01*
X143245717Y-83674865D01*
X143292192Y-83721340D01*
X143325677Y-83782663D01*
X143320693Y-83852355D01*
X143292192Y-83896702D01*
X141497114Y-85691781D01*
X141435791Y-85725266D01*
X141409433Y-85728100D01*
X140949454Y-85728100D01*
X140882415Y-85708415D01*
X140842067Y-85666100D01*
X140827887Y-85641540D01*
X140827883Y-85641535D01*
X140748665Y-85562317D01*
X140748663Y-85562315D01*
X140651637Y-85506297D01*
X140543418Y-85477300D01*
X140431382Y-85477300D01*
X140323163Y-85506297D01*
X140323160Y-85506298D01*
X140226140Y-85562313D01*
X140226134Y-85562317D01*
X140146917Y-85641534D01*
X140146913Y-85641540D01*
X140090898Y-85738560D01*
X140090897Y-85738563D01*
X140061900Y-85846782D01*
X140061900Y-85958818D01*
X140071168Y-85993405D01*
X140090897Y-86067036D01*
X140090898Y-86067039D01*
X140109569Y-86099379D01*
X140146915Y-86164063D01*
X140226137Y-86243285D01*
X140323163Y-86299303D01*
X140431382Y-86328300D01*
X140431384Y-86328300D01*
X140543416Y-86328300D01*
X140543418Y-86328300D01*
X140651637Y-86299303D01*
X140748663Y-86243285D01*
X140776529Y-86215419D01*
X140837852Y-86181934D01*
X140864210Y-86179100D01*
X141509343Y-86179100D01*
X141509345Y-86179101D01*
X141599055Y-86179101D01*
X141657660Y-86154825D01*
X141681936Y-86144770D01*
X141745370Y-86081336D01*
X141745370Y-86081335D01*
X141762808Y-86063897D01*
X141762810Y-86063894D01*
X143696494Y-84130210D01*
X143696497Y-84130208D01*
X143713935Y-84112770D01*
X143713936Y-84112770D01*
X143777370Y-84049336D01*
X143793814Y-84009637D01*
X143811701Y-83966455D01*
X143811701Y-83876745D01*
X143811701Y-83866756D01*
X143811700Y-83866742D01*
X143811700Y-83841210D01*
X143831385Y-83774171D01*
X143848019Y-83753529D01*
X143883884Y-83717664D01*
X143926685Y-83674863D01*
X143982703Y-83577837D01*
X144011700Y-83469618D01*
X144011700Y-83469616D01*
X144013803Y-83461768D01*
X144016558Y-83462506D01*
X144017439Y-83450197D01*
X144030231Y-83433108D01*
X144038842Y-83413575D01*
X144050753Y-83405695D01*
X144059311Y-83394264D01*
X144079310Y-83386804D01*
X144097116Y-83375026D01*
X144111396Y-83374837D01*
X144124775Y-83369847D01*
X144145632Y-83374384D01*
X144166979Y-83374102D01*
X144180405Y-83381948D01*
X144193048Y-83384699D01*
X144221302Y-83405850D01*
X144264181Y-83448729D01*
X144297666Y-83510052D01*
X144300500Y-83536410D01*
X144300500Y-85351632D01*
X144280815Y-85418671D01*
X144264181Y-85439313D01*
X140350913Y-89352581D01*
X140289590Y-89386066D01*
X140263232Y-89388900D01*
X140151982Y-89388900D01*
X140043763Y-89417897D01*
X140043760Y-89417898D01*
X139946740Y-89473913D01*
X139946734Y-89473917D01*
X139867517Y-89553134D01*
X139867513Y-89553140D01*
X139811498Y-89650160D01*
X139811497Y-89650163D01*
X139782500Y-89758382D01*
X139782500Y-89870418D01*
X139808166Y-89966208D01*
X139806504Y-90036056D01*
X139767342Y-90093919D01*
X139703113Y-90121423D01*
X139688392Y-90122300D01*
X137343745Y-90122300D01*
X137343743Y-90122300D01*
X137343741Y-90122301D01*
X137260866Y-90156627D01*
X137260864Y-90156629D01*
X137197429Y-90220065D01*
X136079314Y-91338181D01*
X136017991Y-91371666D01*
X135991633Y-91374500D01*
X135002610Y-91374500D01*
X134935571Y-91354815D01*
X134914929Y-91338181D01*
X134836265Y-91259517D01*
X134836263Y-91259515D01*
X134739237Y-91203497D01*
X134631018Y-91174500D01*
X134518982Y-91174500D01*
X134410763Y-91203497D01*
X134410760Y-91203498D01*
X134313740Y-91259513D01*
X134313734Y-91259517D01*
X134234517Y-91338734D01*
X134234513Y-91338740D01*
X134178498Y-91435760D01*
X134178497Y-91435763D01*
X134149500Y-91543982D01*
X134149500Y-91656018D01*
X134171892Y-91739584D01*
X134178497Y-91764236D01*
X134178498Y-91764239D01*
X134188606Y-91781747D01*
X134234515Y-91861263D01*
X134313737Y-91940485D01*
X134410763Y-91996503D01*
X134518982Y-92025500D01*
X134518984Y-92025500D01*
X134631016Y-92025500D01*
X134631018Y-92025500D01*
X134739237Y-91996503D01*
X134836263Y-91940485D01*
X134914929Y-91861819D01*
X134976252Y-91828334D01*
X135002610Y-91825500D01*
X136077104Y-91825500D01*
X136091543Y-91825500D01*
X136091545Y-91825501D01*
X136179346Y-91825501D01*
X136246385Y-91845186D01*
X136292140Y-91897991D01*
X136302083Y-91967149D01*
X136296299Y-91979814D01*
X136273058Y-92030704D01*
X136267026Y-92037182D01*
X135729027Y-92575181D01*
X135667704Y-92608666D01*
X135641346Y-92611500D01*
X134971410Y-92611500D01*
X134904371Y-92591815D01*
X134883729Y-92575181D01*
X134830465Y-92521917D01*
X134830463Y-92521915D01*
X134733437Y-92465897D01*
X134625218Y-92436900D01*
X134513182Y-92436900D01*
X134404963Y-92465897D01*
X134404960Y-92465898D01*
X134307940Y-92521913D01*
X134307934Y-92521917D01*
X134228717Y-92601134D01*
X134228713Y-92601140D01*
X134172698Y-92698160D01*
X134172697Y-92698163D01*
X134143700Y-92806382D01*
X134143700Y-92918418D01*
X134169092Y-93013181D01*
X134172697Y-93026636D01*
X134172698Y-93026639D01*
X134176334Y-93032937D01*
X134228715Y-93123663D01*
X134307937Y-93202885D01*
X134404963Y-93258903D01*
X134513182Y-93287900D01*
X134513184Y-93287900D01*
X134625216Y-93287900D01*
X134625218Y-93287900D01*
X134733437Y-93258903D01*
X134830463Y-93202885D01*
X134909685Y-93123663D01*
X134909688Y-93123656D01*
X134914635Y-93117212D01*
X134915860Y-93118152D01*
X134959767Y-93076285D01*
X135016589Y-93062500D01*
X135741256Y-93062500D01*
X135741258Y-93062501D01*
X135830968Y-93062501D01*
X135902340Y-93032937D01*
X135913849Y-93028170D01*
X135977283Y-92964736D01*
X135977283Y-92964735D01*
X135994721Y-92947297D01*
X135994722Y-92947294D01*
X137265600Y-91676419D01*
X137326923Y-91642934D01*
X137353281Y-91640100D01*
X139821432Y-91640100D01*
X139888471Y-91659785D01*
X139934226Y-91712589D01*
X139944170Y-91781747D01*
X139915145Y-91845303D01*
X139909113Y-91851781D01*
X134872714Y-96888181D01*
X134811391Y-96921666D01*
X134785033Y-96924500D01*
X131901254Y-96924500D01*
X131811545Y-96924500D01*
X131811543Y-96924500D01*
X131811541Y-96924501D01*
X131728666Y-96958827D01*
X130290246Y-98397247D01*
X130290245Y-98397248D01*
X130288630Y-98398864D01*
X130285863Y-98405545D01*
X130254299Y-98481745D01*
X130254299Y-98571455D01*
X130254300Y-98571457D01*
X130254300Y-98596966D01*
X130254300Y-98632390D01*
X130234615Y-98699429D01*
X130217981Y-98720071D01*
X130139317Y-98798734D01*
X130139313Y-98798740D01*
X130083298Y-98895760D01*
X130083297Y-98895763D01*
X130054300Y-99003982D01*
X130054300Y-99116018D01*
X130083297Y-99224237D01*
X130139315Y-99321263D01*
X130218537Y-99400485D01*
X130315563Y-99456503D01*
X130423782Y-99485500D01*
X130423784Y-99485500D01*
X130535816Y-99485500D01*
X130535818Y-99485500D01*
X130644037Y-99456503D01*
X130741063Y-99400485D01*
X130741063Y-99400484D01*
X130748102Y-99396421D01*
X130749179Y-99398287D01*
X130803743Y-99377180D01*
X130872191Y-99391203D01*
X130901769Y-99413067D01*
X130914587Y-99425885D01*
X131011613Y-99481903D01*
X131119832Y-99510900D01*
X131119834Y-99510900D01*
X131231866Y-99510900D01*
X131231868Y-99510900D01*
X131340087Y-99481903D01*
X131437113Y-99425885D01*
X131438644Y-99424354D01*
X131440250Y-99423476D01*
X131443559Y-99420938D01*
X131443954Y-99421453D01*
X131499967Y-99390869D01*
X131569659Y-99395853D01*
X131608958Y-99421110D01*
X131609091Y-99420938D01*
X131611154Y-99422521D01*
X131614006Y-99424354D01*
X131615537Y-99425885D01*
X131712563Y-99481903D01*
X131820782Y-99510900D01*
X131820784Y-99510900D01*
X131932816Y-99510900D01*
X131932818Y-99510900D01*
X132041037Y-99481903D01*
X132138063Y-99425885D01*
X132138067Y-99425880D01*
X132143069Y-99422993D01*
X132210969Y-99406520D01*
X132276996Y-99429372D01*
X132292751Y-99442699D01*
X132301337Y-99451285D01*
X132398363Y-99507303D01*
X132506582Y-99536300D01*
X132506584Y-99536300D01*
X132618616Y-99536300D01*
X132618618Y-99536300D01*
X132726837Y-99507303D01*
X132823863Y-99451285D01*
X132823866Y-99451281D01*
X132830799Y-99447279D01*
X132898699Y-99430806D01*
X132954801Y-99447279D01*
X132961733Y-99451281D01*
X132961737Y-99451285D01*
X133058763Y-99507303D01*
X133166982Y-99536300D01*
X133166984Y-99536300D01*
X133279016Y-99536300D01*
X133279018Y-99536300D01*
X133387237Y-99507303D01*
X133484263Y-99451285D01*
X133563485Y-99372063D01*
X133619503Y-99275037D01*
X133626102Y-99250405D01*
X133662466Y-99190747D01*
X133725313Y-99160217D01*
X133745877Y-99158500D01*
X141818011Y-99158500D01*
X141885050Y-99178185D01*
X141919088Y-99213884D01*
X141919965Y-99213212D01*
X141924914Y-99219661D01*
X141924915Y-99219663D01*
X142004137Y-99298885D01*
X142101163Y-99354903D01*
X142209382Y-99383900D01*
X142209384Y-99383900D01*
X142321416Y-99383900D01*
X142321418Y-99383900D01*
X142429637Y-99354903D01*
X142526663Y-99298885D01*
X142605885Y-99219663D01*
X142661903Y-99122637D01*
X142690900Y-99014418D01*
X142690900Y-98902382D01*
X142661903Y-98794163D01*
X142605885Y-98697137D01*
X142526663Y-98617915D01*
X142523029Y-98614281D01*
X142489544Y-98552958D01*
X142494528Y-98483266D01*
X142523029Y-98438919D01*
X142550319Y-98411629D01*
X142580485Y-98381463D01*
X142636503Y-98284437D01*
X142665500Y-98176218D01*
X142665500Y-98064182D01*
X142636503Y-97955963D01*
X142580485Y-97858937D01*
X142501263Y-97779715D01*
X142414065Y-97729371D01*
X142404239Y-97723698D01*
X142404238Y-97723697D01*
X142404237Y-97723697D01*
X142296018Y-97694700D01*
X142183982Y-97694700D01*
X142075763Y-97723697D01*
X142075760Y-97723698D01*
X141978740Y-97779713D01*
X141978734Y-97779717D01*
X141899517Y-97858934D01*
X141899513Y-97858940D01*
X141843498Y-97955960D01*
X141843497Y-97955963D01*
X141814500Y-98064182D01*
X141814500Y-98175431D01*
X141805855Y-98204871D01*
X141799333Y-98234856D01*
X141795577Y-98239872D01*
X141794815Y-98242470D01*
X141778183Y-98263110D01*
X141753115Y-98288179D01*
X141691793Y-98321666D01*
X141665432Y-98324500D01*
X140520368Y-98324500D01*
X140453329Y-98304815D01*
X140407574Y-98252011D01*
X140397630Y-98182853D01*
X140426655Y-98119297D01*
X140432687Y-98112819D01*
X140460208Y-98085297D01*
X140460210Y-98085294D01*
X141868485Y-96677019D01*
X141929808Y-96643534D01*
X141956166Y-96640700D01*
X142067416Y-96640700D01*
X142067418Y-96640700D01*
X142175637Y-96611703D01*
X142272663Y-96555685D01*
X142351885Y-96476463D01*
X142407903Y-96379437D01*
X142436900Y-96271218D01*
X142436900Y-96159182D01*
X142407903Y-96050963D01*
X142351885Y-95953937D01*
X142272663Y-95874715D01*
X142178997Y-95820637D01*
X142175639Y-95818698D01*
X142175638Y-95818697D01*
X142175637Y-95818697D01*
X142067418Y-95789700D01*
X142002100Y-95789700D01*
X141935061Y-95770015D01*
X141889306Y-95717211D01*
X141878100Y-95665700D01*
X141878100Y-95600384D01*
X141878100Y-95600382D01*
X141849103Y-95492163D01*
X141793085Y-95395137D01*
X141713863Y-95315915D01*
X141616837Y-95259897D01*
X141508618Y-95230900D01*
X141396582Y-95230900D01*
X141288363Y-95259897D01*
X141288360Y-95259898D01*
X141191340Y-95315913D01*
X141191334Y-95315917D01*
X141112117Y-95395134D01*
X141112113Y-95395140D01*
X141056098Y-95492160D01*
X141056097Y-95492163D01*
X141027100Y-95600382D01*
X141027100Y-95712418D01*
X141056097Y-95820637D01*
X141112115Y-95917663D01*
X141112117Y-95917665D01*
X141165092Y-95970640D01*
X141198577Y-96031963D01*
X141193593Y-96101655D01*
X141165092Y-96146002D01*
X139997914Y-97313181D01*
X139936591Y-97346666D01*
X139910233Y-97349500D01*
X135348566Y-97349500D01*
X135281527Y-97329815D01*
X135235772Y-97277011D01*
X135225828Y-97207853D01*
X135254853Y-97144297D01*
X135260885Y-97137819D01*
X137749110Y-94649595D01*
X140315886Y-92082819D01*
X140342813Y-92068115D01*
X140368632Y-92051523D01*
X140374832Y-92050631D01*
X140377209Y-92049334D01*
X140403567Y-92046500D01*
X140562682Y-92046500D01*
X140629721Y-92066185D01*
X140670068Y-92108499D01*
X140698915Y-92158463D01*
X140778137Y-92237685D01*
X140875163Y-92293703D01*
X140983382Y-92322700D01*
X140983384Y-92322700D01*
X141095416Y-92322700D01*
X141095418Y-92322700D01*
X141203637Y-92293703D01*
X141300663Y-92237685D01*
X141379885Y-92158463D01*
X141435903Y-92061437D01*
X141464900Y-91953218D01*
X141464900Y-91841182D01*
X141452845Y-91796191D01*
X141454508Y-91726343D01*
X141493671Y-91668481D01*
X141557899Y-91640977D01*
X141572620Y-91640100D01*
X142066390Y-91640100D01*
X142133429Y-91659785D01*
X142154071Y-91676419D01*
X142232737Y-91755085D01*
X142329763Y-91811103D01*
X142437982Y-91840100D01*
X142437984Y-91840100D01*
X142550016Y-91840100D01*
X142550018Y-91840100D01*
X142658237Y-91811103D01*
X142755263Y-91755085D01*
X142834485Y-91675863D01*
X142890503Y-91578837D01*
X142919500Y-91470618D01*
X142919500Y-91358582D01*
X142890503Y-91250363D01*
X142834485Y-91153337D01*
X142755263Y-91074115D01*
X142658237Y-91018097D01*
X142550018Y-90989100D01*
X142437982Y-90989100D01*
X142329763Y-91018097D01*
X142329760Y-91018098D01*
X142232740Y-91074113D01*
X142232734Y-91074117D01*
X142154071Y-91152781D01*
X142092748Y-91186266D01*
X142066390Y-91189100D01*
X137165567Y-91189100D01*
X137098528Y-91169415D01*
X137052773Y-91116611D01*
X137042829Y-91047453D01*
X137071854Y-90983897D01*
X137077886Y-90977419D01*
X137445686Y-90609619D01*
X137507009Y-90576134D01*
X137533367Y-90573300D01*
X141380590Y-90573300D01*
X141447629Y-90592985D01*
X141468271Y-90609619D01*
X141546937Y-90688285D01*
X141643963Y-90744303D01*
X141752182Y-90773300D01*
X141752184Y-90773300D01*
X141864216Y-90773300D01*
X141864218Y-90773300D01*
X141972437Y-90744303D01*
X142069463Y-90688285D01*
X142148685Y-90609063D01*
X142204703Y-90512037D01*
X142233700Y-90403818D01*
X142233700Y-90291782D01*
X142204703Y-90183563D01*
X142148685Y-90086537D01*
X142069463Y-90007315D01*
X141972437Y-89951297D01*
X141864218Y-89922300D01*
X141752182Y-89922300D01*
X141643963Y-89951297D01*
X141643960Y-89951298D01*
X141546940Y-90007313D01*
X141546934Y-90007317D01*
X141468271Y-90085981D01*
X141406948Y-90119466D01*
X141380590Y-90122300D01*
X140727608Y-90122300D01*
X140711577Y-90117593D01*
X140694873Y-90117901D01*
X140678747Y-90107952D01*
X140660569Y-90102615D01*
X140649628Y-90089989D01*
X140635409Y-90081217D01*
X140627220Y-90064129D01*
X140614814Y-90049811D01*
X140612207Y-90032798D01*
X140605216Y-90018208D01*
X140606392Y-89994839D01*
X140604566Y-89982920D01*
X140605624Y-89974450D01*
X140633500Y-89870418D01*
X140633500Y-89758382D01*
X140632909Y-89756176D01*
X140634458Y-89743786D01*
X140645429Y-89718537D01*
X140653185Y-89692127D01*
X140661263Y-89682102D01*
X140662305Y-89679705D01*
X140664236Y-89678412D01*
X140669819Y-89671485D01*
X142426099Y-87915205D01*
X144164322Y-86176982D01*
X145294300Y-86176982D01*
X145294300Y-86289018D01*
X145323297Y-86397237D01*
X145379315Y-86494263D01*
X145458537Y-86573485D01*
X145555563Y-86629503D01*
X145663782Y-86658500D01*
X145663784Y-86658500D01*
X145775816Y-86658500D01*
X145775818Y-86658500D01*
X145884037Y-86629503D01*
X145981063Y-86573485D01*
X146060285Y-86494263D01*
X146116303Y-86397237D01*
X146145300Y-86289018D01*
X146145300Y-86176982D01*
X146116303Y-86068763D01*
X146060285Y-85971737D01*
X145981619Y-85893071D01*
X145948134Y-85831748D01*
X145945300Y-85805390D01*
X145945300Y-85387167D01*
X145964985Y-85320128D01*
X145981619Y-85299486D01*
X147681886Y-83599219D01*
X147743209Y-83565734D01*
X147769567Y-83562900D01*
X149460586Y-83562900D01*
X149527625Y-83582585D01*
X149573380Y-83635389D01*
X149583324Y-83704547D01*
X149580362Y-83718985D01*
X149561500Y-83789382D01*
X149561500Y-83901418D01*
X149590497Y-84009637D01*
X149646515Y-84106663D01*
X149646517Y-84106665D01*
X149659271Y-84119419D01*
X149669883Y-84138855D01*
X149684384Y-84155589D01*
X149686300Y-84168920D01*
X149692756Y-84180742D01*
X149691176Y-84202828D01*
X149694328Y-84224747D01*
X149688732Y-84236998D01*
X149687772Y-84250434D01*
X149674501Y-84268160D01*
X149665303Y-84288303D01*
X149653971Y-84295585D01*
X149645900Y-84306367D01*
X149625154Y-84314104D01*
X149606525Y-84326077D01*
X149584606Y-84329228D01*
X149580436Y-84330784D01*
X149571590Y-84331100D01*
X149373210Y-84331100D01*
X149306171Y-84311415D01*
X149285529Y-84294781D01*
X149206865Y-84216117D01*
X149206863Y-84216115D01*
X149109837Y-84160097D01*
X149001618Y-84131100D01*
X148889582Y-84131100D01*
X148781363Y-84160097D01*
X148781360Y-84160098D01*
X148684340Y-84216113D01*
X148684334Y-84216117D01*
X148605117Y-84295334D01*
X148605113Y-84295340D01*
X148549098Y-84392360D01*
X148549097Y-84392363D01*
X148520100Y-84500582D01*
X148520100Y-84612618D01*
X148549097Y-84720837D01*
X148605115Y-84817863D01*
X148684337Y-84897085D01*
X148781363Y-84953103D01*
X148889582Y-84982100D01*
X148889584Y-84982100D01*
X149001616Y-84982100D01*
X149001618Y-84982100D01*
X149109837Y-84953103D01*
X149206863Y-84897085D01*
X149285529Y-84818419D01*
X149346852Y-84784934D01*
X149373210Y-84782100D01*
X149791433Y-84782100D01*
X149858472Y-84801785D01*
X149879114Y-84818419D01*
X152341381Y-87280686D01*
X152374866Y-87342009D01*
X152377700Y-87368367D01*
X152377700Y-92934542D01*
X152377699Y-92934556D01*
X152377699Y-93034255D01*
X152391967Y-93068700D01*
X152391966Y-93068700D01*
X152412028Y-93117133D01*
X152412031Y-93117137D01*
X152492900Y-93198006D01*
X152492906Y-93198011D01*
X152713297Y-93418403D01*
X152735536Y-93451685D01*
X152736033Y-93451399D01*
X152796112Y-93555459D01*
X152796114Y-93555461D01*
X152796115Y-93555463D01*
X152875337Y-93634685D01*
X152883440Y-93639363D01*
X152931656Y-93689929D01*
X152944881Y-93758536D01*
X152918914Y-93823401D01*
X152883443Y-93854138D01*
X152837237Y-93880815D01*
X152837234Y-93880817D01*
X152758017Y-93960034D01*
X152758013Y-93960040D01*
X152701998Y-94057060D01*
X152701997Y-94057063D01*
X152673000Y-94165282D01*
X152673000Y-94277318D01*
X152701997Y-94385537D01*
X152758015Y-94482563D01*
X152837237Y-94561785D01*
X152934263Y-94617803D01*
X153042482Y-94646800D01*
X153042484Y-94646800D01*
X153154516Y-94646800D01*
X153154518Y-94646800D01*
X153262737Y-94617803D01*
X153359763Y-94561785D01*
X153438429Y-94483119D01*
X153465356Y-94468415D01*
X153491175Y-94451823D01*
X153497375Y-94450931D01*
X153499752Y-94449634D01*
X153526110Y-94446800D01*
X153648803Y-94446800D01*
X153648811Y-94446801D01*
X153663245Y-94446801D01*
X153752953Y-94446801D01*
X153752955Y-94446801D01*
X153811560Y-94422525D01*
X153835836Y-94412470D01*
X153899270Y-94349036D01*
X153899270Y-94349034D01*
X154161294Y-94087010D01*
X154161297Y-94087008D01*
X154178735Y-94069570D01*
X154178736Y-94069570D01*
X154242170Y-94006136D01*
X154276446Y-93923386D01*
X154276501Y-93923254D01*
X154276501Y-93833545D01*
X154276500Y-93833542D01*
X154276500Y-92172410D01*
X154296185Y-92105371D01*
X154312819Y-92084729D01*
X154314729Y-92082819D01*
X154340685Y-92056863D01*
X154396703Y-91959837D01*
X154425700Y-91851618D01*
X154425700Y-91739582D01*
X154396703Y-91631363D01*
X154340685Y-91534337D01*
X154261463Y-91455115D01*
X154164437Y-91399097D01*
X154056218Y-91370100D01*
X153944182Y-91370100D01*
X153835963Y-91399097D01*
X153835960Y-91399098D01*
X153738940Y-91455113D01*
X153738934Y-91455117D01*
X153659717Y-91534334D01*
X153659713Y-91534340D01*
X153603698Y-91631360D01*
X153603697Y-91631363D01*
X153574700Y-91739582D01*
X153574700Y-91851618D01*
X153601924Y-91953218D01*
X153603697Y-91959836D01*
X153603698Y-91959839D01*
X153609204Y-91969376D01*
X153659715Y-92056863D01*
X153738937Y-92136085D01*
X153738938Y-92136086D01*
X153738940Y-92136087D01*
X153763498Y-92150265D01*
X153811714Y-92200831D01*
X153825500Y-92257653D01*
X153825500Y-93733633D01*
X153805815Y-93800672D01*
X153789181Y-93821314D01*
X153651014Y-93959481D01*
X153624086Y-93974184D01*
X153598268Y-93990777D01*
X153592067Y-93991668D01*
X153589691Y-93992966D01*
X153563333Y-93995800D01*
X153526110Y-93995800D01*
X153459071Y-93976115D01*
X153438429Y-93959481D01*
X153359765Y-93880817D01*
X153359763Y-93880815D01*
X153351656Y-93876134D01*
X153303441Y-93825568D01*
X153290218Y-93756961D01*
X153316187Y-93692096D01*
X153351655Y-93661362D01*
X153397863Y-93634685D01*
X153477085Y-93555463D01*
X153533103Y-93458437D01*
X153562100Y-93350218D01*
X153562100Y-93238182D01*
X153533103Y-93129963D01*
X153477085Y-93032937D01*
X153397863Y-92953715D01*
X153300837Y-92897697D01*
X153192618Y-92868700D01*
X153080582Y-92868700D01*
X153080580Y-92868700D01*
X152984792Y-92894366D01*
X152914943Y-92892703D01*
X152857080Y-92853540D01*
X152829577Y-92789311D01*
X152828700Y-92774591D01*
X152828700Y-87291998D01*
X152828700Y-87268457D01*
X152828701Y-87268455D01*
X152828701Y-87178746D01*
X152808590Y-87130195D01*
X152794370Y-87095864D01*
X152730936Y-87032430D01*
X152723871Y-87025365D01*
X152723864Y-87025359D01*
X150144811Y-84446306D01*
X150131841Y-84433336D01*
X150105370Y-84384853D01*
X150098360Y-84372016D01*
X150098360Y-84372013D01*
X150098359Y-84372011D01*
X150100640Y-84340134D01*
X150103344Y-84302324D01*
X150103345Y-84302321D01*
X150103346Y-84302320D01*
X150133531Y-84262000D01*
X150145216Y-84246391D01*
X150145219Y-84246388D01*
X150145222Y-84246386D01*
X150157509Y-84238281D01*
X150248263Y-84185885D01*
X150326929Y-84107219D01*
X150388252Y-84073734D01*
X150414610Y-84070900D01*
X150925633Y-84070900D01*
X150992672Y-84090585D01*
X151013314Y-84107219D01*
X161347264Y-94441170D01*
X161347266Y-94441172D01*
X161403972Y-94464659D01*
X161430145Y-94475500D01*
X161519854Y-94475500D01*
X173672390Y-94475500D01*
X173739429Y-94495185D01*
X173760071Y-94511819D01*
X173838737Y-94590485D01*
X173935763Y-94646503D01*
X174043982Y-94675500D01*
X174043984Y-94675500D01*
X174156016Y-94675500D01*
X174156018Y-94675500D01*
X174264237Y-94646503D01*
X174361263Y-94590485D01*
X174440485Y-94511263D01*
X174496503Y-94414237D01*
X174525500Y-94306018D01*
X174525500Y-94193982D01*
X174496503Y-94085763D01*
X174440485Y-93988737D01*
X174361263Y-93909515D01*
X174296579Y-93872169D01*
X174264239Y-93853498D01*
X174264238Y-93853497D01*
X174264237Y-93853497D01*
X174156018Y-93824500D01*
X174043982Y-93824500D01*
X173935763Y-93853497D01*
X173935760Y-93853498D01*
X173838740Y-93909513D01*
X173838734Y-93909517D01*
X173760071Y-93988181D01*
X173698748Y-94021666D01*
X173672390Y-94024500D01*
X161619768Y-94024500D01*
X161552729Y-94004815D01*
X161532087Y-93988181D01*
X151318486Y-83774581D01*
X151285001Y-83713258D01*
X151289985Y-83643566D01*
X151331857Y-83587633D01*
X151397321Y-83563216D01*
X151406167Y-83562900D01*
X152042633Y-83562900D01*
X152109672Y-83582585D01*
X152130314Y-83599219D01*
X161933829Y-93402734D01*
X161933830Y-93402736D01*
X161997264Y-93466170D01*
X162031595Y-93480390D01*
X162080146Y-93500501D01*
X162080147Y-93500501D01*
X162184289Y-93500501D01*
X162184297Y-93500500D01*
X172005143Y-93500500D01*
X172005145Y-93500501D01*
X172094855Y-93500501D01*
X172153460Y-93476225D01*
X172177736Y-93466170D01*
X172241170Y-93402736D01*
X172241170Y-93402735D01*
X172258608Y-93385297D01*
X172258610Y-93385294D01*
X175202734Y-90441170D01*
X175202736Y-90441170D01*
X175266170Y-90377736D01*
X175276225Y-90353460D01*
X175300501Y-90294855D01*
X175300501Y-90205145D01*
X175300501Y-90195156D01*
X175300500Y-90195142D01*
X175300500Y-83819766D01*
X175320185Y-83752727D01*
X175336815Y-83732089D01*
X176144319Y-82924584D01*
X176205642Y-82891100D01*
X176264092Y-82892490D01*
X176293982Y-82900500D01*
X176293984Y-82900500D01*
X176406016Y-82900500D01*
X176406018Y-82900500D01*
X176514237Y-82871503D01*
X176611263Y-82815485D01*
X176690485Y-82736263D01*
X176746503Y-82639237D01*
X176775500Y-82531018D01*
X176775500Y-82418982D01*
X176746503Y-82310763D01*
X176690485Y-82213737D01*
X176611263Y-82134515D01*
X176514237Y-82078497D01*
X176406018Y-82049500D01*
X176293982Y-82049500D01*
X176185763Y-82078497D01*
X176185760Y-82078498D01*
X176088740Y-82134513D01*
X176088734Y-82134517D01*
X176009517Y-82213734D01*
X176009513Y-82213740D01*
X175953498Y-82310760D01*
X175953497Y-82310763D01*
X175924500Y-82418982D01*
X175924500Y-82455232D01*
X175904815Y-82522271D01*
X175888181Y-82542913D01*
X174883831Y-83547262D01*
X174883828Y-83547266D01*
X174876511Y-83564931D01*
X174867108Y-83587633D01*
X174849499Y-83630144D01*
X174849499Y-83734288D01*
X174849500Y-83734297D01*
X174849500Y-90105233D01*
X174829815Y-90172272D01*
X174813181Y-90192914D01*
X171992914Y-93013181D01*
X171931591Y-93046666D01*
X171905233Y-93049500D01*
X162269767Y-93049500D01*
X162202728Y-93029815D01*
X162182086Y-93013181D01*
X152401101Y-83232196D01*
X152378570Y-83209665D01*
X152378570Y-83209664D01*
X152315136Y-83146230D01*
X152283512Y-83133131D01*
X152267559Y-83126522D01*
X152267558Y-83126522D01*
X152232256Y-83111899D01*
X152232255Y-83111899D01*
X152142545Y-83111899D01*
X152128111Y-83111899D01*
X152128103Y-83111900D01*
X147684097Y-83111900D01*
X147684089Y-83111899D01*
X147669655Y-83111899D01*
X147579946Y-83111899D01*
X147579944Y-83111899D01*
X147579942Y-83111900D01*
X147531394Y-83132009D01*
X147497065Y-83146228D01*
X147470399Y-83172895D01*
X147433630Y-83209664D01*
X145528630Y-85114663D01*
X145528630Y-85114665D01*
X145494299Y-85197544D01*
X145494299Y-85301688D01*
X145494300Y-85301697D01*
X145494300Y-85805390D01*
X145474615Y-85872429D01*
X145457981Y-85893071D01*
X145379317Y-85971734D01*
X145379313Y-85971740D01*
X145323298Y-86068760D01*
X145323297Y-86068763D01*
X145294300Y-86176982D01*
X144164322Y-86176982D01*
X144636294Y-85705010D01*
X144636297Y-85705008D01*
X144653735Y-85687570D01*
X144653736Y-85687570D01*
X144717170Y-85624136D01*
X144717170Y-85624134D01*
X144717172Y-85624133D01*
X144742776Y-85562317D01*
X144751500Y-85541255D01*
X144751500Y-83581589D01*
X144771185Y-83514550D01*
X144806884Y-83480511D01*
X144806212Y-83479635D01*
X144812656Y-83474688D01*
X144812663Y-83474685D01*
X144891885Y-83395463D01*
X144947903Y-83298437D01*
X144976900Y-83190218D01*
X144976900Y-83078182D01*
X144947903Y-82969963D01*
X144891885Y-82872937D01*
X144812663Y-82793715D01*
X144715637Y-82737697D01*
X144607418Y-82708700D01*
X144495382Y-82708700D01*
X144387163Y-82737697D01*
X144387160Y-82737698D01*
X144290140Y-82793713D01*
X144290134Y-82793717D01*
X144210917Y-82872934D01*
X144210913Y-82872940D01*
X144154898Y-82969960D01*
X144154897Y-82969963D01*
X144127259Y-83073113D01*
X144123797Y-83086032D01*
X144120463Y-83085138D01*
X144098486Y-83134544D01*
X144040083Y-83172895D01*
X143970217Y-83173583D01*
X143916297Y-83141949D01*
X143847465Y-83073117D01*
X143847463Y-83073115D01*
X143782779Y-83035769D01*
X143750439Y-83017098D01*
X143750438Y-83017097D01*
X143750437Y-83017097D01*
X143642218Y-82988100D01*
X143569628Y-82988100D01*
X143502589Y-82968415D01*
X143456834Y-82915611D01*
X143446890Y-82846453D01*
X143475915Y-82782897D01*
X143481947Y-82776419D01*
X143715453Y-82542913D01*
X144904975Y-81353388D01*
X144904980Y-81353385D01*
X144915183Y-81343181D01*
X144915185Y-81343181D01*
X144971581Y-81286785D01*
X145011458Y-81217715D01*
X145032100Y-81140678D01*
X145032100Y-73337627D01*
X145051785Y-73270588D01*
X145068419Y-73249946D01*
X145436746Y-72881619D01*
X145498069Y-72848134D01*
X145524427Y-72845300D01*
X148188990Y-72845300D01*
X148256029Y-72864985D01*
X148276671Y-72881619D01*
X148277937Y-72882885D01*
X148374963Y-72938903D01*
X148483182Y-72967900D01*
X148483184Y-72967900D01*
X148595216Y-72967900D01*
X148595218Y-72967900D01*
X148703437Y-72938903D01*
X148800463Y-72882885D01*
X148879685Y-72803663D01*
X148935703Y-72706637D01*
X148964700Y-72598418D01*
X148964700Y-72486382D01*
X148935703Y-72378163D01*
X148879685Y-72281137D01*
X148800463Y-72201915D01*
X148703437Y-72145897D01*
X148595218Y-72116900D01*
X148483182Y-72116900D01*
X148374963Y-72145897D01*
X148374960Y-72145898D01*
X148277940Y-72201913D01*
X148277934Y-72201917D01*
X148276671Y-72203181D01*
X148275343Y-72203906D01*
X148271491Y-72206862D01*
X148271029Y-72206261D01*
X148215348Y-72236666D01*
X148188990Y-72239500D01*
X145395090Y-72239500D01*
X145395074Y-72239499D01*
X145387478Y-72239499D01*
X145307722Y-72239499D01*
X145249944Y-72254981D01*
X145230684Y-72260142D01*
X145161616Y-72300018D01*
X145161613Y-72300020D01*
X144486820Y-72974813D01*
X144486818Y-72974816D01*
X144446942Y-73043884D01*
X144446942Y-73043885D01*
X144426299Y-73120922D01*
X144426299Y-73120924D01*
X144426299Y-73210667D01*
X144426300Y-73210680D01*
X144426300Y-79692032D01*
X144406615Y-79759071D01*
X144353811Y-79804826D01*
X144284653Y-79814770D01*
X144240301Y-79799420D01*
X144182237Y-79765897D01*
X144156762Y-79759071D01*
X144074018Y-79736900D01*
X143961982Y-79736900D01*
X143853763Y-79765897D01*
X143853760Y-79765898D01*
X143756740Y-79821913D01*
X143756734Y-79821917D01*
X143703471Y-79875181D01*
X143676543Y-79889884D01*
X143650725Y-79906477D01*
X143644524Y-79907368D01*
X143642148Y-79908666D01*
X143615790Y-79911500D01*
X143598674Y-79911500D01*
X143531635Y-79891815D01*
X143485880Y-79839011D01*
X143475936Y-79769853D01*
X143491285Y-79725503D01*
X143525503Y-79666237D01*
X143554500Y-79558018D01*
X143554500Y-79445982D01*
X143525503Y-79337763D01*
X143469485Y-79240737D01*
X143390263Y-79161515D01*
X143293237Y-79105497D01*
X143185018Y-79076500D01*
X143072982Y-79076500D01*
X142964763Y-79105497D01*
X142964760Y-79105498D01*
X142867740Y-79161513D01*
X142867734Y-79161517D01*
X142789071Y-79240181D01*
X142727748Y-79273666D01*
X142701390Y-79276500D01*
X141317967Y-79276500D01*
X141250928Y-79256815D01*
X141230286Y-79240181D01*
X139784019Y-77793914D01*
X139750534Y-77732591D01*
X139747700Y-77706233D01*
X139747700Y-76348210D01*
X139767385Y-76281171D01*
X139784019Y-76260529D01*
X139862685Y-76181863D01*
X139918703Y-76084837D01*
X139947700Y-75976618D01*
X139947700Y-75864582D01*
X139918703Y-75756363D01*
X139862685Y-75659337D01*
X139783463Y-75580115D01*
X139686437Y-75524097D01*
X139578218Y-75495100D01*
X139466182Y-75495100D01*
X139357963Y-75524097D01*
X139357960Y-75524098D01*
X139260940Y-75580113D01*
X139260934Y-75580117D01*
X139181717Y-75659334D01*
X139181713Y-75659340D01*
X139125698Y-75756360D01*
X139125697Y-75756363D01*
X139096700Y-75864582D01*
X139096700Y-75976618D01*
X139125697Y-76084837D01*
X139181715Y-76181863D01*
X139181717Y-76181865D01*
X139260381Y-76260529D01*
X139293866Y-76321852D01*
X139296700Y-76348210D01*
X139296700Y-77796142D01*
X139296699Y-77796156D01*
X139296699Y-77895855D01*
X139314666Y-77939230D01*
X139314665Y-77939230D01*
X139331029Y-77978734D01*
X139331031Y-77978737D01*
X139411900Y-78059606D01*
X139411906Y-78059611D01*
X140982029Y-79629734D01*
X140982030Y-79629736D01*
X141045464Y-79693170D01*
X141079795Y-79707390D01*
X141094951Y-79713668D01*
X141107953Y-79723671D01*
X141114571Y-79732759D01*
X141140977Y-79754037D01*
X141163044Y-79820331D01*
X141145766Y-79888031D01*
X141094630Y-79935643D01*
X141086577Y-79939321D01*
X141070864Y-79945829D01*
X141007429Y-80009265D01*
X140557314Y-80459381D01*
X140495991Y-80492866D01*
X140469633Y-80495700D01*
X137304767Y-80495700D01*
X137237728Y-80476015D01*
X137217086Y-80459381D01*
X135514410Y-78756705D01*
X135496970Y-78739264D01*
X135433536Y-78675830D01*
X135433535Y-78675829D01*
X135409257Y-78665772D01*
X135409257Y-78665771D01*
X135350658Y-78641500D01*
X135350656Y-78641499D01*
X135350655Y-78641499D01*
X135260945Y-78641499D01*
X135246511Y-78641499D01*
X135246503Y-78641500D01*
X135047610Y-78641500D01*
X134980571Y-78621815D01*
X134959929Y-78605181D01*
X134881265Y-78526517D01*
X134881263Y-78526515D01*
X134811815Y-78486419D01*
X134763599Y-78435852D01*
X134750377Y-78367245D01*
X134776345Y-78302380D01*
X134811813Y-78271646D01*
X134906663Y-78216885D01*
X134985885Y-78137663D01*
X135041903Y-78040637D01*
X135070900Y-77932418D01*
X135070900Y-77820382D01*
X135041903Y-77712163D01*
X134985885Y-77615137D01*
X134906663Y-77535915D01*
X134809637Y-77479897D01*
X134701418Y-77450900D01*
X134589382Y-77450900D01*
X134481163Y-77479897D01*
X134481160Y-77479898D01*
X134384140Y-77535913D01*
X134384132Y-77535919D01*
X134375756Y-77544295D01*
X134314432Y-77577778D01*
X134244740Y-77572791D01*
X134200397Y-77544292D01*
X133761810Y-77105705D01*
X133744370Y-77088264D01*
X133680936Y-77024830D01*
X133680935Y-77024829D01*
X133656657Y-77014772D01*
X133656657Y-77014771D01*
X133598058Y-76990500D01*
X133598056Y-76990499D01*
X133598055Y-76990499D01*
X133508345Y-76990499D01*
X133493911Y-76990499D01*
X133493903Y-76990500D01*
X127440297Y-76990500D01*
X127440289Y-76990499D01*
X127425855Y-76990499D01*
X127336145Y-76990499D01*
X127336143Y-76990499D01*
X127301813Y-77004719D01*
X127277539Y-77014774D01*
X127277537Y-77014774D01*
X127253264Y-77024829D01*
X126742181Y-77535913D01*
X126338865Y-77939229D01*
X126338864Y-77939230D01*
X126299360Y-77978734D01*
X126275429Y-78002665D01*
X126271691Y-78011686D01*
X126271692Y-78011687D01*
X126241099Y-78085542D01*
X114455051Y-78085542D01*
X118362162Y-65614121D01*
X119632600Y-65614121D01*
X119632600Y-65972790D01*
X119667755Y-66329731D01*
X119667758Y-66329748D01*
X119737725Y-66681504D01*
X119737728Y-66681515D01*
X119841849Y-67024756D01*
X119979109Y-67356130D01*
X119979111Y-67356135D01*
X120148179Y-67672439D01*
X120148196Y-67672467D01*
X120347442Y-67970661D01*
X120347459Y-67970684D01*
X120575000Y-68247943D01*
X120828612Y-68501555D01*
X120828617Y-68501559D01*
X120828618Y-68501560D01*
X121105877Y-68729101D01*
X121105884Y-68729106D01*
X121105894Y-68729113D01*
X121404088Y-68928359D01*
X121404093Y-68928362D01*
X121404105Y-68928370D01*
X121404114Y-68928374D01*
X121404116Y-68928376D01*
X121720420Y-69097444D01*
X121720422Y-69097444D01*
X121720428Y-69097448D01*
X122051801Y-69234707D01*
X122395031Y-69338825D01*
X122395037Y-69338826D01*
X122395040Y-69338827D01*
X122395051Y-69338830D01*
X122615632Y-69382705D01*
X122746814Y-69408799D01*
X123103762Y-69443956D01*
X123103765Y-69443956D01*
X123462435Y-69443956D01*
X123462438Y-69443956D01*
X123819386Y-69408799D01*
X123993509Y-69374163D01*
X124171148Y-69338830D01*
X124171159Y-69338827D01*
X124171159Y-69338826D01*
X124171169Y-69338825D01*
X124514399Y-69234707D01*
X124845772Y-69097448D01*
X125162095Y-68928370D01*
X125460323Y-68729101D01*
X125737582Y-68501560D01*
X125991204Y-68247938D01*
X126218745Y-67970679D01*
X126418014Y-67672451D01*
X126587092Y-67356128D01*
X126724351Y-67024755D01*
X126828469Y-66681525D01*
X126828471Y-66681515D01*
X126828474Y-66681504D01*
X126868920Y-66478163D01*
X126898443Y-66329742D01*
X126933600Y-65972794D01*
X126933600Y-65614118D01*
X126898443Y-65257170D01*
X126872349Y-65125988D01*
X126828474Y-64905407D01*
X126828471Y-64905396D01*
X126828470Y-64905393D01*
X126828469Y-64905387D01*
X126724351Y-64562157D01*
X126587092Y-64230784D01*
X126568262Y-64195556D01*
X126418020Y-63914472D01*
X126418018Y-63914470D01*
X126418014Y-63914461D01*
X126315764Y-63761432D01*
X126218757Y-63616250D01*
X126218750Y-63616240D01*
X126218745Y-63616233D01*
X125991204Y-63338974D01*
X125991203Y-63338973D01*
X125991199Y-63338968D01*
X125737587Y-63085356D01*
X125460328Y-62857815D01*
X125460305Y-62857798D01*
X125162111Y-62658552D01*
X125162083Y-62658535D01*
X124845779Y-62489467D01*
X124845774Y-62489465D01*
X124514400Y-62352205D01*
X124171159Y-62248084D01*
X124171148Y-62248081D01*
X123819392Y-62178114D01*
X123819375Y-62178111D01*
X123549451Y-62151526D01*
X123462438Y-62142956D01*
X123103762Y-62142956D01*
X123023287Y-62150882D01*
X122746824Y-62178111D01*
X122746807Y-62178114D01*
X122395051Y-62248081D01*
X122395040Y-62248084D01*
X122051799Y-62352205D01*
X121720425Y-62489465D01*
X121720420Y-62489467D01*
X121404116Y-62658535D01*
X121404088Y-62658552D01*
X121105894Y-62857798D01*
X121105871Y-62857815D01*
X120828612Y-63085356D01*
X120575000Y-63338968D01*
X120347459Y-63616227D01*
X120347442Y-63616250D01*
X120148196Y-63914444D01*
X120148179Y-63914472D01*
X119979111Y-64230776D01*
X119979109Y-64230781D01*
X119841849Y-64562155D01*
X119737728Y-64905396D01*
X119737725Y-64905407D01*
X119667758Y-65257163D01*
X119667755Y-65257180D01*
X119632600Y-65614121D01*
X118362162Y-65614121D01*
X118750019Y-64376088D01*
X118751718Y-64371051D01*
X118888718Y-63992073D01*
X118892787Y-63982178D01*
X119060916Y-63618890D01*
X119065816Y-63609403D01*
X119264722Y-63262014D01*
X119270435Y-63252968D01*
X119498620Y-62924088D01*
X119505095Y-62915568D01*
X119760872Y-62607632D01*
X119768042Y-62599723D01*
X120049488Y-62315049D01*
X120057327Y-62307779D01*
X120362304Y-62048527D01*
X120370764Y-62041945D01*
X120697004Y-61810034D01*
X120705994Y-61804210D01*
X121051092Y-61601357D01*
X121060535Y-61596343D01*
X121421863Y-61424092D01*
X121431737Y-61419900D01*
X121431876Y-61419848D01*
X121806603Y-61279532D01*
X121816772Y-61276219D01*
X122202373Y-61168785D01*
X122212789Y-61166363D01*
X122606224Y-61092671D01*
X122616843Y-61091154D01*
X123015181Y-61051751D01*
X123025877Y-61051159D01*
X123426128Y-61046343D01*
X123436823Y-61046677D01*
X123836010Y-61076483D01*
X123846624Y-61077739D01*
X124241453Y-61141899D01*
X124241730Y-61141944D01*
X124252235Y-61144121D01*
X124349597Y-61168739D01*
X124640281Y-61242237D01*
X124650561Y-61245315D01*
X124739392Y-61276161D01*
X125028681Y-61376615D01*
X125038642Y-61380564D01*
X125404013Y-61544071D01*
X125413588Y-61548864D01*
X125593053Y-61648624D01*
X125763440Y-61743338D01*
X125772585Y-61748953D01*
X126104308Y-61972942D01*
X126112932Y-61979326D01*
X126424035Y-62231144D01*
X126432076Y-62238249D01*
X126722239Y-62517944D01*
X126726020Y-62521750D01*
X126756935Y-62554246D01*
X126756937Y-62554247D01*
X129328410Y-65257163D01*
X132927849Y-69040590D01*
X132928318Y-69041086D01*
X132956750Y-69071302D01*
X132985862Y-69102241D01*
X133123565Y-69213497D01*
X133213867Y-69268075D01*
X133275076Y-69305070D01*
X133322129Y-69325393D01*
X133437592Y-69375265D01*
X133608124Y-69422793D01*
X133783523Y-69446776D01*
X133783531Y-69446775D01*
X133783532Y-69446776D01*
X133863187Y-69446746D01*
X133872039Y-69446743D01*
X135703769Y-69446743D01*
X135703901Y-69446782D01*
X135755173Y-69446782D01*
X135755173Y-69446783D01*
X135834018Y-69446785D01*
X135988678Y-69416025D01*
X136134365Y-69355682D01*
X136265479Y-69268075D01*
X136376982Y-69156571D01*
X136464587Y-69025455D01*
X136524928Y-68879767D01*
X136555686Y-68725106D01*
X136555686Y-68725099D01*
X136556284Y-68719039D01*
X136557114Y-68719120D01*
X136559911Y-68697814D01*
X136563500Y-68684424D01*
X136563500Y-66912595D01*
X136583185Y-66845556D01*
X136635989Y-66799801D01*
X136656188Y-66795406D01*
X136663000Y-66788595D01*
X137163000Y-66788595D01*
X137310828Y-66788595D01*
X137310844Y-66788594D01*
X137370377Y-66782192D01*
X137377933Y-66780408D01*
X137378272Y-66781845D01*
X137439342Y-66777469D01*
X137454633Y-66781959D01*
X137455622Y-66782192D01*
X137515155Y-66788594D01*
X137515172Y-66788595D01*
X137663000Y-66788595D01*
X138163000Y-66788595D01*
X138310828Y-66788595D01*
X138310844Y-66788594D01*
X138370377Y-66782192D01*
X138377933Y-66780408D01*
X138378272Y-66781845D01*
X138439342Y-66777469D01*
X138454633Y-66781959D01*
X138455622Y-66782192D01*
X138515155Y-66788594D01*
X138515172Y-66788595D01*
X138663000Y-66788595D01*
X139163000Y-66788595D01*
X139310828Y-66788595D01*
X139310844Y-66788594D01*
X139370377Y-66782192D01*
X139377933Y-66780408D01*
X139378272Y-66781845D01*
X139439342Y-66777469D01*
X139454633Y-66781959D01*
X139455622Y-66782192D01*
X139515155Y-66788594D01*
X139515172Y-66788595D01*
X139663000Y-66788595D01*
X140163000Y-66788595D01*
X140310828Y-66788595D01*
X140310844Y-66788594D01*
X140370377Y-66782192D01*
X140377933Y-66780408D01*
X140378272Y-66781845D01*
X140439342Y-66777469D01*
X140454633Y-66781959D01*
X140455622Y-66782192D01*
X140515155Y-66788594D01*
X140515172Y-66788595D01*
X140663000Y-66788595D01*
X141163000Y-66788595D01*
X141310828Y-66788595D01*
X141310844Y-66788594D01*
X141370377Y-66782192D01*
X141377933Y-66780408D01*
X141378272Y-66781845D01*
X141439342Y-66777469D01*
X141454633Y-66781959D01*
X141455622Y-66782192D01*
X141515155Y-66788594D01*
X141515172Y-66788595D01*
X141663000Y-66788595D01*
X142163000Y-66788595D01*
X142310828Y-66788595D01*
X142310844Y-66788594D01*
X142370377Y-66782192D01*
X142377933Y-66780408D01*
X142378272Y-66781845D01*
X142439342Y-66777469D01*
X142454633Y-66781959D01*
X142455622Y-66782192D01*
X142515155Y-66788594D01*
X142515172Y-66788595D01*
X142663000Y-66788595D01*
X142663000Y-64388595D01*
X142163000Y-64388595D01*
X142163000Y-66788595D01*
X141663000Y-66788595D01*
X141663000Y-64388595D01*
X141163000Y-64388595D01*
X141163000Y-66788595D01*
X140663000Y-66788595D01*
X140663000Y-64388595D01*
X140163000Y-64388595D01*
X140163000Y-66788595D01*
X139663000Y-66788595D01*
X139663000Y-64388595D01*
X139163000Y-64388595D01*
X139163000Y-66788595D01*
X138663000Y-66788595D01*
X138663000Y-64388595D01*
X138163000Y-64388595D01*
X138163000Y-66788595D01*
X137663000Y-66788595D01*
X137663000Y-64388595D01*
X137163000Y-64388595D01*
X137163000Y-66788595D01*
X136663000Y-66788595D01*
X136663000Y-64262595D01*
X136682685Y-64195556D01*
X136735489Y-64149801D01*
X136787000Y-64138595D01*
X136913000Y-64138595D01*
X136913000Y-64012595D01*
X136932685Y-63945556D01*
X136985489Y-63899801D01*
X137037000Y-63888595D01*
X142789000Y-63888595D01*
X142856039Y-63908280D01*
X142901794Y-63961084D01*
X142913000Y-64012595D01*
X142913000Y-64138595D01*
X143039000Y-64138595D01*
X143106039Y-64158280D01*
X143151794Y-64211084D01*
X143163000Y-64262595D01*
X143163000Y-66788595D01*
X143310828Y-66788595D01*
X143310844Y-66788594D01*
X143370372Y-66782193D01*
X143370379Y-66782191D01*
X143505086Y-66731949D01*
X143505093Y-66731945D01*
X143620187Y-66645785D01*
X143620190Y-66645782D01*
X143706350Y-66530687D01*
X143710426Y-66519762D01*
X143752297Y-66463828D01*
X143817761Y-66439411D01*
X143826608Y-66439095D01*
X144277822Y-66439095D01*
X144333700Y-66427980D01*
X144333953Y-66429255D01*
X144390507Y-66423170D01*
X144452988Y-66454440D01*
X144488646Y-66514526D01*
X144492500Y-66545202D01*
X144492500Y-67925998D01*
X144488276Y-67958083D01*
X144487500Y-67960982D01*
X144487500Y-68073018D01*
X144516497Y-68181237D01*
X144572515Y-68278263D01*
X144651737Y-68357485D01*
X144748763Y-68413503D01*
X144856982Y-68442500D01*
X144856984Y-68442500D01*
X144969016Y-68442500D01*
X144969018Y-68442500D01*
X145077237Y-68413503D01*
X145174263Y-68357485D01*
X145253485Y-68278263D01*
X145309503Y-68181237D01*
X145338500Y-68073018D01*
X145338500Y-67960982D01*
X145337723Y-67958083D01*
X145333500Y-67925998D01*
X145333500Y-66545202D01*
X145353185Y-66478163D01*
X145405989Y-66432408D01*
X145475147Y-66422464D01*
X145503023Y-66430113D01*
X145548177Y-66439095D01*
X145548180Y-66439095D01*
X146277822Y-66439095D01*
X146321717Y-66430363D01*
X146321717Y-66430362D01*
X146321722Y-66430362D01*
X146344110Y-66415402D01*
X146410786Y-66394525D01*
X146478167Y-66413009D01*
X146481867Y-66415387D01*
X146500713Y-66427980D01*
X146504278Y-66430362D01*
X146504282Y-66430363D01*
X146548177Y-66439095D01*
X146548180Y-66439095D01*
X147038500Y-66439095D01*
X147105539Y-66458780D01*
X147151294Y-66511584D01*
X147162500Y-66563095D01*
X147162500Y-68091000D01*
X147162500Y-68138595D01*
X147162500Y-68242214D01*
X147168516Y-68278265D01*
X147196610Y-68446629D01*
X147263898Y-68642632D01*
X147263900Y-68642638D01*
X147362534Y-68824897D01*
X147362537Y-68824901D01*
X147489818Y-68988431D01*
X147489821Y-68988435D01*
X147489823Y-68988437D01*
X147489824Y-68988438D01*
X147546476Y-69040590D01*
X147642296Y-69128799D01*
X147804400Y-69234706D01*
X147815788Y-69242146D01*
X148005572Y-69325393D01*
X148206469Y-69376267D01*
X148275312Y-69381971D01*
X148412994Y-69393381D01*
X148413000Y-69393381D01*
X148413006Y-69393381D01*
X148536918Y-69383112D01*
X148619531Y-69376267D01*
X148820428Y-69325393D01*
X149010212Y-69242146D01*
X149183706Y-69128797D01*
X149336176Y-68988438D01*
X149463465Y-68824898D01*
X149562100Y-68642637D01*
X149629390Y-68446627D01*
X149663500Y-68242214D01*
X149663500Y-68138595D01*
X149663500Y-68091000D01*
X149663500Y-66563095D01*
X149683185Y-66496056D01*
X149735989Y-66450301D01*
X149787500Y-66439095D01*
X150277822Y-66439095D01*
X150321717Y-66430363D01*
X150321717Y-66430362D01*
X150321722Y-66430362D01*
X150344110Y-66415402D01*
X150410786Y-66394525D01*
X150478167Y-66413009D01*
X150481867Y-66415387D01*
X150500713Y-66427980D01*
X150504278Y-66430362D01*
X150504282Y-66430363D01*
X150548177Y-66439095D01*
X150548180Y-66439095D01*
X151277822Y-66439095D01*
X151333700Y-66427980D01*
X151333953Y-66429255D01*
X151390507Y-66423170D01*
X151452988Y-66454440D01*
X151488646Y-66514526D01*
X151492500Y-66545202D01*
X151492500Y-67877479D01*
X151488275Y-67909571D01*
X151474500Y-67960980D01*
X151474500Y-67960982D01*
X151474500Y-68073018D01*
X151503497Y-68181237D01*
X151559515Y-68278263D01*
X151638737Y-68357485D01*
X151735763Y-68413503D01*
X151843982Y-68442500D01*
X151843984Y-68442500D01*
X151956016Y-68442500D01*
X151956018Y-68442500D01*
X152064237Y-68413503D01*
X152161263Y-68357485D01*
X152240485Y-68278263D01*
X152296503Y-68181237D01*
X152296503Y-68181235D01*
X152299656Y-68175775D01*
X152301284Y-68172469D01*
X152304843Y-68166307D01*
X152333500Y-68059360D01*
X152333500Y-66545202D01*
X152353185Y-66478163D01*
X152405989Y-66432408D01*
X152475147Y-66422464D01*
X152503023Y-66430113D01*
X152548177Y-66439095D01*
X152548180Y-66439095D01*
X153277822Y-66439095D01*
X153321717Y-66430363D01*
X153321717Y-66430362D01*
X153321722Y-66430362D01*
X153344110Y-66415402D01*
X153410786Y-66394525D01*
X153478167Y-66413009D01*
X153481867Y-66415387D01*
X153500713Y-66427980D01*
X153504278Y-66430362D01*
X153504282Y-66430363D01*
X153548177Y-66439095D01*
X153548180Y-66439095D01*
X154277822Y-66439095D01*
X154321717Y-66430363D01*
X154321717Y-66430362D01*
X154321722Y-66430362D01*
X154344110Y-66415402D01*
X154410786Y-66394525D01*
X154478167Y-66413009D01*
X154481867Y-66415387D01*
X154500713Y-66427980D01*
X154504278Y-66430362D01*
X154504282Y-66430363D01*
X154548177Y-66439095D01*
X154548180Y-66439095D01*
X155277822Y-66439095D01*
X155321717Y-66430363D01*
X155321717Y-66430362D01*
X155321722Y-66430362D01*
X155344110Y-66415402D01*
X155410786Y-66394525D01*
X155478167Y-66413009D01*
X155481867Y-66415387D01*
X155500713Y-66427980D01*
X155504278Y-66430362D01*
X155504282Y-66430363D01*
X155548177Y-66439095D01*
X155548180Y-66439095D01*
X156138500Y-66439095D01*
X156205539Y-66458780D01*
X156251294Y-66511584D01*
X156262500Y-66563095D01*
X156262500Y-68684426D01*
X156265738Y-68696511D01*
X156268715Y-68719098D01*
X156269364Y-68719035D01*
X156269962Y-68725099D01*
X156269963Y-68725102D01*
X156269963Y-68725107D01*
X156300736Y-68879756D01*
X156361085Y-69025430D01*
X156361086Y-69025432D01*
X156361087Y-69025433D01*
X156448690Y-69156532D01*
X156448694Y-69156536D01*
X156560189Y-69268026D01*
X156560192Y-69268029D01*
X156666147Y-69338825D01*
X156691298Y-69355630D01*
X156836975Y-69415973D01*
X156991625Y-69446740D01*
X157030910Y-69446741D01*
X157030916Y-69446743D01*
X157070465Y-69446743D01*
X157118059Y-69446745D01*
X157118062Y-69446743D01*
X157128038Y-69446744D01*
X157128063Y-69446743D01*
X158896073Y-69446743D01*
X158902320Y-69446744D01*
X158902496Y-69446795D01*
X158953652Y-69446758D01*
X158953652Y-69446759D01*
X158975988Y-69446743D01*
X158993202Y-69446743D01*
X159001532Y-69446743D01*
X159001792Y-69446723D01*
X159041599Y-69446696D01*
X159041606Y-69446695D01*
X159041609Y-69446695D01*
X159092774Y-69439740D01*
X159215891Y-69423008D01*
X159322886Y-69393381D01*
X159385401Y-69376071D01*
X159387276Y-69375267D01*
X159547058Y-69306735D01*
X159697904Y-69216268D01*
X159835196Y-69106316D01*
X159868500Y-69071356D01*
X159868590Y-69071302D01*
X159911730Y-69025957D01*
X159928665Y-69008157D01*
X159928665Y-69008155D01*
X159945109Y-68990873D01*
X159945112Y-68990866D01*
X163157648Y-65614121D01*
X165892060Y-65614121D01*
X165892060Y-65972790D01*
X165927215Y-66329731D01*
X165927218Y-66329748D01*
X165997185Y-66681504D01*
X165997188Y-66681515D01*
X166101309Y-67024756D01*
X166238569Y-67356130D01*
X166238571Y-67356135D01*
X166407639Y-67672439D01*
X166407656Y-67672467D01*
X166606902Y-67970661D01*
X166606919Y-67970684D01*
X166834460Y-68247943D01*
X167088072Y-68501555D01*
X167088077Y-68501559D01*
X167088078Y-68501560D01*
X167365337Y-68729101D01*
X167365344Y-68729106D01*
X167365354Y-68729113D01*
X167663548Y-68928359D01*
X167663553Y-68928362D01*
X167663565Y-68928370D01*
X167663574Y-68928374D01*
X167663576Y-68928376D01*
X167979880Y-69097444D01*
X167979882Y-69097444D01*
X167979888Y-69097448D01*
X168311261Y-69234707D01*
X168654491Y-69338825D01*
X168654497Y-69338826D01*
X168654500Y-69338827D01*
X168654511Y-69338830D01*
X168875092Y-69382705D01*
X169006274Y-69408799D01*
X169363222Y-69443956D01*
X169363225Y-69443956D01*
X169721895Y-69443956D01*
X169721898Y-69443956D01*
X170078846Y-69408799D01*
X170252969Y-69374163D01*
X170430608Y-69338830D01*
X170430619Y-69338827D01*
X170430619Y-69338826D01*
X170430629Y-69338825D01*
X170773859Y-69234707D01*
X171105232Y-69097448D01*
X171421555Y-68928370D01*
X171719783Y-68729101D01*
X171997042Y-68501560D01*
X172250664Y-68247938D01*
X172478205Y-67970679D01*
X172677474Y-67672451D01*
X172846552Y-67356128D01*
X172983811Y-67024755D01*
X173087929Y-66681525D01*
X173087931Y-66681515D01*
X173087934Y-66681504D01*
X173128380Y-66478163D01*
X173157903Y-66329742D01*
X173193060Y-65972794D01*
X173193060Y-65614118D01*
X173157903Y-65257170D01*
X173131809Y-65125988D01*
X173087934Y-64905407D01*
X173087931Y-64905396D01*
X173087930Y-64905393D01*
X173087929Y-64905387D01*
X172983811Y-64562157D01*
X172846552Y-64230784D01*
X172827722Y-64195556D01*
X172677480Y-63914472D01*
X172677478Y-63914470D01*
X172677474Y-63914461D01*
X172575224Y-63761432D01*
X172478217Y-63616250D01*
X172478210Y-63616240D01*
X172478205Y-63616233D01*
X172250664Y-63338974D01*
X172250663Y-63338973D01*
X172250659Y-63338968D01*
X171997047Y-63085356D01*
X171719788Y-62857815D01*
X171719765Y-62857798D01*
X171421571Y-62658552D01*
X171421543Y-62658535D01*
X171105239Y-62489467D01*
X171105234Y-62489465D01*
X170773860Y-62352205D01*
X170430619Y-62248084D01*
X170430608Y-62248081D01*
X170078852Y-62178114D01*
X170078835Y-62178111D01*
X169808911Y-62151526D01*
X169721898Y-62142956D01*
X169363222Y-62142956D01*
X169282747Y-62150882D01*
X169006284Y-62178111D01*
X169006267Y-62178114D01*
X168654511Y-62248081D01*
X168654500Y-62248084D01*
X168311259Y-62352205D01*
X167979885Y-62489465D01*
X167979880Y-62489467D01*
X167663576Y-62658535D01*
X167663548Y-62658552D01*
X167365354Y-62857798D01*
X167365331Y-62857815D01*
X167088072Y-63085356D01*
X166834460Y-63338968D01*
X166606919Y-63616227D01*
X166606902Y-63616250D01*
X166407656Y-63914444D01*
X166407639Y-63914472D01*
X166238571Y-64230776D01*
X166238569Y-64230781D01*
X166101309Y-64562155D01*
X165997188Y-64905396D01*
X165997185Y-64905407D01*
X165927218Y-65257163D01*
X165927215Y-65257180D01*
X165892060Y-65614121D01*
X163157648Y-65614121D01*
X166068726Y-62554243D01*
X166068729Y-62554242D01*
X166099719Y-62521666D01*
X166103450Y-62517911D01*
X166393599Y-62238222D01*
X166401585Y-62231164D01*
X166712758Y-61979282D01*
X166721331Y-61972937D01*
X167053097Y-61748914D01*
X167062216Y-61743316D01*
X167412074Y-61548833D01*
X167421649Y-61544040D01*
X167787022Y-61380528D01*
X167796982Y-61376579D01*
X168175124Y-61245269D01*
X168185366Y-61242202D01*
X168573456Y-61144071D01*
X168583915Y-61141903D01*
X168979032Y-61077695D01*
X168989655Y-61076436D01*
X169388853Y-61046627D01*
X169399549Y-61046293D01*
X169799801Y-61051108D01*
G37*
%TD.AperFunction*%
%TD*%
M02*
