%TF.GenerationSoftware,KiCad,Pcbnew,9.0.0*%
%TF.CreationDate,2025-05-31T20:06:25-04:00*%
%TF.ProjectId,status,73746174-7573-42e6-9b69-6361645f7063,rev?*%
%TF.SameCoordinates,Original*%
%TF.FileFunction,Legend,Top*%
%TF.FilePolarity,Positive*%
%FSLAX46Y46*%
G04 Gerber Fmt 4.6, Leading zero omitted, Abs format (unit mm)*
G04 Created by KiCad (PCBNEW 9.0.0) date 2025-05-31 20:06:25*
%MOMM*%
%LPD*%
G01*
G04 APERTURE LIST*
%ADD10C,0.200000*%
%ADD11C,0.125000*%
%ADD12C,0.120000*%
%ADD13C,0.150000*%
%ADD14C,0.100000*%
%ADD15C,0.127000*%
%ADD16C,0.152400*%
%ADD17C,0.000000*%
G04 APERTURE END LIST*
D10*
X118566101Y-93567219D02*
X118232768Y-93091028D01*
X117994673Y-93567219D02*
X117994673Y-92567219D01*
X117994673Y-92567219D02*
X118375625Y-92567219D01*
X118375625Y-92567219D02*
X118470863Y-92614838D01*
X118470863Y-92614838D02*
X118518482Y-92662457D01*
X118518482Y-92662457D02*
X118566101Y-92757695D01*
X118566101Y-92757695D02*
X118566101Y-92900552D01*
X118566101Y-92900552D02*
X118518482Y-92995790D01*
X118518482Y-92995790D02*
X118470863Y-93043409D01*
X118470863Y-93043409D02*
X118375625Y-93091028D01*
X118375625Y-93091028D02*
X117994673Y-93091028D01*
X119375625Y-93519600D02*
X119280387Y-93567219D01*
X119280387Y-93567219D02*
X119089911Y-93567219D01*
X119089911Y-93567219D02*
X118994673Y-93519600D01*
X118994673Y-93519600D02*
X118947054Y-93424361D01*
X118947054Y-93424361D02*
X118947054Y-93043409D01*
X118947054Y-93043409D02*
X118994673Y-92948171D01*
X118994673Y-92948171D02*
X119089911Y-92900552D01*
X119089911Y-92900552D02*
X119280387Y-92900552D01*
X119280387Y-92900552D02*
X119375625Y-92948171D01*
X119375625Y-92948171D02*
X119423244Y-93043409D01*
X119423244Y-93043409D02*
X119423244Y-93138647D01*
X119423244Y-93138647D02*
X118947054Y-93233885D01*
X119804197Y-93519600D02*
X119899435Y-93567219D01*
X119899435Y-93567219D02*
X120089911Y-93567219D01*
X120089911Y-93567219D02*
X120185149Y-93519600D01*
X120185149Y-93519600D02*
X120232768Y-93424361D01*
X120232768Y-93424361D02*
X120232768Y-93376742D01*
X120232768Y-93376742D02*
X120185149Y-93281504D01*
X120185149Y-93281504D02*
X120089911Y-93233885D01*
X120089911Y-93233885D02*
X119947054Y-93233885D01*
X119947054Y-93233885D02*
X119851816Y-93186266D01*
X119851816Y-93186266D02*
X119804197Y-93091028D01*
X119804197Y-93091028D02*
X119804197Y-93043409D01*
X119804197Y-93043409D02*
X119851816Y-92948171D01*
X119851816Y-92948171D02*
X119947054Y-92900552D01*
X119947054Y-92900552D02*
X120089911Y-92900552D01*
X120089911Y-92900552D02*
X120185149Y-92948171D01*
X121042292Y-93519600D02*
X120947054Y-93567219D01*
X120947054Y-93567219D02*
X120756578Y-93567219D01*
X120756578Y-93567219D02*
X120661340Y-93519600D01*
X120661340Y-93519600D02*
X120613721Y-93424361D01*
X120613721Y-93424361D02*
X120613721Y-93043409D01*
X120613721Y-93043409D02*
X120661340Y-92948171D01*
X120661340Y-92948171D02*
X120756578Y-92900552D01*
X120756578Y-92900552D02*
X120947054Y-92900552D01*
X120947054Y-92900552D02*
X121042292Y-92948171D01*
X121042292Y-92948171D02*
X121089911Y-93043409D01*
X121089911Y-93043409D02*
X121089911Y-93138647D01*
X121089911Y-93138647D02*
X120613721Y-93233885D01*
X121375626Y-92900552D02*
X121756578Y-92900552D01*
X121518483Y-92567219D02*
X121518483Y-93424361D01*
X121518483Y-93424361D02*
X121566102Y-93519600D01*
X121566102Y-93519600D02*
X121661340Y-93567219D01*
X121661340Y-93567219D02*
X121756578Y-93567219D01*
X126419673Y-115017219D02*
X126419673Y-114017219D01*
X126419673Y-114017219D02*
X126657768Y-114017219D01*
X126657768Y-114017219D02*
X126800625Y-114064838D01*
X126800625Y-114064838D02*
X126895863Y-114160076D01*
X126895863Y-114160076D02*
X126943482Y-114255314D01*
X126943482Y-114255314D02*
X126991101Y-114445790D01*
X126991101Y-114445790D02*
X126991101Y-114588647D01*
X126991101Y-114588647D02*
X126943482Y-114779123D01*
X126943482Y-114779123D02*
X126895863Y-114874361D01*
X126895863Y-114874361D02*
X126800625Y-114969600D01*
X126800625Y-114969600D02*
X126657768Y-115017219D01*
X126657768Y-115017219D02*
X126419673Y-115017219D01*
X127610149Y-114017219D02*
X127800625Y-114017219D01*
X127800625Y-114017219D02*
X127895863Y-114064838D01*
X127895863Y-114064838D02*
X127991101Y-114160076D01*
X127991101Y-114160076D02*
X128038720Y-114350552D01*
X128038720Y-114350552D02*
X128038720Y-114683885D01*
X128038720Y-114683885D02*
X127991101Y-114874361D01*
X127991101Y-114874361D02*
X127895863Y-114969600D01*
X127895863Y-114969600D02*
X127800625Y-115017219D01*
X127800625Y-115017219D02*
X127610149Y-115017219D01*
X127610149Y-115017219D02*
X127514911Y-114969600D01*
X127514911Y-114969600D02*
X127419673Y-114874361D01*
X127419673Y-114874361D02*
X127372054Y-114683885D01*
X127372054Y-114683885D02*
X127372054Y-114350552D01*
X127372054Y-114350552D02*
X127419673Y-114160076D01*
X127419673Y-114160076D02*
X127514911Y-114064838D01*
X127514911Y-114064838D02*
X127610149Y-114017219D01*
X128372054Y-114017219D02*
X128610149Y-115017219D01*
X128610149Y-115017219D02*
X128800625Y-114302933D01*
X128800625Y-114302933D02*
X128991101Y-115017219D01*
X128991101Y-115017219D02*
X129229197Y-114017219D01*
X129610149Y-115017219D02*
X129610149Y-114017219D01*
X129610149Y-114017219D02*
X130181577Y-115017219D01*
X130181577Y-115017219D02*
X130181577Y-114017219D01*
D11*
X115818712Y-80376538D02*
X115723474Y-80328919D01*
X115723474Y-80328919D02*
X115580617Y-80328919D01*
X115580617Y-80328919D02*
X115437760Y-80376538D01*
X115437760Y-80376538D02*
X115342522Y-80471776D01*
X115342522Y-80471776D02*
X115294903Y-80567014D01*
X115294903Y-80567014D02*
X115247284Y-80757490D01*
X115247284Y-80757490D02*
X115247284Y-80900347D01*
X115247284Y-80900347D02*
X115294903Y-81090823D01*
X115294903Y-81090823D02*
X115342522Y-81186061D01*
X115342522Y-81186061D02*
X115437760Y-81281300D01*
X115437760Y-81281300D02*
X115580617Y-81328919D01*
X115580617Y-81328919D02*
X115675855Y-81328919D01*
X115675855Y-81328919D02*
X115818712Y-81281300D01*
X115818712Y-81281300D02*
X115866331Y-81233680D01*
X115866331Y-81233680D02*
X115866331Y-80900347D01*
X115866331Y-80900347D02*
X115675855Y-80900347D01*
X116294903Y-81328919D02*
X116294903Y-80328919D01*
X116294903Y-80328919D02*
X116866331Y-81328919D01*
X116866331Y-81328919D02*
X116866331Y-80328919D01*
X117342522Y-81328919D02*
X117342522Y-80328919D01*
X117342522Y-80328919D02*
X117580617Y-80328919D01*
X117580617Y-80328919D02*
X117723474Y-80376538D01*
X117723474Y-80376538D02*
X117818712Y-80471776D01*
X117818712Y-80471776D02*
X117866331Y-80567014D01*
X117866331Y-80567014D02*
X117913950Y-80757490D01*
X117913950Y-80757490D02*
X117913950Y-80900347D01*
X117913950Y-80900347D02*
X117866331Y-81090823D01*
X117866331Y-81090823D02*
X117818712Y-81186061D01*
X117818712Y-81186061D02*
X117723474Y-81281300D01*
X117723474Y-81281300D02*
X117580617Y-81328919D01*
X117580617Y-81328919D02*
X117342522Y-81328919D01*
D12*
X168665851Y-109043998D02*
X168570613Y-108996379D01*
X168570613Y-108996379D02*
X168427756Y-108996379D01*
X168427756Y-108996379D02*
X168284899Y-109043998D01*
X168284899Y-109043998D02*
X168189661Y-109139236D01*
X168189661Y-109139236D02*
X168142042Y-109234474D01*
X168142042Y-109234474D02*
X168094423Y-109424950D01*
X168094423Y-109424950D02*
X168094423Y-109567807D01*
X168094423Y-109567807D02*
X168142042Y-109758283D01*
X168142042Y-109758283D02*
X168189661Y-109853521D01*
X168189661Y-109853521D02*
X168284899Y-109948760D01*
X168284899Y-109948760D02*
X168427756Y-109996379D01*
X168427756Y-109996379D02*
X168522994Y-109996379D01*
X168522994Y-109996379D02*
X168665851Y-109948760D01*
X168665851Y-109948760D02*
X168713470Y-109901140D01*
X168713470Y-109901140D02*
X168713470Y-109567807D01*
X168713470Y-109567807D02*
X168522994Y-109567807D01*
X169142042Y-109996379D02*
X169142042Y-108996379D01*
X169142042Y-108996379D02*
X169713470Y-109996379D01*
X169713470Y-109996379D02*
X169713470Y-108996379D01*
X170189661Y-109996379D02*
X170189661Y-108996379D01*
X170189661Y-108996379D02*
X170427756Y-108996379D01*
X170427756Y-108996379D02*
X170570613Y-109043998D01*
X170570613Y-109043998D02*
X170665851Y-109139236D01*
X170665851Y-109139236D02*
X170713470Y-109234474D01*
X170713470Y-109234474D02*
X170761089Y-109424950D01*
X170761089Y-109424950D02*
X170761089Y-109567807D01*
X170761089Y-109567807D02*
X170713470Y-109758283D01*
X170713470Y-109758283D02*
X170665851Y-109853521D01*
X170665851Y-109853521D02*
X170570613Y-109948760D01*
X170570613Y-109948760D02*
X170427756Y-109996379D01*
X170427756Y-109996379D02*
X170189661Y-109996379D01*
D10*
X135741101Y-109317219D02*
X135407768Y-108841028D01*
X135169673Y-109317219D02*
X135169673Y-108317219D01*
X135169673Y-108317219D02*
X135550625Y-108317219D01*
X135550625Y-108317219D02*
X135645863Y-108364838D01*
X135645863Y-108364838D02*
X135693482Y-108412457D01*
X135693482Y-108412457D02*
X135741101Y-108507695D01*
X135741101Y-108507695D02*
X135741101Y-108650552D01*
X135741101Y-108650552D02*
X135693482Y-108745790D01*
X135693482Y-108745790D02*
X135645863Y-108793409D01*
X135645863Y-108793409D02*
X135550625Y-108841028D01*
X135550625Y-108841028D02*
X135169673Y-108841028D01*
X136169673Y-109317219D02*
X136169673Y-108650552D01*
X136169673Y-108317219D02*
X136122054Y-108364838D01*
X136122054Y-108364838D02*
X136169673Y-108412457D01*
X136169673Y-108412457D02*
X136217292Y-108364838D01*
X136217292Y-108364838D02*
X136169673Y-108317219D01*
X136169673Y-108317219D02*
X136169673Y-108412457D01*
X137074434Y-108650552D02*
X137074434Y-109460076D01*
X137074434Y-109460076D02*
X137026815Y-109555314D01*
X137026815Y-109555314D02*
X136979196Y-109602933D01*
X136979196Y-109602933D02*
X136883958Y-109650552D01*
X136883958Y-109650552D02*
X136741101Y-109650552D01*
X136741101Y-109650552D02*
X136645863Y-109602933D01*
X137074434Y-109269600D02*
X136979196Y-109317219D01*
X136979196Y-109317219D02*
X136788720Y-109317219D01*
X136788720Y-109317219D02*
X136693482Y-109269600D01*
X136693482Y-109269600D02*
X136645863Y-109221980D01*
X136645863Y-109221980D02*
X136598244Y-109126742D01*
X136598244Y-109126742D02*
X136598244Y-108841028D01*
X136598244Y-108841028D02*
X136645863Y-108745790D01*
X136645863Y-108745790D02*
X136693482Y-108698171D01*
X136693482Y-108698171D02*
X136788720Y-108650552D01*
X136788720Y-108650552D02*
X136979196Y-108650552D01*
X136979196Y-108650552D02*
X137074434Y-108698171D01*
X137550625Y-109317219D02*
X137550625Y-108317219D01*
X137979196Y-109317219D02*
X137979196Y-108793409D01*
X137979196Y-108793409D02*
X137931577Y-108698171D01*
X137931577Y-108698171D02*
X137836339Y-108650552D01*
X137836339Y-108650552D02*
X137693482Y-108650552D01*
X137693482Y-108650552D02*
X137598244Y-108698171D01*
X137598244Y-108698171D02*
X137550625Y-108745790D01*
X138312530Y-108650552D02*
X138693482Y-108650552D01*
X138455387Y-108317219D02*
X138455387Y-109174361D01*
X138455387Y-109174361D02*
X138503006Y-109269600D01*
X138503006Y-109269600D02*
X138598244Y-109317219D01*
X138598244Y-109317219D02*
X138693482Y-109317219D01*
X154859600Y-116967945D02*
X154907219Y-116825088D01*
X154907219Y-116825088D02*
X154907219Y-116586993D01*
X154907219Y-116586993D02*
X154859600Y-116491755D01*
X154859600Y-116491755D02*
X154811980Y-116444136D01*
X154811980Y-116444136D02*
X154716742Y-116396517D01*
X154716742Y-116396517D02*
X154621504Y-116396517D01*
X154621504Y-116396517D02*
X154526266Y-116444136D01*
X154526266Y-116444136D02*
X154478647Y-116491755D01*
X154478647Y-116491755D02*
X154431028Y-116586993D01*
X154431028Y-116586993D02*
X154383409Y-116777469D01*
X154383409Y-116777469D02*
X154335790Y-116872707D01*
X154335790Y-116872707D02*
X154288171Y-116920326D01*
X154288171Y-116920326D02*
X154192933Y-116967945D01*
X154192933Y-116967945D02*
X154097695Y-116967945D01*
X154097695Y-116967945D02*
X154002457Y-116920326D01*
X154002457Y-116920326D02*
X153954838Y-116872707D01*
X153954838Y-116872707D02*
X153907219Y-116777469D01*
X153907219Y-116777469D02*
X153907219Y-116539374D01*
X153907219Y-116539374D02*
X153954838Y-116396517D01*
X154240552Y-116110802D02*
X154240552Y-115729850D01*
X153907219Y-115967945D02*
X154764361Y-115967945D01*
X154764361Y-115967945D02*
X154859600Y-115920326D01*
X154859600Y-115920326D02*
X154907219Y-115825088D01*
X154907219Y-115825088D02*
X154907219Y-115729850D01*
X154907219Y-114967945D02*
X154383409Y-114967945D01*
X154383409Y-114967945D02*
X154288171Y-115015564D01*
X154288171Y-115015564D02*
X154240552Y-115110802D01*
X154240552Y-115110802D02*
X154240552Y-115301278D01*
X154240552Y-115301278D02*
X154288171Y-115396516D01*
X154859600Y-114967945D02*
X154907219Y-115063183D01*
X154907219Y-115063183D02*
X154907219Y-115301278D01*
X154907219Y-115301278D02*
X154859600Y-115396516D01*
X154859600Y-115396516D02*
X154764361Y-115444135D01*
X154764361Y-115444135D02*
X154669123Y-115444135D01*
X154669123Y-115444135D02*
X154573885Y-115396516D01*
X154573885Y-115396516D02*
X154526266Y-115301278D01*
X154526266Y-115301278D02*
X154526266Y-115063183D01*
X154526266Y-115063183D02*
X154478647Y-114967945D01*
X154240552Y-114634611D02*
X154240552Y-114253659D01*
X153907219Y-114491754D02*
X154764361Y-114491754D01*
X154764361Y-114491754D02*
X154859600Y-114444135D01*
X154859600Y-114444135D02*
X154907219Y-114348897D01*
X154907219Y-114348897D02*
X154907219Y-114253659D01*
X154240552Y-113491754D02*
X154907219Y-113491754D01*
X154240552Y-113920325D02*
X154764361Y-113920325D01*
X154764361Y-113920325D02*
X154859600Y-113872706D01*
X154859600Y-113872706D02*
X154907219Y-113777468D01*
X154907219Y-113777468D02*
X154907219Y-113634611D01*
X154907219Y-113634611D02*
X154859600Y-113539373D01*
X154859600Y-113539373D02*
X154811980Y-113491754D01*
X154859600Y-113063182D02*
X154907219Y-112967944D01*
X154907219Y-112967944D02*
X154907219Y-112777468D01*
X154907219Y-112777468D02*
X154859600Y-112682230D01*
X154859600Y-112682230D02*
X154764361Y-112634611D01*
X154764361Y-112634611D02*
X154716742Y-112634611D01*
X154716742Y-112634611D02*
X154621504Y-112682230D01*
X154621504Y-112682230D02*
X154573885Y-112777468D01*
X154573885Y-112777468D02*
X154573885Y-112920325D01*
X154573885Y-112920325D02*
X154526266Y-113015563D01*
X154526266Y-113015563D02*
X154431028Y-113063182D01*
X154431028Y-113063182D02*
X154383409Y-113063182D01*
X154383409Y-113063182D02*
X154288171Y-113015563D01*
X154288171Y-113015563D02*
X154240552Y-112920325D01*
X154240552Y-112920325D02*
X154240552Y-112777468D01*
X154240552Y-112777468D02*
X154288171Y-112682230D01*
X153907219Y-111253658D02*
X153907219Y-111158420D01*
X153907219Y-111158420D02*
X153954838Y-111063182D01*
X153954838Y-111063182D02*
X154002457Y-111015563D01*
X154002457Y-111015563D02*
X154097695Y-110967944D01*
X154097695Y-110967944D02*
X154288171Y-110920325D01*
X154288171Y-110920325D02*
X154526266Y-110920325D01*
X154526266Y-110920325D02*
X154716742Y-110967944D01*
X154716742Y-110967944D02*
X154811980Y-111015563D01*
X154811980Y-111015563D02*
X154859600Y-111063182D01*
X154859600Y-111063182D02*
X154907219Y-111158420D01*
X154907219Y-111158420D02*
X154907219Y-111253658D01*
X154907219Y-111253658D02*
X154859600Y-111348896D01*
X154859600Y-111348896D02*
X154811980Y-111396515D01*
X154811980Y-111396515D02*
X154716742Y-111444134D01*
X154716742Y-111444134D02*
X154526266Y-111491753D01*
X154526266Y-111491753D02*
X154288171Y-111491753D01*
X154288171Y-111491753D02*
X154097695Y-111444134D01*
X154097695Y-111444134D02*
X154002457Y-111396515D01*
X154002457Y-111396515D02*
X153954838Y-111348896D01*
X153954838Y-111348896D02*
X153907219Y-111253658D01*
X154811980Y-110491753D02*
X154859600Y-110444134D01*
X154859600Y-110444134D02*
X154907219Y-110491753D01*
X154907219Y-110491753D02*
X154859600Y-110539372D01*
X154859600Y-110539372D02*
X154811980Y-110491753D01*
X154811980Y-110491753D02*
X154907219Y-110491753D01*
X154907219Y-109491754D02*
X154907219Y-110063182D01*
X154907219Y-109777468D02*
X153907219Y-109777468D01*
X153907219Y-109777468D02*
X154050076Y-109872706D01*
X154050076Y-109872706D02*
X154145314Y-109967944D01*
X154145314Y-109967944D02*
X154192933Y-110063182D01*
X154811980Y-109063182D02*
X154859600Y-109015563D01*
X154859600Y-109015563D02*
X154907219Y-109063182D01*
X154907219Y-109063182D02*
X154859600Y-109110801D01*
X154859600Y-109110801D02*
X154811980Y-109063182D01*
X154811980Y-109063182D02*
X154907219Y-109063182D01*
X153907219Y-108396516D02*
X153907219Y-108301278D01*
X153907219Y-108301278D02*
X153954838Y-108206040D01*
X153954838Y-108206040D02*
X154002457Y-108158421D01*
X154002457Y-108158421D02*
X154097695Y-108110802D01*
X154097695Y-108110802D02*
X154288171Y-108063183D01*
X154288171Y-108063183D02*
X154526266Y-108063183D01*
X154526266Y-108063183D02*
X154716742Y-108110802D01*
X154716742Y-108110802D02*
X154811980Y-108158421D01*
X154811980Y-108158421D02*
X154859600Y-108206040D01*
X154859600Y-108206040D02*
X154907219Y-108301278D01*
X154907219Y-108301278D02*
X154907219Y-108396516D01*
X154907219Y-108396516D02*
X154859600Y-108491754D01*
X154859600Y-108491754D02*
X154811980Y-108539373D01*
X154811980Y-108539373D02*
X154716742Y-108586992D01*
X154716742Y-108586992D02*
X154526266Y-108634611D01*
X154526266Y-108634611D02*
X154288171Y-108634611D01*
X154288171Y-108634611D02*
X154097695Y-108586992D01*
X154097695Y-108586992D02*
X154002457Y-108539373D01*
X154002457Y-108539373D02*
X153954838Y-108491754D01*
X153954838Y-108491754D02*
X153907219Y-108396516D01*
D11*
X113272712Y-88948500D02*
X113415569Y-88996119D01*
X113415569Y-88996119D02*
X113653664Y-88996119D01*
X113653664Y-88996119D02*
X113748902Y-88948500D01*
X113748902Y-88948500D02*
X113796521Y-88900880D01*
X113796521Y-88900880D02*
X113844140Y-88805642D01*
X113844140Y-88805642D02*
X113844140Y-88710404D01*
X113844140Y-88710404D02*
X113796521Y-88615166D01*
X113796521Y-88615166D02*
X113748902Y-88567547D01*
X113748902Y-88567547D02*
X113653664Y-88519928D01*
X113653664Y-88519928D02*
X113463188Y-88472309D01*
X113463188Y-88472309D02*
X113367950Y-88424690D01*
X113367950Y-88424690D02*
X113320331Y-88377071D01*
X113320331Y-88377071D02*
X113272712Y-88281833D01*
X113272712Y-88281833D02*
X113272712Y-88186595D01*
X113272712Y-88186595D02*
X113320331Y-88091357D01*
X113320331Y-88091357D02*
X113367950Y-88043738D01*
X113367950Y-88043738D02*
X113463188Y-87996119D01*
X113463188Y-87996119D02*
X113701283Y-87996119D01*
X113701283Y-87996119D02*
X113844140Y-88043738D01*
X114177474Y-87996119D02*
X114415569Y-88996119D01*
X114415569Y-88996119D02*
X114606045Y-88281833D01*
X114606045Y-88281833D02*
X114796521Y-88996119D01*
X114796521Y-88996119D02*
X115034617Y-87996119D01*
X115986997Y-88900880D02*
X115939378Y-88948500D01*
X115939378Y-88948500D02*
X115796521Y-88996119D01*
X115796521Y-88996119D02*
X115701283Y-88996119D01*
X115701283Y-88996119D02*
X115558426Y-88948500D01*
X115558426Y-88948500D02*
X115463188Y-88853261D01*
X115463188Y-88853261D02*
X115415569Y-88758023D01*
X115415569Y-88758023D02*
X115367950Y-88567547D01*
X115367950Y-88567547D02*
X115367950Y-88424690D01*
X115367950Y-88424690D02*
X115415569Y-88234214D01*
X115415569Y-88234214D02*
X115463188Y-88138976D01*
X115463188Y-88138976D02*
X115558426Y-88043738D01*
X115558426Y-88043738D02*
X115701283Y-87996119D01*
X115701283Y-87996119D02*
X115796521Y-87996119D01*
X115796521Y-87996119D02*
X115939378Y-88043738D01*
X115939378Y-88043738D02*
X115986997Y-88091357D01*
X116891759Y-88996119D02*
X116415569Y-88996119D01*
X116415569Y-88996119D02*
X116415569Y-87996119D01*
X117225093Y-88996119D02*
X117225093Y-87996119D01*
X117796521Y-88996119D02*
X117367950Y-88424690D01*
X117796521Y-87996119D02*
X117225093Y-88567547D01*
D10*
X127719673Y-102717219D02*
X127719673Y-103526742D01*
X127719673Y-103526742D02*
X127767292Y-103621980D01*
X127767292Y-103621980D02*
X127814911Y-103669600D01*
X127814911Y-103669600D02*
X127910149Y-103717219D01*
X127910149Y-103717219D02*
X128100625Y-103717219D01*
X128100625Y-103717219D02*
X128195863Y-103669600D01*
X128195863Y-103669600D02*
X128243482Y-103621980D01*
X128243482Y-103621980D02*
X128291101Y-103526742D01*
X128291101Y-103526742D02*
X128291101Y-102717219D01*
X128767292Y-103717219D02*
X128767292Y-102717219D01*
X128767292Y-102717219D02*
X129148244Y-102717219D01*
X129148244Y-102717219D02*
X129243482Y-102764838D01*
X129243482Y-102764838D02*
X129291101Y-102812457D01*
X129291101Y-102812457D02*
X129338720Y-102907695D01*
X129338720Y-102907695D02*
X129338720Y-103050552D01*
X129338720Y-103050552D02*
X129291101Y-103145790D01*
X129291101Y-103145790D02*
X129243482Y-103193409D01*
X129243482Y-103193409D02*
X129148244Y-103241028D01*
X129148244Y-103241028D02*
X128767292Y-103241028D01*
D12*
X172849651Y-100823798D02*
X172754413Y-100776179D01*
X172754413Y-100776179D02*
X172611556Y-100776179D01*
X172611556Y-100776179D02*
X172468699Y-100823798D01*
X172468699Y-100823798D02*
X172373461Y-100919036D01*
X172373461Y-100919036D02*
X172325842Y-101014274D01*
X172325842Y-101014274D02*
X172278223Y-101204750D01*
X172278223Y-101204750D02*
X172278223Y-101347607D01*
X172278223Y-101347607D02*
X172325842Y-101538083D01*
X172325842Y-101538083D02*
X172373461Y-101633321D01*
X172373461Y-101633321D02*
X172468699Y-101728560D01*
X172468699Y-101728560D02*
X172611556Y-101776179D01*
X172611556Y-101776179D02*
X172706794Y-101776179D01*
X172706794Y-101776179D02*
X172849651Y-101728560D01*
X172849651Y-101728560D02*
X172897270Y-101680940D01*
X172897270Y-101680940D02*
X172897270Y-101347607D01*
X172897270Y-101347607D02*
X172706794Y-101347607D01*
X173325842Y-101776179D02*
X173325842Y-100776179D01*
X173325842Y-100776179D02*
X173897270Y-101776179D01*
X173897270Y-101776179D02*
X173897270Y-100776179D01*
X174373461Y-101776179D02*
X174373461Y-100776179D01*
X174373461Y-100776179D02*
X174611556Y-100776179D01*
X174611556Y-100776179D02*
X174754413Y-100823798D01*
X174754413Y-100823798D02*
X174849651Y-100919036D01*
X174849651Y-100919036D02*
X174897270Y-101014274D01*
X174897270Y-101014274D02*
X174944889Y-101204750D01*
X174944889Y-101204750D02*
X174944889Y-101347607D01*
X174944889Y-101347607D02*
X174897270Y-101538083D01*
X174897270Y-101538083D02*
X174849651Y-101633321D01*
X174849651Y-101633321D02*
X174754413Y-101728560D01*
X174754413Y-101728560D02*
X174611556Y-101776179D01*
X174611556Y-101776179D02*
X174373461Y-101776179D01*
D11*
X114422712Y-86398500D02*
X114565569Y-86446119D01*
X114565569Y-86446119D02*
X114803664Y-86446119D01*
X114803664Y-86446119D02*
X114898902Y-86398500D01*
X114898902Y-86398500D02*
X114946521Y-86350880D01*
X114946521Y-86350880D02*
X114994140Y-86255642D01*
X114994140Y-86255642D02*
X114994140Y-86160404D01*
X114994140Y-86160404D02*
X114946521Y-86065166D01*
X114946521Y-86065166D02*
X114898902Y-86017547D01*
X114898902Y-86017547D02*
X114803664Y-85969928D01*
X114803664Y-85969928D02*
X114613188Y-85922309D01*
X114613188Y-85922309D02*
X114517950Y-85874690D01*
X114517950Y-85874690D02*
X114470331Y-85827071D01*
X114470331Y-85827071D02*
X114422712Y-85731833D01*
X114422712Y-85731833D02*
X114422712Y-85636595D01*
X114422712Y-85636595D02*
X114470331Y-85541357D01*
X114470331Y-85541357D02*
X114517950Y-85493738D01*
X114517950Y-85493738D02*
X114613188Y-85446119D01*
X114613188Y-85446119D02*
X114851283Y-85446119D01*
X114851283Y-85446119D02*
X114994140Y-85493738D01*
X115327474Y-85446119D02*
X115565569Y-86446119D01*
X115565569Y-86446119D02*
X115756045Y-85731833D01*
X115756045Y-85731833D02*
X115946521Y-86446119D01*
X115946521Y-86446119D02*
X116184617Y-85446119D01*
X116565569Y-86446119D02*
X116565569Y-85446119D01*
X116565569Y-85446119D02*
X116803664Y-85446119D01*
X116803664Y-85446119D02*
X116946521Y-85493738D01*
X116946521Y-85493738D02*
X117041759Y-85588976D01*
X117041759Y-85588976D02*
X117089378Y-85684214D01*
X117089378Y-85684214D02*
X117136997Y-85874690D01*
X117136997Y-85874690D02*
X117136997Y-86017547D01*
X117136997Y-86017547D02*
X117089378Y-86208023D01*
X117089378Y-86208023D02*
X117041759Y-86303261D01*
X117041759Y-86303261D02*
X116946521Y-86398500D01*
X116946521Y-86398500D02*
X116803664Y-86446119D01*
X116803664Y-86446119D02*
X116565569Y-86446119D01*
X172419607Y-103995309D02*
X172562464Y-104042928D01*
X172562464Y-104042928D02*
X172610083Y-104090547D01*
X172610083Y-104090547D02*
X172657702Y-104185785D01*
X172657702Y-104185785D02*
X172657702Y-104328642D01*
X172657702Y-104328642D02*
X172610083Y-104423880D01*
X172610083Y-104423880D02*
X172562464Y-104471500D01*
X172562464Y-104471500D02*
X172467226Y-104519119D01*
X172467226Y-104519119D02*
X172086274Y-104519119D01*
X172086274Y-104519119D02*
X172086274Y-103519119D01*
X172086274Y-103519119D02*
X172419607Y-103519119D01*
X172419607Y-103519119D02*
X172514845Y-103566738D01*
X172514845Y-103566738D02*
X172562464Y-103614357D01*
X172562464Y-103614357D02*
X172610083Y-103709595D01*
X172610083Y-103709595D02*
X172610083Y-103804833D01*
X172610083Y-103804833D02*
X172562464Y-103900071D01*
X172562464Y-103900071D02*
X172514845Y-103947690D01*
X172514845Y-103947690D02*
X172419607Y-103995309D01*
X172419607Y-103995309D02*
X172086274Y-103995309D01*
X173276750Y-103519119D02*
X173467226Y-103519119D01*
X173467226Y-103519119D02*
X173562464Y-103566738D01*
X173562464Y-103566738D02*
X173657702Y-103661976D01*
X173657702Y-103661976D02*
X173705321Y-103852452D01*
X173705321Y-103852452D02*
X173705321Y-104185785D01*
X173705321Y-104185785D02*
X173657702Y-104376261D01*
X173657702Y-104376261D02*
X173562464Y-104471500D01*
X173562464Y-104471500D02*
X173467226Y-104519119D01*
X173467226Y-104519119D02*
X173276750Y-104519119D01*
X173276750Y-104519119D02*
X173181512Y-104471500D01*
X173181512Y-104471500D02*
X173086274Y-104376261D01*
X173086274Y-104376261D02*
X173038655Y-104185785D01*
X173038655Y-104185785D02*
X173038655Y-103852452D01*
X173038655Y-103852452D02*
X173086274Y-103661976D01*
X173086274Y-103661976D02*
X173181512Y-103566738D01*
X173181512Y-103566738D02*
X173276750Y-103519119D01*
X174324369Y-103519119D02*
X174514845Y-103519119D01*
X174514845Y-103519119D02*
X174610083Y-103566738D01*
X174610083Y-103566738D02*
X174705321Y-103661976D01*
X174705321Y-103661976D02*
X174752940Y-103852452D01*
X174752940Y-103852452D02*
X174752940Y-104185785D01*
X174752940Y-104185785D02*
X174705321Y-104376261D01*
X174705321Y-104376261D02*
X174610083Y-104471500D01*
X174610083Y-104471500D02*
X174514845Y-104519119D01*
X174514845Y-104519119D02*
X174324369Y-104519119D01*
X174324369Y-104519119D02*
X174229131Y-104471500D01*
X174229131Y-104471500D02*
X174133893Y-104376261D01*
X174133893Y-104376261D02*
X174086274Y-104185785D01*
X174086274Y-104185785D02*
X174086274Y-103852452D01*
X174086274Y-103852452D02*
X174133893Y-103661976D01*
X174133893Y-103661976D02*
X174229131Y-103566738D01*
X174229131Y-103566738D02*
X174324369Y-103519119D01*
X175038655Y-103519119D02*
X175610083Y-103519119D01*
X175324369Y-104519119D02*
X175324369Y-103519119D01*
D10*
X118645863Y-109267219D02*
X118169673Y-109267219D01*
X118169673Y-109267219D02*
X118169673Y-108267219D01*
X118979197Y-108743409D02*
X119312530Y-108743409D01*
X119455387Y-109267219D02*
X118979197Y-109267219D01*
X118979197Y-109267219D02*
X118979197Y-108267219D01*
X118979197Y-108267219D02*
X119455387Y-108267219D01*
X120217292Y-108743409D02*
X119883959Y-108743409D01*
X119883959Y-109267219D02*
X119883959Y-108267219D01*
X119883959Y-108267219D02*
X120360149Y-108267219D01*
X120598245Y-108267219D02*
X121169673Y-108267219D01*
X120883959Y-109267219D02*
X120883959Y-108267219D01*
D11*
X113795331Y-83765166D02*
X114557236Y-83765166D01*
X114176283Y-84146119D02*
X114176283Y-83384214D01*
X114938188Y-83146119D02*
X115557235Y-83146119D01*
X115557235Y-83146119D02*
X115223902Y-83527071D01*
X115223902Y-83527071D02*
X115366759Y-83527071D01*
X115366759Y-83527071D02*
X115461997Y-83574690D01*
X115461997Y-83574690D02*
X115509616Y-83622309D01*
X115509616Y-83622309D02*
X115557235Y-83717547D01*
X115557235Y-83717547D02*
X115557235Y-83955642D01*
X115557235Y-83955642D02*
X115509616Y-84050880D01*
X115509616Y-84050880D02*
X115461997Y-84098500D01*
X115461997Y-84098500D02*
X115366759Y-84146119D01*
X115366759Y-84146119D02*
X115081045Y-84146119D01*
X115081045Y-84146119D02*
X114985807Y-84098500D01*
X114985807Y-84098500D02*
X114938188Y-84050880D01*
X115985807Y-84050880D02*
X116033426Y-84098500D01*
X116033426Y-84098500D02*
X115985807Y-84146119D01*
X115985807Y-84146119D02*
X115938188Y-84098500D01*
X115938188Y-84098500D02*
X115985807Y-84050880D01*
X115985807Y-84050880D02*
X115985807Y-84146119D01*
X116366759Y-83146119D02*
X116985806Y-83146119D01*
X116985806Y-83146119D02*
X116652473Y-83527071D01*
X116652473Y-83527071D02*
X116795330Y-83527071D01*
X116795330Y-83527071D02*
X116890568Y-83574690D01*
X116890568Y-83574690D02*
X116938187Y-83622309D01*
X116938187Y-83622309D02*
X116985806Y-83717547D01*
X116985806Y-83717547D02*
X116985806Y-83955642D01*
X116985806Y-83955642D02*
X116938187Y-84050880D01*
X116938187Y-84050880D02*
X116890568Y-84098500D01*
X116890568Y-84098500D02*
X116795330Y-84146119D01*
X116795330Y-84146119D02*
X116509616Y-84146119D01*
X116509616Y-84146119D02*
X116414378Y-84098500D01*
X116414378Y-84098500D02*
X116366759Y-84050880D01*
X117271521Y-83146119D02*
X117604854Y-84146119D01*
X117604854Y-84146119D02*
X117938187Y-83146119D01*
D13*
X142817000Y-81893819D02*
X142817000Y-82131914D01*
X142578905Y-82036676D02*
X142817000Y-82131914D01*
X142817000Y-82131914D02*
X143055095Y-82036676D01*
X142674143Y-82322390D02*
X142817000Y-82131914D01*
X142817000Y-82131914D02*
X142959857Y-82322390D01*
D12*
%TO.C,U4*%
X157365449Y-102646000D02*
X157365449Y-96656000D01*
X162585449Y-102656000D02*
X162585449Y-96656000D01*
X157665449Y-103366000D02*
X157185449Y-102886000D01*
X157665449Y-102886000D01*
X157665449Y-103366000D01*
G36*
X157665449Y-103366000D02*
G01*
X157185449Y-102886000D01*
X157665449Y-102886000D01*
X157665449Y-103366000D01*
G37*
%TO.C,C15*%
X152979800Y-97923236D02*
X152979800Y-97707564D01*
X153699800Y-97923236D02*
X153699800Y-97707564D01*
%TO.C,C7*%
X151786000Y-101504636D02*
X151786000Y-101288964D01*
X152506000Y-101504636D02*
X152506000Y-101288964D01*
%TO.C,R13*%
X145543000Y-78842359D02*
X145543000Y-79149641D01*
X146303000Y-78842359D02*
X146303000Y-79149641D01*
%TO.C,R8*%
X124920000Y-114453641D02*
X124920000Y-114146359D01*
X125680000Y-114453641D02*
X125680000Y-114146359D01*
%TO.C,R7*%
X116353641Y-108420000D02*
X116046359Y-108420000D01*
X116353641Y-109180000D02*
X116046359Y-109180000D01*
%TO.C,C5*%
X147353700Y-78868164D02*
X147353700Y-79083836D01*
X148073700Y-78868164D02*
X148073700Y-79083836D01*
%TO.C,C12*%
X141486600Y-102403436D02*
X141486600Y-102187764D01*
X142206600Y-102403436D02*
X142206600Y-102187764D01*
%TO.C,C10*%
X144445400Y-91128964D02*
X144445400Y-91344636D01*
X145165400Y-91128964D02*
X145165400Y-91344636D01*
%TO.C,R3*%
X145745000Y-88353641D02*
X145745000Y-88046359D01*
X146505000Y-88353641D02*
X146505000Y-88046359D01*
%TO.C,C22*%
X131140000Y-84157836D02*
X131140000Y-83942164D01*
X131860000Y-84157836D02*
X131860000Y-83942164D01*
D14*
%TO.C,D1*%
X156150000Y-114235000D02*
G75*
G02*
X156050000Y-114235000I-50000J0D01*
G01*
X156050000Y-114235000D02*
G75*
G02*
X156150000Y-114235000I50000J0D01*
G01*
D12*
%TO.C,C9*%
X142565800Y-105086036D02*
X142565800Y-104870364D01*
X143285800Y-105086036D02*
X143285800Y-104870364D01*
%TO.C,C14*%
X141473600Y-100272964D02*
X141473600Y-100488636D01*
X142193600Y-100272964D02*
X142193600Y-100488636D01*
D15*
%TO.C,J4*%
X164028044Y-81657436D02*
X164337679Y-82610395D01*
X166113909Y-88077068D02*
X167659612Y-92834252D01*
X169003025Y-79332282D02*
X167005806Y-79981217D01*
X174614258Y-77509081D02*
X171856194Y-78405231D01*
X177182111Y-76674735D02*
X181230233Y-89133576D01*
D10*
X178998687Y-80501583D02*
G75*
G02*
X178798687Y-80501583I-100000J0D01*
G01*
X178798687Y-80501583D02*
G75*
G02*
X178998687Y-80501583I100000J0D01*
G01*
D12*
%TO.C,R14*%
X155720000Y-117696359D02*
X155720000Y-118003641D01*
X156480000Y-117696359D02*
X156480000Y-118003641D01*
D16*
%TO.C,J2*%
X159761200Y-111380300D02*
X159761200Y-122099100D01*
X159761200Y-122099100D02*
X171038800Y-122099100D01*
X160626469Y-111380300D02*
X159761200Y-111380300D01*
X163166469Y-111380300D02*
X162553531Y-111380300D01*
X165706469Y-111380300D02*
X165093531Y-111380300D01*
X168246469Y-111380300D02*
X167633531Y-111380300D01*
X171038800Y-111380300D02*
X170173531Y-111380300D01*
X171038800Y-122099100D02*
X171038800Y-111380300D01*
D12*
%TO.C,R15*%
X113845000Y-95038641D02*
X113845000Y-94731359D01*
X114605000Y-95038641D02*
X114605000Y-94731359D01*
%TO.C,R9*%
X133453641Y-108720000D02*
X133146359Y-108720000D01*
X133453641Y-109480000D02*
X133146359Y-109480000D01*
D15*
%TO.C,S7*%
X117150000Y-111520000D02*
X117150000Y-113880000D01*
X121950000Y-110150000D02*
X117450000Y-110150000D01*
X121950000Y-115250000D02*
X117450000Y-115250000D01*
X122250000Y-113880000D02*
X122250000Y-111520000D01*
D10*
X115550000Y-110825000D02*
G75*
G02*
X115350000Y-110825000I-100000J0D01*
G01*
X115350000Y-110825000D02*
G75*
G02*
X115550000Y-110825000I100000J0D01*
G01*
D12*
%TO.C,J3*%
X118050000Y-90425000D02*
X118050000Y-87425000D01*
X118500000Y-89925000D02*
X118500000Y-78875000D01*
X121050000Y-90425000D02*
X118050000Y-90425000D01*
X124350000Y-78875000D02*
X118500000Y-78875000D01*
X124350000Y-81525000D02*
X124350000Y-78875000D01*
X124350000Y-82425000D02*
X124350000Y-81825000D01*
X124350000Y-86175000D02*
X124350000Y-82675000D01*
X124350000Y-87025000D02*
X124350000Y-86425000D01*
X124350000Y-89925000D02*
X118500000Y-89925000D01*
X124350000Y-89925000D02*
X124350000Y-87275000D01*
D16*
%TO.C,X1*%
X147377400Y-90333700D02*
G75*
G02*
X147123400Y-90333700I-127000J0D01*
G01*
X147123400Y-90333700D02*
G75*
G02*
X147377400Y-90333700I127000J0D01*
G01*
D12*
%TO.C,C4*%
X149144400Y-78868164D02*
X149144400Y-79083836D01*
X149864400Y-78868164D02*
X149864400Y-79083836D01*
%TO.C,J7*%
X168160000Y-102955000D02*
X168160000Y-100355000D01*
X170820000Y-100355000D02*
X168160000Y-100355000D01*
X170820000Y-102955000D02*
X168160000Y-102955000D01*
X170820000Y-102955000D02*
X170820000Y-100355000D01*
X170820000Y-104225000D02*
X170820000Y-105555000D01*
X170820000Y-105555000D02*
X169490000Y-105555000D01*
%TO.C,R5*%
X144770000Y-105002359D02*
X144770000Y-105309641D01*
X145530000Y-105002359D02*
X145530000Y-105309641D01*
%TO.C,C18*%
X144790000Y-88092164D02*
X144790000Y-88307836D01*
X145510000Y-88092164D02*
X145510000Y-88307836D01*
%TO.C,C6*%
X127890000Y-79167164D02*
X127890000Y-79382836D01*
X128610000Y-79167164D02*
X128610000Y-79382836D01*
D15*
%TO.C,S9*%
X125750000Y-117420000D02*
X125750000Y-119780000D01*
X130550000Y-116050000D02*
X126050000Y-116050000D01*
X130550000Y-121150000D02*
X126050000Y-121150000D01*
X130850000Y-119780000D02*
X130850000Y-117420000D01*
D10*
X124150000Y-116725000D02*
G75*
G02*
X123950000Y-116725000I-100000J0D01*
G01*
X123950000Y-116725000D02*
G75*
G02*
X124150000Y-116725000I100000J0D01*
G01*
D12*
%TO.C,C17*%
X157755000Y-93999164D02*
X157755000Y-94214836D01*
X158475000Y-93999164D02*
X158475000Y-94214836D01*
D16*
%TO.C,U1*%
X135755800Y-77039800D02*
X135755800Y-77728859D01*
X135755800Y-82599139D02*
X135755800Y-83288200D01*
X135755800Y-83288200D02*
X136444859Y-83288200D01*
X136444861Y-77039800D02*
X135755800Y-77039800D01*
X141315139Y-83288200D02*
X142004200Y-83288200D01*
X142004200Y-77039800D02*
X141315141Y-77039800D01*
X142004200Y-77728861D02*
X142004200Y-77039800D01*
X142004200Y-83288200D02*
X142004200Y-82599141D01*
D17*
G36*
X135324000Y-81654500D02*
G01*
X135070000Y-81654500D01*
X135070000Y-81273500D01*
X135324000Y-81273500D01*
X135324000Y-81654500D01*
G37*
G36*
X139720499Y-76608000D02*
G01*
X139339499Y-76608000D01*
X139339499Y-76354000D01*
X139720499Y-76354000D01*
X139720499Y-76608000D01*
G37*
D10*
%TO.C,Y1*%
X132700000Y-82075000D02*
G75*
G02*
X132500000Y-82075000I-100000J0D01*
G01*
X132500000Y-82075000D02*
G75*
G02*
X132700000Y-82075000I100000J0D01*
G01*
D12*
%TO.C,C20*%
X145461400Y-91128964D02*
X145461400Y-91344636D01*
X146181400Y-91128964D02*
X146181400Y-91344636D01*
%TO.C,R4*%
X146305000Y-105002359D02*
X146305000Y-105309641D01*
X147065000Y-105002359D02*
X147065000Y-105309641D01*
D15*
%TO.C,S11*%
X117525000Y-96070000D02*
X117525000Y-98430000D01*
X122325000Y-94700000D02*
X117825000Y-94700000D01*
X122325000Y-99800000D02*
X117825000Y-99800000D01*
X122625000Y-98430000D02*
X122625000Y-96070000D01*
D10*
X115925000Y-95375000D02*
G75*
G02*
X115725000Y-95375000I-100000J0D01*
G01*
X115725000Y-95375000D02*
G75*
G02*
X115925000Y-95375000I100000J0D01*
G01*
D12*
%TO.C,U2*%
X143520000Y-94692500D02*
X143520000Y-95342500D01*
X143520000Y-101912500D02*
X143520000Y-101262500D01*
X144170000Y-94692500D02*
X143520000Y-94692500D01*
X144170000Y-101912500D02*
X143520000Y-101912500D01*
X150090000Y-94692500D02*
X150740000Y-94692500D01*
X150090000Y-101912500D02*
X150440000Y-101912500D01*
X150740000Y-94692500D02*
X150740000Y-95342500D01*
X150740000Y-101262500D02*
X150740000Y-101672500D01*
X150980000Y-102242500D02*
X150500000Y-102242500D01*
X150740000Y-101912500D01*
X150980000Y-102242500D01*
G36*
X150980000Y-102242500D02*
G01*
X150500000Y-102242500D01*
X150740000Y-101912500D01*
X150980000Y-102242500D01*
G37*
%TO.C,R10*%
X124953641Y-103020000D02*
X124646359Y-103020000D01*
X124953641Y-103780000D02*
X124646359Y-103780000D01*
%TO.C,R11*%
X144400000Y-112622359D02*
X144400000Y-112929641D01*
X145160000Y-112622359D02*
X145160000Y-112929641D01*
%TO.C,R6*%
X155982641Y-101982000D02*
X155675359Y-101982000D01*
X155982641Y-102742000D02*
X155675359Y-102742000D01*
%TO.C,R12*%
X147780000Y-112622359D02*
X147780000Y-112929641D01*
X148540000Y-112622359D02*
X148540000Y-112929641D01*
%TO.C,C23*%
X148456764Y-90800600D02*
X148672436Y-90800600D01*
X148456764Y-91520600D02*
X148672436Y-91520600D01*
D15*
%TO.C,S8*%
X125750000Y-105820000D02*
X125750000Y-108180000D01*
X130550000Y-104450000D02*
X126050000Y-104450000D01*
X130550000Y-109550000D02*
X126050000Y-109550000D01*
X130850000Y-108180000D02*
X130850000Y-105820000D01*
D10*
X124150000Y-105125000D02*
G75*
G02*
X123950000Y-105125000I-100000J0D01*
G01*
X123950000Y-105125000D02*
G75*
G02*
X124150000Y-105125000I100000J0D01*
G01*
D12*
%TO.C,C8*%
X148128400Y-106940236D02*
X148128400Y-106724564D01*
X148848400Y-106940236D02*
X148848400Y-106724564D01*
%TO.C,C16*%
X140559200Y-97872436D02*
X140559200Y-97656764D01*
X141279200Y-97872436D02*
X141279200Y-97656764D01*
D15*
%TO.C,S10*%
X134350000Y-111520000D02*
X134350000Y-113880000D01*
X139150000Y-110150000D02*
X134650000Y-110150000D01*
X139150000Y-115250000D02*
X134650000Y-115250000D01*
X139450000Y-113880000D02*
X139450000Y-111520000D01*
D10*
X132750000Y-110825000D02*
G75*
G02*
X132550000Y-110825000I-100000J0D01*
G01*
X132550000Y-110825000D02*
G75*
G02*
X132750000Y-110825000I100000J0D01*
G01*
D12*
%TO.C,C3*%
X150566800Y-73158236D02*
X150566800Y-72942564D01*
X151286800Y-73158236D02*
X151286800Y-72942564D01*
%TD*%
M02*
