M48
; DRILL file {KiCad 9.0.0} date 2025-05-31T20:06:46-0400
; FORMAT={-:-/ absolute / metric / decimal}
; #@! TF.CreationDate,2025-05-31T20:06:46-04:00
; #@! TF.GenerationSoftware,Kicad,Pcbnew,9.0.0
; #@! TF.FileFunction,Plated,1,4,PTH
FMAT,2
METRIC
; #@! TA.AperFunction,Plated,PTH,ViaDrill
T1C0.300
; #@! TA.AperFunction,Plated,PTH,ViaDrill
T2C0.400
; #@! TA.AperFunction,Plated,PTH,ComponentDrill
T3C0.600
; #@! TA.AperFunction,Plated,PTH,ComponentDrill
T4C0.762
; #@! TA.AperFunction,Plated,PTH,ComponentDrill
T5C0.864
; #@! TA.AperFunction,Plated,PTH,ComponentDrill
T6C1.000
%
G90
G05
T1
X177.525Y-85.6
X178.275Y-87.7
T2
X106.68Y-106.68
X111.76Y-91.44
X111.76Y-96.52
X111.76Y-106.68
X111.76Y-116.84
X114.3Y-86.36
X114.3Y-101.6
X114.3Y-111.76
X115.621Y-82.017
X116.84Y-96.52
X117.475Y-121.285
X118.11Y-71.12
X119.38Y-76.2
X119.38Y-91.44
X119.38Y-106.68
X119.38Y-116.84
X123.175Y-118.275
X123.825Y-71.12
X124.46Y-86.36
X124.46Y-96.52
X124.46Y-111.76
X124.95Y-107.4
X125.2Y-81.35
X127.0Y-76.2
X127.965Y-90.373
X129.54Y-71.12
X129.54Y-86.36
X129.54Y-96.52
X130.48Y-99.06
X130.575Y-114.675
X131.176Y-99.085
X131.877Y-99.085
X132.08Y-106.68
X132.08Y-111.76
X132.563Y-99.111
X132.825Y-79.825
X133.223Y-99.111
X133.4Y-120.25
X134.211Y-80.82
X134.518Y-79.908
X134.569Y-92.862
X134.575Y-91.6
X134.62Y-76.2
X134.62Y-78.867
X134.62Y-101.6
X134.645Y-77.876
X135.23Y-88.646
X136.779Y-117.246
X137.16Y-71.12
X137.16Y-86.36
X137.625Y-107.525
X137.719Y-79.148
X137.719Y-80.215
X137.719Y-81.282
X138.725Y-104.95
X138.913Y-79.148
X138.913Y-80.168
X138.913Y-81.282
X139.522Y-75.921
X140.106Y-79.148
X140.106Y-80.164
X140.106Y-81.282
X140.208Y-89.814
X140.487Y-85.903
X141.039Y-91.897
X141.453Y-95.656
X141.475Y-104.525
X141.605Y-71.12
X141.808Y-90.348
X142.011Y-96.215
X142.24Y-86.36
X142.24Y-98.12
X142.24Y-111.76
X142.265Y-98.958
X142.494Y-91.415
X142.723Y-100.254
X143.129Y-79.502
X143.51Y-121.285
X143.561Y-77.241
X143.586Y-83.414
X143.75Y-91.725
X144.018Y-80.162
X144.551Y-83.134
X144.78Y-71.12
X144.78Y-116.84
X144.913Y-68.017
X145.085Y-98.323
X145.085Y-100.33
X145.161Y-96.088
X145.72Y-86.233
X146.685Y-119.38
X147.117Y-100.482
X147.13Y-98.302
X147.244Y-96.139
X147.32Y-106.68
X147.35Y-81.9
X148.539Y-72.542
X148.59Y-71.12
X148.895Y-92.735
X148.946Y-84.557
X149.377Y-98.374
X149.377Y-100.381
X149.454Y-96.063
X149.86Y-111.76
X149.86Y-121.285
X149.987Y-83.845
X150.375Y-108.25
X151.9Y-68.017
X152.044Y-96.545
X152.248Y-107.899
X152.298Y-98.069
X152.4Y-71.12
X152.857Y-117.272
X152.933Y-96.139
X153.099Y-94.221
X153.137Y-93.294
X153.345Y-100.228
X154.0Y-91.796
X154.026Y-95.987
X154.305Y-121.285
X154.94Y-111.76
X155.32Y-103.38
X155.55Y-98.908
X156.21Y-107.645
X156.261Y-99.67
X157.48Y-91.4
X157.48Y-119.38
X158.2Y-86.4
X158.699Y-103.53
X159.385Y-121.285
X159.425Y-78.175
X159.969Y-103.581
X160.02Y-71.12
X160.02Y-116.84
X160.8Y-89.55
X161.442Y-103.581
X161.59Y-109.057
X162.56Y-76.2
X163.373Y-97.18
X163.373Y-100.635
X164.15Y-108.5
X165.075Y-89.825
X165.15Y-105.05
X165.735Y-121.285
X165.75Y-76.0
X165.775Y-79.025
X166.624Y-102.006
X167.64Y-96.52
X167.64Y-106.68
X168.275Y-71.12
X170.18Y-76.2
X172.136Y-95.682
X172.5Y-112.375
X172.72Y-106.68
X173.8Y-92.975
X173.99Y-121.285
X174.1Y-94.25
X175.25Y-92.6
X175.26Y-71.12
X176.35Y-82.475
X176.588Y-83.712
X176.606Y-74.473
X177.375Y-94.25
X177.8Y-111.76
X177.8Y-119.38
X178.2Y-92.575
X180.188Y-100.686
X180.34Y-91.44
X180.34Y-96.52
X180.34Y-106.68
X180.34Y-116.84
X182.88Y-101.6
X183.515Y-114.3
X186.055Y-106.045
T4
X121.05Y-81.425
X121.05Y-83.425
X121.05Y-85.425
X121.05Y-87.425
T5
X161.59Y-111.71
X164.13Y-111.71
X166.67Y-111.71
X169.21Y-111.71
T6
X169.49Y-101.685
X169.49Y-104.225
T3
G00X142.1Y-116.16
M15
G01X142.1Y-115.06
M16
G05
G00X142.1Y-120.18
M15
G01X142.1Y-119.38
M16
G05
G00X150.74Y-116.16
M15
G01X150.74Y-115.06
M16
G05
G00X150.74Y-120.18
M15
G01X150.74Y-119.38
M16
G05
M30
