%TF.GenerationSoftware,KiCad,Pcbnew,9.0.0*%
%TF.CreationDate,2025-05-31T20:06:24-04:00*%
%TF.ProjectId,status,73746174-7573-42e6-9b69-6361645f7063,rev?*%
%TF.SameCoordinates,Original*%
%TF.FileFunction,Copper,L3,Inr*%
%TF.FilePolarity,Positive*%
%FSLAX46Y46*%
G04 Gerber Fmt 4.6, Leading zero omitted, Abs format (unit mm)*
G04 Created by KiCad (PCBNEW 9.0.0) date 2025-05-31 20:06:24*
%MOMM*%
%LPD*%
G01*
G04 APERTURE LIST*
%TA.AperFunction,ComponentPad*%
%ADD10C,1.371600*%
%TD*%
%TA.AperFunction,ComponentPad*%
%ADD11R,1.524000X1.524000*%
%TD*%
%TA.AperFunction,ComponentPad*%
%ADD12C,1.524000*%
%TD*%
%TA.AperFunction,ComponentPad*%
%ADD13O,0.900000X2.000000*%
%TD*%
%TA.AperFunction,ComponentPad*%
%ADD14O,0.900000X1.700000*%
%TD*%
%TA.AperFunction,ComponentPad*%
%ADD15R,1.700000X1.700000*%
%TD*%
%TA.AperFunction,ComponentPad*%
%ADD16O,1.700000X1.700000*%
%TD*%
%TA.AperFunction,ViaPad*%
%ADD17C,0.550000*%
%TD*%
%TA.AperFunction,ViaPad*%
%ADD18C,0.400000*%
%TD*%
G04 APERTURE END LIST*
D10*
%TO.N,/SDA*%
%TO.C,J2*%
X161590000Y-111710500D03*
%TO.N,/SCL*%
X164130000Y-111710500D03*
%TO.N,+3.3V*%
X166670000Y-111710500D03*
%TO.N,GND*%
X169210000Y-111710500D03*
%TD*%
D11*
%TO.N,/SWCLK*%
%TO.C,J3*%
X121050000Y-87425000D03*
D12*
%TO.N,/SWD*%
X121050000Y-85425000D03*
%TO.N,+3.3V*%
X121050000Y-83425000D03*
%TO.N,GND*%
X121050000Y-81425000D03*
%TD*%
D13*
%TO.N,GND*%
%TO.C,J6*%
X142100000Y-115610000D03*
D14*
X142100000Y-119780000D03*
D13*
X150740000Y-115610000D03*
D14*
X150740000Y-119780000D03*
%TD*%
D15*
%TO.N,/~{USB_BOOT_S}*%
%TO.C,J7*%
X169490000Y-104225000D03*
D16*
%TO.N,GND*%
X169490000Y-101685000D03*
%TD*%
D17*
%TO.N,+1V1*%
X143750000Y-91725000D03*
X141475000Y-104525000D03*
X150375000Y-108250000D03*
%TO.N,/CS_SD*%
X145719800Y-86233000D03*
X176350000Y-82475000D03*
%TO.N,GND*%
X154305000Y-121285000D03*
X149860000Y-121285000D03*
X167640000Y-106680000D03*
X159385000Y-121285000D03*
X149860000Y-111760000D03*
X140106400Y-81281600D03*
X147243800Y-96139000D03*
X143510000Y-121285000D03*
X177800000Y-111760000D03*
X115620800Y-82016600D03*
X152857200Y-117271800D03*
X163372800Y-100634800D03*
X138912600Y-81281600D03*
X173990000Y-121285000D03*
X152298400Y-98069400D03*
X176809400Y-98399600D03*
X177800000Y-119380000D03*
X134620000Y-76200000D03*
X176606200Y-74472800D03*
X145161000Y-96088200D03*
X123175000Y-118275000D03*
X180187600Y-100685600D03*
X152247600Y-107899200D03*
X154127200Y-78994000D03*
X127965200Y-90373200D03*
X142240000Y-111760000D03*
X172500000Y-112375000D03*
X148183600Y-86487000D03*
X149377400Y-98374200D03*
X145084800Y-98323400D03*
X138912600Y-80168500D03*
X124460000Y-96520000D03*
X124460000Y-86360000D03*
X119380000Y-91440000D03*
X175260000Y-71120000D03*
X165075000Y-89825000D03*
X119380000Y-106680000D03*
X151460200Y-93395800D03*
X129540000Y-71120000D03*
X116840000Y-96520000D03*
X124950000Y-107400000D03*
X108991400Y-102793800D03*
X137718800Y-80214800D03*
X173863000Y-111963200D03*
X137625000Y-107525000D03*
X127000000Y-76200000D03*
X131572000Y-88925400D03*
X160020000Y-116840000D03*
X138725000Y-104950000D03*
X134924800Y-95224600D03*
X132825000Y-79825000D03*
X147116800Y-100482400D03*
X160825000Y-81225000D03*
X150672800Y-90855800D03*
X147320000Y-106680000D03*
X134620000Y-101600000D03*
X106680000Y-106680000D03*
X180340000Y-96520000D03*
X129540000Y-96520000D03*
X159425000Y-78175000D03*
X165150000Y-105050000D03*
X163372800Y-97180400D03*
X147130000Y-98302500D03*
X137160000Y-71120000D03*
X165912800Y-116560600D03*
X111760000Y-116840000D03*
X156743400Y-83083400D03*
X166624000Y-102006400D03*
X117475000Y-121285000D03*
X133400000Y-120250000D03*
X135229600Y-88646000D03*
X146685000Y-119380000D03*
X136779000Y-117246400D03*
X183515000Y-114300000D03*
X154025600Y-95986600D03*
X137160000Y-86360000D03*
X114300000Y-111760000D03*
X180340000Y-91440000D03*
X157480000Y-119380000D03*
X186055000Y-106045000D03*
X173800000Y-92975000D03*
X114300000Y-86360000D03*
X161442400Y-103581200D03*
X138912600Y-79148000D03*
X124460000Y-111760000D03*
X141605000Y-71120000D03*
X132080000Y-106680000D03*
X143560800Y-77241400D03*
X157480000Y-91400000D03*
X160020000Y-71120000D03*
X158200000Y-86400000D03*
X165775000Y-79025000D03*
X137236200Y-120954800D03*
X159969200Y-103581200D03*
X123825000Y-71120000D03*
X180340000Y-116840000D03*
X114300000Y-101600000D03*
X142240000Y-86360000D03*
X182880000Y-101600000D03*
X172720000Y-106680000D03*
X140106400Y-80164000D03*
X168275000Y-71120000D03*
X142722600Y-100253800D03*
X158699200Y-103530400D03*
X125200000Y-81350000D03*
X160800000Y-89550000D03*
X125755400Y-99745800D03*
X144780000Y-116840000D03*
X152400000Y-71120000D03*
X143700000Y-87925000D03*
X148894800Y-92735400D03*
X111760000Y-106680000D03*
X165735000Y-121285000D03*
X134518400Y-79908400D03*
X145084800Y-100330000D03*
X144780000Y-71120000D03*
X129540000Y-86360000D03*
X149453600Y-96062800D03*
X132080000Y-111760000D03*
X111760000Y-96520000D03*
X142595600Y-74472800D03*
X137718800Y-81281600D03*
X154940000Y-111760000D03*
X162560000Y-76200000D03*
X149377400Y-100380800D03*
X130575000Y-114675000D03*
X162900000Y-87075000D03*
X170180000Y-76200000D03*
X140106400Y-79148000D03*
X180340000Y-106680000D03*
X119380000Y-116840000D03*
X165750000Y-76000000D03*
X167640000Y-96520000D03*
X172135800Y-95681800D03*
X111760000Y-91440000D03*
X157327600Y-74701400D03*
X137718800Y-79148000D03*
X118110000Y-71120000D03*
X164287200Y-73736200D03*
X147350000Y-81900000D03*
X148590000Y-71120000D03*
X119380000Y-76200000D03*
X136775000Y-104925000D03*
X177175000Y-102725000D03*
X156850000Y-77325000D03*
X174250000Y-117550000D03*
X132025000Y-95200000D03*
X123175000Y-92375000D03*
X146925000Y-75250000D03*
X121175000Y-104025000D03*
X132525000Y-74025000D03*
X123150000Y-77000000D03*
X157600000Y-112050000D03*
%TO.N,/MOSI*%
X156260800Y-99669600D03*
X176587500Y-83712500D03*
%TO.N,/MISO*%
X153136600Y-93294200D03*
X175250000Y-92600000D03*
X155549600Y-98907600D03*
X178200000Y-92575000D03*
D18*
X178275000Y-87700000D03*
D17*
X148945600Y-84556600D03*
%TO.N,/SCK*%
X149987000Y-83845400D03*
X143586200Y-83413600D03*
D18*
X177525000Y-85600000D03*
D17*
X140487400Y-85902800D03*
X174100000Y-94250000D03*
X177375000Y-94250000D03*
%TO.N,/SWCLK*%
X142494000Y-91414600D03*
X134569200Y-92862400D03*
%TO.N,/STBY*%
X134645400Y-77876400D03*
X153345000Y-100228400D03*
%TO.N,+3.3V*%
X144913000Y-68017000D03*
X147825000Y-102850000D03*
X143510000Y-102844600D03*
%TO.N,/TX*%
X144018000Y-80162400D03*
X134620000Y-78867000D03*
%TO.N,/RESET*%
X153098500Y-94221300D03*
X154000200Y-91795600D03*
%TO.N,+5V*%
X148539200Y-72542400D03*
X151900000Y-68017000D03*
X134210800Y-80820000D03*
%TO.N,/RX*%
X139522200Y-75920600D03*
X143129000Y-79502000D03*
%TO.N,/CS*%
X144551400Y-83134200D03*
X140208000Y-89814400D03*
%TO.N,/SCL*%
X164150000Y-108500000D03*
X152933400Y-96139000D03*
%TO.N,/SDA*%
X161590000Y-109056800D03*
X152044400Y-96545400D03*
%TO.N,/~{USB_BOOT_S}*%
X156210000Y-107645200D03*
X155320000Y-103380000D03*
%TO.N,/SWD*%
X134575000Y-91600000D03*
X141808200Y-90347800D03*
%TO.N,/Push_Left*%
X131175850Y-99085400D03*
X141452600Y-95656400D03*
%TO.N,/Push_Down*%
X142240000Y-98120200D03*
X132562600Y-99110800D03*
%TO.N,/Push_Right*%
X142265400Y-98958400D03*
X133223000Y-99110800D03*
%TO.N,/Push_Up*%
X142011400Y-96215200D03*
X131876800Y-99085400D03*
%TO.N,/RUN*%
X130479800Y-99060000D03*
X141039400Y-91897200D03*
%TD*%
%TA.AperFunction,Conductor*%
%TO.N,GND*%
G36*
X146854206Y-61008780D02*
G01*
X146874848Y-61025414D01*
X147126181Y-61276747D01*
X147159666Y-61338070D01*
X147162500Y-61364428D01*
X147162500Y-68091000D01*
X147162500Y-68138595D01*
X147162500Y-68242214D01*
X147168516Y-68278265D01*
X147196610Y-68446629D01*
X147263898Y-68642632D01*
X147263900Y-68642638D01*
X147362534Y-68824897D01*
X147362537Y-68824901D01*
X147489818Y-68988431D01*
X147489821Y-68988435D01*
X147489823Y-68988437D01*
X147489824Y-68988438D01*
X147546476Y-69040590D01*
X147642296Y-69128799D01*
X147804400Y-69234706D01*
X147815788Y-69242146D01*
X148005572Y-69325393D01*
X148206469Y-69376267D01*
X148275312Y-69381971D01*
X148412994Y-69393381D01*
X148413000Y-69393381D01*
X148413006Y-69393381D01*
X148536918Y-69383112D01*
X148619531Y-69376267D01*
X148820428Y-69325393D01*
X149010212Y-69242146D01*
X149183706Y-69128797D01*
X149336176Y-68988438D01*
X149463465Y-68824898D01*
X149562100Y-68642637D01*
X149629390Y-68446627D01*
X149663500Y-68242214D01*
X149663500Y-68138595D01*
X149663500Y-68091000D01*
X149663500Y-67960982D01*
X151474500Y-67960982D01*
X151474500Y-68073018D01*
X151503497Y-68181237D01*
X151559515Y-68278263D01*
X151638737Y-68357485D01*
X151735763Y-68413503D01*
X151843982Y-68442500D01*
X151843984Y-68442500D01*
X151956016Y-68442500D01*
X151956018Y-68442500D01*
X152064237Y-68413503D01*
X152161263Y-68357485D01*
X152240485Y-68278263D01*
X152296503Y-68181237D01*
X152325500Y-68073018D01*
X152325500Y-67960982D01*
X152296503Y-67852763D01*
X152240485Y-67755737D01*
X152161263Y-67676515D01*
X152064237Y-67620497D01*
X151956018Y-67591500D01*
X151843982Y-67591500D01*
X151735763Y-67620497D01*
X151735760Y-67620498D01*
X151638740Y-67676513D01*
X151638734Y-67676517D01*
X151559517Y-67755734D01*
X151559513Y-67755740D01*
X151503498Y-67852760D01*
X151503497Y-67852763D01*
X151474500Y-67960982D01*
X149663500Y-67960982D01*
X149663500Y-61364428D01*
X149683185Y-61297389D01*
X149699819Y-61276747D01*
X149951152Y-61025414D01*
X150012475Y-60991929D01*
X150038833Y-60989095D01*
X155887167Y-60989095D01*
X155954206Y-61008780D01*
X155974848Y-61025414D01*
X156226181Y-61276747D01*
X156259666Y-61338070D01*
X156262500Y-61364428D01*
X156262500Y-68684426D01*
X156265738Y-68696511D01*
X156268715Y-68719098D01*
X156269364Y-68719035D01*
X156269962Y-68725099D01*
X156269963Y-68725102D01*
X156269963Y-68725107D01*
X156300736Y-68879756D01*
X156361085Y-69025430D01*
X156361086Y-69025432D01*
X156361087Y-69025433D01*
X156448690Y-69156532D01*
X156448694Y-69156536D01*
X156560189Y-69268026D01*
X156560192Y-69268029D01*
X156666147Y-69338825D01*
X156691298Y-69355630D01*
X156836975Y-69415973D01*
X156991625Y-69446740D01*
X157030910Y-69446741D01*
X157030916Y-69446743D01*
X157070465Y-69446743D01*
X157118059Y-69446745D01*
X157118062Y-69446743D01*
X157128038Y-69446744D01*
X157128063Y-69446743D01*
X158896073Y-69446743D01*
X158902320Y-69446744D01*
X158902496Y-69446795D01*
X158953652Y-69446758D01*
X158953652Y-69446759D01*
X158975988Y-69446743D01*
X158993202Y-69446743D01*
X159001532Y-69446743D01*
X159001792Y-69446723D01*
X159041599Y-69446696D01*
X159041606Y-69446695D01*
X159041609Y-69446695D01*
X159092774Y-69439740D01*
X159215891Y-69423008D01*
X159322886Y-69393381D01*
X159385401Y-69376071D01*
X159387276Y-69375267D01*
X159547058Y-69306735D01*
X159697904Y-69216268D01*
X159835196Y-69106316D01*
X159868500Y-69071356D01*
X159868590Y-69071302D01*
X159911730Y-69025957D01*
X159928665Y-69008157D01*
X159928665Y-69008155D01*
X159945109Y-68990873D01*
X159945112Y-68990866D01*
X163157648Y-65614121D01*
X165892060Y-65614121D01*
X165892060Y-65972790D01*
X165927215Y-66329731D01*
X165927218Y-66329748D01*
X165997185Y-66681504D01*
X165997188Y-66681515D01*
X166101309Y-67024756D01*
X166238569Y-67356130D01*
X166238571Y-67356135D01*
X166407639Y-67672439D01*
X166407656Y-67672467D01*
X166606902Y-67970661D01*
X166606919Y-67970684D01*
X166834460Y-68247943D01*
X167088072Y-68501555D01*
X167088077Y-68501559D01*
X167088078Y-68501560D01*
X167365337Y-68729101D01*
X167365344Y-68729106D01*
X167365354Y-68729113D01*
X167663548Y-68928359D01*
X167663553Y-68928362D01*
X167663565Y-68928370D01*
X167663574Y-68928374D01*
X167663576Y-68928376D01*
X167979880Y-69097444D01*
X167979882Y-69097444D01*
X167979888Y-69097448D01*
X168311261Y-69234707D01*
X168654491Y-69338825D01*
X168654497Y-69338826D01*
X168654500Y-69338827D01*
X168654511Y-69338830D01*
X168875092Y-69382705D01*
X169006274Y-69408799D01*
X169363222Y-69443956D01*
X169363225Y-69443956D01*
X169721895Y-69443956D01*
X169721898Y-69443956D01*
X170078846Y-69408799D01*
X170252969Y-69374163D01*
X170430608Y-69338830D01*
X170430619Y-69338827D01*
X170430619Y-69338826D01*
X170430629Y-69338825D01*
X170773859Y-69234707D01*
X171105232Y-69097448D01*
X171421555Y-68928370D01*
X171719783Y-68729101D01*
X171997042Y-68501560D01*
X172250664Y-68247938D01*
X172478205Y-67970679D01*
X172677474Y-67672451D01*
X172846552Y-67356128D01*
X172983811Y-67024755D01*
X173087929Y-66681525D01*
X173087931Y-66681515D01*
X173087934Y-66681504D01*
X173123267Y-66503865D01*
X173157903Y-66329742D01*
X173193060Y-65972794D01*
X173193060Y-65614118D01*
X173157903Y-65257170D01*
X173131809Y-65125988D01*
X173087934Y-64905407D01*
X173087931Y-64905396D01*
X173087930Y-64905393D01*
X173087929Y-64905387D01*
X172983811Y-64562157D01*
X172846552Y-64230784D01*
X172806651Y-64156135D01*
X172677480Y-63914472D01*
X172677478Y-63914470D01*
X172677474Y-63914461D01*
X172575224Y-63761432D01*
X172478217Y-63616250D01*
X172478210Y-63616240D01*
X172478205Y-63616233D01*
X172250664Y-63338974D01*
X172250663Y-63338973D01*
X172250659Y-63338968D01*
X171997047Y-63085356D01*
X171719788Y-62857815D01*
X171719765Y-62857798D01*
X171421571Y-62658552D01*
X171421543Y-62658535D01*
X171105239Y-62489467D01*
X171105234Y-62489465D01*
X170773860Y-62352205D01*
X170430619Y-62248084D01*
X170430608Y-62248081D01*
X170078852Y-62178114D01*
X170078835Y-62178111D01*
X169808911Y-62151526D01*
X169721898Y-62142956D01*
X169363222Y-62142956D01*
X169282747Y-62150882D01*
X169006284Y-62178111D01*
X169006267Y-62178114D01*
X168654511Y-62248081D01*
X168654500Y-62248084D01*
X168311259Y-62352205D01*
X167979885Y-62489465D01*
X167979880Y-62489467D01*
X167663576Y-62658535D01*
X167663548Y-62658552D01*
X167365354Y-62857798D01*
X167365331Y-62857815D01*
X167088072Y-63085356D01*
X166834460Y-63338968D01*
X166606919Y-63616227D01*
X166606902Y-63616250D01*
X166407656Y-63914444D01*
X166407639Y-63914472D01*
X166238571Y-64230776D01*
X166238569Y-64230781D01*
X166101309Y-64562155D01*
X165997188Y-64905396D01*
X165997185Y-64905407D01*
X165927218Y-65257163D01*
X165927215Y-65257180D01*
X165892060Y-65614121D01*
X163157648Y-65614121D01*
X166068726Y-62554243D01*
X166068729Y-62554242D01*
X166099719Y-62521666D01*
X166103450Y-62517911D01*
X166393599Y-62238222D01*
X166401585Y-62231164D01*
X166712758Y-61979282D01*
X166721331Y-61972937D01*
X167053097Y-61748914D01*
X167062216Y-61743316D01*
X167412074Y-61548833D01*
X167421649Y-61544040D01*
X167787022Y-61380528D01*
X167796982Y-61376579D01*
X168175124Y-61245269D01*
X168185366Y-61242202D01*
X168573456Y-61144071D01*
X168583915Y-61141903D01*
X168979032Y-61077695D01*
X168989655Y-61076436D01*
X169388853Y-61046627D01*
X169399549Y-61046293D01*
X169799801Y-61051108D01*
X169810500Y-61051700D01*
X170208833Y-61091101D01*
X170219446Y-61092617D01*
X170612889Y-61166309D01*
X170623316Y-61168733D01*
X171008932Y-61276171D01*
X171019094Y-61279482D01*
X171175559Y-61338070D01*
X171393957Y-61419848D01*
X171403834Y-61424042D01*
X171765143Y-61596285D01*
X171774620Y-61601317D01*
X172119687Y-61804152D01*
X172128694Y-61809985D01*
X172454941Y-62041900D01*
X172463394Y-62048478D01*
X172698207Y-62248087D01*
X172768368Y-62307729D01*
X172776231Y-62315022D01*
X172812992Y-62352205D01*
X173057649Y-62599670D01*
X173064856Y-62607621D01*
X173320596Y-62915516D01*
X173327089Y-62924059D01*
X173555262Y-63252924D01*
X173560992Y-63261997D01*
X173759881Y-63609363D01*
X173764804Y-63618897D01*
X173932672Y-63981630D01*
X173932910Y-63982143D01*
X173936990Y-63992064D01*
X174054941Y-64318355D01*
X174073616Y-64370014D01*
X174075291Y-64374973D01*
X174089075Y-64418973D01*
X174089146Y-64419073D01*
X174092074Y-64428393D01*
X174092074Y-64428414D01*
X174092103Y-64428486D01*
X187928437Y-108593789D01*
X187928565Y-108594345D01*
X187944808Y-108646191D01*
X187946273Y-108651241D01*
X188048229Y-109032673D01*
X188050511Y-109042937D01*
X188119325Y-109429041D01*
X188120730Y-109439461D01*
X188156590Y-109830029D01*
X188157106Y-109840530D01*
X188159749Y-110232712D01*
X188159374Y-110243220D01*
X188128783Y-110634223D01*
X188127521Y-110644646D01*
X188063912Y-111031678D01*
X188061773Y-111041952D01*
X187965609Y-111422184D01*
X187962601Y-111432259D01*
X187834577Y-111802963D01*
X187830727Y-111812747D01*
X187671749Y-112171294D01*
X187667083Y-112180716D01*
X187478315Y-112524483D01*
X187472868Y-112533477D01*
X187255647Y-112860030D01*
X187249458Y-112868529D01*
X187005359Y-113175499D01*
X186998472Y-113183444D01*
X186729244Y-113468632D01*
X186721709Y-113475965D01*
X186427445Y-113738968D01*
X186423470Y-113742372D01*
X186419658Y-113745500D01*
X186419639Y-113745515D01*
X186388554Y-113771012D01*
X186388554Y-113771013D01*
X178460767Y-120273569D01*
X177560456Y-121012025D01*
X177560454Y-121012026D01*
X177525721Y-121040514D01*
X177521536Y-121043799D01*
X177201876Y-121283804D01*
X177193097Y-121289824D01*
X176856302Y-121500112D01*
X176847039Y-121505357D01*
X176493448Y-121685985D01*
X176483770Y-121690416D01*
X176115992Y-121840053D01*
X176105969Y-121843638D01*
X175726712Y-121961182D01*
X175716419Y-121963894D01*
X175328474Y-122048479D01*
X175317986Y-122050298D01*
X174924222Y-122101299D01*
X174913617Y-122102212D01*
X174527520Y-122118800D01*
X174514443Y-122119362D01*
X174509122Y-122119476D01*
X118371621Y-122119476D01*
X118361625Y-122119475D01*
X118361623Y-122119475D01*
X118340764Y-122119475D01*
X118316692Y-122119475D01*
X118316691Y-122119474D01*
X118311373Y-122119361D01*
X117912017Y-122102207D01*
X117901411Y-122101294D01*
X117507649Y-122050296D01*
X117497162Y-122048477D01*
X117109219Y-121963896D01*
X117098925Y-121961184D01*
X116719669Y-121843644D01*
X116709646Y-121840059D01*
X116341878Y-121690429D01*
X116332200Y-121685999D01*
X115978600Y-121505370D01*
X115969337Y-121500125D01*
X115632542Y-121289842D01*
X115623763Y-121283822D01*
X115304666Y-121044245D01*
X115300478Y-121040958D01*
X114122208Y-120074513D01*
X113270858Y-119376216D01*
X113161390Y-119286428D01*
X141150000Y-119286428D01*
X141150000Y-119530000D01*
X141800000Y-119530000D01*
X141800000Y-120030000D01*
X141150000Y-120030000D01*
X141150000Y-120273571D01*
X141186506Y-120457097D01*
X141186508Y-120457105D01*
X141258119Y-120629991D01*
X141258124Y-120630000D01*
X141362086Y-120785589D01*
X141362089Y-120785593D01*
X141494406Y-120917910D01*
X141494410Y-120917913D01*
X141649999Y-121021875D01*
X141650012Y-121021882D01*
X141822889Y-121093489D01*
X141822896Y-121093491D01*
X141850000Y-121098882D01*
X141850000Y-120346988D01*
X141859940Y-120364205D01*
X141915795Y-120420060D01*
X141984204Y-120459556D01*
X142060504Y-120480000D01*
X142139496Y-120480000D01*
X142215796Y-120459556D01*
X142284205Y-120420060D01*
X142340060Y-120364205D01*
X142350000Y-120346988D01*
X142350000Y-121098881D01*
X142377103Y-121093491D01*
X142377110Y-121093489D01*
X142549987Y-121021882D01*
X142550000Y-121021875D01*
X142705589Y-120917913D01*
X142705593Y-120917910D01*
X142837910Y-120785593D01*
X142837913Y-120785589D01*
X142941875Y-120630000D01*
X142941880Y-120629991D01*
X143013491Y-120457105D01*
X143013493Y-120457097D01*
X143049999Y-120273571D01*
X143050000Y-120273569D01*
X143050000Y-120030000D01*
X142400000Y-120030000D01*
X142400000Y-119530000D01*
X143050000Y-119530000D01*
X143050000Y-119286430D01*
X143049999Y-119286428D01*
X149790000Y-119286428D01*
X149790000Y-119530000D01*
X150440000Y-119530000D01*
X150440000Y-120030000D01*
X149790000Y-120030000D01*
X149790000Y-120273571D01*
X149826506Y-120457097D01*
X149826508Y-120457105D01*
X149898119Y-120629991D01*
X149898124Y-120630000D01*
X150002086Y-120785589D01*
X150002089Y-120785593D01*
X150134406Y-120917910D01*
X150134410Y-120917913D01*
X150289999Y-121021875D01*
X150290012Y-121021882D01*
X150462889Y-121093489D01*
X150462896Y-121093491D01*
X150490000Y-121098882D01*
X150490000Y-120346988D01*
X150499940Y-120364205D01*
X150555795Y-120420060D01*
X150624204Y-120459556D01*
X150700504Y-120480000D01*
X150779496Y-120480000D01*
X150855796Y-120459556D01*
X150924205Y-120420060D01*
X150980060Y-120364205D01*
X150990000Y-120346988D01*
X150990000Y-121098881D01*
X151017103Y-121093491D01*
X151017110Y-121093489D01*
X151189987Y-121021882D01*
X151190000Y-121021875D01*
X151345589Y-120917913D01*
X151345593Y-120917910D01*
X151477910Y-120785593D01*
X151477913Y-120785589D01*
X151581875Y-120630000D01*
X151581880Y-120629991D01*
X151653491Y-120457105D01*
X151653493Y-120457097D01*
X151689999Y-120273571D01*
X151690000Y-120273569D01*
X151690000Y-120030000D01*
X151040000Y-120030000D01*
X151040000Y-119530000D01*
X151690000Y-119530000D01*
X151690000Y-119286430D01*
X151689999Y-119286428D01*
X151653493Y-119102902D01*
X151653491Y-119102894D01*
X151581880Y-118930008D01*
X151581875Y-118929999D01*
X151477913Y-118774410D01*
X151477910Y-118774406D01*
X151345593Y-118642089D01*
X151345589Y-118642086D01*
X151190000Y-118538124D01*
X151189991Y-118538119D01*
X151017103Y-118466507D01*
X151017100Y-118466506D01*
X150990000Y-118461115D01*
X150990000Y-119213011D01*
X150980060Y-119195795D01*
X150924205Y-119139940D01*
X150855796Y-119100444D01*
X150779496Y-119080000D01*
X150700504Y-119080000D01*
X150624204Y-119100444D01*
X150555795Y-119139940D01*
X150499940Y-119195795D01*
X150490000Y-119213011D01*
X150490000Y-118461116D01*
X150489999Y-118461115D01*
X150462899Y-118466506D01*
X150462896Y-118466507D01*
X150290008Y-118538119D01*
X150289999Y-118538124D01*
X150134410Y-118642086D01*
X150134406Y-118642089D01*
X150002089Y-118774406D01*
X150002086Y-118774410D01*
X149898124Y-118929999D01*
X149898119Y-118930008D01*
X149826508Y-119102894D01*
X149826506Y-119102902D01*
X149790000Y-119286428D01*
X143049999Y-119286428D01*
X143013493Y-119102902D01*
X143013491Y-119102894D01*
X142941880Y-118930008D01*
X142941875Y-118929999D01*
X142837913Y-118774410D01*
X142837910Y-118774406D01*
X142705593Y-118642089D01*
X142705589Y-118642086D01*
X142550000Y-118538124D01*
X142549991Y-118538119D01*
X142377103Y-118466507D01*
X142377100Y-118466506D01*
X142350000Y-118461115D01*
X142350000Y-119213011D01*
X142340060Y-119195795D01*
X142284205Y-119139940D01*
X142215796Y-119100444D01*
X142139496Y-119080000D01*
X142060504Y-119080000D01*
X141984204Y-119100444D01*
X141915795Y-119139940D01*
X141859940Y-119195795D01*
X141850000Y-119213011D01*
X141850000Y-118461116D01*
X141849999Y-118461115D01*
X141822899Y-118466506D01*
X141822896Y-118466507D01*
X141650008Y-118538119D01*
X141649999Y-118538124D01*
X141494410Y-118642086D01*
X141494406Y-118642089D01*
X141362089Y-118774406D01*
X141362086Y-118774410D01*
X141258124Y-118929999D01*
X141258119Y-118930008D01*
X141186508Y-119102894D01*
X141186506Y-119102902D01*
X141150000Y-119286428D01*
X113161390Y-119286428D01*
X109038226Y-115904513D01*
X108003999Y-115056216D01*
X107894531Y-114966428D01*
X141150000Y-114966428D01*
X141150000Y-115360000D01*
X141800000Y-115360000D01*
X141800000Y-115860000D01*
X141150000Y-115860000D01*
X141150000Y-116253571D01*
X141186506Y-116437097D01*
X141186508Y-116437105D01*
X141258119Y-116609991D01*
X141258124Y-116610000D01*
X141362086Y-116765589D01*
X141362089Y-116765593D01*
X141494406Y-116897910D01*
X141494410Y-116897913D01*
X141649999Y-117001875D01*
X141650012Y-117001882D01*
X141822889Y-117073489D01*
X141822896Y-117073491D01*
X141850000Y-117078882D01*
X141850000Y-116326988D01*
X141859940Y-116344205D01*
X141915795Y-116400060D01*
X141984204Y-116439556D01*
X142060504Y-116460000D01*
X142139496Y-116460000D01*
X142215796Y-116439556D01*
X142284205Y-116400060D01*
X142340060Y-116344205D01*
X142350000Y-116326988D01*
X142350000Y-117078881D01*
X142377103Y-117073491D01*
X142377110Y-117073489D01*
X142549987Y-117001882D01*
X142550000Y-117001875D01*
X142705589Y-116897913D01*
X142705593Y-116897910D01*
X142837910Y-116765593D01*
X142837913Y-116765589D01*
X142941875Y-116610000D01*
X142941880Y-116609991D01*
X143013491Y-116437105D01*
X143013493Y-116437100D01*
X143017544Y-116416731D01*
X143049926Y-116354818D01*
X143110640Y-116320242D01*
X143180410Y-116323979D01*
X143226843Y-116353236D01*
X143284087Y-116410480D01*
X143375413Y-116463207D01*
X143477273Y-116490500D01*
X143477275Y-116490500D01*
X143582725Y-116490500D01*
X143582727Y-116490500D01*
X143684587Y-116463207D01*
X143775913Y-116410480D01*
X143850480Y-116335913D01*
X143903207Y-116244587D01*
X143930500Y-116142727D01*
X143930500Y-116037273D01*
X148909500Y-116037273D01*
X148909500Y-116142727D01*
X148936793Y-116244587D01*
X148989520Y-116335913D01*
X149064087Y-116410480D01*
X149155413Y-116463207D01*
X149257273Y-116490500D01*
X149257275Y-116490500D01*
X149362725Y-116490500D01*
X149362727Y-116490500D01*
X149464587Y-116463207D01*
X149555913Y-116410480D01*
X149613159Y-116353233D01*
X149674478Y-116319751D01*
X149744170Y-116324735D01*
X149800104Y-116366606D01*
X149822454Y-116416726D01*
X149826506Y-116437098D01*
X149826508Y-116437105D01*
X149898119Y-116609991D01*
X149898124Y-116610000D01*
X150002086Y-116765589D01*
X150002089Y-116765593D01*
X150134406Y-116897910D01*
X150134410Y-116897913D01*
X150289999Y-117001875D01*
X150290012Y-117001882D01*
X150462889Y-117073489D01*
X150462896Y-117073491D01*
X150490000Y-117078882D01*
X150490000Y-116326988D01*
X150499940Y-116344205D01*
X150555795Y-116400060D01*
X150624204Y-116439556D01*
X150700504Y-116460000D01*
X150779496Y-116460000D01*
X150855796Y-116439556D01*
X150924205Y-116400060D01*
X150980060Y-116344205D01*
X150990000Y-116326988D01*
X150990000Y-117078881D01*
X151017103Y-117073491D01*
X151017110Y-117073489D01*
X151189987Y-117001882D01*
X151190000Y-117001875D01*
X151345589Y-116897913D01*
X151345593Y-116897910D01*
X151477910Y-116765593D01*
X151477913Y-116765589D01*
X151581875Y-116610000D01*
X151581880Y-116609991D01*
X151653491Y-116437105D01*
X151653493Y-116437097D01*
X151689999Y-116253571D01*
X151690000Y-116253569D01*
X151690000Y-115860000D01*
X151040000Y-115860000D01*
X151040000Y-115360000D01*
X151690000Y-115360000D01*
X151690000Y-114966430D01*
X151689999Y-114966428D01*
X151653493Y-114782902D01*
X151653491Y-114782894D01*
X151581880Y-114610008D01*
X151581875Y-114609999D01*
X151477913Y-114454410D01*
X151477910Y-114454406D01*
X151345593Y-114322089D01*
X151345589Y-114322086D01*
X151190000Y-114218124D01*
X151189991Y-114218119D01*
X151017103Y-114146507D01*
X151017100Y-114146506D01*
X150990000Y-114141115D01*
X150990000Y-114893011D01*
X150980060Y-114875795D01*
X150924205Y-114819940D01*
X150855796Y-114780444D01*
X150779496Y-114760000D01*
X150700504Y-114760000D01*
X150624204Y-114780444D01*
X150555795Y-114819940D01*
X150499940Y-114875795D01*
X150490000Y-114893011D01*
X150490000Y-114141116D01*
X150489999Y-114141115D01*
X150462899Y-114146506D01*
X150462896Y-114146507D01*
X150290008Y-114218119D01*
X150289999Y-114218124D01*
X150134410Y-114322086D01*
X150134406Y-114322089D01*
X150002089Y-114454406D01*
X150002086Y-114454410D01*
X149898124Y-114609999D01*
X149898119Y-114610008D01*
X149826508Y-114782894D01*
X149826506Y-114782902D01*
X149790000Y-114966428D01*
X149790000Y-115360000D01*
X150440000Y-115360000D01*
X150440000Y-115860000D01*
X149776799Y-115860000D01*
X149744551Y-115877608D01*
X149674860Y-115872622D01*
X149630515Y-115844122D01*
X149555914Y-115769521D01*
X149555913Y-115769520D01*
X149464587Y-115716793D01*
X149362727Y-115689500D01*
X149257273Y-115689500D01*
X149155413Y-115716793D01*
X149155410Y-115716794D01*
X149064085Y-115769521D01*
X148989521Y-115844085D01*
X148936794Y-115935410D01*
X148936793Y-115935413D01*
X148909500Y-116037273D01*
X143930500Y-116037273D01*
X143903207Y-115935413D01*
X143850480Y-115844087D01*
X143775913Y-115769520D01*
X143684587Y-115716793D01*
X143582727Y-115689500D01*
X143477273Y-115689500D01*
X143375413Y-115716793D01*
X143375410Y-115716794D01*
X143284087Y-115769520D01*
X143209484Y-115844123D01*
X143148160Y-115877607D01*
X143078469Y-115872622D01*
X143058829Y-115860000D01*
X142400000Y-115860000D01*
X142400000Y-115360000D01*
X143050000Y-115360000D01*
X143050000Y-114966430D01*
X143049999Y-114966428D01*
X143013493Y-114782902D01*
X143013491Y-114782894D01*
X142941880Y-114610008D01*
X142941875Y-114609999D01*
X142837913Y-114454410D01*
X142837910Y-114454406D01*
X142705593Y-114322089D01*
X142705589Y-114322086D01*
X142550000Y-114218124D01*
X142549991Y-114218119D01*
X142377103Y-114146507D01*
X142377100Y-114146506D01*
X142350000Y-114141115D01*
X142350000Y-114893011D01*
X142340060Y-114875795D01*
X142284205Y-114819940D01*
X142215796Y-114780444D01*
X142139496Y-114760000D01*
X142060504Y-114760000D01*
X141984204Y-114780444D01*
X141915795Y-114819940D01*
X141859940Y-114875795D01*
X141850000Y-114893011D01*
X141850000Y-114141116D01*
X141849999Y-114141115D01*
X141822899Y-114146506D01*
X141822896Y-114146507D01*
X141650008Y-114218119D01*
X141649999Y-114218124D01*
X141494410Y-114322086D01*
X141494406Y-114322089D01*
X141362089Y-114454406D01*
X141362086Y-114454410D01*
X141258124Y-114609999D01*
X141258119Y-114610008D01*
X141186508Y-114782894D01*
X141186506Y-114782902D01*
X141150000Y-114966428D01*
X107894531Y-114966428D01*
X107066248Y-114287051D01*
X106447248Y-113779332D01*
X106437103Y-113771011D01*
X106430147Y-113765305D01*
X106402396Y-113742543D01*
X106398413Y-113739133D01*
X106104778Y-113476754D01*
X106097262Y-113469444D01*
X105828665Y-113185126D01*
X105821793Y-113177206D01*
X105777823Y-113121978D01*
X105679845Y-112998912D01*
X105578184Y-112871221D01*
X105572006Y-112862750D01*
X105509566Y-112769050D01*
X105355102Y-112537257D01*
X105349672Y-112528310D01*
X105161053Y-112185674D01*
X105156389Y-112176284D01*
X105125402Y-112106642D01*
X104997375Y-111818905D01*
X104993539Y-111809196D01*
X104865292Y-111439680D01*
X104862277Y-111429640D01*
X104832907Y-111314366D01*
X104765706Y-111050610D01*
X104763557Y-111040387D01*
X104699348Y-110654530D01*
X104698070Y-110644157D01*
X104666689Y-110254277D01*
X104666291Y-110243809D01*
X104666316Y-110237974D01*
X104667804Y-109889257D01*
X105761855Y-109889257D01*
X105761855Y-109897608D01*
X105761855Y-110247933D01*
X105762481Y-110254286D01*
X105797010Y-110604870D01*
X105797013Y-110604887D01*
X105866980Y-110956643D01*
X105866983Y-110956654D01*
X105971104Y-111299895D01*
X106040139Y-111466559D01*
X106107064Y-111628132D01*
X106108364Y-111631269D01*
X106108366Y-111631274D01*
X106277434Y-111947578D01*
X106277451Y-111947606D01*
X106476697Y-112245800D01*
X106476714Y-112245823D01*
X106704255Y-112523082D01*
X106957867Y-112776694D01*
X106957872Y-112776698D01*
X106957873Y-112776699D01*
X107235132Y-113004240D01*
X107235139Y-113004245D01*
X107235149Y-113004252D01*
X107533343Y-113203498D01*
X107533348Y-113203501D01*
X107533360Y-113203509D01*
X107533369Y-113203513D01*
X107533371Y-113203515D01*
X107849675Y-113372583D01*
X107849677Y-113372583D01*
X107849683Y-113372587D01*
X108181056Y-113509846D01*
X108524286Y-113613964D01*
X108524292Y-113613965D01*
X108524295Y-113613966D01*
X108524306Y-113613969D01*
X108744887Y-113657844D01*
X108876069Y-113683938D01*
X109233017Y-113719095D01*
X109233020Y-113719095D01*
X109591690Y-113719095D01*
X109591693Y-113719095D01*
X109948641Y-113683938D01*
X110122764Y-113649302D01*
X110300403Y-113613969D01*
X110300414Y-113613966D01*
X110300414Y-113613965D01*
X110300424Y-113613964D01*
X110643654Y-113509846D01*
X110975027Y-113372587D01*
X111291350Y-113203509D01*
X111589578Y-113004240D01*
X111866837Y-112776699D01*
X112120459Y-112523077D01*
X112348000Y-112245818D01*
X112547269Y-111947590D01*
X112629968Y-111792870D01*
X160753699Y-111792870D01*
X160785837Y-111954434D01*
X160785839Y-111954440D01*
X160848879Y-112106633D01*
X160848884Y-112106642D01*
X160940403Y-112243609D01*
X160940406Y-112243613D01*
X161056886Y-112360093D01*
X161056890Y-112360096D01*
X161193857Y-112451615D01*
X161193863Y-112451618D01*
X161193864Y-112451619D01*
X161346060Y-112514661D01*
X161346064Y-112514661D01*
X161346065Y-112514662D01*
X161507629Y-112546800D01*
X161507632Y-112546800D01*
X161672370Y-112546800D01*
X161791630Y-112523077D01*
X161833940Y-112514661D01*
X161986136Y-112451619D01*
X162123110Y-112360096D01*
X162239596Y-112243610D01*
X162331119Y-112106636D01*
X162394161Y-111954440D01*
X162421116Y-111818931D01*
X162426300Y-111792870D01*
X163293699Y-111792870D01*
X163325837Y-111954434D01*
X163325839Y-111954440D01*
X163388879Y-112106633D01*
X163388884Y-112106642D01*
X163480403Y-112243609D01*
X163480406Y-112243613D01*
X163596886Y-112360093D01*
X163596890Y-112360096D01*
X163733857Y-112451615D01*
X163733863Y-112451618D01*
X163733864Y-112451619D01*
X163886060Y-112514661D01*
X163886064Y-112514661D01*
X163886065Y-112514662D01*
X164047629Y-112546800D01*
X164047632Y-112546800D01*
X164212370Y-112546800D01*
X164331630Y-112523077D01*
X164373940Y-112514661D01*
X164526136Y-112451619D01*
X164663110Y-112360096D01*
X164779596Y-112243610D01*
X164871119Y-112106636D01*
X164934161Y-111954440D01*
X164961116Y-111818931D01*
X164966300Y-111792870D01*
X165833699Y-111792870D01*
X165865837Y-111954434D01*
X165865839Y-111954440D01*
X165928879Y-112106633D01*
X165928884Y-112106642D01*
X166020403Y-112243609D01*
X166020406Y-112243613D01*
X166136886Y-112360093D01*
X166136890Y-112360096D01*
X166273857Y-112451615D01*
X166273863Y-112451618D01*
X166273864Y-112451619D01*
X166426060Y-112514661D01*
X166426064Y-112514661D01*
X166426065Y-112514662D01*
X166587629Y-112546800D01*
X166587632Y-112546800D01*
X166752370Y-112546800D01*
X166752371Y-112546799D01*
X166763415Y-112544602D01*
X166789869Y-112539341D01*
X166789874Y-112539340D01*
X166878507Y-112521709D01*
X166913940Y-112514661D01*
X167066136Y-112451619D01*
X167203110Y-112360096D01*
X167319596Y-112243610D01*
X167411119Y-112106636D01*
X167474161Y-111954440D01*
X167501116Y-111818931D01*
X167506300Y-111792870D01*
X167506300Y-111628132D01*
X167506299Y-111628126D01*
X167504119Y-111617169D01*
X168024200Y-111617169D01*
X168024200Y-111803830D01*
X168053397Y-111988172D01*
X168111077Y-112165691D01*
X168195811Y-112331991D01*
X168212282Y-112354662D01*
X168782721Y-111784223D01*
X168807626Y-111877169D01*
X168864474Y-111975631D01*
X168944869Y-112056026D01*
X169043331Y-112112874D01*
X169136275Y-112137778D01*
X168565835Y-112708216D01*
X168588504Y-112724686D01*
X168754808Y-112809422D01*
X168932327Y-112867102D01*
X169116670Y-112896300D01*
X169303330Y-112896300D01*
X169487672Y-112867102D01*
X169665191Y-112809422D01*
X169831496Y-112724686D01*
X169854162Y-112708217D01*
X169854162Y-112708216D01*
X169283724Y-112137777D01*
X169376669Y-112112874D01*
X169475131Y-112056026D01*
X169555526Y-111975631D01*
X169612374Y-111877169D01*
X169637278Y-111784224D01*
X170207716Y-112354662D01*
X170207717Y-112354662D01*
X170224186Y-112331996D01*
X170308922Y-112165691D01*
X170366602Y-111988172D01*
X170395800Y-111803830D01*
X170395800Y-111617169D01*
X170366602Y-111432827D01*
X170308922Y-111255308D01*
X170224186Y-111089004D01*
X170207716Y-111066336D01*
X170207716Y-111066335D01*
X169637277Y-111636774D01*
X169612374Y-111543831D01*
X169555526Y-111445369D01*
X169475131Y-111364974D01*
X169376669Y-111308126D01*
X169283724Y-111283222D01*
X169854162Y-110712782D01*
X169831491Y-110696311D01*
X169665191Y-110611577D01*
X169487672Y-110553897D01*
X169303330Y-110524700D01*
X169116670Y-110524700D01*
X168932327Y-110553897D01*
X168754808Y-110611577D01*
X168588502Y-110696314D01*
X168565836Y-110712782D01*
X168565835Y-110712782D01*
X169136275Y-111283221D01*
X169043331Y-111308126D01*
X168944869Y-111364974D01*
X168864474Y-111445369D01*
X168807626Y-111543831D01*
X168782722Y-111636775D01*
X168212282Y-111066335D01*
X168212282Y-111066336D01*
X168195814Y-111089002D01*
X168111077Y-111255308D01*
X168053397Y-111432827D01*
X168024200Y-111617169D01*
X167504119Y-111617169D01*
X167474162Y-111466565D01*
X167474161Y-111466564D01*
X167474161Y-111466560D01*
X167411119Y-111314364D01*
X167411118Y-111314363D01*
X167411115Y-111314357D01*
X167319596Y-111177390D01*
X167319593Y-111177386D01*
X167203113Y-111060906D01*
X167203109Y-111060903D01*
X167066142Y-110969384D01*
X167066133Y-110969379D01*
X166913940Y-110906339D01*
X166913934Y-110906337D01*
X166789864Y-110881658D01*
X166789863Y-110881657D01*
X166752371Y-110874200D01*
X166752368Y-110874200D01*
X166587632Y-110874200D01*
X166587630Y-110874200D01*
X166426065Y-110906337D01*
X166426059Y-110906339D01*
X166273866Y-110969379D01*
X166273857Y-110969384D01*
X166136890Y-111060903D01*
X166136886Y-111060906D01*
X166020406Y-111177386D01*
X166020403Y-111177390D01*
X165928884Y-111314357D01*
X165928879Y-111314366D01*
X165865839Y-111466559D01*
X165865837Y-111466565D01*
X165833700Y-111628129D01*
X165833700Y-111628132D01*
X165833700Y-111792868D01*
X165833700Y-111792870D01*
X165833699Y-111792870D01*
X164966300Y-111792870D01*
X164966300Y-111628129D01*
X164934162Y-111466565D01*
X164934161Y-111466564D01*
X164934161Y-111466560D01*
X164871119Y-111314364D01*
X164871118Y-111314363D01*
X164871115Y-111314357D01*
X164779596Y-111177390D01*
X164779593Y-111177386D01*
X164663113Y-111060906D01*
X164663109Y-111060903D01*
X164526142Y-110969384D01*
X164526133Y-110969379D01*
X164373940Y-110906339D01*
X164373934Y-110906337D01*
X164212370Y-110874200D01*
X164212368Y-110874200D01*
X164047632Y-110874200D01*
X164047630Y-110874200D01*
X163886065Y-110906337D01*
X163886059Y-110906339D01*
X163733866Y-110969379D01*
X163733857Y-110969384D01*
X163596890Y-111060903D01*
X163596886Y-111060906D01*
X163480406Y-111177386D01*
X163480403Y-111177390D01*
X163388884Y-111314357D01*
X163388879Y-111314366D01*
X163325839Y-111466559D01*
X163325837Y-111466565D01*
X163293700Y-111628129D01*
X163293700Y-111628132D01*
X163293700Y-111792868D01*
X163293700Y-111792870D01*
X163293699Y-111792870D01*
X162426300Y-111792870D01*
X162426300Y-111628129D01*
X162394162Y-111466565D01*
X162394161Y-111466564D01*
X162394161Y-111466560D01*
X162331119Y-111314364D01*
X162331118Y-111314363D01*
X162331115Y-111314357D01*
X162239596Y-111177390D01*
X162239593Y-111177386D01*
X162123113Y-111060906D01*
X162123109Y-111060903D01*
X161986142Y-110969384D01*
X161986133Y-110969379D01*
X161833940Y-110906339D01*
X161833934Y-110906337D01*
X161672370Y-110874200D01*
X161672368Y-110874200D01*
X161507632Y-110874200D01*
X161507630Y-110874200D01*
X161346065Y-110906337D01*
X161346059Y-110906339D01*
X161193866Y-110969379D01*
X161193857Y-110969384D01*
X161056890Y-111060903D01*
X161056886Y-111060906D01*
X160940406Y-111177386D01*
X160940403Y-111177390D01*
X160848884Y-111314357D01*
X160848879Y-111314366D01*
X160785839Y-111466559D01*
X160785837Y-111466565D01*
X160753700Y-111628129D01*
X160753700Y-111628132D01*
X160753700Y-111792868D01*
X160753700Y-111792870D01*
X160753699Y-111792870D01*
X112629968Y-111792870D01*
X112716347Y-111631267D01*
X112853606Y-111299894D01*
X112957724Y-110956664D01*
X112957726Y-110956654D01*
X112957729Y-110956643D01*
X113006235Y-110712782D01*
X113027698Y-110604881D01*
X113062855Y-110247933D01*
X113062855Y-109889257D01*
X179762805Y-109889257D01*
X179762805Y-109897608D01*
X179762805Y-110247933D01*
X179763431Y-110254286D01*
X179797960Y-110604870D01*
X179797963Y-110604887D01*
X179867930Y-110956643D01*
X179867933Y-110956654D01*
X179972054Y-111299895D01*
X180041089Y-111466559D01*
X180108014Y-111628132D01*
X180109314Y-111631269D01*
X180109316Y-111631274D01*
X180278384Y-111947578D01*
X180278401Y-111947606D01*
X180477647Y-112245800D01*
X180477664Y-112245823D01*
X180705205Y-112523082D01*
X180958817Y-112776694D01*
X180958822Y-112776698D01*
X180958823Y-112776699D01*
X181236082Y-113004240D01*
X181236089Y-113004245D01*
X181236099Y-113004252D01*
X181534293Y-113203498D01*
X181534298Y-113203501D01*
X181534310Y-113203509D01*
X181534319Y-113203513D01*
X181534321Y-113203515D01*
X181850625Y-113372583D01*
X181850627Y-113372583D01*
X181850633Y-113372587D01*
X182182006Y-113509846D01*
X182525236Y-113613964D01*
X182525242Y-113613965D01*
X182525245Y-113613966D01*
X182525256Y-113613969D01*
X182745837Y-113657844D01*
X182877019Y-113683938D01*
X183233967Y-113719095D01*
X183233970Y-113719095D01*
X183592640Y-113719095D01*
X183592643Y-113719095D01*
X183949591Y-113683938D01*
X184123714Y-113649302D01*
X184301353Y-113613969D01*
X184301364Y-113613966D01*
X184301364Y-113613965D01*
X184301374Y-113613964D01*
X184644604Y-113509846D01*
X184975977Y-113372587D01*
X185292300Y-113203509D01*
X185590528Y-113004240D01*
X185867787Y-112776699D01*
X186121409Y-112523077D01*
X186348950Y-112245818D01*
X186548219Y-111947590D01*
X186717297Y-111631267D01*
X186854556Y-111299894D01*
X186958674Y-110956664D01*
X186958676Y-110956654D01*
X186958679Y-110956643D01*
X187007185Y-110712782D01*
X187028648Y-110604881D01*
X187063805Y-110247933D01*
X187063805Y-109889257D01*
X187028648Y-109532309D01*
X187001789Y-109397282D01*
X186958679Y-109180546D01*
X186958676Y-109180535D01*
X186958675Y-109180532D01*
X186958674Y-109180526D01*
X186854556Y-108837296D01*
X186717297Y-108505923D01*
X186710509Y-108493224D01*
X186548225Y-108189611D01*
X186548223Y-108189609D01*
X186548219Y-108189600D01*
X186548208Y-108189583D01*
X186348962Y-107891389D01*
X186348955Y-107891379D01*
X186348950Y-107891372D01*
X186121409Y-107614113D01*
X186121408Y-107614112D01*
X186121404Y-107614107D01*
X185867792Y-107360495D01*
X185590533Y-107132954D01*
X185590510Y-107132937D01*
X185292316Y-106933691D01*
X185292288Y-106933674D01*
X184975984Y-106764606D01*
X184975979Y-106764604D01*
X184644605Y-106627344D01*
X184301364Y-106523223D01*
X184301353Y-106523220D01*
X183949597Y-106453253D01*
X183949580Y-106453250D01*
X183679656Y-106426665D01*
X183592643Y-106418095D01*
X183233967Y-106418095D01*
X183153492Y-106426021D01*
X182877029Y-106453250D01*
X182877012Y-106453253D01*
X182525256Y-106523220D01*
X182525245Y-106523223D01*
X182182004Y-106627344D01*
X181850630Y-106764604D01*
X181850625Y-106764606D01*
X181534321Y-106933674D01*
X181534293Y-106933691D01*
X181236099Y-107132937D01*
X181236076Y-107132954D01*
X180958817Y-107360495D01*
X180705205Y-107614107D01*
X180477664Y-107891366D01*
X180477647Y-107891389D01*
X180278401Y-108189583D01*
X180278384Y-108189611D01*
X180109316Y-108505915D01*
X180109314Y-108505920D01*
X179972054Y-108837294D01*
X179867933Y-109180535D01*
X179867930Y-109180546D01*
X179797963Y-109532302D01*
X179797960Y-109532319D01*
X179770731Y-109808782D01*
X179762805Y-109889257D01*
X113062855Y-109889257D01*
X113027698Y-109532309D01*
X113000839Y-109397282D01*
X112957729Y-109180546D01*
X112957726Y-109180535D01*
X112957725Y-109180532D01*
X112957724Y-109180526D01*
X112903199Y-109000782D01*
X161164500Y-109000782D01*
X161164500Y-109112818D01*
X161193497Y-109221037D01*
X161249515Y-109318063D01*
X161328737Y-109397285D01*
X161425763Y-109453303D01*
X161533982Y-109482300D01*
X161533984Y-109482300D01*
X161646016Y-109482300D01*
X161646018Y-109482300D01*
X161754237Y-109453303D01*
X161851263Y-109397285D01*
X161930485Y-109318063D01*
X161986503Y-109221037D01*
X162015500Y-109112818D01*
X162015500Y-109000782D01*
X161986503Y-108892563D01*
X161930485Y-108795537D01*
X161851263Y-108716315D01*
X161760890Y-108664138D01*
X161754239Y-108660298D01*
X161754238Y-108660297D01*
X161754237Y-108660297D01*
X161646018Y-108631300D01*
X161533982Y-108631300D01*
X161425763Y-108660297D01*
X161425760Y-108660298D01*
X161328740Y-108716313D01*
X161328734Y-108716317D01*
X161249517Y-108795534D01*
X161249513Y-108795540D01*
X161193498Y-108892560D01*
X161193497Y-108892563D01*
X161164500Y-109000782D01*
X112903199Y-109000782D01*
X112853606Y-108837296D01*
X112716347Y-108505923D01*
X112709559Y-108493224D01*
X112576511Y-108244308D01*
X112549611Y-108193982D01*
X149949500Y-108193982D01*
X149949500Y-108306018D01*
X149978497Y-108414237D01*
X150034515Y-108511263D01*
X150113737Y-108590485D01*
X150210763Y-108646503D01*
X150318982Y-108675500D01*
X150318984Y-108675500D01*
X150431016Y-108675500D01*
X150431018Y-108675500D01*
X150539237Y-108646503D01*
X150636263Y-108590485D01*
X150715485Y-108511263D01*
X150754330Y-108443982D01*
X163724500Y-108443982D01*
X163724500Y-108556018D01*
X163753497Y-108664237D01*
X163809515Y-108761263D01*
X163888737Y-108840485D01*
X163985763Y-108896503D01*
X164093982Y-108925500D01*
X164093984Y-108925500D01*
X164206016Y-108925500D01*
X164206018Y-108925500D01*
X164314237Y-108896503D01*
X164411263Y-108840485D01*
X164490485Y-108761263D01*
X164546503Y-108664237D01*
X164575500Y-108556018D01*
X164575500Y-108443982D01*
X164546503Y-108335763D01*
X164490485Y-108238737D01*
X164411263Y-108159515D01*
X164314237Y-108103497D01*
X164206018Y-108074500D01*
X164093982Y-108074500D01*
X163985763Y-108103497D01*
X163985760Y-108103498D01*
X163888740Y-108159513D01*
X163888734Y-108159517D01*
X163809517Y-108238734D01*
X163809513Y-108238740D01*
X163753498Y-108335760D01*
X163753497Y-108335763D01*
X163724500Y-108443982D01*
X150754330Y-108443982D01*
X150771503Y-108414237D01*
X150800500Y-108306018D01*
X150800500Y-108193982D01*
X150771503Y-108085763D01*
X150715485Y-107988737D01*
X150636263Y-107909515D01*
X150539237Y-107853497D01*
X150431018Y-107824500D01*
X150318982Y-107824500D01*
X150210763Y-107853497D01*
X150210760Y-107853498D01*
X150113740Y-107909513D01*
X150113734Y-107909517D01*
X150034517Y-107988734D01*
X150034513Y-107988740D01*
X149978498Y-108085760D01*
X149978497Y-108085763D01*
X149949500Y-108193982D01*
X112549611Y-108193982D01*
X112547275Y-108189611D01*
X112547273Y-108189609D01*
X112547269Y-108189600D01*
X112547258Y-108189583D01*
X112348012Y-107891389D01*
X112348005Y-107891379D01*
X112348000Y-107891372D01*
X112268712Y-107794759D01*
X112157888Y-107659720D01*
X112120454Y-107614107D01*
X112095529Y-107589182D01*
X155784500Y-107589182D01*
X155784500Y-107701218D01*
X155813497Y-107809437D01*
X155869515Y-107906463D01*
X155948737Y-107985685D01*
X156045763Y-108041703D01*
X156153982Y-108070700D01*
X156153984Y-108070700D01*
X156266016Y-108070700D01*
X156266018Y-108070700D01*
X156374237Y-108041703D01*
X156471263Y-107985685D01*
X156550485Y-107906463D01*
X156606503Y-107809437D01*
X156635500Y-107701218D01*
X156635500Y-107589182D01*
X156606503Y-107480963D01*
X156550485Y-107383937D01*
X156471263Y-107304715D01*
X156374237Y-107248697D01*
X156266018Y-107219700D01*
X156153982Y-107219700D01*
X156045763Y-107248697D01*
X156045760Y-107248698D01*
X155948740Y-107304713D01*
X155948734Y-107304717D01*
X155869517Y-107383934D01*
X155869513Y-107383940D01*
X155813498Y-107480960D01*
X155813497Y-107480963D01*
X155784500Y-107589182D01*
X112095529Y-107589182D01*
X111866842Y-107360495D01*
X111589583Y-107132954D01*
X111589560Y-107132937D01*
X111291366Y-106933691D01*
X111291338Y-106933674D01*
X110975034Y-106764606D01*
X110975029Y-106764604D01*
X110643655Y-106627344D01*
X110300414Y-106523223D01*
X110300403Y-106523220D01*
X109948647Y-106453253D01*
X109948630Y-106453250D01*
X109678706Y-106426665D01*
X109591693Y-106418095D01*
X109233017Y-106418095D01*
X109152542Y-106426021D01*
X108876079Y-106453250D01*
X108876062Y-106453253D01*
X108524306Y-106523220D01*
X108524295Y-106523223D01*
X108181054Y-106627344D01*
X107849680Y-106764604D01*
X107849675Y-106764606D01*
X107533371Y-106933674D01*
X107533343Y-106933691D01*
X107235149Y-107132937D01*
X107235126Y-107132954D01*
X106957867Y-107360495D01*
X106704255Y-107614107D01*
X106476714Y-107891366D01*
X106476697Y-107891389D01*
X106277451Y-108189583D01*
X106277434Y-108189611D01*
X106108366Y-108505915D01*
X106108364Y-108505920D01*
X105971104Y-108837294D01*
X105866983Y-109180535D01*
X105866980Y-109180546D01*
X105797013Y-109532302D01*
X105797010Y-109532319D01*
X105769781Y-109808782D01*
X105761855Y-109889257D01*
X104667804Y-109889257D01*
X104667960Y-109852669D01*
X104668447Y-109842226D01*
X104703155Y-109452623D01*
X104704525Y-109442237D01*
X104772024Y-109056956D01*
X104774260Y-109046752D01*
X104874511Y-108666863D01*
X104876073Y-108661449D01*
X104880756Y-108646503D01*
X106189512Y-104468982D01*
X141049500Y-104468982D01*
X141049500Y-104581018D01*
X141078497Y-104689237D01*
X141134515Y-104786263D01*
X141213737Y-104865485D01*
X141310763Y-104921503D01*
X141418982Y-104950500D01*
X141418984Y-104950500D01*
X141531016Y-104950500D01*
X141531018Y-104950500D01*
X141639237Y-104921503D01*
X141736263Y-104865485D01*
X141815485Y-104786263D01*
X141871503Y-104689237D01*
X141900500Y-104581018D01*
X141900500Y-104468982D01*
X141871503Y-104360763D01*
X141815485Y-104263737D01*
X141736263Y-104184515D01*
X141639237Y-104128497D01*
X141531018Y-104099500D01*
X141418982Y-104099500D01*
X141310763Y-104128497D01*
X141310760Y-104128498D01*
X141213740Y-104184513D01*
X141213734Y-104184517D01*
X141134517Y-104263734D01*
X141134513Y-104263740D01*
X141078498Y-104360760D01*
X141078497Y-104360763D01*
X141049500Y-104468982D01*
X106189512Y-104468982D01*
X106548223Y-103323982D01*
X154894500Y-103323982D01*
X154894500Y-103436018D01*
X154923497Y-103544237D01*
X154979515Y-103641263D01*
X155058737Y-103720485D01*
X155155763Y-103776503D01*
X155263982Y-103805500D01*
X155263984Y-103805500D01*
X155376016Y-103805500D01*
X155376018Y-103805500D01*
X155484237Y-103776503D01*
X155581263Y-103720485D01*
X155660485Y-103641263D01*
X155716503Y-103544237D01*
X155745500Y-103436018D01*
X155745500Y-103323982D01*
X155716503Y-103215763D01*
X155660485Y-103118737D01*
X155581263Y-103039515D01*
X155484237Y-102983497D01*
X155376018Y-102954500D01*
X155263982Y-102954500D01*
X155155763Y-102983497D01*
X155155760Y-102983498D01*
X155058740Y-103039513D01*
X155058734Y-103039517D01*
X154979517Y-103118734D01*
X154979513Y-103118740D01*
X154923498Y-103215760D01*
X154923497Y-103215763D01*
X154894500Y-103323982D01*
X106548223Y-103323982D01*
X106715956Y-102788582D01*
X143084500Y-102788582D01*
X143084500Y-102900618D01*
X143113497Y-103008837D01*
X143169515Y-103105863D01*
X143248737Y-103185085D01*
X143345763Y-103241103D01*
X143453982Y-103270100D01*
X143453984Y-103270100D01*
X143566016Y-103270100D01*
X143566018Y-103270100D01*
X143674237Y-103241103D01*
X143771263Y-103185085D01*
X143850485Y-103105863D01*
X143906503Y-103008837D01*
X143935500Y-102900618D01*
X143935500Y-102793982D01*
X147399500Y-102793982D01*
X147399500Y-102906018D01*
X147428497Y-103014237D01*
X147484515Y-103111263D01*
X147563737Y-103190485D01*
X147660763Y-103246503D01*
X147768982Y-103275500D01*
X147768984Y-103275500D01*
X147881016Y-103275500D01*
X147881018Y-103275500D01*
X147989237Y-103246503D01*
X148086263Y-103190485D01*
X148165485Y-103111263D01*
X148221503Y-103014237D01*
X148250500Y-102906018D01*
X148250500Y-102793982D01*
X148221503Y-102685763D01*
X148165485Y-102588737D01*
X148086263Y-102509515D01*
X147989237Y-102453497D01*
X147881018Y-102424500D01*
X147768982Y-102424500D01*
X147660763Y-102453497D01*
X147660760Y-102453498D01*
X147563740Y-102509513D01*
X147563734Y-102509517D01*
X147484517Y-102588734D01*
X147484513Y-102588740D01*
X147428498Y-102685760D01*
X147428497Y-102685763D01*
X147399500Y-102793982D01*
X143935500Y-102793982D01*
X143935500Y-102788582D01*
X143906503Y-102680363D01*
X143850485Y-102583337D01*
X143771263Y-102504115D01*
X143674237Y-102448097D01*
X143566018Y-102419100D01*
X143453982Y-102419100D01*
X143345763Y-102448097D01*
X143345760Y-102448098D01*
X143248740Y-102504113D01*
X143248734Y-102504117D01*
X143169517Y-102583334D01*
X143169513Y-102583340D01*
X143113498Y-102680360D01*
X143113497Y-102680363D01*
X143084500Y-102788582D01*
X106715956Y-102788582D01*
X107140013Y-101435000D01*
X168162769Y-101435000D01*
X169056988Y-101435000D01*
X169024075Y-101492007D01*
X168990000Y-101619174D01*
X168990000Y-101750826D01*
X169024075Y-101877993D01*
X169056988Y-101935000D01*
X168162769Y-101935000D01*
X168173242Y-102001126D01*
X168173242Y-102001129D01*
X168238904Y-102203217D01*
X168335379Y-102392557D01*
X168460272Y-102564459D01*
X168460276Y-102564464D01*
X168610535Y-102714723D01*
X168610540Y-102714727D01*
X168782442Y-102839620D01*
X168971782Y-102936095D01*
X169114814Y-102982569D01*
X169172489Y-103022006D01*
X169199688Y-103086365D01*
X169187773Y-103155211D01*
X169140529Y-103206687D01*
X169076496Y-103224500D01*
X168625178Y-103224500D01*
X168581282Y-103233231D01*
X168581275Y-103233234D01*
X168531496Y-103266495D01*
X168531495Y-103266496D01*
X168498234Y-103316275D01*
X168498231Y-103316282D01*
X168489500Y-103360177D01*
X168489500Y-103360180D01*
X168489500Y-105089820D01*
X168489500Y-105089822D01*
X168489499Y-105089822D01*
X168498231Y-105133717D01*
X168498232Y-105133721D01*
X168498233Y-105133722D01*
X168531496Y-105183504D01*
X168581278Y-105216767D01*
X168581281Y-105216767D01*
X168581282Y-105216768D01*
X168625177Y-105225500D01*
X168625180Y-105225500D01*
X170354822Y-105225500D01*
X170398717Y-105216768D01*
X170398717Y-105216767D01*
X170398722Y-105216767D01*
X170448504Y-105183504D01*
X170481767Y-105133722D01*
X170490500Y-105089820D01*
X170490500Y-103360180D01*
X170490500Y-103360177D01*
X170481768Y-103316282D01*
X170481767Y-103316281D01*
X170481767Y-103316278D01*
X170448504Y-103266496D01*
X170448503Y-103266495D01*
X170398724Y-103233234D01*
X170398717Y-103233231D01*
X170354822Y-103224500D01*
X170354820Y-103224500D01*
X169903504Y-103224500D01*
X169836465Y-103204815D01*
X169790710Y-103152011D01*
X169780766Y-103082853D01*
X169809791Y-103019297D01*
X169865186Y-102982569D01*
X170008217Y-102936095D01*
X170197557Y-102839620D01*
X170369459Y-102714727D01*
X170369464Y-102714723D01*
X170519723Y-102564464D01*
X170519727Y-102564459D01*
X170644620Y-102392557D01*
X170741095Y-102203217D01*
X170806757Y-102001129D01*
X170806757Y-102001126D01*
X170817231Y-101935000D01*
X169923012Y-101935000D01*
X169955925Y-101877993D01*
X169990000Y-101750826D01*
X169990000Y-101619174D01*
X169955925Y-101492007D01*
X169923012Y-101435000D01*
X170817231Y-101435000D01*
X170806757Y-101368873D01*
X170806757Y-101368870D01*
X170741095Y-101166782D01*
X170644620Y-100977442D01*
X170519727Y-100805540D01*
X170519723Y-100805535D01*
X170369464Y-100655276D01*
X170369459Y-100655272D01*
X170197557Y-100530379D01*
X170008215Y-100433903D01*
X169806124Y-100368241D01*
X169740000Y-100357768D01*
X169740000Y-101251988D01*
X169682993Y-101219075D01*
X169555826Y-101185000D01*
X169424174Y-101185000D01*
X169297007Y-101219075D01*
X169240000Y-101251988D01*
X169240000Y-100357768D01*
X169239999Y-100357768D01*
X169173875Y-100368241D01*
X168971784Y-100433903D01*
X168782442Y-100530379D01*
X168610540Y-100655272D01*
X168610535Y-100655276D01*
X168460276Y-100805535D01*
X168460272Y-100805540D01*
X168335379Y-100977442D01*
X168238904Y-101166782D01*
X168173242Y-101368870D01*
X168173242Y-101368873D01*
X168162769Y-101435000D01*
X107140013Y-101435000D01*
X107187037Y-101284901D01*
X107474212Y-100368241D01*
X107535572Y-100172382D01*
X152919500Y-100172382D01*
X152919500Y-100284418D01*
X152948497Y-100392637D01*
X153004515Y-100489663D01*
X153083737Y-100568885D01*
X153180763Y-100624903D01*
X153288982Y-100653900D01*
X153288984Y-100653900D01*
X153401016Y-100653900D01*
X153401018Y-100653900D01*
X153509237Y-100624903D01*
X153606263Y-100568885D01*
X153685485Y-100489663D01*
X153741503Y-100392637D01*
X153770500Y-100284418D01*
X153770500Y-100172382D01*
X153741503Y-100064163D01*
X153685485Y-99967137D01*
X153606263Y-99887915D01*
X153512597Y-99833837D01*
X153509239Y-99831898D01*
X153509238Y-99831897D01*
X153509237Y-99831897D01*
X153401018Y-99802900D01*
X153288982Y-99802900D01*
X153180763Y-99831897D01*
X153180760Y-99831898D01*
X153083740Y-99887913D01*
X153083734Y-99887917D01*
X153004517Y-99967134D01*
X153004513Y-99967140D01*
X152948498Y-100064160D01*
X152948497Y-100064163D01*
X152919500Y-100172382D01*
X107535572Y-100172382D01*
X107901614Y-99003982D01*
X130054300Y-99003982D01*
X130054300Y-99116018D01*
X130083297Y-99224237D01*
X130139315Y-99321263D01*
X130218537Y-99400485D01*
X130315563Y-99456503D01*
X130423782Y-99485500D01*
X130423784Y-99485500D01*
X130535816Y-99485500D01*
X130535818Y-99485500D01*
X130644037Y-99456503D01*
X130741063Y-99400485D01*
X130741063Y-99400484D01*
X130748102Y-99396421D01*
X130749179Y-99398287D01*
X130803743Y-99377180D01*
X130872191Y-99391203D01*
X130901769Y-99413067D01*
X130914587Y-99425885D01*
X131011613Y-99481903D01*
X131119832Y-99510900D01*
X131119834Y-99510900D01*
X131231866Y-99510900D01*
X131231868Y-99510900D01*
X131340087Y-99481903D01*
X131437113Y-99425885D01*
X131438644Y-99424354D01*
X131440250Y-99423476D01*
X131443559Y-99420938D01*
X131443954Y-99421453D01*
X131499967Y-99390869D01*
X131569659Y-99395853D01*
X131608958Y-99421110D01*
X131609091Y-99420938D01*
X131611154Y-99422521D01*
X131614006Y-99424354D01*
X131615537Y-99425885D01*
X131712563Y-99481903D01*
X131820782Y-99510900D01*
X131820784Y-99510900D01*
X131932816Y-99510900D01*
X131932818Y-99510900D01*
X132041037Y-99481903D01*
X132138063Y-99425885D01*
X132138067Y-99425880D01*
X132143069Y-99422993D01*
X132210969Y-99406520D01*
X132276996Y-99429372D01*
X132292751Y-99442699D01*
X132301337Y-99451285D01*
X132398363Y-99507303D01*
X132506582Y-99536300D01*
X132506584Y-99536300D01*
X132618616Y-99536300D01*
X132618618Y-99536300D01*
X132726837Y-99507303D01*
X132823863Y-99451285D01*
X132823866Y-99451281D01*
X132830799Y-99447279D01*
X132898699Y-99430806D01*
X132954801Y-99447279D01*
X132961733Y-99451281D01*
X132961737Y-99451285D01*
X133058763Y-99507303D01*
X133166982Y-99536300D01*
X133166984Y-99536300D01*
X133279016Y-99536300D01*
X133279018Y-99536300D01*
X133387237Y-99507303D01*
X133484263Y-99451285D01*
X133563485Y-99372063D01*
X133619503Y-99275037D01*
X133648500Y-99166818D01*
X133648500Y-99054782D01*
X133619503Y-98946563D01*
X133563485Y-98849537D01*
X133484263Y-98770315D01*
X133396275Y-98719515D01*
X133387239Y-98714298D01*
X133387238Y-98714297D01*
X133387237Y-98714297D01*
X133279018Y-98685300D01*
X133166982Y-98685300D01*
X133058763Y-98714297D01*
X133058760Y-98714298D01*
X132954800Y-98774320D01*
X132886900Y-98790793D01*
X132830800Y-98774320D01*
X132726839Y-98714298D01*
X132726838Y-98714297D01*
X132726837Y-98714297D01*
X132618618Y-98685300D01*
X132506582Y-98685300D01*
X132398363Y-98714297D01*
X132398362Y-98714297D01*
X132296328Y-98773206D01*
X132228428Y-98789677D01*
X132162401Y-98766825D01*
X132146651Y-98753502D01*
X132138067Y-98744919D01*
X132138063Y-98744915D01*
X132041037Y-98688897D01*
X131932818Y-98659900D01*
X131820782Y-98659900D01*
X131712563Y-98688897D01*
X131712560Y-98688898D01*
X131615540Y-98744913D01*
X131615534Y-98744917D01*
X131614006Y-98746446D01*
X131612399Y-98747323D01*
X131609091Y-98749862D01*
X131608695Y-98749346D01*
X131552683Y-98779931D01*
X131482991Y-98774947D01*
X131443691Y-98749689D01*
X131443559Y-98749862D01*
X131441495Y-98748278D01*
X131438644Y-98746446D01*
X131437115Y-98744917D01*
X131437113Y-98744915D01*
X131340087Y-98688897D01*
X131231868Y-98659900D01*
X131119832Y-98659900D01*
X131011613Y-98688897D01*
X131011610Y-98688898D01*
X130907548Y-98748979D01*
X130906472Y-98747116D01*
X130851872Y-98768222D01*
X130783428Y-98754180D01*
X130753880Y-98732332D01*
X130741065Y-98719517D01*
X130741063Y-98719515D01*
X130644037Y-98663497D01*
X130535818Y-98634500D01*
X130423782Y-98634500D01*
X130315563Y-98663497D01*
X130315560Y-98663498D01*
X130218540Y-98719513D01*
X130218534Y-98719517D01*
X130139317Y-98798734D01*
X130139313Y-98798740D01*
X130083298Y-98895760D01*
X130083297Y-98895763D01*
X130054300Y-99003982D01*
X107901614Y-99003982D01*
X108196039Y-98064182D01*
X141814500Y-98064182D01*
X141814500Y-98176218D01*
X141843497Y-98284437D01*
X141899515Y-98381463D01*
X141899517Y-98381465D01*
X141982371Y-98464319D01*
X142015856Y-98525642D01*
X142010872Y-98595334D01*
X141982371Y-98639681D01*
X141924917Y-98697134D01*
X141924913Y-98697140D01*
X141868898Y-98794160D01*
X141868898Y-98794161D01*
X141868897Y-98794163D01*
X141839900Y-98902382D01*
X141839900Y-99014418D01*
X141868897Y-99122637D01*
X141924915Y-99219663D01*
X142004137Y-99298885D01*
X142101163Y-99354903D01*
X142209382Y-99383900D01*
X142209384Y-99383900D01*
X142321416Y-99383900D01*
X142321418Y-99383900D01*
X142429637Y-99354903D01*
X142526663Y-99298885D01*
X142605885Y-99219663D01*
X142661903Y-99122637D01*
X142690900Y-99014418D01*
X142690900Y-98902382D01*
X142677288Y-98851582D01*
X155124100Y-98851582D01*
X155124100Y-98963618D01*
X155153097Y-99071837D01*
X155209115Y-99168863D01*
X155288337Y-99248085D01*
X155385363Y-99304103D01*
X155493582Y-99333100D01*
X155493584Y-99333100D01*
X155605616Y-99333100D01*
X155605618Y-99333100D01*
X155713837Y-99304103D01*
X155713845Y-99304098D01*
X155721347Y-99300992D01*
X155721932Y-99302404D01*
X155780935Y-99288084D01*
X155846964Y-99310928D01*
X155890161Y-99365844D01*
X155896811Y-99435397D01*
X155882437Y-99473942D01*
X155864299Y-99505358D01*
X155864297Y-99505363D01*
X155835300Y-99613582D01*
X155835300Y-99725618D01*
X155864297Y-99833837D01*
X155920315Y-99930863D01*
X155999537Y-100010085D01*
X156096563Y-100066103D01*
X156204782Y-100095100D01*
X156204784Y-100095100D01*
X156316816Y-100095100D01*
X156316818Y-100095100D01*
X156425037Y-100066103D01*
X156522063Y-100010085D01*
X156601285Y-99930863D01*
X156657303Y-99833837D01*
X156686300Y-99725618D01*
X156686300Y-99613582D01*
X156657303Y-99505363D01*
X156601285Y-99408337D01*
X156522063Y-99329115D01*
X156450995Y-99288084D01*
X156425039Y-99273098D01*
X156425038Y-99273097D01*
X156425037Y-99273097D01*
X156316818Y-99244100D01*
X156204782Y-99244100D01*
X156096563Y-99273097D01*
X156089053Y-99276208D01*
X156088469Y-99274798D01*
X156029441Y-99289114D01*
X155963416Y-99266257D01*
X155920229Y-99211333D01*
X155913593Y-99141779D01*
X155927962Y-99103257D01*
X155946103Y-99071837D01*
X155975100Y-98963618D01*
X155975100Y-98851582D01*
X155946103Y-98743363D01*
X155890085Y-98646337D01*
X155810863Y-98567115D01*
X155713837Y-98511097D01*
X155605618Y-98482100D01*
X155493582Y-98482100D01*
X155385363Y-98511097D01*
X155385360Y-98511098D01*
X155288340Y-98567113D01*
X155288334Y-98567117D01*
X155209117Y-98646334D01*
X155209113Y-98646340D01*
X155153098Y-98743360D01*
X155153097Y-98743363D01*
X155124100Y-98851582D01*
X142677288Y-98851582D01*
X142661903Y-98794163D01*
X142605885Y-98697137D01*
X142526663Y-98617915D01*
X142523029Y-98614281D01*
X142489544Y-98552958D01*
X142494528Y-98483266D01*
X142523029Y-98438919D01*
X142580485Y-98381463D01*
X142636503Y-98284437D01*
X142665500Y-98176218D01*
X142665500Y-98064182D01*
X142636503Y-97955963D01*
X142580485Y-97858937D01*
X142501263Y-97779715D01*
X142404237Y-97723697D01*
X142296018Y-97694700D01*
X142183982Y-97694700D01*
X142075763Y-97723697D01*
X142075760Y-97723698D01*
X141978740Y-97779713D01*
X141978734Y-97779717D01*
X141899517Y-97858934D01*
X141899513Y-97858940D01*
X141843498Y-97955960D01*
X141843497Y-97955963D01*
X141814500Y-98064182D01*
X108196039Y-98064182D01*
X108967911Y-95600382D01*
X141027100Y-95600382D01*
X141027100Y-95712418D01*
X141056097Y-95820637D01*
X141112115Y-95917663D01*
X141191337Y-95996885D01*
X141288363Y-96052903D01*
X141396582Y-96081900D01*
X141396584Y-96081900D01*
X141461900Y-96081900D01*
X141528939Y-96101585D01*
X141574694Y-96154389D01*
X141585900Y-96205900D01*
X141585900Y-96271218D01*
X141594480Y-96303237D01*
X141614897Y-96379436D01*
X141614898Y-96379439D01*
X141626919Y-96400259D01*
X141670915Y-96476463D01*
X141750137Y-96555685D01*
X141847163Y-96611703D01*
X141955382Y-96640700D01*
X141955384Y-96640700D01*
X142067416Y-96640700D01*
X142067418Y-96640700D01*
X142175637Y-96611703D01*
X142272663Y-96555685D01*
X142338966Y-96489382D01*
X151618900Y-96489382D01*
X151618900Y-96601418D01*
X151647897Y-96709637D01*
X151703915Y-96806663D01*
X151783137Y-96885885D01*
X151880163Y-96941903D01*
X151988382Y-96970900D01*
X151988384Y-96970900D01*
X152100416Y-96970900D01*
X152100418Y-96970900D01*
X152208637Y-96941903D01*
X152305663Y-96885885D01*
X152384885Y-96806663D01*
X152440903Y-96709637D01*
X152469900Y-96601418D01*
X152469900Y-96575749D01*
X152489585Y-96508710D01*
X152542389Y-96462955D01*
X152611547Y-96453011D01*
X152665029Y-96475540D01*
X152665098Y-96475421D01*
X152666048Y-96475969D01*
X152669394Y-96477379D01*
X152672132Y-96479480D01*
X152672137Y-96479485D01*
X152769163Y-96535503D01*
X152877382Y-96564500D01*
X152877384Y-96564500D01*
X152989416Y-96564500D01*
X152989418Y-96564500D01*
X153097637Y-96535503D01*
X153194663Y-96479485D01*
X153273885Y-96400263D01*
X153329903Y-96303237D01*
X153358900Y-96195018D01*
X153358900Y-96082982D01*
X153329903Y-95974763D01*
X153273885Y-95877737D01*
X153194663Y-95798515D01*
X153097637Y-95742497D01*
X152989418Y-95713500D01*
X152877382Y-95713500D01*
X152769163Y-95742497D01*
X152769160Y-95742498D01*
X152672140Y-95798513D01*
X152672134Y-95798517D01*
X152592917Y-95877734D01*
X152592913Y-95877740D01*
X152536898Y-95974760D01*
X152536897Y-95974763D01*
X152507900Y-96082982D01*
X152507900Y-96108650D01*
X152488215Y-96175689D01*
X152435411Y-96221444D01*
X152366253Y-96231388D01*
X152312770Y-96208860D01*
X152312702Y-96208979D01*
X152311757Y-96208433D01*
X152308413Y-96207025D01*
X152305664Y-96204915D01*
X152208639Y-96148898D01*
X152208638Y-96148897D01*
X152208637Y-96148897D01*
X152100418Y-96119900D01*
X151988382Y-96119900D01*
X151880163Y-96148897D01*
X151880160Y-96148898D01*
X151783140Y-96204913D01*
X151783134Y-96204917D01*
X151703917Y-96284134D01*
X151703913Y-96284140D01*
X151647898Y-96381160D01*
X151647897Y-96381163D01*
X151618900Y-96489382D01*
X142338966Y-96489382D01*
X142351885Y-96476463D01*
X142407903Y-96379437D01*
X142436900Y-96271218D01*
X142436900Y-96159182D01*
X142407903Y-96050963D01*
X142351885Y-95953937D01*
X142272663Y-95874715D01*
X142178997Y-95820637D01*
X142175639Y-95818698D01*
X142175638Y-95818697D01*
X142175637Y-95818697D01*
X142067418Y-95789700D01*
X142002100Y-95789700D01*
X141935061Y-95770015D01*
X141889306Y-95717211D01*
X141878100Y-95665700D01*
X141878100Y-95600384D01*
X141878100Y-95600382D01*
X141849103Y-95492163D01*
X141793085Y-95395137D01*
X141713863Y-95315915D01*
X141616837Y-95259897D01*
X141508618Y-95230900D01*
X141396582Y-95230900D01*
X141288363Y-95259897D01*
X141288360Y-95259898D01*
X141191340Y-95315913D01*
X141191334Y-95315917D01*
X141112117Y-95395134D01*
X141112113Y-95395140D01*
X141056098Y-95492160D01*
X141056097Y-95492163D01*
X141027100Y-95600382D01*
X108967911Y-95600382D01*
X109417507Y-94165282D01*
X152673000Y-94165282D01*
X152673000Y-94277318D01*
X152701997Y-94385537D01*
X152758015Y-94482563D01*
X152837237Y-94561785D01*
X152934263Y-94617803D01*
X153042482Y-94646800D01*
X153042484Y-94646800D01*
X153154516Y-94646800D01*
X153154518Y-94646800D01*
X153262737Y-94617803D01*
X153359763Y-94561785D01*
X153438985Y-94482563D01*
X153495003Y-94385537D01*
X153524000Y-94277318D01*
X153524000Y-94193982D01*
X173674500Y-94193982D01*
X173674500Y-94306018D01*
X173703497Y-94414237D01*
X173759515Y-94511263D01*
X173838737Y-94590485D01*
X173935763Y-94646503D01*
X174043982Y-94675500D01*
X174043984Y-94675500D01*
X174156016Y-94675500D01*
X174156018Y-94675500D01*
X174264237Y-94646503D01*
X174361263Y-94590485D01*
X174440485Y-94511263D01*
X174496503Y-94414237D01*
X174525500Y-94306018D01*
X174525500Y-94193982D01*
X176949500Y-94193982D01*
X176949500Y-94306018D01*
X176978497Y-94414237D01*
X177034515Y-94511263D01*
X177113737Y-94590485D01*
X177210763Y-94646503D01*
X177318982Y-94675500D01*
X177318984Y-94675500D01*
X177431016Y-94675500D01*
X177431018Y-94675500D01*
X177539237Y-94646503D01*
X177636263Y-94590485D01*
X177715485Y-94511263D01*
X177771503Y-94414237D01*
X177800500Y-94306018D01*
X177800500Y-94193982D01*
X177771503Y-94085763D01*
X177715485Y-93988737D01*
X177636263Y-93909515D01*
X177571579Y-93872169D01*
X177539239Y-93853498D01*
X177539238Y-93853497D01*
X177539237Y-93853497D01*
X177431018Y-93824500D01*
X177318982Y-93824500D01*
X177210763Y-93853497D01*
X177210760Y-93853498D01*
X177113740Y-93909513D01*
X177113734Y-93909517D01*
X177034517Y-93988734D01*
X177034513Y-93988740D01*
X176978498Y-94085760D01*
X176978497Y-94085763D01*
X176949500Y-94193982D01*
X174525500Y-94193982D01*
X174496503Y-94085763D01*
X174440485Y-93988737D01*
X174361263Y-93909515D01*
X174296579Y-93872169D01*
X174264239Y-93853498D01*
X174264238Y-93853497D01*
X174264237Y-93853497D01*
X174156018Y-93824500D01*
X174043982Y-93824500D01*
X173935763Y-93853497D01*
X173935760Y-93853498D01*
X173838740Y-93909513D01*
X173838734Y-93909517D01*
X173759517Y-93988734D01*
X173759513Y-93988740D01*
X173703498Y-94085760D01*
X173703497Y-94085763D01*
X173674500Y-94193982D01*
X153524000Y-94193982D01*
X153524000Y-94165282D01*
X153495003Y-94057063D01*
X153438985Y-93960037D01*
X153359763Y-93880815D01*
X153351656Y-93876134D01*
X153303441Y-93825568D01*
X153290218Y-93756961D01*
X153316187Y-93692096D01*
X153351655Y-93661362D01*
X153397863Y-93634685D01*
X153477085Y-93555463D01*
X153533103Y-93458437D01*
X153562100Y-93350218D01*
X153562100Y-93238182D01*
X153533103Y-93129963D01*
X153477085Y-93032937D01*
X153397863Y-92953715D01*
X153300837Y-92897697D01*
X153192618Y-92868700D01*
X153080582Y-92868700D01*
X152972363Y-92897697D01*
X152972360Y-92897698D01*
X152875340Y-92953713D01*
X152875334Y-92953717D01*
X152796117Y-93032934D01*
X152796113Y-93032940D01*
X152740098Y-93129960D01*
X152740097Y-93129963D01*
X152711100Y-93238182D01*
X152711100Y-93350218D01*
X152740097Y-93458437D01*
X152796115Y-93555463D01*
X152875337Y-93634685D01*
X152883440Y-93639363D01*
X152931656Y-93689929D01*
X152944881Y-93758536D01*
X152918914Y-93823401D01*
X152883443Y-93854138D01*
X152837237Y-93880815D01*
X152837234Y-93880817D01*
X152758017Y-93960034D01*
X152758013Y-93960040D01*
X152701998Y-94057060D01*
X152701997Y-94057063D01*
X152673000Y-94165282D01*
X109417507Y-94165282D01*
X109843230Y-92806382D01*
X134143700Y-92806382D01*
X134143700Y-92918418D01*
X134172393Y-93025500D01*
X134172697Y-93026636D01*
X134172698Y-93026639D01*
X134176334Y-93032937D01*
X134228715Y-93123663D01*
X134307937Y-93202885D01*
X134404963Y-93258903D01*
X134513182Y-93287900D01*
X134513184Y-93287900D01*
X134625216Y-93287900D01*
X134625218Y-93287900D01*
X134733437Y-93258903D01*
X134830463Y-93202885D01*
X134909685Y-93123663D01*
X134965703Y-93026637D01*
X134994700Y-92918418D01*
X134994700Y-92806382D01*
X134965703Y-92698163D01*
X134909685Y-92601137D01*
X134852530Y-92543982D01*
X174824500Y-92543982D01*
X174824500Y-92656018D01*
X174853497Y-92764237D01*
X174909515Y-92861263D01*
X174988737Y-92940485D01*
X175085763Y-92996503D01*
X175193982Y-93025500D01*
X175193984Y-93025500D01*
X175306016Y-93025500D01*
X175306018Y-93025500D01*
X175414237Y-92996503D01*
X175511263Y-92940485D01*
X175590485Y-92861263D01*
X175646503Y-92764237D01*
X175675500Y-92656018D01*
X175675500Y-92543982D01*
X175668801Y-92518982D01*
X177774500Y-92518982D01*
X177774500Y-92631018D01*
X177803497Y-92739237D01*
X177859515Y-92836263D01*
X177938737Y-92915485D01*
X178035763Y-92971503D01*
X178143982Y-93000500D01*
X178143984Y-93000500D01*
X178256016Y-93000500D01*
X178256018Y-93000500D01*
X178364237Y-92971503D01*
X178461263Y-92915485D01*
X178540485Y-92836263D01*
X178596503Y-92739237D01*
X178625500Y-92631018D01*
X178625500Y-92518982D01*
X178596503Y-92410763D01*
X178540485Y-92313737D01*
X178461263Y-92234515D01*
X178364237Y-92178497D01*
X178256018Y-92149500D01*
X178143982Y-92149500D01*
X178035763Y-92178497D01*
X178035760Y-92178498D01*
X177938740Y-92234513D01*
X177938734Y-92234517D01*
X177859517Y-92313734D01*
X177859513Y-92313740D01*
X177803498Y-92410760D01*
X177803497Y-92410763D01*
X177774500Y-92518982D01*
X175668801Y-92518982D01*
X175646503Y-92435763D01*
X175590485Y-92338737D01*
X175511263Y-92259515D01*
X175414237Y-92203497D01*
X175306018Y-92174500D01*
X175193982Y-92174500D01*
X175085763Y-92203497D01*
X175085760Y-92203498D01*
X174988740Y-92259513D01*
X174988734Y-92259517D01*
X174909517Y-92338734D01*
X174909513Y-92338740D01*
X174853498Y-92435760D01*
X174853498Y-92435761D01*
X174853497Y-92435763D01*
X174824500Y-92543982D01*
X134852530Y-92543982D01*
X134830463Y-92521915D01*
X134733437Y-92465897D01*
X134625218Y-92436900D01*
X134513182Y-92436900D01*
X134404963Y-92465897D01*
X134404960Y-92465898D01*
X134307940Y-92521913D01*
X134307934Y-92521917D01*
X134228717Y-92601134D01*
X134228713Y-92601140D01*
X134172698Y-92698160D01*
X134172697Y-92698163D01*
X134143700Y-92806382D01*
X109843230Y-92806382D01*
X110238721Y-91543982D01*
X134149500Y-91543982D01*
X134149500Y-91656018D01*
X134171892Y-91739584D01*
X134178497Y-91764236D01*
X134178498Y-91764239D01*
X134197169Y-91796579D01*
X134234515Y-91861263D01*
X134313737Y-91940485D01*
X134410763Y-91996503D01*
X134518982Y-92025500D01*
X134518984Y-92025500D01*
X134631016Y-92025500D01*
X134631018Y-92025500D01*
X134739237Y-91996503D01*
X134836263Y-91940485D01*
X134915485Y-91861263D01*
X134927079Y-91841182D01*
X140613900Y-91841182D01*
X140613900Y-91953218D01*
X140642897Y-92061437D01*
X140698915Y-92158463D01*
X140778137Y-92237685D01*
X140875163Y-92293703D01*
X140983382Y-92322700D01*
X140983384Y-92322700D01*
X141095416Y-92322700D01*
X141095418Y-92322700D01*
X141203637Y-92293703D01*
X141300663Y-92237685D01*
X141379885Y-92158463D01*
X141435903Y-92061437D01*
X141464900Y-91953218D01*
X141464900Y-91841182D01*
X141435903Y-91732963D01*
X141379885Y-91635937D01*
X141300663Y-91556715D01*
X141203637Y-91500697D01*
X141095418Y-91471700D01*
X140983382Y-91471700D01*
X140875163Y-91500697D01*
X140875160Y-91500698D01*
X140778140Y-91556713D01*
X140778134Y-91556717D01*
X140698917Y-91635934D01*
X140698913Y-91635940D01*
X140642898Y-91732960D01*
X140642897Y-91732963D01*
X140613900Y-91841182D01*
X134927079Y-91841182D01*
X134955971Y-91791138D01*
X134967567Y-91771055D01*
X134967567Y-91771054D01*
X134971503Y-91764237D01*
X135000500Y-91656018D01*
X135000500Y-91543982D01*
X134971503Y-91435763D01*
X134926943Y-91358582D01*
X142068500Y-91358582D01*
X142068500Y-91470618D01*
X142097497Y-91578837D01*
X142153515Y-91675863D01*
X142232737Y-91755085D01*
X142329763Y-91811103D01*
X142437982Y-91840100D01*
X142437984Y-91840100D01*
X142550016Y-91840100D01*
X142550018Y-91840100D01*
X142658237Y-91811103D01*
X142755263Y-91755085D01*
X142834485Y-91675863D01*
X142838458Y-91668982D01*
X143324500Y-91668982D01*
X143324500Y-91781018D01*
X143353497Y-91889237D01*
X143409515Y-91986263D01*
X143488737Y-92065485D01*
X143585763Y-92121503D01*
X143693982Y-92150500D01*
X143693984Y-92150500D01*
X143806016Y-92150500D01*
X143806018Y-92150500D01*
X143914237Y-92121503D01*
X144011263Y-92065485D01*
X144090485Y-91986263D01*
X144146503Y-91889237D01*
X144175500Y-91781018D01*
X144175500Y-91739582D01*
X153574700Y-91739582D01*
X153574700Y-91851618D01*
X153603697Y-91959837D01*
X153659715Y-92056863D01*
X153738937Y-92136085D01*
X153835963Y-92192103D01*
X153944182Y-92221100D01*
X153944184Y-92221100D01*
X154056216Y-92221100D01*
X154056218Y-92221100D01*
X154164437Y-92192103D01*
X154261463Y-92136085D01*
X154340685Y-92056863D01*
X154396703Y-91959837D01*
X154425700Y-91851618D01*
X154425700Y-91739582D01*
X154396703Y-91631363D01*
X154340685Y-91534337D01*
X154261463Y-91455115D01*
X154164437Y-91399097D01*
X154056218Y-91370100D01*
X153944182Y-91370100D01*
X153835963Y-91399097D01*
X153835960Y-91399098D01*
X153738940Y-91455113D01*
X153738934Y-91455117D01*
X153659717Y-91534334D01*
X153659713Y-91534340D01*
X153603698Y-91631360D01*
X153603697Y-91631363D01*
X153574700Y-91739582D01*
X144175500Y-91739582D01*
X144175500Y-91668982D01*
X144146503Y-91560763D01*
X144090485Y-91463737D01*
X144011263Y-91384515D01*
X143946579Y-91347169D01*
X143914239Y-91328498D01*
X143914238Y-91328497D01*
X143914237Y-91328497D01*
X143806018Y-91299500D01*
X143693982Y-91299500D01*
X143585763Y-91328497D01*
X143585760Y-91328498D01*
X143488740Y-91384513D01*
X143488734Y-91384517D01*
X143409517Y-91463734D01*
X143409513Y-91463740D01*
X143353498Y-91560760D01*
X143353497Y-91560763D01*
X143324500Y-91668982D01*
X142838458Y-91668982D01*
X142890503Y-91578837D01*
X142919500Y-91470618D01*
X142919500Y-91358582D01*
X142890503Y-91250363D01*
X142834485Y-91153337D01*
X142755263Y-91074115D01*
X142658237Y-91018097D01*
X142550018Y-90989100D01*
X142437982Y-90989100D01*
X142329763Y-91018097D01*
X142329760Y-91018098D01*
X142232740Y-91074113D01*
X142232734Y-91074117D01*
X142153517Y-91153334D01*
X142153513Y-91153340D01*
X142097498Y-91250360D01*
X142097497Y-91250363D01*
X142068500Y-91358582D01*
X134926943Y-91358582D01*
X134915485Y-91338737D01*
X134836263Y-91259515D01*
X134739237Y-91203497D01*
X134631018Y-91174500D01*
X134518982Y-91174500D01*
X134410763Y-91203497D01*
X134410760Y-91203498D01*
X134313740Y-91259513D01*
X134313734Y-91259517D01*
X134234517Y-91338734D01*
X134234513Y-91338740D01*
X134178498Y-91435760D01*
X134178497Y-91435763D01*
X134149500Y-91543982D01*
X110238721Y-91543982D01*
X110631017Y-90291782D01*
X141382700Y-90291782D01*
X141382700Y-90403818D01*
X141411697Y-90512037D01*
X141467715Y-90609063D01*
X141546937Y-90688285D01*
X141643963Y-90744303D01*
X141752182Y-90773300D01*
X141752184Y-90773300D01*
X141864216Y-90773300D01*
X141864218Y-90773300D01*
X141972437Y-90744303D01*
X142069463Y-90688285D01*
X142148685Y-90609063D01*
X142204703Y-90512037D01*
X142233700Y-90403818D01*
X142233700Y-90291782D01*
X142204703Y-90183563D01*
X142148685Y-90086537D01*
X142069463Y-90007315D01*
X141972437Y-89951297D01*
X141864218Y-89922300D01*
X141752182Y-89922300D01*
X141643963Y-89951297D01*
X141643960Y-89951298D01*
X141546940Y-90007313D01*
X141546934Y-90007317D01*
X141467717Y-90086534D01*
X141467713Y-90086540D01*
X141411698Y-90183560D01*
X141411697Y-90183563D01*
X141382700Y-90291782D01*
X110631017Y-90291782D01*
X110798123Y-89758382D01*
X139782500Y-89758382D01*
X139782500Y-89870418D01*
X139811497Y-89978637D01*
X139867515Y-90075663D01*
X139946737Y-90154885D01*
X140043763Y-90210903D01*
X140151982Y-90239900D01*
X140151984Y-90239900D01*
X140264016Y-90239900D01*
X140264018Y-90239900D01*
X140372237Y-90210903D01*
X140469263Y-90154885D01*
X140548485Y-90075663D01*
X140604503Y-89978637D01*
X140633500Y-89870418D01*
X140633500Y-89758382D01*
X140604503Y-89650163D01*
X140548485Y-89553137D01*
X140469263Y-89473915D01*
X140372237Y-89417897D01*
X140264018Y-89388900D01*
X140151982Y-89388900D01*
X140043763Y-89417897D01*
X140043760Y-89417898D01*
X139946740Y-89473913D01*
X139946734Y-89473917D01*
X139867517Y-89553134D01*
X139867513Y-89553140D01*
X139811498Y-89650160D01*
X139811497Y-89650163D01*
X139782500Y-89758382D01*
X110798123Y-89758382D01*
X112432840Y-84540400D01*
X112823957Y-83291964D01*
X113393134Y-81475160D01*
X113439964Y-81325678D01*
X119788000Y-81325678D01*
X119788000Y-81524321D01*
X119819075Y-81720520D01*
X119819075Y-81720523D01*
X119880457Y-81909437D01*
X119970641Y-82086432D01*
X119997730Y-82123715D01*
X119997731Y-82123716D01*
X120669000Y-81452447D01*
X120669000Y-81475160D01*
X120694964Y-81572061D01*
X120745124Y-81658940D01*
X120816060Y-81729876D01*
X120902939Y-81780036D01*
X120999840Y-81806000D01*
X121022553Y-81806000D01*
X120351283Y-82477268D01*
X120351283Y-82477269D01*
X120388567Y-82504358D01*
X120429673Y-82525303D01*
X120480469Y-82573278D01*
X120497264Y-82641099D01*
X120474727Y-82707234D01*
X120461060Y-82723469D01*
X120341214Y-82843315D01*
X120241356Y-82992762D01*
X120241349Y-82992775D01*
X120172568Y-83158829D01*
X120172565Y-83158841D01*
X120137500Y-83335122D01*
X120137500Y-83514877D01*
X120172565Y-83691158D01*
X120172568Y-83691170D01*
X120241349Y-83857224D01*
X120241356Y-83857237D01*
X120341214Y-84006684D01*
X120341217Y-84006688D01*
X120468311Y-84133782D01*
X120468315Y-84133785D01*
X120617762Y-84233643D01*
X120617775Y-84233650D01*
X120766710Y-84295340D01*
X120783834Y-84302433D01*
X120783838Y-84302433D01*
X120783839Y-84302434D01*
X120788608Y-84303383D01*
X120850519Y-84335768D01*
X120885093Y-84396484D01*
X120881352Y-84466254D01*
X120840486Y-84522926D01*
X120788608Y-84546617D01*
X120783839Y-84547565D01*
X120783829Y-84547568D01*
X120617775Y-84616349D01*
X120617762Y-84616356D01*
X120468315Y-84716214D01*
X120468311Y-84716217D01*
X120341217Y-84843311D01*
X120341214Y-84843315D01*
X120241356Y-84992762D01*
X120241349Y-84992775D01*
X120172568Y-85158829D01*
X120172565Y-85158841D01*
X120137500Y-85335122D01*
X120137500Y-85514877D01*
X120172565Y-85691158D01*
X120172568Y-85691170D01*
X120241349Y-85857224D01*
X120241356Y-85857237D01*
X120341214Y-86006684D01*
X120341217Y-86006688D01*
X120468311Y-86133782D01*
X120468315Y-86133785D01*
X120617762Y-86233643D01*
X120617775Y-86233650D01*
X120715042Y-86273939D01*
X120769446Y-86317780D01*
X120791511Y-86384074D01*
X120774232Y-86451773D01*
X120723095Y-86499384D01*
X120667590Y-86512500D01*
X120273178Y-86512500D01*
X120229282Y-86521231D01*
X120229275Y-86521234D01*
X120179496Y-86554495D01*
X120179495Y-86554496D01*
X120146234Y-86604275D01*
X120146231Y-86604282D01*
X120137500Y-86648177D01*
X120137500Y-86648180D01*
X120137500Y-88201820D01*
X120137500Y-88201822D01*
X120137499Y-88201822D01*
X120146231Y-88245717D01*
X120146232Y-88245721D01*
X120146233Y-88245722D01*
X120179496Y-88295504D01*
X120229278Y-88328767D01*
X120229281Y-88328767D01*
X120229282Y-88328768D01*
X120273177Y-88337500D01*
X120273180Y-88337500D01*
X121826822Y-88337500D01*
X121870717Y-88328768D01*
X121870717Y-88328767D01*
X121870722Y-88328767D01*
X121920504Y-88295504D01*
X121953767Y-88245722D01*
X121962500Y-88201820D01*
X121962500Y-87653856D01*
X177924500Y-87653856D01*
X177924500Y-87746143D01*
X177948387Y-87835290D01*
X177948388Y-87835293D01*
X177994526Y-87915205D01*
X177994529Y-87915209D01*
X177994531Y-87915212D01*
X178059788Y-87980469D01*
X178059791Y-87980470D01*
X178059794Y-87980473D01*
X178139706Y-88026611D01*
X178139707Y-88026611D01*
X178139712Y-88026614D01*
X178228856Y-88050500D01*
X178228858Y-88050500D01*
X178321142Y-88050500D01*
X178321144Y-88050500D01*
X178410288Y-88026614D01*
X178490212Y-87980469D01*
X178555469Y-87915212D01*
X178601614Y-87835288D01*
X178625500Y-87746144D01*
X178625500Y-87653856D01*
X178601614Y-87564712D01*
X178601611Y-87564706D01*
X178555473Y-87484794D01*
X178555470Y-87484791D01*
X178555469Y-87484788D01*
X178490212Y-87419531D01*
X178490209Y-87419529D01*
X178490205Y-87419526D01*
X178410293Y-87373388D01*
X178410290Y-87373387D01*
X178410289Y-87373386D01*
X178410288Y-87373386D01*
X178321144Y-87349500D01*
X178228856Y-87349500D01*
X178139712Y-87373386D01*
X178139711Y-87373386D01*
X178139709Y-87373387D01*
X178139706Y-87373388D01*
X178059794Y-87419526D01*
X178059785Y-87419533D01*
X177994533Y-87484785D01*
X177994526Y-87484794D01*
X177948388Y-87564706D01*
X177948387Y-87564709D01*
X177924500Y-87653856D01*
X121962500Y-87653856D01*
X121962500Y-86648180D01*
X121962500Y-86648177D01*
X121953768Y-86604282D01*
X121953767Y-86604281D01*
X121953767Y-86604278D01*
X121920504Y-86554496D01*
X121920503Y-86554495D01*
X121870724Y-86521234D01*
X121870717Y-86521231D01*
X121826822Y-86512500D01*
X121826820Y-86512500D01*
X121432410Y-86512500D01*
X121365371Y-86492815D01*
X121319616Y-86440011D01*
X121309672Y-86370853D01*
X121338697Y-86307297D01*
X121384958Y-86273939D01*
X121482224Y-86233650D01*
X121482224Y-86233649D01*
X121482231Y-86233647D01*
X121631685Y-86133785D01*
X121758785Y-86006685D01*
X121858647Y-85857231D01*
X121862975Y-85846782D01*
X140061900Y-85846782D01*
X140061900Y-85958818D01*
X140065363Y-85971740D01*
X140090897Y-86067036D01*
X140090898Y-86067039D01*
X140109569Y-86099379D01*
X140146915Y-86164063D01*
X140226137Y-86243285D01*
X140323163Y-86299303D01*
X140431382Y-86328300D01*
X140431384Y-86328300D01*
X140543416Y-86328300D01*
X140543418Y-86328300D01*
X140651637Y-86299303D01*
X140748663Y-86243285D01*
X140814966Y-86176982D01*
X145294300Y-86176982D01*
X145294300Y-86289018D01*
X145323297Y-86397237D01*
X145379315Y-86494263D01*
X145458537Y-86573485D01*
X145555563Y-86629503D01*
X145663782Y-86658500D01*
X145663784Y-86658500D01*
X145775816Y-86658500D01*
X145775818Y-86658500D01*
X145884037Y-86629503D01*
X145981063Y-86573485D01*
X146060285Y-86494263D01*
X146116303Y-86397237D01*
X146145300Y-86289018D01*
X146145300Y-86176982D01*
X146116303Y-86068763D01*
X146060285Y-85971737D01*
X145981063Y-85892515D01*
X145884037Y-85836497D01*
X145775818Y-85807500D01*
X145663782Y-85807500D01*
X145555563Y-85836497D01*
X145555560Y-85836498D01*
X145458540Y-85892513D01*
X145458534Y-85892517D01*
X145379317Y-85971734D01*
X145379313Y-85971740D01*
X145323298Y-86068760D01*
X145323297Y-86068763D01*
X145294300Y-86176982D01*
X140814966Y-86176982D01*
X140827885Y-86164063D01*
X140883903Y-86067037D01*
X140912900Y-85958818D01*
X140912900Y-85846782D01*
X140883903Y-85738563D01*
X140827885Y-85641537D01*
X140748663Y-85562315D01*
X140734012Y-85553856D01*
X177174500Y-85553856D01*
X177174500Y-85646144D01*
X177186561Y-85691158D01*
X177198387Y-85735290D01*
X177198388Y-85735293D01*
X177244526Y-85815205D01*
X177244529Y-85815209D01*
X177244531Y-85815212D01*
X177309788Y-85880469D01*
X177309791Y-85880470D01*
X177309794Y-85880473D01*
X177389706Y-85926611D01*
X177389707Y-85926611D01*
X177389712Y-85926614D01*
X177478856Y-85950500D01*
X177478858Y-85950500D01*
X177571142Y-85950500D01*
X177571144Y-85950500D01*
X177660288Y-85926614D01*
X177740212Y-85880469D01*
X177805469Y-85815212D01*
X177851614Y-85735288D01*
X177875500Y-85646144D01*
X177875500Y-85553856D01*
X177851614Y-85464712D01*
X177851611Y-85464706D01*
X177805473Y-85384794D01*
X177805470Y-85384791D01*
X177805469Y-85384788D01*
X177740212Y-85319531D01*
X177740209Y-85319529D01*
X177740205Y-85319526D01*
X177660293Y-85273388D01*
X177660290Y-85273387D01*
X177660289Y-85273386D01*
X177660288Y-85273386D01*
X177571144Y-85249500D01*
X177478856Y-85249500D01*
X177389712Y-85273386D01*
X177389711Y-85273386D01*
X177389709Y-85273387D01*
X177389706Y-85273388D01*
X177309794Y-85319526D01*
X177309785Y-85319533D01*
X177244533Y-85384785D01*
X177244526Y-85384794D01*
X177198388Y-85464706D01*
X177198387Y-85464709D01*
X177198386Y-85464711D01*
X177198386Y-85464712D01*
X177174500Y-85553856D01*
X140734012Y-85553856D01*
X140651637Y-85506297D01*
X140543418Y-85477300D01*
X140431382Y-85477300D01*
X140323163Y-85506297D01*
X140323160Y-85506298D01*
X140226140Y-85562313D01*
X140226134Y-85562317D01*
X140146917Y-85641534D01*
X140146913Y-85641540D01*
X140090898Y-85738560D01*
X140090897Y-85738563D01*
X140061900Y-85846782D01*
X121862975Y-85846782D01*
X121876055Y-85815205D01*
X121885997Y-85791203D01*
X121927431Y-85691170D01*
X121927433Y-85691166D01*
X121962500Y-85514873D01*
X121962500Y-85335127D01*
X121962500Y-85335124D01*
X121962499Y-85335122D01*
X121950219Y-85273386D01*
X121927433Y-85158834D01*
X121927431Y-85158829D01*
X121858650Y-84992775D01*
X121858643Y-84992762D01*
X121758785Y-84843315D01*
X121758782Y-84843311D01*
X121631688Y-84716217D01*
X121631684Y-84716214D01*
X121482237Y-84616356D01*
X121482227Y-84616351D01*
X121460715Y-84607440D01*
X121460675Y-84607424D01*
X121316166Y-84547567D01*
X121300523Y-84544455D01*
X121290209Y-84540400D01*
X121271014Y-84525496D01*
X121249482Y-84514233D01*
X121243912Y-84504453D01*
X121238927Y-84500582D01*
X148520100Y-84500582D01*
X148520100Y-84612618D01*
X148549097Y-84720837D01*
X148605115Y-84817863D01*
X148684337Y-84897085D01*
X148781363Y-84953103D01*
X148889582Y-84982100D01*
X148889584Y-84982100D01*
X149001616Y-84982100D01*
X149001618Y-84982100D01*
X149109837Y-84953103D01*
X149206863Y-84897085D01*
X149286085Y-84817863D01*
X149342103Y-84720837D01*
X149371100Y-84612618D01*
X149371100Y-84500582D01*
X149342103Y-84392363D01*
X149286085Y-84295337D01*
X149206863Y-84216115D01*
X149109837Y-84160097D01*
X149001618Y-84131100D01*
X148889582Y-84131100D01*
X148781363Y-84160097D01*
X148781360Y-84160098D01*
X148684340Y-84216113D01*
X148684334Y-84216117D01*
X148605117Y-84295334D01*
X148605113Y-84295340D01*
X148549098Y-84392360D01*
X148549097Y-84392363D01*
X148520100Y-84500582D01*
X121238927Y-84500582D01*
X121235022Y-84497550D01*
X121226931Y-84474633D01*
X121214907Y-84453518D01*
X121215509Y-84442280D01*
X121211762Y-84431666D01*
X121217345Y-84408013D01*
X121218646Y-84383748D01*
X121225229Y-84374618D01*
X121227815Y-84363665D01*
X121245298Y-84346787D01*
X121259512Y-84327076D01*
X121271287Y-84321698D01*
X121278083Y-84315138D01*
X121291504Y-84312464D01*
X121311391Y-84303382D01*
X121316166Y-84302433D01*
X121482231Y-84233647D01*
X121631685Y-84133785D01*
X121758785Y-84006685D01*
X121858647Y-83857231D01*
X121866158Y-83839099D01*
X121901372Y-83754082D01*
X121927433Y-83691166D01*
X121962500Y-83514873D01*
X121962500Y-83357582D01*
X143160700Y-83357582D01*
X143160700Y-83469618D01*
X143184838Y-83559700D01*
X143189697Y-83577836D01*
X143189698Y-83577839D01*
X143193334Y-83584137D01*
X143245715Y-83674863D01*
X143324937Y-83754085D01*
X143421963Y-83810103D01*
X143530182Y-83839100D01*
X143530184Y-83839100D01*
X143642216Y-83839100D01*
X143642218Y-83839100D01*
X143750437Y-83810103D01*
X143786327Y-83789382D01*
X149561500Y-83789382D01*
X149561500Y-83901418D01*
X149590497Y-84009637D01*
X149646515Y-84106663D01*
X149725737Y-84185885D01*
X149822763Y-84241903D01*
X149930982Y-84270900D01*
X149930984Y-84270900D01*
X150043016Y-84270900D01*
X150043018Y-84270900D01*
X150151237Y-84241903D01*
X150248263Y-84185885D01*
X150327485Y-84106663D01*
X150383503Y-84009637D01*
X150412500Y-83901418D01*
X150412500Y-83789382D01*
X150383503Y-83681163D01*
X150369253Y-83656482D01*
X176162000Y-83656482D01*
X176162000Y-83768518D01*
X176190997Y-83876737D01*
X176247015Y-83973763D01*
X176326237Y-84052985D01*
X176423263Y-84109003D01*
X176531482Y-84138000D01*
X176531484Y-84138000D01*
X176643516Y-84138000D01*
X176643518Y-84138000D01*
X176751737Y-84109003D01*
X176848763Y-84052985D01*
X176927985Y-83973763D01*
X176984003Y-83876737D01*
X177013000Y-83768518D01*
X177013000Y-83656482D01*
X176984003Y-83548263D01*
X176927985Y-83451237D01*
X176848763Y-83372015D01*
X176751737Y-83315997D01*
X176643518Y-83287000D01*
X176531482Y-83287000D01*
X176423263Y-83315997D01*
X176423260Y-83315998D01*
X176326240Y-83372013D01*
X176326234Y-83372017D01*
X176247017Y-83451234D01*
X176247013Y-83451240D01*
X176190998Y-83548260D01*
X176190997Y-83548263D01*
X176162000Y-83656482D01*
X150369253Y-83656482D01*
X150327485Y-83584137D01*
X150248263Y-83504915D01*
X150151237Y-83448897D01*
X150043018Y-83419900D01*
X149930982Y-83419900D01*
X149822763Y-83448897D01*
X149822760Y-83448898D01*
X149725740Y-83504913D01*
X149725734Y-83504917D01*
X149646517Y-83584134D01*
X149646513Y-83584140D01*
X149590498Y-83681160D01*
X149590497Y-83681163D01*
X149561500Y-83789382D01*
X143786327Y-83789382D01*
X143847463Y-83754085D01*
X143926685Y-83674863D01*
X143982703Y-83577837D01*
X144011700Y-83469618D01*
X144011700Y-83469616D01*
X144013803Y-83461768D01*
X144017197Y-83462677D01*
X144038842Y-83413575D01*
X144097116Y-83375026D01*
X144166979Y-83374102D01*
X144221302Y-83405850D01*
X144290137Y-83474685D01*
X144387163Y-83530703D01*
X144495382Y-83559700D01*
X144495384Y-83559700D01*
X144607416Y-83559700D01*
X144607418Y-83559700D01*
X144715637Y-83530703D01*
X144812663Y-83474685D01*
X144891885Y-83395463D01*
X144947903Y-83298437D01*
X144976900Y-83190218D01*
X144976900Y-83078182D01*
X144947903Y-82969963D01*
X144891885Y-82872937D01*
X144812663Y-82793715D01*
X144715637Y-82737697D01*
X144607418Y-82708700D01*
X144495382Y-82708700D01*
X144387163Y-82737697D01*
X144387160Y-82737698D01*
X144290140Y-82793713D01*
X144290134Y-82793717D01*
X144210917Y-82872934D01*
X144210913Y-82872940D01*
X144154898Y-82969960D01*
X144154897Y-82969963D01*
X144127259Y-83073113D01*
X144123797Y-83086032D01*
X144120463Y-83085138D01*
X144098486Y-83134544D01*
X144040083Y-83172895D01*
X143970217Y-83173583D01*
X143916297Y-83141949D01*
X143847465Y-83073117D01*
X143847463Y-83073115D01*
X143750437Y-83017097D01*
X143642218Y-82988100D01*
X143530182Y-82988100D01*
X143421963Y-83017097D01*
X143421960Y-83017098D01*
X143324940Y-83073113D01*
X143324934Y-83073117D01*
X143245717Y-83152334D01*
X143245713Y-83152340D01*
X143189698Y-83249360D01*
X143189697Y-83249363D01*
X143160700Y-83357582D01*
X121962500Y-83357582D01*
X121962500Y-83335127D01*
X121962500Y-83335124D01*
X121962499Y-83335122D01*
X121945440Y-83249360D01*
X121927433Y-83158834D01*
X121897278Y-83086032D01*
X121858650Y-82992775D01*
X121858643Y-82992762D01*
X121758785Y-82843315D01*
X121758782Y-82843311D01*
X121638940Y-82723469D01*
X121605455Y-82662146D01*
X121610439Y-82592454D01*
X121652311Y-82536521D01*
X121670328Y-82525302D01*
X121711425Y-82504362D01*
X121748715Y-82477268D01*
X121690429Y-82418982D01*
X175924500Y-82418982D01*
X175924500Y-82531018D01*
X175947366Y-82616353D01*
X175953497Y-82639236D01*
X175953498Y-82639239D01*
X175972169Y-82671579D01*
X176009515Y-82736263D01*
X176088737Y-82815485D01*
X176185763Y-82871503D01*
X176293982Y-82900500D01*
X176293984Y-82900500D01*
X176406016Y-82900500D01*
X176406018Y-82900500D01*
X176514237Y-82871503D01*
X176611263Y-82815485D01*
X176690485Y-82736263D01*
X176746503Y-82639237D01*
X176775500Y-82531018D01*
X176775500Y-82418982D01*
X176746503Y-82310763D01*
X176690485Y-82213737D01*
X176611263Y-82134515D01*
X176514237Y-82078497D01*
X176406018Y-82049500D01*
X176293982Y-82049500D01*
X176185763Y-82078497D01*
X176185760Y-82078498D01*
X176088740Y-82134513D01*
X176088734Y-82134517D01*
X176009517Y-82213734D01*
X176009513Y-82213740D01*
X175953498Y-82310760D01*
X175953497Y-82310763D01*
X175924500Y-82418982D01*
X121690429Y-82418982D01*
X121077448Y-81806000D01*
X121100160Y-81806000D01*
X121197061Y-81780036D01*
X121283940Y-81729876D01*
X121354876Y-81658940D01*
X121405036Y-81572061D01*
X121431000Y-81475160D01*
X121431000Y-81452447D01*
X122102268Y-82123715D01*
X122129362Y-82086425D01*
X122219542Y-81909437D01*
X122280924Y-81720523D01*
X122280924Y-81720520D01*
X122312000Y-81524321D01*
X122312000Y-81325678D01*
X122280924Y-81129479D01*
X122280924Y-81129476D01*
X122219542Y-80940562D01*
X122154113Y-80812150D01*
X122154112Y-80812146D01*
X122129570Y-80763982D01*
X133785300Y-80763982D01*
X133785300Y-80876018D01*
X133814297Y-80984237D01*
X133870315Y-81081263D01*
X133949537Y-81160485D01*
X134046563Y-81216503D01*
X134154782Y-81245500D01*
X134154784Y-81245500D01*
X134266816Y-81245500D01*
X134266818Y-81245500D01*
X134375037Y-81216503D01*
X134472063Y-81160485D01*
X134551285Y-81081263D01*
X134607303Y-80984237D01*
X134636300Y-80876018D01*
X134636300Y-80763982D01*
X134607303Y-80655763D01*
X134551285Y-80558737D01*
X134472063Y-80479515D01*
X134375037Y-80423497D01*
X134266818Y-80394500D01*
X134154782Y-80394500D01*
X134046563Y-80423497D01*
X134046560Y-80423498D01*
X133949540Y-80479513D01*
X133949534Y-80479517D01*
X133870317Y-80558734D01*
X133870313Y-80558740D01*
X133814298Y-80655760D01*
X133814297Y-80655763D01*
X133785300Y-80763982D01*
X122129570Y-80763982D01*
X122129363Y-80763575D01*
X122129360Y-80763569D01*
X122102268Y-80726283D01*
X121431000Y-81397551D01*
X121431000Y-81374840D01*
X121405036Y-81277939D01*
X121354876Y-81191060D01*
X121283940Y-81120124D01*
X121197061Y-81069964D01*
X121100160Y-81044000D01*
X121077447Y-81044000D01*
X121748716Y-80372731D01*
X121748715Y-80372730D01*
X121711432Y-80345641D01*
X121534437Y-80255457D01*
X121413572Y-80216186D01*
X121345522Y-80194075D01*
X121149321Y-80163000D01*
X120950679Y-80163000D01*
X120754479Y-80194075D01*
X120754476Y-80194075D01*
X120565562Y-80255457D01*
X120388564Y-80345643D01*
X120351283Y-80372729D01*
X120351282Y-80372730D01*
X121022554Y-81044000D01*
X120999840Y-81044000D01*
X120902939Y-81069964D01*
X120816060Y-81120124D01*
X120745124Y-81191060D01*
X120694964Y-81277939D01*
X120669000Y-81374840D01*
X120669000Y-81397552D01*
X119997730Y-80726282D01*
X119997729Y-80726283D01*
X119970643Y-80763564D01*
X119880457Y-80940562D01*
X119819075Y-81129476D01*
X119819075Y-81129479D01*
X119788000Y-81325678D01*
X113439964Y-81325678D01*
X113821951Y-80106382D01*
X143592500Y-80106382D01*
X143592500Y-80218418D01*
X143621497Y-80326637D01*
X143677515Y-80423663D01*
X143756737Y-80502885D01*
X143853763Y-80558903D01*
X143961982Y-80587900D01*
X143961984Y-80587900D01*
X144074016Y-80587900D01*
X144074018Y-80587900D01*
X144182237Y-80558903D01*
X144279263Y-80502885D01*
X144358485Y-80423663D01*
X144414503Y-80326637D01*
X144443500Y-80218418D01*
X144443500Y-80106382D01*
X144414503Y-79998163D01*
X144358485Y-79901137D01*
X144279263Y-79821915D01*
X144182237Y-79765897D01*
X144074018Y-79736900D01*
X143961982Y-79736900D01*
X143853763Y-79765897D01*
X143853760Y-79765898D01*
X143756740Y-79821913D01*
X143756734Y-79821917D01*
X143677517Y-79901134D01*
X143677513Y-79901140D01*
X143621498Y-79998160D01*
X143621497Y-79998163D01*
X143592500Y-80106382D01*
X113821951Y-80106382D01*
X114028845Y-79445982D01*
X142703500Y-79445982D01*
X142703500Y-79558018D01*
X142732497Y-79666237D01*
X142788515Y-79763263D01*
X142867737Y-79842485D01*
X142964763Y-79898503D01*
X143072982Y-79927500D01*
X143072984Y-79927500D01*
X143185016Y-79927500D01*
X143185018Y-79927500D01*
X143293237Y-79898503D01*
X143390263Y-79842485D01*
X143469485Y-79763263D01*
X143525503Y-79666237D01*
X143554500Y-79558018D01*
X143554500Y-79445982D01*
X143525503Y-79337763D01*
X143469485Y-79240737D01*
X143390263Y-79161515D01*
X143293237Y-79105497D01*
X143185018Y-79076500D01*
X143072982Y-79076500D01*
X142964763Y-79105497D01*
X142964760Y-79105498D01*
X142867740Y-79161513D01*
X142867734Y-79161517D01*
X142788517Y-79240734D01*
X142788513Y-79240740D01*
X142732498Y-79337760D01*
X142732497Y-79337763D01*
X142703500Y-79445982D01*
X114028845Y-79445982D01*
X114227781Y-78810982D01*
X134194500Y-78810982D01*
X134194500Y-78923018D01*
X134223497Y-79031237D01*
X134279515Y-79128263D01*
X134358737Y-79207485D01*
X134455763Y-79263503D01*
X134563982Y-79292500D01*
X134563984Y-79292500D01*
X134676016Y-79292500D01*
X134676018Y-79292500D01*
X134784237Y-79263503D01*
X134881263Y-79207485D01*
X134960485Y-79128263D01*
X135016503Y-79031237D01*
X135045500Y-78923018D01*
X135045500Y-78810982D01*
X135016503Y-78702763D01*
X134960485Y-78605737D01*
X134881263Y-78526515D01*
X134811815Y-78486419D01*
X134763599Y-78435852D01*
X134750377Y-78367245D01*
X134776345Y-78302380D01*
X134811813Y-78271646D01*
X134906663Y-78216885D01*
X134985885Y-78137663D01*
X135041903Y-78040637D01*
X135070900Y-77932418D01*
X135070900Y-77820382D01*
X135041903Y-77712163D01*
X134985885Y-77615137D01*
X134906663Y-77535915D01*
X134809637Y-77479897D01*
X134701418Y-77450900D01*
X134589382Y-77450900D01*
X134481163Y-77479897D01*
X134481160Y-77479898D01*
X134384140Y-77535913D01*
X134384134Y-77535917D01*
X134304917Y-77615134D01*
X134304913Y-77615140D01*
X134248898Y-77712160D01*
X134248897Y-77712163D01*
X134219900Y-77820382D01*
X134219900Y-77932418D01*
X134248897Y-78040637D01*
X134304915Y-78137663D01*
X134384137Y-78216885D01*
X134453584Y-78256980D01*
X134501799Y-78307547D01*
X134515023Y-78376154D01*
X134489055Y-78441019D01*
X134453585Y-78471754D01*
X134358737Y-78526515D01*
X134358734Y-78526517D01*
X134279517Y-78605734D01*
X134279513Y-78605740D01*
X134223498Y-78702760D01*
X134223497Y-78702763D01*
X134194500Y-78810982D01*
X114227781Y-78810982D01*
X115150844Y-75864582D01*
X139096700Y-75864582D01*
X139096700Y-75976618D01*
X139125697Y-76084837D01*
X139181715Y-76181863D01*
X139260937Y-76261085D01*
X139357963Y-76317103D01*
X139466182Y-76346100D01*
X139466184Y-76346100D01*
X139578216Y-76346100D01*
X139578218Y-76346100D01*
X139686437Y-76317103D01*
X139783463Y-76261085D01*
X139862685Y-76181863D01*
X139918703Y-76084837D01*
X139947700Y-75976618D01*
X139947700Y-75864582D01*
X139918703Y-75756363D01*
X139862685Y-75659337D01*
X139783463Y-75580115D01*
X139686437Y-75524097D01*
X139578218Y-75495100D01*
X139466182Y-75495100D01*
X139357963Y-75524097D01*
X139357960Y-75524098D01*
X139260940Y-75580113D01*
X139260934Y-75580117D01*
X139181717Y-75659334D01*
X139181713Y-75659340D01*
X139125698Y-75756360D01*
X139125697Y-75756363D01*
X139096700Y-75864582D01*
X115150844Y-75864582D01*
X116209184Y-72486382D01*
X148113700Y-72486382D01*
X148113700Y-72598418D01*
X148142697Y-72706637D01*
X148198715Y-72803663D01*
X148277937Y-72882885D01*
X148374963Y-72938903D01*
X148483182Y-72967900D01*
X148483184Y-72967900D01*
X148595216Y-72967900D01*
X148595218Y-72967900D01*
X148703437Y-72938903D01*
X148800463Y-72882885D01*
X148879685Y-72803663D01*
X148935703Y-72706637D01*
X148964700Y-72598418D01*
X148964700Y-72486382D01*
X148935703Y-72378163D01*
X148879685Y-72281137D01*
X148800463Y-72201915D01*
X148703437Y-72145897D01*
X148595218Y-72116900D01*
X148483182Y-72116900D01*
X148374963Y-72145897D01*
X148374960Y-72145898D01*
X148277940Y-72201913D01*
X148277934Y-72201917D01*
X148198717Y-72281134D01*
X148198713Y-72281140D01*
X148142698Y-72378160D01*
X148142697Y-72378163D01*
X148113700Y-72486382D01*
X116209184Y-72486382D01*
X118362162Y-65614121D01*
X119632600Y-65614121D01*
X119632600Y-65972790D01*
X119667755Y-66329731D01*
X119667758Y-66329748D01*
X119737725Y-66681504D01*
X119737728Y-66681515D01*
X119841849Y-67024756D01*
X119979109Y-67356130D01*
X119979111Y-67356135D01*
X120148179Y-67672439D01*
X120148196Y-67672467D01*
X120347442Y-67970661D01*
X120347459Y-67970684D01*
X120575000Y-68247943D01*
X120828612Y-68501555D01*
X120828617Y-68501559D01*
X120828618Y-68501560D01*
X121105877Y-68729101D01*
X121105884Y-68729106D01*
X121105894Y-68729113D01*
X121404088Y-68928359D01*
X121404093Y-68928362D01*
X121404105Y-68928370D01*
X121404114Y-68928374D01*
X121404116Y-68928376D01*
X121720420Y-69097444D01*
X121720422Y-69097444D01*
X121720428Y-69097448D01*
X122051801Y-69234707D01*
X122395031Y-69338825D01*
X122395037Y-69338826D01*
X122395040Y-69338827D01*
X122395051Y-69338830D01*
X122615632Y-69382705D01*
X122746814Y-69408799D01*
X123103762Y-69443956D01*
X123103765Y-69443956D01*
X123462435Y-69443956D01*
X123462438Y-69443956D01*
X123819386Y-69408799D01*
X123993509Y-69374163D01*
X124171148Y-69338830D01*
X124171159Y-69338827D01*
X124171159Y-69338826D01*
X124171169Y-69338825D01*
X124514399Y-69234707D01*
X124845772Y-69097448D01*
X125162095Y-68928370D01*
X125460323Y-68729101D01*
X125737582Y-68501560D01*
X125991204Y-68247938D01*
X126218745Y-67970679D01*
X126418014Y-67672451D01*
X126587092Y-67356128D01*
X126724351Y-67024755D01*
X126828469Y-66681525D01*
X126828471Y-66681515D01*
X126828474Y-66681504D01*
X126863807Y-66503865D01*
X126898443Y-66329742D01*
X126933600Y-65972794D01*
X126933600Y-65614118D01*
X126898443Y-65257170D01*
X126872349Y-65125988D01*
X126828474Y-64905407D01*
X126828471Y-64905396D01*
X126828470Y-64905393D01*
X126828469Y-64905387D01*
X126724351Y-64562157D01*
X126587092Y-64230784D01*
X126547191Y-64156135D01*
X126418020Y-63914472D01*
X126418018Y-63914470D01*
X126418014Y-63914461D01*
X126315764Y-63761432D01*
X126218757Y-63616250D01*
X126218750Y-63616240D01*
X126218745Y-63616233D01*
X125991204Y-63338974D01*
X125991203Y-63338973D01*
X125991199Y-63338968D01*
X125737587Y-63085356D01*
X125460328Y-62857815D01*
X125460305Y-62857798D01*
X125162111Y-62658552D01*
X125162083Y-62658535D01*
X124845779Y-62489467D01*
X124845774Y-62489465D01*
X124514400Y-62352205D01*
X124171159Y-62248084D01*
X124171148Y-62248081D01*
X123819392Y-62178114D01*
X123819375Y-62178111D01*
X123549451Y-62151526D01*
X123462438Y-62142956D01*
X123103762Y-62142956D01*
X123023287Y-62150882D01*
X122746824Y-62178111D01*
X122746807Y-62178114D01*
X122395051Y-62248081D01*
X122395040Y-62248084D01*
X122051799Y-62352205D01*
X121720425Y-62489465D01*
X121720420Y-62489467D01*
X121404116Y-62658535D01*
X121404088Y-62658552D01*
X121105894Y-62857798D01*
X121105871Y-62857815D01*
X120828612Y-63085356D01*
X120575000Y-63338968D01*
X120347459Y-63616227D01*
X120347442Y-63616250D01*
X120148196Y-63914444D01*
X120148179Y-63914472D01*
X119979111Y-64230776D01*
X119979109Y-64230781D01*
X119841849Y-64562155D01*
X119737728Y-64905396D01*
X119737725Y-64905407D01*
X119667758Y-65257163D01*
X119667755Y-65257180D01*
X119632600Y-65614121D01*
X118362162Y-65614121D01*
X118750019Y-64376088D01*
X118751718Y-64371051D01*
X118888718Y-63992073D01*
X118892787Y-63982178D01*
X119060916Y-63618890D01*
X119065816Y-63609403D01*
X119264722Y-63262014D01*
X119270435Y-63252968D01*
X119498620Y-62924088D01*
X119505095Y-62915568D01*
X119760872Y-62607632D01*
X119768042Y-62599723D01*
X120049488Y-62315049D01*
X120057327Y-62307779D01*
X120362304Y-62048527D01*
X120370764Y-62041945D01*
X120697004Y-61810034D01*
X120705994Y-61804210D01*
X121051092Y-61601357D01*
X121060535Y-61596343D01*
X121421863Y-61424092D01*
X121431737Y-61419900D01*
X121431876Y-61419848D01*
X121806603Y-61279532D01*
X121816772Y-61276219D01*
X122202373Y-61168785D01*
X122212789Y-61166363D01*
X122606224Y-61092671D01*
X122616843Y-61091154D01*
X123015181Y-61051751D01*
X123025877Y-61051159D01*
X123426128Y-61046343D01*
X123436823Y-61046677D01*
X123836010Y-61076483D01*
X123846624Y-61077739D01*
X124241453Y-61141899D01*
X124241730Y-61141944D01*
X124252235Y-61144121D01*
X124349597Y-61168739D01*
X124640281Y-61242237D01*
X124650561Y-61245315D01*
X124739392Y-61276161D01*
X125028681Y-61376615D01*
X125038642Y-61380564D01*
X125404013Y-61544071D01*
X125413588Y-61548864D01*
X125593053Y-61648624D01*
X125763440Y-61743338D01*
X125772585Y-61748953D01*
X126104308Y-61972942D01*
X126112932Y-61979326D01*
X126424035Y-62231144D01*
X126432076Y-62238249D01*
X126722239Y-62517944D01*
X126726020Y-62521750D01*
X126756935Y-62554246D01*
X126756937Y-62554247D01*
X129328410Y-65257163D01*
X132927849Y-69040590D01*
X132928318Y-69041086D01*
X132956750Y-69071302D01*
X132985862Y-69102241D01*
X133123565Y-69213497D01*
X133213867Y-69268075D01*
X133275076Y-69305070D01*
X133322129Y-69325393D01*
X133437592Y-69375265D01*
X133608124Y-69422793D01*
X133783523Y-69446776D01*
X133783531Y-69446775D01*
X133783532Y-69446776D01*
X133863187Y-69446746D01*
X133872039Y-69446743D01*
X135703769Y-69446743D01*
X135703901Y-69446782D01*
X135755173Y-69446782D01*
X135755173Y-69446783D01*
X135834018Y-69446785D01*
X135988678Y-69416025D01*
X136134365Y-69355682D01*
X136265479Y-69268075D01*
X136376982Y-69156571D01*
X136464587Y-69025455D01*
X136524928Y-68879767D01*
X136555686Y-68725106D01*
X136555686Y-68725099D01*
X136556284Y-68719039D01*
X136557114Y-68719120D01*
X136559911Y-68697814D01*
X136563500Y-68684424D01*
X136563500Y-67960982D01*
X144487500Y-67960982D01*
X144487500Y-68073018D01*
X144516497Y-68181237D01*
X144572515Y-68278263D01*
X144651737Y-68357485D01*
X144748763Y-68413503D01*
X144856982Y-68442500D01*
X144856984Y-68442500D01*
X144969016Y-68442500D01*
X144969018Y-68442500D01*
X145077237Y-68413503D01*
X145174263Y-68357485D01*
X145253485Y-68278263D01*
X145309503Y-68181237D01*
X145338500Y-68073018D01*
X145338500Y-67960982D01*
X145309503Y-67852763D01*
X145253485Y-67755737D01*
X145174263Y-67676515D01*
X145077237Y-67620497D01*
X144969018Y-67591500D01*
X144856982Y-67591500D01*
X144748763Y-67620497D01*
X144748760Y-67620498D01*
X144651740Y-67676513D01*
X144651734Y-67676517D01*
X144572517Y-67755734D01*
X144572513Y-67755740D01*
X144516498Y-67852760D01*
X144516497Y-67852763D01*
X144487500Y-67960982D01*
X136563500Y-67960982D01*
X136563500Y-61364428D01*
X136583185Y-61297389D01*
X136599819Y-61276747D01*
X136851152Y-61025414D01*
X136912475Y-60991929D01*
X136938833Y-60989095D01*
X146787167Y-60989095D01*
X146854206Y-61008780D01*
G37*
%TD.AperFunction*%
%TD*%
M02*
