M48
; DRILL file {KiCad 9.0.0} date 2025-05-31T20:06:46-0400
; FORMAT={-:-/ absolute / metric / decimal}
; #@! TF.CreationDate,2025-05-31T20:06:46-04:00
; #@! TF.GenerationSoftware,Kicad,Pcbnew,9.0.0
; #@! TF.FileFunction,Plated,1,2,Blind
FMAT,2
METRIC
; #@! TA.AperFunction,Plated,Buried,ViaDrill
T1C0.400
%
G90
G05
T1
X113.487Y-114.554
X114.7Y-99.1
X123.275Y-120.525
X124.206Y-83.464
X125.273Y-110.896
X133.909Y-116.027
X138.887Y-74.778
X139.929Y-97.307
X140.879Y-100.899
X140.881Y-101.816
X143.104Y-80.823
X144.525Y-102.875
X145.898Y-71.272
X145.923Y-77.089
X146.685Y-91.719
X146.725Y-102.9
X147.726Y-77.076
X149.504Y-77.127
X153.01Y-100.94
X154.178Y-97.282
X156.1Y-119.27
X156.769Y-94.59
X166.67Y-113.055
X177.0Y-84.6
M30
