%TF.GenerationSoftware,KiCad,Pcbnew,9.0.0*%
%TF.CreationDate,2025-05-31T20:06:25-04:00*%
%TF.ProjectId,status,73746174-7573-42e6-9b69-6361645f7063,rev?*%
%TF.SameCoordinates,Original*%
%TF.FileFunction,Paste,Top*%
%TF.FilePolarity,Positive*%
%FSLAX46Y46*%
G04 Gerber Fmt 4.6, Leading zero omitted, Abs format (unit mm)*
G04 Created by KiCad (PCBNEW 9.0.0) date 2025-05-31 20:06:25*
%MOMM*%
%LPD*%
G01*
G04 APERTURE LIST*
G04 Aperture macros list*
%AMRoundRect*
0 Rectangle with rounded corners*
0 $1 Rounding radius*
0 $2 $3 $4 $5 $6 $7 $8 $9 X,Y pos of 4 corners*
0 Add a 4 corners polygon primitive as box body*
4,1,4,$2,$3,$4,$5,$6,$7,$8,$9,$2,$3,0*
0 Add four circle primitives for the rounded corners*
1,1,$1+$1,$2,$3*
1,1,$1+$1,$4,$5*
1,1,$1+$1,$6,$7*
1,1,$1+$1,$8,$9*
0 Add four rect primitives between the rounded corners*
20,1,$1+$1,$2,$3,$4,$5,0*
20,1,$1+$1,$4,$5,$6,$7,0*
20,1,$1+$1,$6,$7,$8,$9,0*
20,1,$1+$1,$8,$9,$2,$3,0*%
%AMRotRect*
0 Rectangle, with rotation*
0 The origin of the aperture is its center*
0 $1 length*
0 $2 width*
0 $3 Rotation angle, in degrees counterclockwise*
0 Add horizontal line*
21,1,$1,$2,0,0,$3*%
G04 Aperture macros list end*
%ADD10C,0.000000*%
%ADD11RoundRect,0.250000X0.615000X-0.435000X0.615000X0.435000X-0.615000X0.435000X-0.615000X-0.435000X0*%
%ADD12RoundRect,0.125000X0.125000X-0.250000X0.125000X0.250000X-0.125000X0.250000X-0.125000X-0.250000X0*%
%ADD13RoundRect,0.140000X0.170000X-0.140000X0.170000X0.140000X-0.170000X0.140000X-0.170000X-0.140000X0*%
%ADD14RoundRect,0.135000X-0.185000X0.135000X-0.185000X-0.135000X0.185000X-0.135000X0.185000X0.135000X0*%
%ADD15RoundRect,0.135000X0.185000X-0.135000X0.185000X0.135000X-0.185000X0.135000X-0.185000X-0.135000X0*%
%ADD16RoundRect,0.135000X0.135000X0.185000X-0.135000X0.185000X-0.135000X-0.185000X0.135000X-0.185000X0*%
%ADD17RoundRect,0.140000X-0.170000X0.140000X-0.170000X-0.140000X0.170000X-0.140000X0.170000X0.140000X0*%
%ADD18RoundRect,0.147500X-0.172500X0.147500X-0.172500X-0.147500X0.172500X-0.147500X0.172500X0.147500X0*%
%ADD19RotRect,0.700000X1.100000X288.000000*%
%ADD20RotRect,0.900000X0.930000X288.000000*%
%ADD21RotRect,1.050000X0.780000X288.000000*%
%ADD22RotRect,1.140000X1.830000X288.000000*%
%ADD23RotRect,0.860000X2.800000X288.000000*%
%ADD24RotRect,0.700000X3.330000X288.000000*%
%ADD25R,1.000000X0.750000*%
%ADD26R,0.600000X1.160000*%
%ADD27R,0.300000X1.160000*%
%ADD28R,1.400000X1.100000*%
%ADD29R,1.016000X0.304800*%
%ADD30R,0.304800X1.016000*%
%ADD31R,4.191000X4.191000*%
%ADD32R,1.200000X1.400000*%
%ADD33RoundRect,0.050000X0.387500X0.050000X-0.387500X0.050000X-0.387500X-0.050000X0.387500X-0.050000X0*%
%ADD34RoundRect,0.050000X0.050000X0.387500X-0.050000X0.387500X-0.050000X-0.387500X0.050000X-0.387500X0*%
%ADD35RoundRect,0.140000X-0.140000X-0.170000X0.140000X-0.170000X0.140000X0.170000X-0.140000X0.170000X0*%
G04 APERTURE END LIST*
D10*
%TO.C,U1*%
G36*
X138081500Y-79365500D02*
G01*
X136884500Y-79365500D01*
X136884500Y-78168500D01*
X138081500Y-78168500D01*
X138081500Y-79365500D01*
G37*
G36*
X138081500Y-80762500D02*
G01*
X136884500Y-80762500D01*
X136884500Y-79565500D01*
X138081500Y-79565500D01*
X138081500Y-80762500D01*
G37*
G36*
X138081500Y-82159500D02*
G01*
X136884500Y-82159500D01*
X136884500Y-80962500D01*
X138081500Y-80962500D01*
X138081500Y-82159500D01*
G37*
G36*
X139478500Y-79365500D02*
G01*
X138281500Y-79365500D01*
X138281500Y-78168500D01*
X139478500Y-78168500D01*
X139478500Y-79365500D01*
G37*
G36*
X139478500Y-80762500D02*
G01*
X138281500Y-80762500D01*
X138281500Y-79565500D01*
X139478500Y-79565500D01*
X139478500Y-80762500D01*
G37*
G36*
X139478500Y-82159500D02*
G01*
X138281500Y-82159500D01*
X138281500Y-80962500D01*
X139478500Y-80962500D01*
X139478500Y-82159500D01*
G37*
G36*
X140875500Y-79365500D02*
G01*
X139678500Y-79365500D01*
X139678500Y-78168500D01*
X140875500Y-78168500D01*
X140875500Y-79365500D01*
G37*
G36*
X140875500Y-80762500D02*
G01*
X139678500Y-80762500D01*
X139678500Y-79565500D01*
X140875500Y-79565500D01*
X140875500Y-80762500D01*
G37*
G36*
X140875500Y-82159500D02*
G01*
X139678500Y-82159500D01*
X139678500Y-80962500D01*
X140875500Y-80962500D01*
X140875500Y-82159500D01*
G37*
%TD*%
D11*
%TO.C,U4*%
X158900449Y-100506000D03*
X161050449Y-100506000D03*
X158900449Y-98806000D03*
X161050449Y-98806000D03*
D12*
X158070449Y-102356000D03*
X159340449Y-102356000D03*
X160610449Y-102356000D03*
X161880449Y-102356000D03*
X161880449Y-96956000D03*
X160610449Y-96956000D03*
X159340449Y-96956000D03*
X158070449Y-96956000D03*
%TD*%
D13*
%TO.C,C15*%
X153339800Y-98295400D03*
X153339800Y-97335400D03*
%TD*%
%TO.C,C7*%
X152146000Y-101876800D03*
X152146000Y-100916800D03*
%TD*%
D14*
%TO.C,R13*%
X145923000Y-78486000D03*
X145923000Y-79506000D03*
%TD*%
D15*
%TO.C,R8*%
X125300000Y-114810000D03*
X125300000Y-113790000D03*
%TD*%
D16*
%TO.C,R7*%
X116710000Y-108800000D03*
X115690000Y-108800000D03*
%TD*%
D17*
%TO.C,C5*%
X147713700Y-78496000D03*
X147713700Y-79456000D03*
%TD*%
D13*
%TO.C,C12*%
X141846600Y-102775600D03*
X141846600Y-101815600D03*
%TD*%
D17*
%TO.C,C10*%
X144805400Y-90756800D03*
X144805400Y-91716800D03*
%TD*%
D15*
%TO.C,R3*%
X146125000Y-88710000D03*
X146125000Y-87690000D03*
%TD*%
D13*
%TO.C,C22*%
X131500000Y-84530000D03*
X131500000Y-83570000D03*
%TD*%
D18*
%TO.C,D1*%
X156100000Y-114840000D03*
X156100000Y-115810000D03*
%TD*%
D13*
%TO.C,C9*%
X142925800Y-105458200D03*
X142925800Y-104498200D03*
%TD*%
D17*
%TO.C,C14*%
X141833600Y-99900800D03*
X141833600Y-100860800D03*
%TD*%
D19*
%TO.C,J4*%
X177139232Y-81073265D03*
X177479151Y-82119427D03*
X177819070Y-83165589D03*
X178158989Y-84211751D03*
X178498907Y-85257914D03*
X178838826Y-86304076D03*
X179178745Y-87350238D03*
X179518663Y-88396400D03*
D20*
X164731173Y-83222772D03*
D21*
X165977801Y-87302203D03*
D22*
X175925981Y-77387801D03*
D23*
X179376872Y-89578050D03*
D24*
X165158611Y-80655010D03*
X169163471Y-92980702D03*
%TD*%
D14*
%TO.C,R14*%
X156100000Y-117340000D03*
X156100000Y-118360000D03*
%TD*%
D15*
%TO.C,R15*%
X114225000Y-95395000D03*
X114225000Y-94375000D03*
%TD*%
D16*
%TO.C,R9*%
X133810000Y-109100000D03*
X132790000Y-109100000D03*
%TD*%
D25*
%TO.C,S7*%
X116700000Y-110825000D03*
X122700000Y-110825000D03*
X116700000Y-114575000D03*
X122700000Y-114575000D03*
%TD*%
D26*
%TO.C,J6*%
X143220000Y-115030000D03*
X144020000Y-115030000D03*
D27*
X145170000Y-115030000D03*
X146170000Y-115030000D03*
X146670000Y-115030000D03*
X147670000Y-115030000D03*
D26*
X148820000Y-115030000D03*
X149620000Y-115030000D03*
X149620000Y-115030000D03*
X148820000Y-115030000D03*
D27*
X148170000Y-115030000D03*
X147170000Y-115030000D03*
X145670000Y-115030000D03*
X144670000Y-115030000D03*
D26*
X144020000Y-115030000D03*
X143220000Y-115030000D03*
%TD*%
D28*
%TO.C,X1*%
X148150400Y-89133701D03*
X150350400Y-89133701D03*
X150350400Y-87533699D03*
X148150400Y-87533699D03*
%TD*%
D17*
%TO.C,C4*%
X149504400Y-78496000D03*
X149504400Y-79456000D03*
%TD*%
D14*
%TO.C,R5*%
X145150000Y-104646000D03*
X145150000Y-105666000D03*
%TD*%
D17*
%TO.C,C18*%
X145150000Y-87720000D03*
X145150000Y-88680000D03*
%TD*%
%TO.C,C6*%
X128250000Y-78795000D03*
X128250000Y-79755000D03*
%TD*%
D25*
%TO.C,S9*%
X125300000Y-116725000D03*
X131300000Y-116725000D03*
X125300000Y-120475000D03*
X131300000Y-120475000D03*
%TD*%
D17*
%TO.C,C17*%
X158115000Y-93627000D03*
X158115000Y-94587000D03*
%TD*%
D29*
%TO.C,U1*%
X141674000Y-82114001D03*
X141674000Y-81464000D03*
X141674000Y-80813999D03*
X141674000Y-80164000D03*
X141674000Y-79514001D03*
X141674000Y-78864000D03*
X141674000Y-78214001D03*
D30*
X140830001Y-77370000D03*
X140180000Y-77370000D03*
X139530001Y-77370000D03*
X138880000Y-77370000D03*
X138230001Y-77370000D03*
X137580000Y-77370000D03*
X136930001Y-77370000D03*
D29*
X136086000Y-78213999D03*
X136086000Y-78864000D03*
X136086000Y-79513999D03*
X136086000Y-80164000D03*
X136086000Y-80813999D03*
X136086000Y-81464000D03*
X136086000Y-82113999D03*
D30*
X136929999Y-82958000D03*
X137580000Y-82958000D03*
X138229999Y-82958000D03*
X138880000Y-82958000D03*
X139529999Y-82958000D03*
X140180000Y-82958000D03*
X140829999Y-82958000D03*
D31*
X138880000Y-80164000D03*
%TD*%
D32*
%TO.C,Y1*%
X131400000Y-82075000D03*
X131400000Y-79875000D03*
X129700000Y-79875000D03*
X129700000Y-82075000D03*
%TD*%
D17*
%TO.C,C20*%
X145821400Y-90756800D03*
X145821400Y-91716800D03*
%TD*%
D14*
%TO.C,R4*%
X146685000Y-104646000D03*
X146685000Y-105666000D03*
%TD*%
D25*
%TO.C,S11*%
X117075000Y-95375000D03*
X123075000Y-95375000D03*
X117075000Y-99125000D03*
X123075000Y-99125000D03*
%TD*%
D33*
%TO.C,U2*%
X150567500Y-100902500D03*
X150567500Y-100502500D03*
X150567500Y-100102500D03*
X150567500Y-99702500D03*
X150567500Y-99302500D03*
X150567500Y-98902500D03*
X150567500Y-98502500D03*
X150567500Y-98102500D03*
X150567500Y-97702500D03*
X150567500Y-97302500D03*
X150567500Y-96902500D03*
X150567500Y-96502500D03*
X150567500Y-96102500D03*
X150567500Y-95702500D03*
D34*
X149730000Y-94865000D03*
X149330000Y-94865000D03*
X148930000Y-94865000D03*
X148530000Y-94865000D03*
X148130000Y-94865000D03*
X147730000Y-94865000D03*
X147330000Y-94865000D03*
X146930000Y-94865000D03*
X146530000Y-94865000D03*
X146130000Y-94865000D03*
X145730000Y-94865000D03*
X145330000Y-94865000D03*
X144930000Y-94865000D03*
X144530000Y-94865000D03*
D33*
X143692500Y-95702500D03*
X143692500Y-96102500D03*
X143692500Y-96502500D03*
X143692500Y-96902500D03*
X143692500Y-97302500D03*
X143692500Y-97702500D03*
X143692500Y-98102500D03*
X143692500Y-98502500D03*
X143692500Y-98902500D03*
X143692500Y-99302500D03*
X143692500Y-99702500D03*
X143692500Y-100102500D03*
X143692500Y-100502500D03*
X143692500Y-100902500D03*
D34*
X144530000Y-101740000D03*
X144930000Y-101740000D03*
X145330000Y-101740000D03*
X145730000Y-101740000D03*
X146130000Y-101740000D03*
X146530000Y-101740000D03*
X146930000Y-101740000D03*
X147330000Y-101740000D03*
X147730000Y-101740000D03*
X148130000Y-101740000D03*
X148530000Y-101740000D03*
X148930000Y-101740000D03*
X149330000Y-101740000D03*
X149730000Y-101740000D03*
%TD*%
D16*
%TO.C,R10*%
X125310000Y-103400000D03*
X124290000Y-103400000D03*
%TD*%
D14*
%TO.C,R11*%
X144780000Y-112266000D03*
X144780000Y-113286000D03*
%TD*%
D16*
%TO.C,R6*%
X156339000Y-102362000D03*
X155319000Y-102362000D03*
%TD*%
D14*
%TO.C,R12*%
X148160000Y-112266000D03*
X148160000Y-113286000D03*
%TD*%
D35*
%TO.C,C23*%
X148084600Y-91160600D03*
X149044600Y-91160600D03*
%TD*%
D25*
%TO.C,S8*%
X125300000Y-105125000D03*
X131300000Y-105125000D03*
X125300000Y-108875000D03*
X131300000Y-108875000D03*
%TD*%
D13*
%TO.C,C8*%
X148488400Y-107312400D03*
X148488400Y-106352400D03*
%TD*%
%TO.C,C16*%
X140919200Y-98244600D03*
X140919200Y-97284600D03*
%TD*%
D25*
%TO.C,S10*%
X133900000Y-110825000D03*
X139900000Y-110825000D03*
X133900000Y-114575000D03*
X139900000Y-114575000D03*
%TD*%
D13*
%TO.C,C3*%
X150926800Y-73530400D03*
X150926800Y-72570400D03*
%TD*%
M02*
